<svg id="圖層_1" data-name="圖層 1" xmlns="http://www.w3.org/2000/svg" viewBox="0 0 194.94 294.58"><defs><style>.cls-1{fill:#fff;}.cls-2{fill:#170000;}.cls-3{fill:#da003a;}.cls-4{fill:#c21823;}.cls-5{fill:#858585;}</style></defs><title>新接龍</title><rect class="cls-1" x="12.88" y="12.85" width="169" height="265.73"/><path d="M183.88,280.58h-173V10.85h173Zm-169-4h165V14.85h-165Z"/><path d="M183.88,280.58h-173V10.85h173Zm-169-4h165V14.85h-165Z"/><path class="cls-2" d="M28.77,41.07q1.1-2.37,2.08-4.77c.67-1.6,1.59-3.86,2.78-6.79l.95-2.37-5.94.08-.85,2.67-1.28-.24.42-4h9.15l.42.54-2.75,7.71c-1.18,3.32-2.08,5.89-2.73,7.74Z"/><polygon class="cls-3" points="163.8 21.52 155.06 31.34 163.8 41.16 172.54 31.34 163.8 21.52"/><path d="M132.9,168.64c-2.16,0-6.12-1.84-7.36-3.86-1.53-2.5-1.34-6.81-1.33-7a.75.75,0,0,1,1.5.07s-.18,4,1.11,6.13c1.15,1.87,5.45,3.46,6.38,3.13.27-1.85-.1-8.74-.78-9.7a57.47,57.47,0,0,0-4.27-4.16c-1.92-1.78-3.9-3.62-5-4.8-1.61-1.77-6.21-2.41-7.84-2.51-.13,0-8.26-1-12.44,2.79a.76.76,0,0,1-.85.11,12.56,12.56,0,0,1-5.7-7.68,35.2,35.2,0,0,1-1.27-3.49,10.91,10.91,0,0,0-1.87,3.39c-.5,1.39-1.16,4,0,6.21a55.87,55.87,0,0,1,3.94,10.24h0s1,2.24,4.62,4.08a.76.76,0,0,1,.33,1,.75.75,0,0,1-1,.33c-4.26-2.15-5.33-4.85-5.37-5a56.07,56.07,0,0,0-3.84-10c-1.9-3.69.07-8.6,1.77-10.83.74-1,1.37-1.38,2-1.26a1,1,0,0,1,.79.81,31.64,31.64,0,0,0,1.39,3.95.36.36,0,0,1,0,.11,11.39,11.39,0,0,0,4.54,6.52c4.76-3.78,12.8-2.85,13.14-2.81s6.47.42,8.82,3c1,1.14,3,3,4.88,4.71a53.82,53.82,0,0,1,4.47,4.39c1.13,1.58,1.29,9.36,1,10.92a1.39,1.39,0,0,1-1.22,1.12A3.1,3.1,0,0,1,132.9,168.64Z"/><path d="M50.9,211a.75.75,0,0,1-.26,0,.76.76,0,0,1-.45-1c5.07-13.68,23.16-18.66,29.7-19.43,5.93-.69,10.19-2,12.66-4C96.06,183.74,98,178,99.3,174.2a26.13,26.13,0,0,1,1.25-3.29c1.1-2,0-4.51-.06-4.54a.49.49,0,0,1-.06-.17c-.67-3.26,2-10.2,2.1-10.5a.76.76,0,0,1,1-.43.75.75,0,0,1,.43,1c-.72,1.87-2.48,7.2-2,9.58a7,7,0,0,1,0,5.8,27.11,27.11,0,0,0-1.15,3.07c-1.35,4-3.38,9.94-7.24,13-2.72,2.19-7.11,3.61-13.41,4.34s-23.66,5.48-28.47,18.46A.74.74,0,0,1,50.9,211Z"/><path d="M46.87,219.93a19.34,19.34,0,0,1-9.95-2.54c-8.89-5.25-10.41-11.93-10.56-12.67s-3.19-10.81,4.44-16.51c2.82-2.1,5.33-2.84,7.45-2.2a6.13,6.13,0,0,1,3.68,3.58.77.77,0,0,1-.19.8.76.76,0,0,1-.81.14,4.75,4.75,0,0,0-4.1.49c-2.11,1.28-4.76,8.31-1.08,14.61,3.41,5.82,16.78,3.86,18.68,3.37a.75.75,0,1,1,.38,1.45c-.15,0-16,3.34-20.35-4.06a15.19,15.19,0,0,1-1.82-10.24c.52-3,1.86-5.47,3.41-6.41a6.35,6.35,0,0,1,3.69-1,4,4,0,0,0-1.94-1.35c-1.64-.49-3.7.17-6.11,2-7.06,5.29-3.92,14.79-3.89,14.89l0,.11c0,.07,1.28,6.62,9.85,11.69s19.76.19,19.87.14a.76.76,0,0,1,1,.38.75.75,0,0,1-.38,1A30.41,30.41,0,0,1,46.87,219.93Z"/><path d="M126.51,250.8a3.75,3.75,0,0,1-1.52-.29,2.63,2.63,0,0,1-1.42-1.65,8.72,8.72,0,0,0-1.14-1.77c-1.12-1.5-2.66-3.55-2.93-6a70.12,70.12,0,0,0-1.65-7.88c-.29-1.14-.42-1.7-.46-2l-.37-.54a12.09,12.09,0,0,1-2.39-7.65l0-1.36c.14-6.17.46-20.6.13-23.1a.75.75,0,0,1,1.49-.2c.31,2.31.11,13.09-.12,23.33l0,1.36a10.68,10.68,0,0,0,2.13,6.77,2.88,2.88,0,0,1,.62,1.21c0,.18.22,1,.42,1.77A71.07,71.07,0,0,1,121,240.9c.23,2.07,1.57,3.86,2.64,5.3a8.38,8.38,0,0,1,1.37,2.21,1.09,1.09,0,0,0,.62.73c.45.21,1.59.4,4.1-.67.88-.37,1.33-.88,1.38-1.55a3,3,0,0,0-.89-2.11c-1.13-.29-4-2.85-5.39-8.08-1.23-4.74-.41-14.31.13-20.65.07-.84.14-1.62.19-2.34.5-6.22-.68-17.91-1.3-20.08-.76-2.64-1.62-18.1-1-20.57.61-2.22,1.55-11.64,1.56-11.73a.74.74,0,0,1,.82-.67.75.75,0,0,1,.67.82c0,.39-1,9.63-1.6,12-.59,2.17.26,17.39.94,19.76.74,2.59,1.85,14.45,1.36,20.61-.06.72-.13,1.51-.2,2.35-.53,6.23-1.33,15.65-.16,20.15,1.28,4.95,3.93,6.88,4.28,7,.81.07,1.8,1.64,2,2.88a3.27,3.27,0,0,1-2.25,3.61A10.15,10.15,0,0,1,126.51,250.8Zm3.84-6Zm-.17-.05Z"/><path d="M66,270.41a5,5,0,0,1-1.81-.3,3,3,0,0,1-1.84-1.83c-.23-.66-.58-1.45-1-2.36a26.52,26.52,0,0,1-2.64-8.56,102.07,102.07,0,0,1-.12-10.45,5.74,5.74,0,0,1,.5-2.19l3.13-7c.07-.13,2.87-4.81,2.44-7.66a8.53,8.53,0,0,0-1.14-3.27c-3.6,4.65-11.17,15.39-11,19.73A38.38,38.38,0,0,0,55.29,258c.1.31.78,2.51-.48,3.83-.88.92-2.39,1.09-4.5.51-6.17-1.72-6.23-5.8-6.23-6-.08-1.23-.73-12.54.44-15.44.79-1.94-.05-5.17-.45-6.46a3.37,3.37,0,0,1,.07-2.22,14.63,14.63,0,0,1,4.23-6c2.94-2.44,1.06-6.81,1-6.85a.76.76,0,0,1,.39-1,.75.75,0,0,1,1,.39c.1.22,2.33,5.45-1.46,8.6a13.18,13.18,0,0,0-3.79,5.34,1.91,1.91,0,0,0,0,1.25c.55,1.8,1.34,5.16.41,7.46s-.55,11.46-.34,14.84c0,.17.12,3.18,5.14,4.57,1.48.41,2.54.38,3-.09s.3-1.86.17-2.27a38.9,38.9,0,0,1-2.8-12c-.26-6.09,11.39-20.85,11.89-21.48a.73.73,0,0,1,.51-.28.78.78,0,0,1,.57.18,8.21,8.21,0,0,1,2.13,4.83c.52,3.38-2.47,8.36-2.59,8.57l-3.09,6.91a4.21,4.21,0,0,0-.37,1.63,101,101,0,0,0,.11,10.27,25.17,25.17,0,0,0,2.52,8.07c.42.95.79,1.76,1,2.49a1.45,1.45,0,0,0,1,.92c1.47.56,4.17,0,6.72-1.49.43-.25,1-.63,1-1.06,0-1.06-2.42-2.54-3.45-3.17l-.36-.22c-2.1-1.3-3.54-7.85-2.45-11.13.68-2,2.83-3.62,5.32-5.45a43.79,43.79,0,0,0,5-4.06,6.09,6.09,0,0,0,2.2-5.23A19,19,0,0,1,80,230.08c2.45-6.47,5.32-6.89,6.2-6.85a62.54,62.54,0,0,1,8.16-1.86,93.59,93.59,0,0,0,12.16-2.85c7.51-2.44,8.62-11.15,8.63-11.24a.75.75,0,1,1,1.49.18c0,.39-1.25,9.76-9.66,12.49a94.69,94.69,0,0,1-12.35,2.89,60.09,60.09,0,0,0-8.1,1.86.7.7,0,0,1-.38,0h0s-2.44-.19-4.75,5.88a17.53,17.53,0,0,0-1.21,6.33,7.54,7.54,0,0,1-2.65,6.26,45,45,0,0,1-5.14,4.2c-2.29,1.68-4.26,3.13-4.79,4.72-1,2.86.57,8.6,1.82,9.38l.35.21c1.57,1,4.2,2.55,4.17,4.47a2.83,2.83,0,0,1-1.72,2.34A13.23,13.23,0,0,1,66,270.41Z"/><path d="M105.71,244.4c-2.15,0-5.89-.86-6.83-3.53-1.17-3.32-2.15-18.62-2.19-19.27a.75.75,0,1,1,1.49-.1c0,.16,1,15.74,2.11,18.87.78,2.21,4.95,2.79,6.16,2.47a3.4,3.4,0,0,0,2.17-1.43,2.36,2.36,0,0,0,.24-1.78,8.79,8.79,0,0,0-1.42-2.16,14.17,14.17,0,0,1-2.51-4.15c-.81-2.59-1-12.38-1-12.79a.75.75,0,0,1,.74-.76h0a.74.74,0,0,1,.75.73c0,2.77.29,10.39.91,12.37a12.62,12.62,0,0,0,2.26,3.68,9.3,9.3,0,0,1,1.68,2.69,3.82,3.82,0,0,1-.4,2.92,4.77,4.77,0,0,1-3.09,2.14A4.72,4.72,0,0,1,105.71,244.4Z"/><path d="M112.92,145.08s2.46,10.89-11.15,23.78l-.39-6.59s-4.12-2.34-5.52-6.3-1.77-7-3.37-8.35.4-10.69,3.14-10.75l3.06,7.71,3.71,3.6S108.68,144.76,112.92,145.08Z"/><path d="M101.77,169.61a.86.86,0,0,1-.27-.05.77.77,0,0,1-.48-.66l-.37-6.2a13.88,13.88,0,0,1-5.5-6.48c-.43-1.22-.77-2.36-1.06-3.36C93.45,150.71,93,149,92,148.19c-1.43-1.25-.73-5.62.19-8.18.63-1.75,1.73-3.85,3.42-3.89a.79.79,0,0,1,.72.47l3,7.57,3.2,3.11c1.6-.81,6.69-3.21,10.44-2.94a.76.76,0,0,1,.68.58c.1.46,2.4,11.46-11.36,24.49A.73.73,0,0,1,101.77,169.61Zm-6.57-31.8a6,6,0,0,0-1.6,2.71c-1.12,3.11-1.07,6.14-.61,6.53,1.27,1.11,1.83,3,2.54,5.38.29,1,.62,2.11,1,3.29,1.28,3.64,5.14,5.87,5.18,5.9a.75.75,0,0,1,.38.6l.29,5c10.24-10.33,10.09-19.11,9.85-21.37-4,0-9.46,3-9.51,3a.74.74,0,0,1-.88-.12l-3.71-3.6a.68.68,0,0,1-.18-.26Z"/><path d="M123.62,170.91s-9-11.5-10.53-16.07a20.05,20.05,0,0,1-.17-9.76s9.08-.32,10.81,2.88,9.3,9,9.3,9,.94,8.56.89,10.36-6-1.67-7.74-3-2.56-2-2.56-2l1.19,2.65Z"/><path d="M123.62,171.66a.74.74,0,0,1-.59-.28c-.38-.48-9.14-11.66-10.65-16.31a20.48,20.48,0,0,1-.19-10.18.75.75,0,0,1,.7-.56c1,0,9.61-.23,11.5,3.27,1.63,3,9,8.73,9.09,8.79a.71.71,0,0,1,.29.51c0,.35.95,8.63.9,10.46a1.21,1.21,0,0,1-.68,1.09c-1.93,1-8.19-3.42-8.26-3.46a1.33,1.33,0,0,0-.19-.14.8.8,0,0,1,0,.31l-1.2,5.9a.74.74,0,0,1-.56.58A.52.52,0,0,1,123.62,171.66Zm-10.1-25.84a19,19,0,0,0,.28,8.79c1.15,3.5,7,11.42,9.41,14.54l.82-4.05-1.1-2.43a.75.75,0,0,1,1.19-.87s.81.74,2.5,2c1.93,1.42,5.48,3.27,6.55,3.33,0-1.88-.69-8.24-.85-9.73-1.37-1.07-7.63-6.07-9.25-9.07C122,146.4,116.88,145.77,113.52,145.82Z"/><path d="M66.08,195.47s-2,7.29-.94,11.9c1,4.09,4.34,10.49,8.72,11.65,6,1.58,13.29-4.91,17.94-7.9,10-6.41,17.89-18.28,17.89-18.28s1.32-3.25-6.13-6.31-10.54.6-10.54.6-.15,1.58-8.21,3S66.08,195.47,66.08,195.47Z"/><path d="M75.82,220a8.74,8.74,0,0,1-2.15-.27c-4.73-1.26-8.26-7.9-9.26-12.21-1.09-4.74.87-12,1-12.27a.76.76,0,0,1,.46-.51c.11,0,10.82-4,18.86-5.41,6.38-1.09,7.5-2.29,7.62-2.44a.82.82,0,0,1,.14-.26c.14-.17,3.54-4,11.41-.81,8,3.31,6.6,7.12,6.53,7.28a.54.54,0,0,1-.07.13c-.33.49-8.1,12.08-18.1,18.5-.85.55-1.8,1.22-2.81,1.94C85.35,216.55,80.45,220,75.82,220Zm-9.11-24c-.38,1.52-1.71,7.37-.84,11.17s4.1,10,8.18,11.1c4.53,1.19,10-2.71,14.49-5.84,1-.72,2-1.4,2.86-2,9.29-6,16.86-16.89,17.6-18,.07-.36.32-2.8-5.72-5.28-6.22-2.56-9.08-.21-9.61.3-.39.85-2.16,2.17-8.74,3.29C77.86,192,68.64,195.33,66.71,196Zm25.56-9Zm0,0Zm0,0Zm0,0Z"/><path class="cls-4" d="M98.93,178.28c-1.38-3.91,6.37-3.31,8-3.24,4.81.2,9.59.4,14.4.39,1.49,0,2.92-.5,4.24.58,1.57,1.27,1.57,4.59-.71,4.55-6-.11-12.12.15-18.15-.31C104.85,180.15,99.8,180.74,98.93,178.28Z"/><path d="M113.78,179.28c-2.38,0-4.78,0-7.15-.19h-1.06c-2.25,0-5.64.08-6.45-2a2.14,2.14,0,0,1,.18-2.1c1.11-1.57,4.51-1.64,7.35-1.53h.28c4.11.13,8.37.26,12.64.23a8.49,8.49,0,0,0,.88-.05,4.5,4.5,0,0,1,3.29.64,3.15,3.15,0,0,1,1.13,3.42,2.18,2.18,0,0,1-2.19,1.53h0c-1.77,0-3.55,0-5.32,0Zm-7.52-1.7h.45c3.52.22,7.12.2,10.6.17,1.79,0,3.58,0,5.36,0h0a.71.71,0,0,0,.77-.5,1.69,1.69,0,0,0-.59-1.74,3.18,3.18,0,0,0-2.29-.35c-.33,0-.66.05-1,.05-4.29,0-8.57-.1-12.7-.23h-.29c-4.36-.18-5.71.39-6.07.9,0,.07-.17.24,0,.69h0c.43,1.1,3.54,1.05,5,1Z"/><path class="cls-4" d="M100,177.9s-7.72-2.5-12.14,7.21C87.88,185.11,98.85,186.72,100,177.9Z"/><path class="cls-4" d="M87.67,166.47s8-1.25,10.83,9C98.5,175.51,87.41,175.36,87.67,166.47Z"/><path d="M90.58,183.64a14.75,14.75,0,0,1-1.88-.11l-1-.15.41-.9c4.17-9.18,11.68-6.87,11.76-6.85l.59.2-.08.61a7.49,7.49,0,0,1-2.91,5.23A11.66,11.66,0,0,1,90.58,183.64ZM90,182.13c1.57.06,4.54-.07,6.63-1.66a5.88,5.88,0,0,0,2.2-3.55C97.2,176.66,92.94,176.57,90,182.13Z"/><path d="M99.89,176.68l-1-.14c-.22,0-5.34-.8-7.9-4.28a7.49,7.49,0,0,1-1.3-5.84l.1-.62h.62c.08,0,7.94-.09,9.33,9.91Zm-8.79-9.35a5.91,5.91,0,0,0,1.1,4c1.56,2.12,4.37,3.08,5.88,3.47C96.81,168.63,92.71,167.52,91.1,167.33Z"/><path d="M179.53,90.71a81.44,81.44,0,0,1-35.71-11.84c-4.81-2.92-9-6.48-13.47-9.83-4.29-3.21-10.46-1.7-14.35-5-1.21-1-3,.72-1.77,1.77,4,3.44,9.34,1.85,13.66,4.52,5.6,3.49,10.34,8.23,16.12,11.6a83.44,83.44,0,0,0,35.52,11.32c1.6.12,1.59-2.38,0-2.5Z"/><path d="M130.17,69a58,58,0,0,0,.42-9.68c-.06-1.6-2.56-1.61-2.5,0a58,58,0,0,1-.42,9.68c-.2,1.59,2.31,1.58,2.5,0Z"/><path d="M133.86,72.58a141.05,141.05,0,0,1-17.32.8,1.25,1.25,0,0,0,0,2.5,141.05,141.05,0,0,0,17.32-.8c1.59-.17,1.6-2.67,0-2.5Z"/><path d="M142.05,77.6a22.74,22.74,0,0,1-3.26-10c-.13-1.59-2.63-1.61-2.5,0a25.49,25.49,0,0,0,3.6,11.24,1.25,1.25,0,0,0,2.16-1.26Z"/><path d="M147.51,82.33q-7.89,2.81-15.94,5.15a1.25,1.25,0,0,0,.66,2.41q8.06-2.34,16-5.15c1.5-.54.86-2.95-.67-2.41Z"/><path d="M158.26,86.29c-.93-4.15-2.66-8-3.92-12.08-.48-1.53-2.89-.88-2.41.66,1.26,4,3,7.94,3.92,12.09.35,1.57,2.76.9,2.41-.67Z"/><path d="M162.52,87.69l-11.6,4.82c-1.46.61-.82,3,.66,2.41l11.61-4.82c1.46-.6.82-3-.67-2.41Z"/><path d="M173.11,89.87A34.48,34.48,0,0,1,167.34,77c-.35-1.57-2.76-.91-2.42.66a36.18,36.18,0,0,0,6,13.5c.93,1.3,3.1.05,2.15-1.26Z"/><path d="M176.31,91.3l-17.42,10.54a1.25,1.25,0,0,0,1.27,2.16l17.41-10.54a1.25,1.25,0,0,0-1.26-2.16Z"/><path d="M182,139.85c-24.28-18.21-50.31-37-81.85-38-1.61,0-1.61,2.45,0,2.5,31,1,56.71,19.79,80.59,37.7,1.28,1,2.53-1.2,1.26-2.16Z"/><path d="M164.93,119a55.78,55.78,0,0,1-.3,9.67c-.19,1.59,2.31,1.58,2.5,0a55.78,55.78,0,0,0,.3-9.67c-.09-1.6-2.59-1.61-2.5,0Z"/><path d="M172.24,134.23a48.83,48.83,0,0,1-5.48,1.12c-1.59.16-1.61,2.66,0,2.5a56.15,56.15,0,0,0,6.15-1.21c1.57-.33.91-2.74-.67-2.41Z"/><path d="M159.51,123.94a49.72,49.72,0,0,0-2.42-9c-.55-1.5-3-.85-2.41.66a50.17,50.17,0,0,1,2.42,9c.27,1.59,2.68.91,2.41-.66Z"/><path d="M158.3,123a111,111,0,0,0-12.76.68c-1.59.23-.91,2.63.66,2.41a106.22,106.22,0,0,1,12.1-.59c1.61,0,1.62-2.55,0-2.5Z"/><path d="M151.45,118.94c-1.53-4.49-4.22-8.36-6.78-12.32-.87-1.34-3-.09-2.16,1.27,2.43,3.75,5.08,7.45,6.53,11.72.51,1.51,2.93.86,2.41-.67Z"/><path d="M144.54,114.94l-15.32,1.54c-1.58.16-1.6,2.67,0,2.5l15.32-1.54c1.58-.16,1.6-2.66,0-2.5Z"/><path d="M136.07,111c-1.44-3.84-3.53-7.36-5.33-11-.7-1.45-2.86-.18-2.15,1.26,1.69,3.48,3.71,6.81,5.07,10.45.56,1.49,3,.84,2.41-.67Z"/><path d="M129.33,108.21l-10.78,1.87c-1.59.28-.92,2.69.66,2.41L130,110.62c1.58-.27.91-2.68-.67-2.41Z"/><path d="M123.19,105.6a26,26,0,0,0-7-9.28c-1.19-1.08-3,.68-1.77,1.77,2.6,2.38,5,4.86,6.38,8.18.6,1.46,3,.82,2.41-.67Z"/><path d="M110.92,103.23l-13.73,6.19c-1.46.66-.19,2.81,1.26,2.16l13.73-6.2c1.47-.66.2-2.81-1.26-2.15Z"/><polygon class="cls-3" points="117.88 72.92 106.9 68.49 99.17 77.46 110.15 81.88 117.88 72.92"/><path d="M111.75,85.34l-12.45-5,8.76-10.16,12.46,5Zm-10-5.63,9.51,3.84,6.7-7.77L108.5,72Z"/><polygon class="cls-3" points="128.33 67.11 138.37 60.83 135.66 49.3 125.62 55.58 128.33 67.11"/><path d="M125,67.91l-3.07-13.07,11.37-7.12,3.08,13.07Zm-1.37-12.37,2.35,10,8.69-5.45-2.35-10Z"/><polygon class="cls-3" points="104.62 108.61 93.64 104.19 85.91 113.16 96.89 117.58 104.62 108.61"/><path d="M98.48,121,86,116l8.77-10.16,12.45,5Zm-9.94-5.63,9.51,3.84,6.7-7.77-9.52-3.83Z"/><polygon class="cls-3" points="143.96 84.35 132.98 79.93 125.25 88.89 136.23 93.32 143.96 84.35"/><path d="M137.83,96.78l-12.45-5,8.76-10.17,12.46,5Zm-10-5.63L137.39,95l6.7-7.76-9.51-3.83Z"/><polygon class="cls-3" points="140.52 116.44 129.54 112.02 121.81 120.98 132.79 125.41 140.52 116.44"/><path d="M134.39,128.87l-12.46-5,8.77-10.17,12.45,5Zm-9.95-5.63,9.51,3.83,6.7-7.76-9.51-3.83Z"/><polygon class="cls-3" points="166.03 127.85 175.94 121.38 173.03 109.91 163.11 116.38 166.03 127.85"/><path d="M162.67,128.71l-3.31-13,11.24-7.33,3.31,13Zm-1.59-12.34,2.53,9.94,8.59-5.6-2.53-9.94Z"/><path class="cls-5" d="M159.34,145c-4.07.87-8.41-3.29-8.41-3.29s2.26-5.57,6.34-6.44,8.41,3.29,8.41,3.29S163.42,144.08,159.34,145Z"/><path d="M158,143.81c-4,0-7.61-3.46-7.78-3.62l-.37-.35.2-.47c.1-.25,2.46-6,6.87-6.89s10,3.35,10.27,3.53l.55.42-.37.58c-.15.23-3.73,5.74-8.06,6.66h0A5.9,5.9,0,0,1,158,143.81Zm-6.35-4.36c1.11.94,4.38,3.39,7.35,2.76s5.69-4,6.7-5.42c-1.49-1-5.49-3.48-8.46-2.85S152.3,138.15,151.67,139.45Z"/><path class="cls-5" d="M145.12,131.51c-4.08.87-8.42-3.29-8.42-3.29s2.27-5.57,6.34-6.43,8.42,3.28,8.42,3.28S149.19,130.64,145.12,131.51Z"/><path d="M143.79,130.37c-3.95,0-7.6-3.45-7.77-3.62l-.37-.35.19-.47c.1-.24,2.47-6,6.88-6.89s10,3.35,10.27,3.53l.55.42-.38.58c-.14.24-3.72,5.74-8,6.67A6.56,6.56,0,0,1,143.79,130.37ZM137.45,126c1.11.93,4.36,3.38,7.35,2.75h0c3-.63,5.69-4,6.69-5.42-1.48-1-5.49-3.47-8.46-2.84S138.08,124.71,137.45,126Z"/><path class="cls-5" d="M151.79,108.48c.52,4.14-4,8.12-4,8.12s-5.36-2.73-5.88-6.86,4-8.11,4-8.11S151.26,104.35,151.79,108.48Z"/><path d="M145.9,117.49l-.45-.23c-.24-.12-5.72-3-6.29-7.43s4.17-9.71,4.38-9.94l.46-.51.55.42c.22.17,5.41,4.19,6,8.59h0c.57,4.47-4,8.59-4.23,8.76Zm-1.71-16c-1.13,1.39-3.93,5.18-3.55,8.19s3.78,5.29,5,6c1-1,3.74-4.08,3.36-7.09h0C148.64,105.57,145.48,102.56,144.19,101.45Z"/><path class="cls-5" d="M145.69,69.29c-1.11,4-6.8,5.94-6.8,5.94s-3.9-4.58-2.79-8.59,6.81-6,6.81-6S146.8,65.27,145.69,69.29Z"/><path d="M136.79,75.33l-.33-.39c-.17-.2-4.14-4.94-2.94-9.28s7.6-7.35,7.87-7.48l.63-.3.34.6c.14.24,3.37,6,2.19,10.22h0c-1.2,4.34-7,6.37-7.28,6.45Zm4.6-15.47c-1.58.85-5.62,3.27-6.43,6.2s1.45,6.33,2.32,7.49c1.34-.55,5-2.31,5.83-5.24h0C143.91,65.39,142.16,61.39,141.39,59.86Z"/><polygon class="cls-3" points="167.43 84.34 172.92 73.86 164.77 65.27 159.28 75.76 167.43 84.34"/><path d="M164.92,86.74,155.68,77l6.23-11.89,9.24,9.74Zm-7.42-10,7.06,7.43,4.76-9.08-7.06-7.44Z"/><path d="M63.08,109.28a.55.55,0,0,1-.18,0C47.08,105.31,33.52,87,33,86.21a.76.76,0,0,1,.16-1,.75.75,0,0,1,1,.17c.14.18,13.81,18.66,29.1,22.48a.75.75,0,0,1,.55.9A.75.75,0,0,1,63.08,109.28Z"/><path d="M64.83,121.84a.55.55,0,0,1-.18,0c-15.82-3.95-29.38-22.27-29.95-23a.75.75,0,0,1,1.21-.88c.14.18,13.81,18.66,29.1,22.48a.75.75,0,0,1-.18,1.47Z"/><path d="M72.29,103.21a.62.62,0,0,1-.19,0c-15.81-4-29.37-22.27-29.94-23a.75.75,0,1,1,1.21-.88c.14.18,13.81,18.66,29.1,22.48a.75.75,0,0,1-.18,1.47Z"/></svg>