<svg id="圖層_1" data-name="圖層 1" xmlns="http://www.w3.org/2000/svg" xmlns:xlink="http://www.w3.org/1999/xlink" viewBox="0 0 194.94 294.58"><defs><style>.cls-1{fill:none;}.cls-2{fill:#fff;}.cls-3{fill:#170000;}.cls-4{clip-path:url(#clip-path);}.cls-5{fill:#c21823;}.cls-6{clip-path:url(#clip-path-2);}</style><clipPath id="clip-path"><rect class="cls-1" x="14.4" y="68.96" width="119.63" height="114.16"/></clipPath><clipPath id="clip-path-2"><rect class="cls-1" x="233.39" y="68.96" width="119.63" height="114.16"/></clipPath></defs><title>新接龍</title><rect class="cls-2" x="12.88" y="12.85" width="169" height="265.73"/><path d="M183.88,280.58h-173V10.85h173Zm-169-4h165V14.85h-165Z"/><path class="cls-3" d="M35,26.29a4.68,4.68,0,0,1,1.73,2.11,7.74,7.74,0,0,1,.58,3,10.42,10.42,0,0,1-1.13,4.83,10.21,10.21,0,0,1-2.94,3.56,8.71,8.71,0,0,1-3.84,1.72L29,40.67a8.28,8.28,0,0,0,3.79-2.47,9.15,9.15,0,0,0,2-4,4.43,4.43,0,0,1-3.24,1.4A4.81,4.81,0,0,1,29.11,35a4.08,4.08,0,0,1-1.6-1.69A5.53,5.53,0,0,1,27,30.81a5.61,5.61,0,0,1,.63-2.63,5,5,0,0,1,1.82-1.93,5.18,5.18,0,0,1,2.79-.73A5,5,0,0,1,35,26.29Zm-1.17,7.6A2.76,2.76,0,0,0,35,32.8l.06-.92A9.54,9.54,0,0,0,34.4,28a2.6,2.6,0,0,0-3.93-.89,3.35,3.35,0,0,0-1,1.44,5.23,5.23,0,0,0-.32,1.86,5,5,0,0,0,.75,3,2.42,2.42,0,0,0,2,1A3.63,3.63,0,0,0,33.87,33.89Z"/><path d="M168.46,28.66A4.35,4.35,0,1,0,160,27.27a4.64,4.64,0,0,0,.21,1.39,4.43,4.43,0,0,0,.17,8.86,4.24,4.24,0,0,0,2.88-1.13l-.93,3.24h4l-.94-3.27a4.25,4.25,0,0,0,2.92,1.16,4.43,4.43,0,0,0,.16-8.86Z"/><path d="M147.61,175.49a4,4,0,0,0-1,.45,3.41,3.41,0,1,0,3.66,5.76,3.72,3.72,0,0,0,.84-.74,3.49,3.49,0,0,0,5.82-3.86,3.37,3.37,0,0,0-2-1.44l2.54-.75-1.68-2.63-1.77,2a3.42,3.42,0,0,0-.46-2.44,3.5,3.5,0,0,0-6,3.64Z"/><path d="M108.29,195.93a3.31,3.31,0,0,0-1,.45,3.41,3.41,0,1,0,3.67,5.75,3.85,3.85,0,0,0,.83-.73,3.5,3.5,0,0,0,5.82-3.86,3.33,3.33,0,0,0-2-1.44l2.54-.75-1.67-2.64-1.78,2a3.4,3.4,0,0,0-.46-2.43,3.5,3.5,0,0,0-6,3.64Z"/><path d="M118.85,168a3.43,3.43,0,1,0,.5,6.72,3.72,3.72,0,0,0,1-.42,3.5,3.5,0,1,0,5.35-3.78l2.66.12-.74-3-2.33,1.33a3.34,3.34,0,0,0,.35-2.45,3.5,3.5,0,0,0-6.82,1.52Z"/><path d="M160.06,141.32a3.69,3.69,0,0,0-1.08.25,3.41,3.41,0,1,0,2.5,6.35,3.66,3.66,0,0,0,1-.56,3.5,3.5,0,0,0,6.45-2.69,3.39,3.39,0,0,0-1.66-1.79l2.64-.25-1.15-2.9-2.12,1.63a3.37,3.37,0,0,0,0-2.48,3.5,3.5,0,0,0-6.55,2.44Z"/><path d="M91.52,186.07a3.66,3.66,0,0,0-1.1-.16,3.41,3.41,0,1,0,.07,6.82,3.38,3.38,0,0,0,1.1-.18,3.49,3.49,0,0,0,7-.2,3.38,3.38,0,0,0-.91-2.26l2.55.7,0-3.12-2.57.77a3.38,3.38,0,0,0,.89-2.31,3.49,3.49,0,0,0-7-.06Z"/><path d="M41.13,177.36A3.35,3.35,0,0,0,40,177.2a3.41,3.41,0,1,0,.07,6.82,3.32,3.32,0,0,0,1.09-.18,3.49,3.49,0,0,0,7-.21,3.31,3.31,0,0,0-.91-2.26l2.56.71,0-3.13-2.57.77a3.35,3.35,0,0,0,.89-2.31,3.5,3.5,0,0,0-7,0Z"/><path d="M168.1,158.51a3.56,3.56,0,0,0-.43,1,3.41,3.41,0,1,0,6.62,1.67,3.7,3.7,0,0,0,.1-1.1,3.5,3.5,0,0,0,1.59-6.81,3.39,3.39,0,0,0-2.43.31l1.34-2.29-3-.77.09,2.68a3.38,3.38,0,0,0-2-1.45,3.5,3.5,0,0,0-1.85,6.74Z"/><path d="M28,204.16a3.58,3.58,0,0,0-.44,1,3.41,3.41,0,1,0,6.62,1.67,3.4,3.4,0,0,0,.1-1.1,3.49,3.49,0,0,0,1.59-6.8,3.31,3.31,0,0,0-2.42.3L34.77,197l-3-.77.09,2.68a3.37,3.37,0,0,0-2-1.45A3.5,3.5,0,0,0,28,204.16Z"/><path d="M59.07,191.4a3.28,3.28,0,0,0-1,.55,3.41,3.41,0,1,0,4.22,5.36,3.6,3.6,0,0,0,.75-.81,3.5,3.5,0,0,0,5.41-4.43,3.37,3.37,0,0,0-2.11-1.23l2.46-1-1.93-2.46-1.57,2.18a3.37,3.37,0,0,0-.7-2.38,3.5,3.5,0,0,0-5.57,4.22Z"/><g class="cls-4"><path d="M21.88,109.41,29.2,103s1.77-1.32-2.69-3.53c-3.35-1.66-11.13,3-13,3.88-.9.43-3.65.29-4.63.43a4,4,0,0,1-1.27,0,3.16,3.16,0,0,1-1.43-1.22,2.51,2.51,0,0,1-.2,2.6c-.89,1.59-4.27,4.85-4,7,.27,2,2.34,6.27,6.49,6.81a13.31,13.31,0,0,0,6.66-.57c1.13-.24,4.47-.22,6.43,1.44A6.41,6.41,0,0,0,25.43,121l.87,0-4.57-7.66"/><path d="M26.3,121.73h0l-.87,0a7,7,0,0,1-4.31-1.26c-1.78-1.51-4.92-1.46-5.8-1.28-.2,0-.41.11-.65.18a13,13,0,0,1-6.26.39c-4.65-.6-6.84-5.36-7.13-7.43-.26-1.85,1.46-4,2.83-5.82a14.53,14.53,0,0,0,1.22-1.69A1.83,1.83,0,0,0,5.53,103a.77.77,0,0,1,.21-1,.74.74,0,0,1,1,.16c.61.8.93.93,1,1a3.38,3.38,0,0,0,1-.06c.39,0,.95-.07,1.59-.09a11.2,11.2,0,0,0,2.83-.27c.25-.12.61-.31,1.05-.55,3-1.6,9.39-4.93,12.62-3.32,2.21,1.09,3.34,2.17,3.44,3.3a1.71,1.71,0,0,1-.63,1.49L22.37,110a.74.74,0,0,1-1-1.12l7.32-6.45a.21.21,0,0,0,.09-.21c0-.14-.24-.91-2.62-2.09-2.56-1.26-8.88,2.06-11.26,3.31l-1.11.57a9.68,9.68,0,0,1-3.43.42c-.57,0-1.12,0-1.42.08a3.93,3.93,0,0,1-1.55,0,1.32,1.32,0,0,1-.35-.12,4,4,0,0,1-.45,1.14,18,18,0,0,1-1.34,1.88c-1.14,1.46-2.71,3.46-2.54,4.69C3,114,5,117.79,8.58,118.26a11.55,11.55,0,0,0,5.63-.35c.29-.08.54-.16.79-.21,1.3-.27,4.89-.24,7.06,1.61a5.07,5.07,0,0,0,2.9.88l-3.87-6.48a.75.75,0,0,1,.26-1,.74.74,0,0,1,1,.26l4.57,7.65a.74.74,0,0,1,0,.76A.73.73,0,0,1,26.3,121.73Z"/><path d="M38.14,155a.74.74,0,0,1,0-1.48,37,37,0,0,0,15.13-4c1.06-.71,4.11-2.95,4.86-4.38,1-1.86,10.5-11.41,16.37-11.25a.75.75,0,0,1,.72.77.76.76,0,0,1-.75.72h0c-4.9-.14-14,8.48-15,10.46s-5,4.66-5.4,4.95A37.78,37.78,0,0,1,38.17,155Z"/><path d="M23.34,152.57a.69.69,0,0,1-.24,0C14.73,149.66,8.67,142,8.35,133.84A9.76,9.76,0,0,0,.59,124.4c-1.19-.21-2.47-.38-3.83-.56-1.06-.14-2.16-.29-3.3-.46-8.49-1.29-8.16-12.5-8.15-12.61a.75.75,0,0,1,.69-.72l5.62-.34a.74.74,0,0,1,.79.7.74.74,0,0,1-.7.78l-4.92.31c.06,2.27.73,9.47,6.89,10.4,1.13.18,2.23.32,3.28.46,1.37.19,2.66.36,3.88.57,5,.84,8.78,5.41,9,10.85.29,7.53,5.95,14.66,13.74,17.34a.74.74,0,0,1,.47.94A.76.76,0,0,1,23.34,152.57Z"/><path d="M19.27,116.87a1.76,1.76,0,0,1-1.34-.63,51,51,0,0,1-4.47-6.75.74.74,0,1,1,1.28-.75,49,49,0,0,0,4.32,6.54.24.24,0,0,0,.23.1.24.24,0,0,0,.2-.15l1.4-2.71c.06-.09,2.62-4.33,1.84-7a2.55,2.55,0,0,0-1.39-1.64,8.24,8.24,0,0,0-7.53.12,7.35,7.35,0,0,1-3.33.11,11.4,11.4,0,0,0-1.7-.08,4.05,4.05,0,0,1-1.55,0c-1.14-.28-2.1-1.81-2.81-2.92-.13-.2-.24-.38-.34-.52l-.62-1c-.7-1.15-1.77-2.88-2.66-3.08-2-.46-4.79-.69-5.42-.34a.08.08,0,0,0,0,0A30.27,30.27,0,0,0-2.29,99,7.86,7.86,0,0,1,.41,102a9.55,9.55,0,0,0,1.71,2.3.94.94,0,0,1,.28.87.9.9,0,0,1-.57.69,4.73,4.73,0,0,0-2.71,3.23,1.42,1.42,0,0,1-.62.83c-.68.42-2.46,1.13-6.81,1.25a.76.76,0,0,1-.77-.73.74.74,0,0,1,.73-.76c4.27-.12,5.72-.82,6.07-1a6.3,6.3,0,0,1,2.84-3.82A13.27,13.27,0,0,1-.87,102.8a6.54,6.54,0,0,0-2.23-2.58,22.53,22.53,0,0,1-2.85-3.35,1.4,1.4,0,0,1,.11-1.56c1.2-1.5,6.39-.36,7-.22,1.49.34,2.65,2.23,3.59,3.75l.58.92c.11.15.23.35.37.56.4.64,1.35,2.14,1.91,2.28a3.38,3.38,0,0,0,1-.06,9.94,9.94,0,0,1,2,.07,9.18,9.18,0,0,0,2.56,0,9.63,9.63,0,0,1,8.83-.11,4,4,0,0,1,2.16,2.56c1,3.32-1.85,8-2,8.16l-1.38,2.67a1.75,1.75,0,0,1-1.35.94ZM1.1,105.42Z"/><path class="cls-2" d="M10.44,108.3a.75.75,0,0,1-.47-.17,8.71,8.71,0,0,0-2.09-.58.74.74,0,1,1,.26-1.46,7.89,7.89,0,0,1,2.77.89.75.75,0,0,1,.11,1A.76.76,0,0,1,10.44,108.3Z"/><path d="M6.63,102.84s.89.12-2.57,1.92c-.85.44-2.41,1.51-3,1.93a14.32,14.32,0,0,0-2.64,2.43,5.51,5.51,0,0,1,3.21-3.94.2.2,0,0,0,0-.33C-.25,103.07-4,103.22-5,100.75S-6,92.43-2.4,89.87C-1.24,89-.32,91.3,0,92.13a23.78,23.78,0,0,0,2.25,4.55c1.45,2,2.48,4.49,4.35,6.16"/><path d="M-1.6,109.86a.68.68,0,0,1-.34-.08.74.74,0,0,1-.38-.85,6.48,6.48,0,0,1,2.82-4A12.18,12.18,0,0,0-1.62,104c-1.66-.6-3.37-1.22-4.09-3-1.11-2.7-1.1-9,2.88-11.78A1.53,1.53,0,0,1-1.48,89c1.13.32,1.8,1.91,2.17,2.76l.33.8a17.92,17.92,0,0,0,1.87,3.68c.51.72,1,1.49,1.41,2.23A16.21,16.21,0,0,0,7,102.2a.87.87,0,0,1,.43.6c.11.64-.32,1.2-3.07,2.62-.85.44-2.46,1.55-2.94,1.88A13.82,13.82,0,0,0-1,109.59.74.74,0,0,1-1.6,109.86Zm-.3-19.43c-3.31,2.35-3.33,7.86-2.43,10,.46,1.13,1.74,1.59,3.21,2.13a9.23,9.23,0,0,1,3.29,1.71.88.88,0,0,1,.29.53c.46-.29.91-.56,1.25-.74a18.68,18.68,0,0,0,2-1.14A19.1,19.1,0,0,1,3,99.23c-.44-.75-.87-1.45-1.34-2.12a19.6,19.6,0,0,1-2-4l-.3-.72C-1.44,90.56-1.82,90.44-1.9,90.43Zm3.24,14h0Zm5.18-.91h0Z"/><path class="cls-2" d="M6.26,112a.71.71,0,0,1-.54-.24.73.73,0,0,1,0-1,3.58,3.58,0,0,1,2.36-.6A.75.75,0,0,1,8,111.58a2.75,2.75,0,0,0-1.26.19A.76.76,0,0,1,6.26,112Z"/><path d="M117.32,143.15c-5.94,0-13.59-2.32-15.92-4.62-2.67-2.62-5.56-1.74-8.91-.72l-.7.21a24.17,24.17,0,0,1-10.15.36c-6.45-.89-11.51-7.91-11.72-8.21a.73.73,0,0,1,.18-1,.75.75,0,0,1,1,.17c0,.07,4.9,6.79,10.7,7.59a22.74,22.74,0,0,0,9.52-.3l.7-.21c3.48-1.07,7.08-2.17,10.38,1.08,2.75,2.71,14.92,5.64,19.54,3.39,2.68-1.3,3-2.23,3-2.57,0-.52-.6-1.14-1.71-1.74l-.6-.33c-1.74-1-2.38-1.29-7.16-1.27h-.11c-4.86,0-5.64-1-6.79-3.13-.16-.31-.35-.64-.57-1-1.7-2.81-3.16-4.19-6-3.44-3.8,1-6.34-2.7-6.76-3.38-.3-.4-.34-1-.34-2.3a4.91,4.91,0,0,0,0-.61,29.86,29.86,0,0,0-1.48-6.39c-1.73-4.84-4.72-8.25-8.42-9.6a.73.73,0,0,1-.45-.93.75.75,0,0,1,.93-.48,18.44,18.44,0,0,0,14.44-1.17,14.87,14.87,0,0,0,7.16-9.69c1.06-4.28-2.06-9.29-5.47-12.19a16.65,16.65,0,0,1,1.47,9.26c-.63,3.68-3,5-6.21,6.45a26,26,0,0,1-13.3,1.5c-2.8-.44-12.91-1-25.23,10.46-11,10.2-14.13,11.37-19.23,12.71-4.42,1.15-12,2.74-13.46.35a.75.75,0,0,1,1.28-.77c.53.88,5.08.74,11.8-1,4.86-1.28,7.9-2.41,18.59-12.36C70.15,95.3,80.84,95.91,83.81,96.38A24.33,24.33,0,0,0,96.27,95c3-1.34,4.84-2.37,5.36-5.35a15.31,15.31,0,0,0-3-11,.74.74,0,0,1,.88-1.16c4.71,2.25,10.58,9.49,9,15.75a16.32,16.32,0,0,1-7.86,10.63A19,19,0,0,1,89.45,106a18.73,18.73,0,0,1,5.38,8.19,32.12,32.12,0,0,1,1.56,6.71c0,.15,0,.44,0,.79a9.33,9.33,0,0,0,.07,1.46.16.16,0,0,1,0,.07h0s2.14,3.51,5.12,2.71c4.11-1.08,6.11,1.55,7.66,4.1.23.39.42.74.6,1.06.94,1.73,1.24,2.36,5.58,2.36h.3c4.72,0,5.6.36,7.59,1.45l.59.33c1.68.9,2.51,1.94,2.49,3.08,0,1.37-1.28,2.64-3.82,3.88A12.63,12.63,0,0,1,117.32,143.15ZM96.44,123.08Z"/><path d="M118.77,131.79a30.24,30.24,0,0,1-12.15-3.08.73.73,0,0,1-.36-1,.75.75,0,0,1,1-.36c5.28,2.48,12.43,4.24,16.69,1.75a4.13,4.13,0,0,0,2.07-2.06.89.89,0,0,0-.18-.73,7.12,7.12,0,0,0-4.08-2.73,12.94,12.94,0,0,0-3.16.06,12.65,12.65,0,0,1-4.16-.06,4.71,4.71,0,0,1-3-2.33c-.2-.28-.41-.58-.66-.89a8.28,8.28,0,0,0-4.41-2.69c-4-.88-6.56-.39-11.17.63a.74.74,0,0,1-.88-.57.74.74,0,0,1,.56-.89c4.69-1,7.54-1.58,11.82-.62a9.86,9.86,0,0,1,5.24,3.2c.27.34.5.67.72,1a3.36,3.36,0,0,0,2.12,1.73,10.93,10.93,0,0,0,3.66,0,14.77,14.77,0,0,1,3.52-.06,8.61,8.61,0,0,1,5.09,3.35,2.41,2.41,0,0,1,.42,1.91c-.29,1.33-1.67,2.38-2.77,3A11.71,11.71,0,0,1,118.77,131.79Z"/><path d="M7.51,177.47a4.24,4.24,0,0,1-.51,0,3.24,3.24,0,0,1-3.17-2.83A15,15,0,0,1,5,168.41c.19-.54.39-1.11.57-1.7.65-2.08,4.87-4.58,10.32-7.64,1.5-.84,2.91-1.63,3.85-2.24,3.31-2.13,6.42-10.33,6.45-10.41a.74.74,0,1,1,1.39.52c-.13.35-3.31,8.74-7,11.14-1,.64-2.41,1.44-3.93,2.29-3.63,2-9.1,5.1-9.63,6.79-.19.6-.39,1.18-.58,1.74a13.73,13.73,0,0,0-1.1,5.61c.06.88,1,1.36,1.84,1.45a4,4,0,0,0,4.15-3.22c1.57-5.53,8-8.06,10.3-8.57,4.45-1,10.19-2.54,11.72-3.79,1.9-1.56,6.15-8.6,6-14.36a.75.75,0,0,1,.73-.76.77.77,0,0,1,.76.73c.12,6.1-4.26,13.64-6.59,15.54-2.18,1.79-10,3.59-12.34,4.1-2,.42-7.82,2.71-9.19,7.52A5.47,5.47,0,0,1,7.51,177.47Z"/><path d="M-9.17,169.91A3.53,3.53,0,0,1-12,168a7.75,7.75,0,0,1,.21-8.72,9.29,9.29,0,0,1,3.72-3.06,235.3,235.3,0,0,0,22-11.05.75.75,0,0,1,1,.26.74.74,0,0,1-.27,1A233.45,233.45,0,0,1-7.46,157.59a7.94,7.94,0,0,0-3.13,2.59,6.23,6.23,0,0,0-.17,7c.38.58.95,1.26,1.64,1.23.52,0,1.61-.5,3.16-3.38,1.4-2.6,3.72-3.87,6-4.85.69-.29,1.38-.6,2.06-.91a43.75,43.75,0,0,1,6.94-2.63c.61-.16,1.3-.31,2-.47,3.68-.8,8.72-1.89,10-5.33a.75.75,0,1,1,1.4.52c-1.59,4.21-7.08,5.4-11.09,6.27-.72.15-1.4.3-2,.45a43,43,0,0,0-6.7,2.55l-2.08.92c-2,.88-4.11,2-5.29,4.19-1.46,2.72-2.9,4.08-4.4,4.15Z"/><path class="cls-5" d="M28.36,121.14s4.72-6.47,13.55-.63C41.91,120.51,34.12,128.05,28.36,121.14Z"/><path class="cls-5" d="M31.83,104.42s-7,3.43-3.59,13.82C28.24,118.24,36.92,111.89,31.83,104.42Z"/><path d="M27.77,120l-.44-.94c-4.38-9.3,1.87-13.63,1.93-13.67l.55-.36.43.49c5.71,6.48-1.65,13.69-1.72,13.76Zm1.8-12.94c-1.17,1.11-3.72,4.38-1.34,10.34C29.72,115.65,32.65,111.25,29.57,107.09Z"/><path class="cls-5" d="M29.42,120.86c-1.06-4.13-6.85.73-8.12,1.72-3.69,2.87-7.36,5.71-11.17,8.4-1.18.83-2.57,1.21-3,2.88-.53,2,1.29,4.81,3.06,3.5,4.71-3.47,9.67-6.66,14.18-10.45C25.77,125.78,30.09,123.45,29.42,120.86Z"/><path d="M9.91,135.4A2,2,0,0,1,8.69,135a3.34,3.34,0,0,1-1.09-3.59A4.33,4.33,0,0,1,9.86,129c.24-.14.49-.29.72-.45,3.4-2.37,6.69-4.87,9.86-7.29l.22-.16c2.15-1.67,4.85-3.49,6.62-2.86A2.19,2.19,0,0,1,28.65,120h0c.49,2.2-2.22,4.06-4,5.29-.34.23-.63.43-.85.6C21.11,128,18.23,130,15.44,132c-1.42,1-2.83,2-4.21,3A2.26,2.26,0,0,1,9.91,135.4Zm16.53-15.81c-.71,0-2.11.55-4.87,2.68l-.22.18c-3.19,2.42-6.49,4.93-9.92,7.32-.26.19-.54.35-.81.51-.76.45-1.35.8-1.61,1.58a1.86,1.86,0,0,0,.55,1.92.6.6,0,0,0,.79,0c1.4-1,2.81-2,4.23-3,2.77-1.93,5.63-3.92,8.28-6.08.25-.19.57-.41.93-.66,1.29-.88,3.68-2.52,3.4-3.73h0c-.12-.53-.33-.61-.41-.63A.83.83,0,0,0,26.44,119.59Z"/><path d="M32.91,123h-.38a7.28,7.28,0,0,1-5.31-2.87l-.38-.44.35-.47c0-.07,4.73-6.3,13.12-.75l.77.51-.66.65C40.27,119.72,36.88,123,32.91,123Zm-4.13-3.36a5.68,5.68,0,0,0,3.83,1.86c2.51.14,4.87-1.42,6-2.32C33.16,116,29.86,118.49,28.78,119.6Z"/><path d="M41.86,119.3s11.44,6.47,18,4c9.16-3.4,14.11-7.25,16.1-9.2,3.11-3.07,5.14-14.16-5-14.43,0,0-2,.16-13.06,8.06C54.14,110.4,47.63,116.37,41.86,119.3Z"/><path d="M56.44,124.63c-6.58,0-14.55-4.45-14.95-4.68a.76.76,0,0,1-.38-.67.76.76,0,0,1,.41-.65c3.93-2,8.27-5.47,11.76-8.27,1.6-1.28,3-2.38,4.13-3.2C68.13,99.53,70.48,99,70.84,99c5,.12,7,2.59,7.77,4.65,1.46,3.68.07,8.88-2.15,11C74.85,116.26,70,120.36,60.1,124A10.41,10.41,0,0,1,56.44,124.63Zm-13-5.34c3.08,1.54,11.2,5.17,16.12,3.34,9.64-3.58,14.28-7.5,15.83-9a10,10,0,0,0,1.81-9.43c-.93-2.35-3-3.6-6.26-3.7-.36.09-2.93,1-12.68,7.91-1.12.8-2.48,1.89-4.06,3.15A87,87,0,0,1,43.46,119.29Z"/></g><path d="M183.88,280.58h-173V10.85h173Zm-169-4h165V14.85h-165Z"/><g class="cls-6"><path d="M193.68,119.68l7.33-6.44s1.76-1.32-2.7-3.54c-3.35-1.65-11.13,3-13,3.88-.9.43-3.66.29-4.64.43a4.4,4.4,0,0,1-1.27,0,3.13,3.13,0,0,1-1.43-1.23,2.49,2.49,0,0,1-.19,2.6c-.89,1.6-4.27,4.85-4,7,.28,2,2.35,6.26,6.49,6.8a13.19,13.19,0,0,0,6.66-.57c1.13-.23,4.48-.22,6.43,1.45a6.43,6.43,0,0,0,3.86,1.08l.87,0-4.57-7.66"/><path d="M198.11,132h0l-.87,0a7.05,7.05,0,0,1-4.31-1.25c-1.77-1.51-4.91-1.47-5.8-1.29-.2,0-.41.11-.65.18a13,13,0,0,1-6.25.4c-4.65-.61-6.85-5.36-7.14-7.44-.25-1.85,1.46-4,2.84-5.82a18.83,18.83,0,0,0,1.22-1.68,1.88,1.88,0,0,0,.22-1.83.75.75,0,0,1,.2-1,.73.73,0,0,1,1,.15c.61.8.94.93,1,1a3,3,0,0,0,1-.06c.38,0,.94-.06,1.59-.08a11.51,11.51,0,0,0,2.82-.28c.26-.12.61-.31,1.06-.54,3-1.6,9.38-4.93,12.61-3.33,2.22,1.1,3.34,2.18,3.45,3.3a1.69,1.69,0,0,1-.64,1.49l-7.27,6.41a.77.77,0,0,1-1.06-.06.76.76,0,0,1,.07-1.06l7.32-6.44a.21.21,0,0,0,.09-.22c0-.14-.24-.91-2.62-2.09-2.55-1.26-8.88,2.06-11.26,3.32-.46.24-.84.44-1.1.56a9.94,9.94,0,0,1-3.43.43c-.58,0-1.13,0-1.42.07a4.51,4.51,0,0,1-1.55,0,1.48,1.48,0,0,1-.35-.13,4.72,4.72,0,0,1-.45,1.14,16.84,16.84,0,0,1-1.35,1.88c-1.14,1.46-2.7,3.47-2.53,4.69.26,1.93,2.25,5.7,5.85,6.17a11.63,11.63,0,0,0,5.63-.34,7.91,7.91,0,0,1,.78-.22c1.3-.27,4.89-.24,7.06,1.61a5,5,0,0,0,2.91.88L192.9,124a.75.75,0,0,1,.25-1,.76.76,0,0,1,1,.26l4.57,7.66a.74.74,0,0,1,0,.76A.76.76,0,0,1,198.11,132Z"/><path d="M195.15,162.84a.69.69,0,0,1-.25,0c-8.36-2.87-14.43-10.56-14.75-18.69-.19-4.74-3.45-8.71-7.75-9.44-1.2-.2-2.49-.38-3.85-.56-1.06-.14-2.16-.29-3.29-.46-8.49-1.29-8.16-12.5-8.15-12.61a.73.73,0,0,1,.7-.71l5.61-.35a.75.75,0,1,1,.09,1.49l-4.91.3c.05,2.27.72,9.48,6.88,10.41,1.13.17,2.22.31,3.26.45,1.38.19,2.68.36,3.91.57a11.25,11.25,0,0,1,9,10.85c.3,7.53,6,14.66,13.75,17.34a.75.75,0,0,1-.24,1.45Z"/><path d="M191.07,127.14a1.75,1.75,0,0,1-1.34-.62,50.91,50.91,0,0,1-4.47-6.76.73.73,0,0,1,.27-1,.75.75,0,0,1,1,.26,46.92,46.92,0,0,0,4.32,6.54.23.23,0,0,0,.23.1.24.24,0,0,0,.19-.14l1.41-2.72c.05-.08,2.61-4.32,1.84-7a2.59,2.59,0,0,0-1.4-1.64,8.25,8.25,0,0,0-7.52.12,7.26,7.26,0,0,1-3.34.11,11.28,11.28,0,0,0-1.69-.08,3.81,3.81,0,0,1-1.55,0c-1.14-.28-2.11-1.8-2.81-2.92l-.34-.52c-.19-.28-.4-.61-.62-1-.71-1.14-1.78-2.87-2.66-3.08-2-.46-4.8-.69-5.43-.33l0,0a31.86,31.86,0,0,0,2.31,2.74,7.8,7.8,0,0,1,2.7,3.06,9.5,9.5,0,0,0,1.71,2.29,1,1,0,0,1,.29.87.94.94,0,0,1-.58.7,4.73,4.73,0,0,0-2.71,3.23,1.45,1.45,0,0,1-.62.83c-.67.41-2.45,1.12-6.81,1.24a.74.74,0,0,1-.77-.72.75.75,0,0,1,.73-.77c4.28-.12,5.73-.81,6.07-1a6.26,6.26,0,0,1,2.84-3.82,13.82,13.82,0,0,1-1.43-2.07,6.46,6.46,0,0,0-2.23-2.58,22.46,22.46,0,0,1-2.85-3.34,1.41,1.41,0,0,1,.11-1.57c1.21-1.49,6.39-.35,7-.22,1.49.34,2.66,2.23,3.59,3.75.21.34.41.66.59.92s.23.35.36.57c.44.69,1.35,2.13,1.91,2.27a3.45,3.45,0,0,0,1-.06,10.61,10.61,0,0,1,2,.07,8.81,8.81,0,0,0,2.56,0,9.63,9.63,0,0,1,8.83-.11,4,4,0,0,1,2.17,2.56c.95,3.33-1.86,8-2,8.17l-1.38,2.66a1.72,1.72,0,0,1-1.35.94Zm-18.16-11.45h0Zm.18-.91Z"/><path class="cls-2" d="M182.24,118.57a.72.72,0,0,1-.47-.17,9.22,9.22,0,0,0-2.09-.58.74.74,0,0,1,.26-1.46,7.82,7.82,0,0,1,2.77.89.74.74,0,0,1-.47,1.32Z"/><path d="M162.46,120.79l-4.61.28.56,4.56A8.92,8.92,0,0,0,162.46,120.79Z"/><path d="M158.41,126.37a.71.71,0,0,1-.32-.07.75.75,0,0,1-.41-.52s0-.11-.57-4.62a.79.79,0,0,1,.17-.57.75.75,0,0,1,.53-.26l4.6-.29a.77.77,0,0,1,.64.29.75.75,0,0,1,.12.68,9.63,9.63,0,0,1-4.42,5.28A.68.68,0,0,1,158.41,126.37Zm.28-4.61c.08.72.21,1.77.31,2.59a8.37,8.37,0,0,0,2.32-2.75Z"/><path d="M178.44,113.11s.88.13-2.58,1.92c-.85.45-2.41,1.51-3,1.94a14.08,14.08,0,0,0-2.64,2.42,5.51,5.51,0,0,1,3.22-3.94.2.2,0,0,0,.05-.33c-1.92-1.78-5.67-1.63-6.69-4.09s-1-8.33,2.62-10.89c1.17-.83,2.09,1.44,2.44,2.26a22.94,22.94,0,0,0,2.25,4.55c1.45,2,2.47,4.49,4.35,6.16"/><path d="M170.2,120.14a.84.84,0,0,1-.34-.08.75.75,0,0,1-.38-.86,6.51,6.51,0,0,1,2.82-4,13,13,0,0,0-2.12-.91c-1.66-.6-3.37-1.22-4.08-3-1.12-2.7-1.11-9,2.87-11.78a1.54,1.54,0,0,1,1.35-.26c1,.28,1.63,1.5,2.17,2.77l.34.8a18.67,18.67,0,0,0,1.86,3.68c.51.71,1,1.48,1.41,2.22a16,16,0,0,0,2.74,3.73.86.86,0,0,1,.43.6c.11.64-.32,1.2-3.07,2.62-.83.44-2.46,1.55-2.94,1.89a13.57,13.57,0,0,0-2.48,2.28A.75.75,0,0,1,170.2,120.14Zm-.29-19.44c-3.32,2.35-3.34,7.86-2.44,10,.47,1.13,1.74,1.6,3.22,2.13a9.27,9.27,0,0,1,3.28,1.71.9.9,0,0,1,.29.54c.46-.29.91-.57,1.26-.75a22.28,22.28,0,0,0,2-1.13,19,19,0,0,1-2.66-3.74c-.45-.74-.87-1.45-1.35-2.12a19.86,19.86,0,0,1-2-4l-.3-.72C170.36,100.84,170,100.71,169.91,100.7Zm8.41,13.15h0Z"/><path class="cls-2" d="M178.07,122.24a.75.75,0,0,1-.55-.24.74.74,0,0,1,0-1,3.59,3.59,0,0,1,2.36-.6.75.75,0,0,1,.71.78.72.72,0,0,1-.78.71,2.61,2.61,0,0,0-1.27.2A.78.78,0,0,1,178.07,122.24Z"/><path d="M179.31,187.74l-.51,0a3.24,3.24,0,0,1-3.17-2.84,14.74,14.74,0,0,1,1.18-6.19c.18-.55.38-1.11.56-1.7.65-2.09,4.88-4.59,10.33-7.65,1.49-.84,2.9-1.63,3.84-2.23,3.31-2.14,6.42-10.34,6.45-10.42a.75.75,0,0,1,1.4.52c-.14.36-3.32,8.74-7,11.15-1,.63-2.41,1.43-3.92,2.28-3.63,2-9.11,5.1-9.63,6.79-.19.61-.39,1.18-.59,1.74a13.56,13.56,0,0,0-1.09,5.61c0,.88,1,1.36,1.83,1.45,1.58.18,3.46-.76,4.16-3.22,1.57-5.53,8-8.06,10.3-8.57,4.45-1,10.19-2.54,11.71-3.78,1.9-1.56,6.15-8.6,6-14.36a.73.73,0,0,1,.73-.76.7.7,0,0,1,.76.73c.12,6.09-4.26,13.63-6.59,15.54-2.17,1.78-10,3.58-12.34,4.09-1.95.42-7.82,2.71-9.18,7.52A5.47,5.47,0,0,1,179.31,187.74Z"/><path d="M162.63,180.18a3.51,3.51,0,0,1-2.83-1.89,7.74,7.74,0,0,1,.21-8.71,9.37,9.37,0,0,1,3.72-3.07,232.87,232.87,0,0,0,22-11,.74.74,0,0,1,1,.27.73.73,0,0,1-.27,1,233.46,233.46,0,0,1-22.1,11.13,7.71,7.71,0,0,0-3.13,2.59,6.21,6.21,0,0,0-.18,7c.39.57,1,1.26,1.65,1.22.51,0,1.61-.5,3.15-3.38,1.4-2.6,3.72-3.86,6-4.85.69-.29,1.37-.6,2.06-.91a43.64,43.64,0,0,1,6.93-2.63c.61-.16,1.31-.31,2.05-.47,3.67-.79,8.71-1.88,10-5.33a.74.74,0,0,1,1.39.53c-1.58,4.2-7.08,5.39-11.09,6.26-.72.15-1.4.3-2,.45a43.26,43.26,0,0,0-6.69,2.55l-2.09.92c-2.05.88-4.1,2-5.29,4.19-1.46,2.73-2.9,4.09-4.39,4.16Z"/><path class="cls-5" d="M201.23,131.14c-1.06-4.14-6.85.72-8.13,1.71-3.69,2.87-7.35,5.72-11.17,8.41-1.17.83-2.57,1.2-3,2.87-.54,2,1.28,4.81,3.06,3.5,4.7-3.47,9.66-6.66,14.17-10.44C197.57,136.05,201.89,133.73,201.23,131.14Z"/><path d="M181.71,145.67a2.1,2.1,0,0,1-1.22-.41,3.34,3.34,0,0,1-1.09-3.59,4.36,4.36,0,0,1,2.27-2.4,7.68,7.68,0,0,0,.71-.45c3.41-2.37,6.69-4.87,9.87-7.29l.21-.16c2.15-1.66,4.85-3.5,6.62-2.85a2.15,2.15,0,0,1,1.37,1.7h0c.49,2.2-2.22,4.06-4,5.29-.34.23-.63.43-.85.6-2.68,2.18-5.57,4.2-8.36,6.14-1.41,1-2.82,2-4.2,3A2.26,2.26,0,0,1,181.71,145.67Zm16.54-15.8c-.71,0-2.11.54-4.88,2.68l-.22.17c-3.19,2.43-6.49,4.93-9.92,7.32-.26.19-.54.35-.81.51-.75.45-1.35.8-1.61,1.58a1.87,1.87,0,0,0,.56,1.93.6.6,0,0,0,.78,0c1.4-1,2.81-2,4.23-3,2.77-1.93,5.63-3.93,8.29-6.08.24-.2.56-.42.93-.67,1.28-.88,3.67-2.51,3.39-3.73h0c-.11-.53-.33-.6-.41-.63A1,1,0,0,0,198.25,129.87Z"/></g></svg>