<svg id="圖層_1" data-name="圖層 1" xmlns="http://www.w3.org/2000/svg" xmlns:xlink="http://www.w3.org/1999/xlink" viewBox="0 0 194.94 294.58"><defs><style>.cls-1{fill:none;}.cls-2{clip-path:url(#clip-path);}.cls-3{fill:#fff;}.cls-4{fill:#170000;}.cls-5{clip-path:url(#clip-path-2);}.cls-6{fill:#c21823;}</style><clipPath id="clip-path"><rect class="cls-1" x="-140.61" y="61.53" width="111.24" height="111.24"/></clipPath><clipPath id="clip-path-2"><rect class="cls-1" x="52.61" y="49.3" width="129.5" height="123.46"/></clipPath></defs><title>新接龍</title><g class="cls-2"><path d="M4.29,140.1c-6.12,0-15.72-4.66-17.94-7.87s-5.13-2.76-8.61-2.38l-.72.07a24.2,24.2,0,0,1-10-1.56c-6.16-2.09-9.81-9.93-10-10.26a.75.75,0,0,1,.36-1,.75.75,0,0,1,1,.37c0,.07,3.54,7.59,9.09,9.47a22.71,22.71,0,0,0,9.4,1.49l.72-.08c3.63-.38,7.37-.79,10,3,2.19,3.19,13.59,8.36,18.55,7,2.88-.78,3.35-1.63,3.42-2,.11-.52-.37-1.24-1.35-2L7.67,134c-1.53-1.28-2-1.71-6.79-2.6S-4.57,129.3-5.31,127q-.15-.49-.36-1.08c-1.15-3.08-2.32-4.71-5.26-4.51-3.3.22-5.32-2.78-6-4.62a4.25,4.25,0,0,1,.11-2.29,4.82,4.82,0,0,0,.1-.6,30.68,30.68,0,0,0-.25-6.56c-.79-5.08-3.08-9-6.46-11a.76.76,0,0,1-.27-1,.75.75,0,0,1,1-.29A18.46,18.46,0,0,0-8.3,96.59,14.85,14.85,0,0,0,.55,88.42c1.85-4-.27-9.51-3.07-13a16.67,16.67,0,0,1-.3,9.37c-1.32,3.5-3.86,4.35-7.32,5.16a25.9,25.9,0,0,1-13.34-1c-2.67-1-12.49-3.41-26.75,5.53-12.68,7.94-16,8.5-21.28,8.85-4.56.3-12.33.42-13.28-2.19a.75.75,0,0,1,.45-1,.75.75,0,0,1,1,.45c.35,1,4.85,1.68,11.78,1.21,5-.33,8.21-.87,20.59-8.62C-36.19,83.89-25.8,86.5-23,87.52a24.26,24.26,0,0,0,12.49,1c3.19-.76,5.21-1.42,6.27-4.25a15.25,15.25,0,0,0-.88-11.41.75.75,0,0,1,.15-.92A.74.74,0,0,1-4,71.88C.21,75,4.6,83.19,1.91,89.05a16.36,16.36,0,0,1-9.73,9,19,19,0,0,1-11.43,0,18.83,18.83,0,0,1,3.74,9.06,32.39,32.39,0,0,1,.27,6.88,7.7,7.7,0,0,1-.13.79,8.4,8.4,0,0,0-.19,1.44v0c.06.16,1.47,3.92,4.53,3.69,4.26-.28,5.71,2.67,6.75,5.47.16.41.28.8.39,1.15.6,1.87.83,2.57,5,3.36,4.9.93,5.7,1.44,7.48,2.92l.51.43c1.48,1.2,2.11,2.38,1.87,3.5-.29,1.34-1.75,2.35-4.49,3.09A8.59,8.59,0,0,1,4.29,140.1Zm-19.89-24v0Z"/><path d="M7.46,129.16c-4.67,0-10.11-2.66-14.13-5.59a.75.75,0,0,1-.17-1,.74.74,0,0,1,1-.16c4.72,3.42,11.42,6.5,16.07,4.86a4.21,4.21,0,0,0,2.42-1.63.86.86,0,0,0,0-.75,7.12,7.12,0,0,0-3.49-3.46A13.38,13.38,0,0,0,6,120.86,12.39,12.39,0,0,1,2,120a4.7,4.7,0,0,1-2.5-2.85c-.14-.31-.29-.65-.48-1a8.42,8.42,0,0,0-3.82-3.47c-3.74-1.62-6.37-1.62-11.09-1.49a.72.72,0,0,1-.76-.72.75.75,0,0,1,.72-.77c4.8-.13,7.7-.12,11.72,1.61A9.93,9.93,0,0,1,.3,115.46c.21.38.37.75.53,1.09a3.31,3.31,0,0,0,1.76,2.1,10.87,10.87,0,0,0,3.59.73,14.44,14.44,0,0,1,3.46.6A8.58,8.58,0,0,1,14,124.23a2.37,2.37,0,0,1,.05,2c-.54,1.25-2.08,2-3.29,2.45A9.78,9.78,0,0,1,7.46,129.16Z"/></g><rect class="cls-3" x="12.88" y="12.85" width="169" height="265.73"/><path d="M183.88,280.58h-173V10.85h173Zm-169-4h165V14.85h-165Z"/><path class="cls-4" d="M28.64,40.39a5.77,5.77,0,0,0,2.6-.59,4.58,4.58,0,0,0,1.87-1.6,4.06,4.06,0,0,0,.68-2.33c0-2.15-1-3.23-3-3.23a6.31,6.31,0,0,0-1.47.19,9.18,9.18,0,0,0-1.42.45l-.54-.38,1-7.22h5.72l.2-.39h1.25l-.36,2.07H29.84L28.92,32a6.21,6.21,0,0,1,1.38-.5A6.55,6.55,0,0,1,32,31.31a4.16,4.16,0,0,1,3,1.09,4.23,4.23,0,0,1,1.1,3.15,5.1,5.1,0,0,1-.91,2.93,6.41,6.41,0,0,1-2.58,2.15,8.71,8.71,0,0,1-3.79.8,6,6,0,0,1-1.41-.14v-1A11.53,11.53,0,0,0,28.64,40.39Z"/><path d="M183.88,280.58h-173V10.85h173Zm-169-4h165V14.85h-165Z"/><path d="M168.46,28.66A4.35,4.35,0,1,0,160,27.27a4.64,4.64,0,0,0,.21,1.39,4.43,4.43,0,0,0,.17,8.86,4.24,4.24,0,0,0,2.88-1.13l-.93,3.24h4l-.94-3.27a4.25,4.25,0,0,0,2.92,1.16,4.43,4.43,0,0,0,.16-8.86Z"/><path d="M147.61,175.49a4,4,0,0,0-1,.45,3.41,3.41,0,1,0,3.66,5.76,3.72,3.72,0,0,0,.84-.74,3.49,3.49,0,0,0,5.82-3.86,3.37,3.37,0,0,0-2-1.44l2.54-.75-1.68-2.63-1.77,2a3.42,3.42,0,0,0-.46-2.44,3.5,3.5,0,0,0-6,3.64Z"/><path d="M108.29,195.93a3.31,3.31,0,0,0-1,.45,3.41,3.41,0,1,0,3.67,5.75,3.85,3.85,0,0,0,.83-.73,3.5,3.5,0,0,0,5.82-3.86,3.33,3.33,0,0,0-2-1.44l2.54-.75-1.67-2.64-1.78,2a3.4,3.4,0,0,0-.46-2.43,3.5,3.5,0,0,0-6,3.64Z"/><path d="M118.85,168a3.43,3.43,0,1,0,.5,6.72,3.72,3.72,0,0,0,1-.42,3.5,3.5,0,1,0,5.35-3.78l2.66.12-.74-3-2.33,1.33a3.34,3.34,0,0,0,.35-2.45,3.5,3.5,0,0,0-6.82,1.52Z"/><path d="M160.06,141.32a3.69,3.69,0,0,0-1.08.25,3.41,3.41,0,1,0,2.5,6.35,3.66,3.66,0,0,0,1-.56,3.5,3.5,0,0,0,6.45-2.69,3.39,3.39,0,0,0-1.66-1.79l2.64-.25-1.15-2.9-2.12,1.63a3.37,3.37,0,0,0,0-2.48,3.5,3.5,0,0,0-6.55,2.44Z"/><path d="M168.1,158.51a3.56,3.56,0,0,0-.43,1,3.41,3.41,0,1,0,6.62,1.67,3.7,3.7,0,0,0,.1-1.1,3.5,3.5,0,0,0,1.59-6.81,3.39,3.39,0,0,0-2.43.31l1.34-2.29-3-.77.09,2.68a3.38,3.38,0,0,0-2-1.45,3.5,3.5,0,0,0-1.85,6.74Z"/><g class="cls-5"><path d="M99.14,94.4l6.8-7s1.66-1.45-3-3.31C99.51,82.7,92.11,87.92,90.31,89c-.87.5-3.62.57-4.59.79a4,4,0,0,1-1.26.14,3.18,3.18,0,0,1-1.53-1.1,2.46,2.46,0,0,1,0,2.6c-.76,1.66-3.87,5.17-3.4,7.33.43,2,2.82,6.06,7,6.27a13.28,13.28,0,0,0,6.6-1.08c1.1-.33,4.44-.57,6.52.94a6.45,6.45,0,0,0,3.93.77l.87,0L99.3,98.32"/><path d="M102.8,106.4a6.13,6.13,0,0,1-3.58-.94c-1.88-1.37-5-1.08-5.88-.83l-.63.23a13.09,13.09,0,0,1-6.21.88c-4.68-.23-7.24-4.81-7.69-6.86-.4-1.82,1.14-4.15,2.37-6a14.87,14.87,0,0,0,1.09-1.77,1.86,1.86,0,0,0,.08-1.84.75.75,0,0,1,.12-1,.73.73,0,0,1,1,.07c.67.75,1,.85,1.09.87a3.5,3.5,0,0,0,1-.14c.37-.08.93-.14,1.58-.21a11.59,11.59,0,0,0,2.79-.49l1-.63c2.91-1.83,9-5.64,12.32-4.3,2.29.92,3.5,1.91,3.69,3a1.69,1.69,0,0,1-.52,1.54l-6.75,7a.74.74,0,0,1-1.05,0,.73.73,0,0,1,0-1.05l6.8-7a.23.23,0,0,0,.07-.22c0-.14-.31-.89-2.78-1.88-2.64-1-8.69,2.75-11,4.18-.44.28-.8.51-1,.65a9.68,9.68,0,0,1-3.39.69c-.57.06-1.11.12-1.41.19a4.5,4.5,0,0,1-1.54.15,1.61,1.61,0,0,1-.36-.1,4.31,4.31,0,0,1-.36,1.17,18.38,18.38,0,0,1-1.19,2c-1,1.54-2.43,3.66-2.16,4.88.41,1.89,2.69,5.5,6.31,5.69a11.86,11.86,0,0,0,5.58-.78c.28-.11.53-.21.77-.28,1.27-.37,4.85-.62,7.17,1a5,5,0,0,0,3,.66L98.7,98.75a.74.74,0,1,1,1.21-.86l5.15,7.27a.74.74,0,0,1,.06.76.73.73,0,0,1-.63.42l-.87,0Z"/><path d="M118.85,138.62a.75.75,0,0,1-.74-.66.74.74,0,0,1,.66-.82A36.69,36.69,0,0,0,133.53,132c1-.79,3.87-3.25,4.51-4.74.84-1.93,9.56-12.23,15.44-12.5a.79.79,0,0,1,.78.72.74.74,0,0,1-.71.77c-4.9.22-13.25,9.54-14.14,11.6s-4.58,5-5,5.36a37.83,37.83,0,0,1-15.48,5.45Z"/><path d="M103.91,137.31a.62.62,0,0,1-.19,0c-8.56-2.21-15.21-9.4-16.16-17.48A9.75,9.75,0,0,0,79.09,111c-1.21-.11-2.51-.18-3.88-.26-1.06-.06-2.17-.12-3.31-.2-8.57-.62-9.11-11.82-9.11-11.94a.73.73,0,0,1,.64-.76L69,97.06a.74.74,0,1,1,.21,1.47l-4.88.68c.23,2.27,1.46,9.39,7.67,9.84,1.14.09,2.24.15,3.29.2,1.39.08,2.7.15,3.93.27A11.24,11.24,0,0,1,89,119.63c.88,7.49,7.07,14.16,15,16.22a.74.74,0,0,1-.18,1.46Z"/><path d="M97,102.05a1.77,1.77,0,0,1-1.25-.53,51.16,51.16,0,0,1-5-6.38A.75.75,0,1,1,92,94.29a49.43,49.43,0,0,0,4.81,6.18.24.24,0,0,0,.24.08.23.23,0,0,0,.18-.16l1.19-2.81c0-.09,2.27-4.52,1.29-7.14a2.53,2.53,0,0,0-1.52-1.53,8.23,8.23,0,0,0-7.49.7,7.35,7.35,0,0,1-3.32.38,10.17,10.17,0,0,0-1.69.05,4.2,4.2,0,0,1-1.55.15c-1.15-.19-2.24-1.64-3-2.69l-.38-.5c-.2-.26-.44-.58-.69-.93-.79-1.08-2-2.73-2.89-2.86-2-.3-4.84-.31-5.44.09l0,0a31.92,31.92,0,0,0,2.52,2.55,7.78,7.78,0,0,1,2.93,2.84,9.81,9.81,0,0,0,1.89,2.16.94.94,0,0,1,.35.84.91.91,0,0,1-.52.73,4.76,4.76,0,0,0-2.45,3.44,1.46,1.46,0,0,1-.55.87c-.65.47-2.37,1.31-6.7,1.77A.74.74,0,0,1,69,97.05c4.26-.45,5.65-1.25,6-1.49a6.29,6.29,0,0,1,2.53-4,13.26,13.26,0,0,1-1.58-2,6.66,6.66,0,0,0-2.43-2.4,22.75,22.75,0,0,1-3.1-3.11,1.4,1.4,0,0,1,0-1.57c1.08-1.58,6.34-.85,6.94-.76,1.51.22,2.82,2,3.87,3.46.24.32.46.62.66.87l.4.53c.46.61,1.52,2,2.09,2.12a3.46,3.46,0,0,0,1-.14,11,11,0,0,1,2-.08,9.27,9.27,0,0,0,2.55-.17,9.62,9.62,0,0,1,8.79-.8,4,4,0,0,1,2.37,2.39c1.21,3.23-1.23,8.08-1.34,8.29L98.58,101A1.72,1.72,0,0,1,97,102.05Z"/><path class="cls-3" d="M87.59,94.19a.75.75,0,0,1-.42-.14A9.07,9.07,0,0,0,85,93.64a.75.75,0,1,1,.15-1.49,8.26,8.26,0,0,1,2.83.68.75.75,0,0,1-.43,1.36Z"/><path d="M68.1,97.93l-4.57.64s.89,4.43.91,4.5A8.9,8.9,0,0,0,68.1,97.93Z"/><path d="M64.44,103.82a.86.86,0,0,1-.27,0,.74.74,0,0,1-.44-.5s0-.1-.93-4.55a.75.75,0,0,1,.12-.58.73.73,0,0,1,.51-.3L68,97.2a.73.73,0,0,1,.82.9,9.58,9.58,0,0,1-4,5.61A.77.77,0,0,1,64.44,103.82Zm0-4.62.51,2.55A8.44,8.44,0,0,0,67,98.84Z"/><path d="M83.43,89s.89,0-2.42,2.11c-.81.51-2.28,1.69-2.86,2.16a14.49,14.49,0,0,0-2.44,2.63,5.5,5.5,0,0,1,2.9-4.18.2.2,0,0,0,0-.33c-2-1.63-5.77-1.18-7-3.56S70,79.64,73.41,76.81c1.1-.92,2.19,1.27,2.61,2.06a23,23,0,0,0,2.59,4.36c1.61,1.92,2.82,4.29,4.82,5.81"/><path d="M75.71,96.68a.69.69,0,0,1-.28-.05.75.75,0,0,1-.45-.82,6.47,6.47,0,0,1,2.5-4.23,12.48,12.48,0,0,0-2.19-.75c-1.7-.47-3.45-1-4.3-2.63-1.32-2.6-1.8-8.83,2-12a1.55,1.55,0,0,1,1.32-.37c1,.2,1.75,1.37,2.38,2.59l.4.77a18.15,18.15,0,0,0,2.14,3.52c.57.68,1.09,1.41,1.59,2.11a16.18,16.18,0,0,0,3,3.51.84.84,0,0,1,.48.56c.16.63-.23,1.22-2.85,2.86-.77.47-2.21,1.63-2.79,2.1a14.17,14.17,0,0,0-2.3,2.47A.72.72,0,0,1,75.71,96.68ZM74,77.33c-3.12,2.6-2.71,8.09-1.64,10.2.55,1.09,1.85,1.45,3.37,1.87a9.32,9.32,0,0,1,3.41,1.45.91.91,0,0,1,.33.51c.44-.33.86-.63,1.19-.84a19.54,19.54,0,0,0,1.88-1.29,19.34,19.34,0,0,1-3-3.51c-.5-.71-1-1.38-1.51-2a20.05,20.05,0,0,1-2.32-3.8l-.36-.69C74.43,77.43,74,77.33,74,77.33Zm9.42,12.45h0Z"/><path class="cls-3" d="M83.72,98.17a.75.75,0,0,1-.56-1.24,3.58,3.58,0,0,1,2.31-.78.72.72,0,0,1,.76.73.74.74,0,0,1-.72.76,2.67,2.67,0,0,0-1.25.29A.71.71,0,0,1,83.72,98.17Z"/><path d="M194.89,120.67c-5.57,0-12-1.56-14.2-3.44-2.87-2.4-5.68-1.3-8.94,0l-.68.27A24.14,24.14,0,0,1,161,118.62c-6.5-.38-12.09-7-12.32-7.26a.74.74,0,0,1,.09-1,.75.75,0,0,1,1.05.09c0,.07,5.42,6.39,11.27,6.74a22.89,22.89,0,0,0,9.46-1l.68-.27c3.39-1.33,6.89-2.7,10.44.28,2.95,2.49,15.31,4.46,19.74,1.86,2.57-1.51,2.8-2.46,2.78-2.8,0-.52-.68-1.09-1.84-1.6l-.62-.29c-1.81-.82-2.43-1.1-7.24-.71s-5.8-.55-7.12-2.58c-.19-.29-.4-.61-.65-1-1.91-2.67-3.48-3.93-6.25-3-3.81,1.34-6.7-2.42-7-2.86s-.4-1-.5-2.24c0-.27,0-.5-.06-.61a31.21,31.21,0,0,0-2-6.26c-2.1-4.69-5.35-7.86-9.14-8.91a.75.75,0,0,1,.36-1.45,18.44,18.44,0,0,0,14.31-2.29,14.87,14.87,0,0,0,6.38-10.22c.72-4.35-2.78-9.1-6.4-11.73a16.76,16.76,0,0,1,2.19,9.12c-.35,3.72-2.58,5.21-5.7,6.92a26.08,26.08,0,0,1-13.13,2.53c-2.84-.22-12.95,0-24.34,12.4-10.13,11-13.2,12.43-18.19,14.16-4.31,1.49-11.77,3.66-13.38,1.4a.75.75,0,1,1,1.21-.87c.59.84,5.13.34,11.68-1.94,4.75-1.65,7.69-3,17.58-13.76,11.85-12.89,22.56-13.11,25.55-12.88a24.29,24.29,0,0,0,12.31-2.35c2.88-1.57,4.65-2.75,4.93-5.75a15.27,15.27,0,0,0-3.86-10.77.74.74,0,0,1-.1-.94.76.76,0,0,1,.89-.29c4.87,1.87,11.28,8.64,10.23,15a16.33,16.33,0,0,1-7,11.21,19,19,0,0,1-11,3,18.94,18.94,0,0,1,6,7.75,31.76,31.76,0,0,1,2.07,6.57c0,.14.06.44.09.79a8.86,8.86,0,0,0,.19,1.44l0,0c.1.14,2.42,3.38,5.34,2.36,4-1.41,6.21,1.06,7.95,3.49.26.36.48.7.69,1,1.07,1.64,1.47,2.26,5.75,1.91,5-.4,5.87-.12,8,.84l.62.27c1.74.77,2.65,1.74,2.72,2.89.08,1.36-1.07,2.72-3.51,4.16A15.14,15.14,0,0,1,194.89,120.67Zm-20.28-18.36Zm-.07-.09Z"/><path d="M196,109.22A32.12,32.12,0,0,1,185.13,107a.75.75,0,0,1-.44-1,.74.74,0,0,1,1-.43c5.46,2.06,12.73,3.25,16.78.44a4.15,4.15,0,0,0,1.9-2.21.9.9,0,0,0-.23-.72,7.11,7.11,0,0,0-4.29-2.41,13.76,13.76,0,0,0-3.14.31,12.24,12.24,0,0,1-4.15.26,4.72,4.72,0,0,1-3.17-2.08c-.22-.27-.45-.56-.72-.84A8.36,8.36,0,0,0,184,96.06c-4-.57-6.57.12-11.08,1.49a.73.73,0,0,1-.93-.49.75.75,0,0,1,.49-.93c4.59-1.4,7.4-2.16,11.73-1.54a9.91,9.91,0,0,1,5.48,2.78c.3.32.55.63.79.92a3.34,3.34,0,0,0,2.26,1.56,11.18,11.18,0,0,0,3.65-.25,15,15,0,0,1,3.5-.34,8.59,8.59,0,0,1,5.33,2.95,2.38,2.38,0,0,1,.57,1.87c-.19,1.35-1.48,2.5-2.53,3.23A12.74,12.74,0,0,1,196,109.22Z"/><path d="M89.74,163.39H89.6a3.23,3.23,0,0,1-3.37-2.58,14.9,14.9,0,0,1,.69-6.27c.14-.56.29-1.14.43-1.74.48-2.13,4.5-5,9.69-8.42,1.43-1,2.78-1.86,3.67-2.54,3.13-2.38,5.59-10.8,5.61-10.88a.75.75,0,0,1,.93-.51.74.74,0,0,1,.5.92c-.1.37-2.62,9-6.14,11.66-.93.71-2.29,1.62-3.74,2.58-3.45,2.31-8.68,5.8-9.07,7.52-.14.62-.29,1.21-.44,1.78a13.57,13.57,0,0,0-.66,5.69c.12.86,1.07,1.27,2,1.3a4,4,0,0,0,3.88-3.54c1.14-5.64,7.32-8.66,9.61-9.34,4.36-1.31,10-3.33,11.38-4.69,1.77-1.7,5.46-9.06,4.9-14.79a.74.74,0,0,1,1.48-.15c.6,6.07-3.18,13.93-5.35,16s-9.69,4.35-12,5c-1.91.58-7.58,3.32-8.57,8.21A5.43,5.43,0,0,1,89.74,163.39Z"/><path d="M72.71,157.14a3.63,3.63,0,0,1-2.77-1.67,7.73,7.73,0,0,1-.48-8.7,9.35,9.35,0,0,1,3.47-3.35,234.58,234.58,0,0,0,21-12.73.74.74,0,0,1,1,.18.75.75,0,0,1-.18,1,235.65,235.65,0,0,1-21.18,12.81,7.91,7.91,0,0,0-2.92,2.83,6.24,6.24,0,0,0,.37,7c.63.79,1.22,1.17,1.74,1.09S74.4,155,75.72,152a11.4,11.4,0,0,1,5.62-5.3c.67-.35,1.33-.71,2-1.07a43.78,43.78,0,0,1,6.7-3.17c.6-.2,1.28-.4,2-.62,3.6-1.08,8.54-2.56,9.56-6.1a.75.75,0,0,1,1.43.42c-1.25,4.31-6.63,5.93-10.56,7.1-.71.22-1.38.41-2,.61A42.4,42.4,0,0,0,84.05,147l-2,1.09c-2,1-3.94,2.3-4.94,4.58-1.25,2.83-2.58,4.3-4.06,4.49Z"/><path class="cls-6" d="M106.52,105.59s4.2-6.82,13.45-1.68C120,103.91,112.8,112,106.52,105.59Z"/><path class="cls-6" d="M108.68,88.65s-6.74,4-2.5,14.06C106.18,102.71,114.33,95.7,108.68,88.65Z"/><path d="M105.84,104.53l-.51-.9c-5.09-8.93.81-13.74.86-13.78l.52-.41.47.46c6.19,6-.58,13.78-.65,13.85Zm.79-13c-1.08,1.2-3.36,4.66-.53,10.41C107.44,100,110,95.4,106.63,91.49Z"/><path class="cls-6" d="M107.56,105.23c-1.38-4-6.78,1.26-8,2.34-3.45,3.15-6.89,6.27-10.48,9.25-1.11.92-2.47,1.41-2.79,3.1-.38,2,1.65,4.7,3.32,3.26,4.42-3.83,9.12-7.4,13.32-11.52C104.3,110.42,108.42,107.76,107.56,105.23Z"/><path d="M89.08,121.25a2.18,2.18,0,0,1-1.1-.32,3.36,3.36,0,0,1-1.36-3.5,4.29,4.29,0,0,1,2.07-2.56c.23-.16.46-.33.68-.51,3.22-2.64,6.29-5.38,9.27-8l.19-.18c2-1.83,4.57-3.86,6.39-3.36a2.14,2.14,0,0,1,1.49,1.59c.66,2.16-1.9,4.22-3.59,5.59-.31.25-.59.47-.79.66-2.5,2.38-5.23,4.61-7.86,6.77-1.33,1.09-2.66,2.18-4,3.29A2.21,2.21,0,0,1,89.08,121.25Zm15.5-17.06c-.67,0-2,.6-4.75,3.06l-.2.19c-3,2.66-6.07,5.41-9.32,8.07-.25.21-.51.39-.77.58a3,3,0,0,0-1.48,1.69,1.88,1.88,0,0,0,.71,1.88.61.61,0,0,0,.78-.1c1.31-1.12,2.64-2.21,4-3.31,2.61-2.14,5.31-4.35,7.78-6.71.24-.21.54-.46.88-.73,1.21-1,3.46-2.8,3.1-4h0c-.16-.51-.38-.58-.47-.6A.83.83,0,0,0,104.58,104.19Z"/><path d="M110.64,107.07a7.33,7.33,0,0,1-5.35-2.45l-.4-.41.3-.5c0-.06,4.24-6.65,13-1.76l.81.45-.61.69c-.14.16-3.47,3.87-7.61,4Zm-3.83-3a5.77,5.77,0,0,0,4,1.56c2.5-.07,4.74-1.8,5.83-2.79C110.91,100.05,107.81,102.83,106.81,104Z"/><path d="M119.84,102.7s11.91,5.56,18.24,2.63c8.86-4.11,13.5-8.33,15.32-10.43,2.87-3.3,4-14.51-6.14-14,0,0-1.94.31-12.39,9C131.39,92.87,125.36,99.33,119.84,102.7Z"/><path d="M133.53,106.93c-6.31,0-13.62-3.37-14-3.55a.74.74,0,0,1-.43-.64.72.72,0,0,1,.36-.68c3.76-2.29,7.81-6.1,11.07-9.16,1.49-1.4,2.78-2.61,3.87-3.51,10.09-8.45,12.39-9.16,12.75-9.22,5-.28,7.15,2,8.11,4,1.74,3.57.76,8.85-1.28,11.19-1.49,1.71-6,6.17-15.58,10.62A11.64,11.64,0,0,1,133.53,106.93Zm-12.1-4.37c3.19,1.3,11.57,4.29,16.33,2.09,9.33-4.32,13.65-8.6,15.08-10.24a10.09,10.09,0,0,0,1.07-9.55c-1.11-2.27-3.31-3.34-6.53-3.2-.35.12-2.85,1.2-12,8.88-1,.88-2.33,2.07-3.8,3.46A87.91,87.91,0,0,1,121.43,102.56Z"/></g></svg>