<svg id="圖層_1" data-name="圖層 1" xmlns="http://www.w3.org/2000/svg" xmlns:xlink="http://www.w3.org/1999/xlink" viewBox="0 0 194.94 294.58"><defs><style>.cls-1{fill:none;}.cls-2{fill:#fff;}.cls-3{fill:#858585;}.cls-4{fill:#ffe700;}.cls-5{clip-path:url(#clip-path);}.cls-6{fill:#231815;}.cls-7{fill:#c21823;}.cls-8{fill:#ffb4c0;}.cls-9{opacity:0.6;}.cls-10{clip-path:url(#clip-path-2);}</style><clipPath id="clip-path"><rect class="cls-1" x="13.21" y="142.76" width="36.99" height="106.61"/></clipPath><clipPath id="clip-path-2"><rect class="cls-1" x="12.88" y="12.85" width="96.36" height="101.81"/></clipPath></defs><title>新接龍</title><rect class="cls-2" x="12.88" y="12.85" width="169" height="265.73"/><path d="M183.88,280.58h-173V10.85h173Zm-169-4h165V14.85h-165Z"/><path d="M168.46,28.66A4.35,4.35,0,1,0,160,27.27a4.64,4.64,0,0,0,.21,1.39,4.43,4.43,0,0,0,.17,8.86,4.24,4.24,0,0,0,2.88-1.13l-.93,3.24h4l-.94-3.27a4.25,4.25,0,0,0,2.92,1.16,4.43,4.43,0,0,0,.16-8.86Z"/><path class="cls-3" d="M181.71,248.37v28.87c-20.35-3.45-36-20-42.21-37.75-1.08-3.1-5.74-37-5.15-36.82,24.24,5.8,43.79,21.87,47.36,45.7"/><path d="M182.71,276.8h-.13c-18-3.25-33.82-18.33-40.37-38.44-.56-1.72-2-11.64-3-19.62-2.28-17.5-2-17.84-1.69-18.14a.78.78,0,0,1,.75-.22c25.1,6.41,42,23.81,45.19,46.56a.73.73,0,0,1-.63.84.75.75,0,0,1-.85-.63c-3.07-21.85-19.18-38.64-43.17-45.07.34,5.2,3.85,32.78,4.84,35.81,6.38,19.59,21.77,34.28,39.2,37.43a.76.76,0,0,1,.61.87A.75.75,0,0,1,182.71,276.8Z"/><path d="M182.71,272.64a.73.73,0,0,1-.63-.35L137.44,201.5a.74.74,0,0,1,.1-.93.76.76,0,0,1,.94-.1c16.57,10.61,43.75,64.31,44.9,66.59a.75.75,0,1,1-1.34.67c-.26-.51-24.62-48.67-41.06-63.42l42.37,67.18a.76.76,0,0,1-.24,1A.8.8,0,0,1,182.71,272.64Z"/><path d="M150.33,221.29h-.11l-10.35-1.59a.75.75,0,1,1,.23-1.48l10.34,1.59a.75.75,0,0,1-.11,1.49Z"/><path d="M152.57,224.84h0l-11.39-.75a.75.75,0,0,1-.69-.8.72.72,0,0,1,.79-.7l11.39.75a.76.76,0,0,1,.7.8A.75.75,0,0,1,152.57,224.84Z"/><path d="M156.3,231.3h-.08l-14.36-1.48a.75.75,0,1,1,.15-1.49l14.37,1.48a.75.75,0,0,1-.08,1.5Z"/><path d="M163.51,242.19H144.08a.75.75,0,1,1,0-1.5h19.43a.75.75,0,0,1,0,1.5Z"/><path d="M146.28,247.08a.75.75,0,0,1,0-1.5l20-.44h0a.75.75,0,0,1,0,1.5l-20,.44Z"/><path d="M150.71,254.64a.75.75,0,0,1,0-1.5l19.74-.63a.74.74,0,0,1,.77.72.76.76,0,0,1-.72.78l-19.74.63Z"/><path d="M158.93,234.93h-.06l-17-1.41a.74.74,0,0,1-.68-.81.73.73,0,0,1,.8-.68l17,1.41a.75.75,0,0,1-.06,1.5Z"/><path d="M158.93,226.64l-.21,0a.75.75,0,0,1-.51-.93l3.79-13a.75.75,0,1,1,1.44.43l-3.79,13A.76.76,0,0,1,158.93,226.64Z"/><path d="M162.72,230.92a.83.83,0,0,1-.22,0A.75.75,0,0,1,162,230l4.27-13.57a.74.74,0,0,1,.94-.49.76.76,0,0,1,.49.94l-4.27,13.57A.75.75,0,0,1,162.72,230.92Z"/><path d="M165.57,237.25a.74.74,0,0,1-.64-.37c-.64-1,1-6.25,5-15.45a.75.75,0,1,1,1.38.6c-2.62,6.08-5.22,13-5.07,14.15a.75.75,0,0,1-.29,1A.77.77,0,0,1,165.57,237.25Zm.65-1.14Z"/><path d="M168,241.29a.83.83,0,0,1-.22,0,.74.74,0,0,1-.49-.94l5.29-16.83a.75.75,0,0,1,.94-.49.74.74,0,0,1,.49.94l-5.29,16.83A.75.75,0,0,1,168,241.29Z"/><path d="M172.77,249.62l-.18,0a.75.75,0,0,1-.55-.91L176.59,230a.75.75,0,0,1,.9-.56.76.76,0,0,1,.55.91L173.49,249A.74.74,0,0,1,172.77,249.62Z"/><path d="M178.43,260l-.18,0a.75.75,0,0,1-.55-.91l3.82-14.91a.76.76,0,0,1,.91-.54.74.74,0,0,1,.54.91l-3.81,14.91A.76.76,0,0,1,178.43,260Z"/><path d="M156.3,221.29l-.16,0a.74.74,0,0,1-.57-.89l2.31-10.54a.75.75,0,1,1,1.46.32L157,220.7A.74.74,0,0,1,156.3,221.29Z"/><path d="M175.79,261.67H156.3a.75.75,0,0,1,0-1.5h19.49a.75.75,0,1,1,0,1.5Z"/><path d="M178.29,265.64H160.37a.75.75,0,0,1,0-1.5h17.92a.75.75,0,0,1,0,1.5Z"/><path class="cls-4" d="M141.93,205.77l-1.26-4.91c-1.2-3-2.68-3.91-4.29-2.87-1.57,1.24-1.24,2.93,1.18,5A30.93,30.93,0,0,0,141.93,205.77Z"/><path d="M142.93,207.52a.76.76,0,0,1-.33-.08,29.76,29.76,0,0,1-4.3-2.69l-.17-.12c-1.7-1.47-2.49-2.75-2.46-4a2.94,2.94,0,0,1,1.24-2.25,2.88,2.88,0,0,1,2.5-.46c1.17.38,2.14,1.57,3,3.65l1.29,5a.74.74,0,0,1-.25.77A.75.75,0,0,1,142.93,207.52Zm-4.29-8.2a1.62,1.62,0,0,0-.86.3,1.45,1.45,0,0,0-.61,1.07c0,.5.31,1.4,1.88,2.76l.11.08c.87.61,1.7,1.2,2.61,1.75l-.83-3.23c-.59-1.48-1.3-2.46-2-2.68A1.06,1.06,0,0,0,138.64,199.32Z"/><g class="cls-5"><path class="cls-3" d="M40.28,226.71,22.84,254.49C5.35,238.88.22,213.51,5,192.67c.84-3.63,16.81-39,17.29-38.55,19.82,20.23,28.93,47.5,18,72.59"/><path d="M24.52,254.8a.83.83,0,0,1-.57-.22c-15.34-14-21.47-38.07-15.62-61.37.5-2,5.13-12.4,9-20.7,8.37-18.22,8.86-18.35,9.33-18.47a.87.87,0,0,1,.85.24c20.29,21.33,26,48.28,15.37,72.1a.85.85,0,0,1-1.13.42.84.84,0,0,1-.42-1.12C51.52,202.8,46.16,176.92,27,156.23c-2.81,5.22-16.1,33.88-17,37.39-5.69,22.71.24,46.14,15.12,59.7a.84.84,0,0,1,0,1.2A.82.82,0,0,1,24.52,254.8Z"/><path d="M27,250.8a.86.86,0,0,1-.85-.85L26,154.87a.87.87,0,0,1,.67-.84.84.84,0,0,1,.95.47c4,8.52,5.75,26.47,5.12,53.35-.46,20-2.12,37.68-2.13,37.85a.85.85,0,1,1-1.7-.16c.06-.65,5.7-61.7-1.19-85.83L27.89,250a.85.85,0,0,1-.85.85Z"/><path d="M26.9,181.83a.85.85,0,0,1-.56-.21l-9-7.78a.85.85,0,0,1-.08-1.2.84.84,0,0,1,1.2-.09l9,7.78a.85.85,0,0,1-.55,1.5Z"/><path d="M26.9,186.6a.83.83,0,0,1-.49-.17l-10.51-7.6a.85.85,0,0,1,1-1.38l10.51,7.6a.86.86,0,0,1,.19,1.19A.87.87,0,0,1,26.9,186.6Z"/><path d="M26.59,195.06a.86.86,0,0,1-.52-.18l-12.93-10.1a.85.85,0,0,1-.15-1.19.86.86,0,0,1,1.2-.15l12.93,10.1a.86.86,0,0,1,.15,1.2A.87.87,0,0,1,26.59,195.06Z"/><path d="M27,209.89a.84.84,0,0,1-.45-.13L7.81,198a.85.85,0,0,1,.9-1.45l18.7,11.74a.85.85,0,0,1,.26,1.17A.83.83,0,0,1,27,209.89Z"/><path d="M27,215.88a.85.85,0,0,1-.43-.12L7,204.08a.86.86,0,0,1-.29-1.17.85.85,0,0,1,1.17-.29L27.4,214.3a.84.84,0,0,1,.3,1.16A.86.86,0,0,1,27,215.88Z"/><path d="M26.49,225.46a.82.82,0,0,1-.43-.12L6.68,214a.86.86,0,0,1-.3-1.17.85.85,0,0,1,1.16-.3l19.38,11.31a.85.85,0,0,1,.3,1.16A.84.84,0,0,1,26.49,225.46Z"/><path d="M26.93,200.15a.81.81,0,0,1-.51-.18l-15.5-11.62a.85.85,0,0,1,1-1.37l15.51,11.63a.85.85,0,0,1,.16,1.19A.83.83,0,0,1,26.93,200.15Z"/><path d="M31.94,192.17a.85.85,0,0,1-.57-1.49L42.86,180.5A.85.85,0,0,1,44,181.77L32.5,192A.85.85,0,0,1,31.94,192.17Z"/><path d="M33,198.58a.85.85,0,0,1-.55-1.5l12.31-10.47a.85.85,0,0,1,1.2.09.85.85,0,0,1-.1,1.2l-12.3,10.48A.86.86,0,0,1,33,198.58Z"/><path d="M31.93,206.39h0a.86.86,0,0,1-.84-.87c0-1.4,4.79-5.38,14.16-11.84a.84.84,0,0,1,1.18.22.85.85,0,0,1-.22,1.19c-6.19,4.27-12.87,9.36-13.42,10.56A.84.84,0,0,1,31.93,206.39Zm.83-.71Zm0-.13Z"/><path d="M31.8,211.74a.85.85,0,0,1-.55-1.5l15.26-13a.85.85,0,0,1,1.1,1.3l-15.26,13A.89.89,0,0,1,31.8,211.74Z"/><path d="M31.37,222.64a.87.87,0,0,1-.61-.26.85.85,0,0,1,0-1.21l15.67-15.24a.85.85,0,0,1,1.2,0,.86.86,0,0,1,0,1.21L32,222.4A.86.86,0,0,1,31.37,222.64Z"/><path d="M30.58,236a.85.85,0,0,1-.59-1.47l12.68-12a.85.85,0,1,1,1.18,1.23L31.17,235.78A.89.89,0,0,1,30.58,236Z"/><path d="M32.64,185.44a.87.87,0,0,1-.6-.25.85.85,0,0,1,0-1.2l8.59-8.76a.87.87,0,0,1,1.21,0,.86.86,0,0,1,0,1.21l-8.59,8.75A.87.87,0,0,1,32.64,185.44Z"/><path d="M27,236.06a.84.84,0,0,1-.45-.13L7.8,224.15a.85.85,0,1,1,.9-1.44l18.76,11.77a.86.86,0,0,1-.46,1.58Z"/><path d="M27,241.39a.84.84,0,0,1-.45-.13L9.31,230.43A.85.85,0,0,1,9,229.26a.86.86,0,0,1,1.18-.27l17.25,10.83a.85.85,0,0,1,.27,1.17A.86.86,0,0,1,27,241.39Z"/><path class="cls-4" d="M27.73,161.68l1.76-5.48c.68-3.65-.22-5.38-2.4-5.35-2.25.24-3,2.07-1.9,5.55A34.86,34.86,0,0,0,27.73,161.68Z"/><path d="M29.37,162.43a.75.75,0,0,1-.64-.35,34.73,34.73,0,0,1-2.5-5.16l-.09-.23c-.74-2.4-.72-4.08,0-5.22a3.27,3.27,0,0,1,2.48-1.37,3.09,3.09,0,0,1,2.6,1c.87,1.05,1.08,2.75.62,5.21l-1.78,5.57a.76.76,0,0,1-.62.52Zm-.59-10.83h-.05a1.72,1.72,0,0,0-1.31.7c-.48.72-.43,2.06.13,3.88l.06.16c.5,1.18,1,2.32,1.57,3.48L30.4,156c.44-2.35.07-3.41-.31-3.87A1.61,1.61,0,0,0,28.78,151.6Z"/></g><path class="cls-6" d="M121.63,131.83a47.32,47.32,0,0,0,1.79,7.62,1.06,1.06,0,0,0,1.67.45l2.39-1.93s7.12-6.81,3.61-10.45c-2.63-2.74-7.29-2.84-9.46-2.72a10.64,10.64,0,0,1-3.08-.25,4.45,4.45,0,0,1-1.25-.43,3.11,3.11,0,0,1-.93-1.63s.3,1.16-1.16,2.27-6,2.8-6.48,4.89c-.47,1.89-.06,6.52,3.77,8.54a14.5,14.5,0,0,0,6.68,1.95c1.18.2,4.42,1.46,5.7,3.68a6.87,6.87,0,0,0,3.34,2.41l.84.34-1.58-8.6"/><path class="cls-6" d="M129.06,147.32a.93.93,0,0,1-.29,0l-.84-.35a7.46,7.46,0,0,1-3.7-2.72c-1.16-2-4.25-3.16-5.18-3.32a7,7,0,0,0-.71-.08,14.41,14.41,0,0,1-6.19-2c-4.29-2.26-4.64-7.39-4.15-9.38.45-1.79,2.94-3.15,4.94-4.23a15.89,15.89,0,0,0,1.82-1.08c1-.76.88-1.47.88-1.5a.76.76,0,0,1,.55-.89.73.73,0,0,1,.89.5,2.48,2.48,0,0,0,.64,1.23,3.68,3.68,0,0,0,1,.32,10.29,10.29,0,0,0,2.87.23c2.56-.14,7.26,0,10,3a4.17,4.17,0,0,1,1.18,3.08c-.07,3.34-3.49,7.08-4.53,8.14l1.51,8.22a.73.73,0,0,1-.73.88Zm-12.51-22.86a4.11,4.11,0,0,1-.88.9,17.25,17.25,0,0,1-2,1.19c-1.56.85-3.91,2.13-4.2,3.28-.35,1.39-.19,5.81,3.39,7.69a13,13,0,0,0,5.62,1.79c.31,0,.58.05.84.09,1.35.24,4.8,1.58,6.22,4a5.57,5.57,0,0,0,2.54,1.9l-1.1-6-1.4,1.13a1.81,1.81,0,0,1-1.63.34,1.79,1.79,0,0,1-1.22-1.11A47.77,47.77,0,0,1,120.9,132a.74.74,0,0,1,.61-.87.75.75,0,0,1,.86.61,45.57,45.57,0,0,0,1.76,7.49.3.3,0,0,0,.2.19.35.35,0,0,0,.29-.06L127,137.4h0c.06-.06,4.24-4.13,4.31-7.35a2.67,2.67,0,0,0-.76-2c-2.46-2.55-7-2.59-8.88-2.48a11.75,11.75,0,0,1-3.29-.27,4.06,4.06,0,0,1-1.49-.54A2.2,2.2,0,0,1,116.55,124.46Z"/><path class="cls-6" d="M118.82,245.05a15.08,15.08,0,0,1-5.82-1.48c-2.71-1.22-3.19-2.87-3.86-5.17l-.22-.76-3.09-10.28c-1-3.49-1.93-5.92-4.62-8l-.61-.47c-2.49-1.9-5.6-4.28-7-7.65a.75.75,0,1,1,1.37-.59c1.3,3,4.24,5.25,6.59,7l.62.48c3,2.34,4,5.1,5.14,8.75l3.31,11c.64,2.19,1,3.29,3,4.23,1.62.72,5.6,2.24,7.72.61.43-.33.67-.64.67-.87,0-.42-.78-1-1.35-1.48-.28-.21-.55-.42-.78-.63a31,31,0,0,1-5.37-7.09,14.13,14.13,0,0,1-2.08-9.52,21.73,21.73,0,0,1,.82-2.76c1.43-4.28,3.84-11.43.76-17-1.79-3.23,1.26-6.38,2.23-7.27a17,17,0,0,0,4.57-6.07,37.75,37.75,0,0,0,2-6.54c.52-2.21.65-2.69,1.08-2.95a.75.75,0,0,1,1,.27.74.74,0,0,1-.09.88c-.12.28-.35,1.27-.56,2.14a38.64,38.64,0,0,1-2.07,6.83,18.18,18.18,0,0,1-4.92,6.55c-.77.7-3.18,3.17-1.93,5.43,3.4,6.11.76,13.95-.65,18.17a21.91,21.91,0,0,0-.76,2.53,12.73,12.73,0,0,0,1.89,8.5,29.65,29.65,0,0,0,5.09,6.75c.21.19.44.37.69.56.91.71,1.94,1.51,1.93,2.67a2.63,2.63,0,0,1-1.26,2A5.46,5.46,0,0,1,118.82,245.05Zm5.8-63.08Z"/><path class="cls-6" d="M75.48,254a9.8,9.8,0,0,1-8-4.8c-1.61-2.59-2.33-5.85-2.2-10a52.41,52.41,0,0,1,2.14-12.16l.09-.34a17,17,0,0,0,.87-4.88,51.21,51.21,0,0,0-1.38-9,67.17,67.17,0,0,1-1.19-6.7c-.83-8.06,3.38-17.88,13-21a20.08,20.08,0,0,0,8.56-5.72l.24-.26A67.49,67.49,0,0,0,94.19,171c2.17-3.36,4.27-6.43,6.49-9.68l1.28-1.86c1.37-2,2.76-4.16,4.14-6.41a9.28,9.28,0,0,0,1.08-7.16,9.16,9.16,0,0,0-4.34-5.72c-1.09-.63-2.28-1.26-3.52-1.92-1-.52-2-1.07-3-1.64-7.78-4.31-3.25-14.35-3.2-14.45a.73.73,0,0,1,.9-.4l5.59,1.77a.75.75,0,0,1-.46,1.43l-4.92-1.56c-.79,2.07-2.81,8.78,2.81,11.9,1,.57,2,1.11,3,1.62,1.27.67,2.46,1.31,3.56,1.95a10.76,10.76,0,0,1,3.79,15c-1.38,2.27-2.79,4.45-4.17,6.47l-1.28,1.87c-2.22,3.24-4.32,6.3-6.47,9.64a67.86,67.86,0,0,1-6.74,8.31l-.23.26a21.45,21.45,0,0,1-9.21,6.14c-8.8,2.88-12.76,12.18-12,19.46a63.35,63.35,0,0,0,1.17,6.54,52.41,52.41,0,0,1,1.41,9.28,18.16,18.16,0,0,1-.93,5.31l-.09.34a51.22,51.22,0,0,0-2.08,11.81c-.12,3.82.52,6.81,2,9.14,1.84,3,5.12,4.57,8,4a.51.51,0,0,0,.3-.19c.51-.88-.66-2.71-1.29-3.7l-.22-.35c-.22-.35-.43-.67-.63-1a7.14,7.14,0,0,1-1.64-5.11c.06-.85.09-1.71.12-2.58a29.61,29.61,0,0,1,.76-6.83c1-3.58,3.52-5.13,6.21-6.78.47-.29,1-.58,1.43-.9,3.23-2.09,6.85-4.72,9.27-8.39C92.83,213.8,95.88,206,93,201a.75.75,0,0,1,1.3-.74c3.23,5.68,0,14-2.06,17.13-2.58,3.91-6.36,6.66-9.71,8.83-.49.32-1,.62-1.47.92-2.54,1.55-4.73,2.89-5.55,5.9a29.45,29.45,0,0,0-.71,6.48c0,.89-.06,1.77-.12,2.64-.13,1.88.44,2.74,1.39,4.17.21.31.43.64.66,1l.21.34c.86,1.33,2.29,3.58,1.32,5.25a1.89,1.89,0,0,1-1.28.9A7.07,7.07,0,0,1,75.48,254Z"/><path class="cls-6" d="M124.41,140.4a1.84,1.84,0,0,1-.47-.06,1.81,1.81,0,0,1-1.22-1.11,48.23,48.23,0,0,1-1.82-7.76.75.75,0,0,1,.61-.87.76.76,0,0,1,.86.62,45,45,0,0,0,1.76,7.49.28.28,0,0,0,.2.18.29.29,0,0,0,.29-.06L127,136.9s4.24-4.1,4.31-7.34a2.67,2.67,0,0,0-.76-2c-2.46-2.55-7-2.59-8.88-2.49a11.73,11.73,0,0,1-3.29-.26,4.51,4.51,0,0,1-1.49-.54c-1-.67-1.37-2.41-1.64-3.68,0-.23-.1-.43-.14-.6a4.72,4.72,0,0,0-2.15-3c-1-.65-5.31-2.23-6-1.73a1.47,1.47,0,0,0,.3.5,39.65,39.65,0,0,1,4.47,6.85.94.94,0,0,1,0,.93.87.87,0,0,1-.81.44,5,5,0,0,0-3.86,1.92,1.49,1.49,0,0,1-.91.51c-.8.13-2.78.11-7-1.39a.75.75,0,1,1,.5-1.41c4.21,1.48,5.9,1.38,6.31,1.32a6.56,6.56,0,0,1,4.11-2.39,38.19,38.19,0,0,0-3.9-5.83,2.43,2.43,0,0,1-.61-1.31,1.43,1.43,0,0,1,.71-1.43c1.86-1.1,7.17,1.51,7.56,1.76a6.28,6.28,0,0,1,2.79,4c0,.18.09.4.14.65.17.78.52,2.41,1,2.74a3.38,3.38,0,0,0,1,.33,10.24,10.24,0,0,0,2.87.22c2.56-.13,7.26.06,10,3a4.18,4.18,0,0,1,1.18,3.08c-.08,3.87-4.62,8.25-4.82,8.44l-2.42,2A1.88,1.88,0,0,1,124.41,140.4Z"/><path class="cls-6" d="M142.43,173.76a6.19,6.19,0,0,1-1-.07l-2-.35c-2.95-.54-7.42-1.35-8.67-.47a.75.75,0,1,1-.86-1.22c1.63-1.16,5.09-.64,9.8.21l2,.35c2.7.44,8-1.82,12.65-3.82,5.61-2.41,8.86-3.72,10.35-2.71s3,1.39,3.89.9a2.56,2.56,0,0,0,1.1-2.4,6.81,6.81,0,0,0-4.08-5.69c-1.92-1-8.14,1.09-13.13,2.74s-9.5,3.15-11.69,2.66c-5.27-1.2-9-4.5-10.5-9.29-.19-.62-3-14.24-3.55-17a.75.75,0,0,1,.59-.89.74.74,0,0,1,.88.59c1.33,6.46,3.36,16.27,3.51,16.82,1.33,4.26,4.67,7.19,9.4,8.26,1.79.41,6.41-1.13,10.89-2.61,6.06-2,11.79-3.91,14.27-2.67a8.33,8.33,0,0,1,4.91,7,4,4,0,0,1-1.89,3.75c-.83.45-2.64.91-5.44-1-.89-.6-5.53,1.39-8.92,2.85C150.35,171.73,145.62,173.76,142.43,173.76Z"/><path class="cls-6" d="M151,199.32a6,6,0,0,1-4.49-2.36c-2.47-2.78-6-4.53-9.36-6.22a52,52,0,0,1-6.19-3.46c-2.21-1.52-4.29-3.28-6.31-5-.72-.62-1.45-1.23-2.19-1.84a5.54,5.54,0,0,0-1.86-1.17,1.4,1.4,0,0,0-1.48.32.73.73,0,0,1-1,.16.74.74,0,0,1-.16-1.05,2.84,2.84,0,0,1,3.1-.87,6.85,6.85,0,0,1,2.4,1.45c.74.61,1.47,1.23,2.2,1.85a78.63,78.63,0,0,0,6.19,4.89,52.35,52.35,0,0,0,6,3.36c3.52,1.75,7.15,3.57,9.81,6.57,1.3,1.46,2.75,2.09,4.06,1.77a2.39,2.39,0,0,0,1.75-1.46,7.21,7.21,0,0,0-.83-4.43,8.57,8.57,0,0,0-2.75-3.73,2.33,2.33,0,0,0-.34-.2,6.44,6.44,0,0,0-1.39-.44l-.6-.12a17.24,17.24,0,0,1-2.27-.59,16.52,16.52,0,0,1-2.57-1.16,23.24,23.24,0,0,1-4.6-3.3,31.43,31.43,0,0,1-2.61-2.66l-.25-.28a58.6,58.6,0,0,1-7.9-10.49,6.41,6.41,0,0,0-2.57-2.7l-.41-.2a.76.76,0,0,1-.39-1,.75.75,0,0,1,1-.38l.51.24a8,8,0,0,1,3.19,3.32,57.39,57.39,0,0,0,7.71,10.21l.25.28a28.64,28.64,0,0,0,2.49,2.54,21.3,21.3,0,0,0,4.3,3.08,15.35,15.35,0,0,0,2.35,1.08,18.77,18.77,0,0,0,2.09.53l.62.13a7.25,7.25,0,0,1,1.73.56,4.08,4.08,0,0,1,.5.29,10,10,0,0,1,3.29,4.36,8.54,8.54,0,0,1,.91,5.42,3.86,3.86,0,0,1-2.84,2.54A4.42,4.42,0,0,1,151,199.32Z"/><path class="cls-6" d="M69.34,194.55a.78.78,0,0,1-.48-.17c-6-5.06-8.92-11.31-8.75-18.58s3.69-12.71,10.17-15.4a14.29,14.29,0,0,1,9.48-.84,10.3,10.3,0,0,1,6.83,6.88,6.66,6.66,0,0,1,.12,3.19s-.51,2.11-1.55,2.19a1,1,0,0,1-.93-.66c-1-2.57-3.52-5.18-6.84-4.81-3.65.39-6.24,3.91-7.34,6.81-2.25,5.9,1.45,11.15,6.27,13.29a.74.74,0,0,1,.38,1,.75.75,0,0,1-1,.38c-6.37-2.83-9.34-9.22-7.06-15.19,1.25-3.3,4.26-7.31,8.58-7.78,3.64-.39,6.51,2,7.93,4.71l.09-.27a5.09,5.09,0,0,0-.1-2.44A8.9,8.9,0,0,0,79.33,161a12.93,12.93,0,0,0-8.47.79c-5.89,2.45-9.09,7.31-9.25,14.06s2.53,12.58,8.22,17.39a.76.76,0,0,1,.08,1.06A.73.73,0,0,1,69.34,194.55Z"/><path class="cls-7" d="M131.23,150.6c1.94-3.68-5.82-4.2-7.47-4.37-4.79-.49-9.54-1-14.3-1.69-1.48-.21-2.82-.91-4.28,0-1.73,1-2.21,4.32,0,4.6,6,.77,12,1.9,18,2.31C125.1,151.59,130,152.9,131.23,150.6Z"/><path class="cls-2" d="M118.66,129.33A.75.75,0,0,1,118,129a9,9,0,0,0-1.82-1.31.74.74,0,0,1-.27-1,.75.75,0,0,1,1-.27,8.67,8.67,0,0,1,2.35,1.82.76.76,0,0,1-.26,1A.68.68,0,0,1,118.66,129.33Z"/><path class="cls-6" d="M102.58,159.89s4.76,12.25,1.42,18.37c-4.68,8.58-9.19,12.93-11.41,14.61-3.48,2.65-14.75,3.06-13.55-7.05C79,185.82,88.21,183.82,102.58,159.89Z"/><path class="cls-6" d="M86.85,195.22a10.39,10.39,0,0,1-5.06-1.2c-1.91-1.1-4.07-3.42-3.5-8.29a.73.73,0,0,1,.59-.64c.08,0,9.12-2.37,23.06-25.59a.73.73,0,0,1,.7-.36.77.77,0,0,1,.64.48c.2.51,4.85,12.65,1.38,19-5.06,9.28-9.81,13.48-11.61,14.85A10.78,10.78,0,0,1,86.85,195.22Zm-7.12-8.83c-.24,3,.71,5.12,2.81,6.32a10.08,10.08,0,0,0,9.6-.43c1.73-1.32,6.28-5.35,11.2-14.38,2.48-4.53.16-12.88-1-16.26C90.24,181.46,81.89,185.6,79.73,186.39Z"/><path class="cls-6" d="M98.35,123.94l-4.58-1.45s-1.15,4.25-1.16,4.32A9.34,9.34,0,0,0,98.35,123.94Z"/><path class="cls-6" d="M92.61,127.56a.75.75,0,0,1-.74-.89s0-.1,1.17-4.38a.8.8,0,0,1,.37-.46.74.74,0,0,1,.58-.06l4.58,1.45a.77.77,0,0,1,.5.51.74.74,0,0,1-.16.7,10,10,0,0,1-6.24,3.13Zm1.68-4.12c-.18.67-.45,1.66-.65,2.42a8.65,8.65,0,0,0,3.28-1.59Z"/><path class="cls-6" d="M116.73,122.92s.81.43-3.22.78c-1,.08-2.9.47-3.66.63a15.34,15.34,0,0,0-3.46,1.21h0a5.73,5.73,0,0,1,4.59-2.37.19.19,0,0,0,.17-.28,39.21,39.21,0,0,0-4.39-6.72,1.71,1.71,0,0,1-.44-.89c-.17-2.32,6.3.49,7.12,1A5.72,5.72,0,0,1,115.7,120a18,18,0,0,0,1,3"/><path class="cls-6" d="M106.39,126.29a.73.73,0,0,1-.58-.27.75.75,0,0,1,0-.94,6.61,6.61,0,0,1,4.29-2.6,38.19,38.19,0,0,0-3.9-5.83,2.35,2.35,0,0,1-.6-1.31,1.45,1.45,0,0,1,.7-1.43c1.86-1.11,7.18,1.51,7.57,1.76a6.48,6.48,0,0,1,2.58,4.09,16.63,16.63,0,0,0,.9,2.69.88.88,0,0,1,.2.73c-.14.65-.74,1-4,1.27-1,.08-3,.49-3.56.61a14.43,14.43,0,0,0-3.28,1.15A.84.84,0,0,1,106.39,126.29Zm10-2.72h0Zm-8.87-8.47a.77.77,0,0,0-.45.1,1.65,1.65,0,0,0,.3.5,40.28,40.28,0,0,1,4.48,6.85.9.9,0,0,1,.08.62c.57-.1,1.13-.18,1.54-.22a18.09,18.09,0,0,0,2.34-.3,24.23,24.23,0,0,1-.8-2.5,5,5,0,0,0-2-3.22A16.89,16.89,0,0,0,107.49,115.1Z"/><path class="cls-2" d="M115.14,131.42a.63.63,0,0,1-.3-.07,2.88,2.88,0,0,0-1.35-.29.75.75,0,1,1-.51-1.41,3.89,3.89,0,0,1,2.46.33.75.75,0,0,1-.3,1.44Z"/><path class="cls-2" d="M124.31,140.89a1.66,1.66,0,0,1-.49-.07,1.75,1.75,0,0,1-1.21-1.11,47.55,47.55,0,0,1-1.83-7.75.75.75,0,0,1,.61-.87.76.76,0,0,1,.87.61,44.9,44.9,0,0,0,1.75,7.49.31.31,0,0,0,.21.19.35.35,0,0,0,.29-.06l1.24-.82a28.65,28.65,0,0,0,2.61-2.06,27,27,0,0,0,3.53-3.93.75.75,0,0,1,1.19.92,28.54,28.54,0,0,1-3.73,4.14,27.32,27.32,0,0,1-2.78,2.18l-1.18.78A1.71,1.71,0,0,1,124.31,140.89Z"/><path d="M127.85,150.79a22.12,22.12,0,0,1-3.3-.35c-.42-.07-.78-.13-1.07-.16-3.54-.28-7.12-.84-10.59-1.37-1.76-.27-3.51-.54-5.27-.77a2.21,2.21,0,0,1-2-1.83,3.17,3.17,0,0,1,1.61-3.23,4.51,4.51,0,0,1,3.35-.15c.29.06.57.13.87.17,4.25.65,8.47,1.13,12.54,1.59l.28,0c2.82.3,6.17.86,7,2.57a2.12,2.12,0,0,1-.13,2.11h0C130.6,150.48,129.28,150.79,127.85,150.79Zm-18.94-6.61a2,2,0,0,0-1,.23,1.68,1.68,0,0,0-.83,1.63.71.71,0,0,0,.7.61c1.77.24,3.53.51,5.3.78,3.44.53,7,1.08,10.5,1.36.32,0,.72.09,1.16.17,1.48.23,4.54.73,5.13-.3h0c.23-.42.14-.61.1-.69-.29-.55-1.53-1.3-5.88-1.76l-.28,0c-4.1-.46-8.33-.94-12.61-1.59-.33-.05-.65-.13-1-.2A6.54,6.54,0,0,0,108.91,144.18Z"/><path class="cls-7" d="M130.21,150.06s8-1.36,11,8.88C141.18,158.94,130.09,159,130.21,150.06Z"/><path class="cls-7" d="M144.08,140.52s-7.76-2.38-12,7.39C132.06,147.91,143.05,149.36,144.08,140.52Z"/><path d="M140.6,157.26c-.28,0-5.41,0-8.43-3.1a7.51,7.51,0,0,1-2.12-5.6v-.62l.62-.11c.08,0,7.84-1.22,10.65,8.47l.28.95Zm-9-8a5.88,5.88,0,0,0,1.67,3.84c1.84,1.87,4.76,2.42,6.32,2.59C137.4,149.72,133.19,149.22,131.56,149.26Z"/><path d="M131.52,148.88h-1l.28-1c2.81-9.69,10.57-8.48,10.65-8.46l.61.1v.63a7.51,7.51,0,0,1-2.12,5.59C136.93,148.83,131.8,148.88,131.52,148.88Zm8.91-8c-1.7,0-5.77.64-7.86,6.43,1.56-.17,4.48-.72,6.32-2.59a5.82,5.82,0,0,0,1.66-3.83Z"/><path class="cls-8" d="M105.35,195.5s5.63-20.37,13.86-10.94-8.07,20.81-8.07,20.81S104.05,207.62,105.35,195.5Z"/><path class="cls-3" d="M12,254.53V277c17-2.68,30.05-15.54,35.21-29.39.89-2.41,4.78-28.78,4.29-28.67C31.33,223.47,15,236,12,254.53"/><path d="M13.71,276.87a.75.75,0,0,1-.13-1.49c13.59-2.36,25.57-13.37,30.54-28,.72-2.13,3.39-22.22,3.76-26.65-18.58,4.87-31,17.41-33.43,33.7a.75.75,0,1,1-1.48-.21C15.48,237,28.75,223.84,48.45,219a.78.78,0,0,1,.74.22c.29.32.51.56-1.28,13.81-.82,6-1.93,13.48-2.37,14.79C40.4,263,28,274.41,13.84,276.86Z"/><path d="M13.71,273.74a.78.78,0,0,1-.41-.12.76.76,0,0,1-.22-1l32.4-49.42c-12.79,12-30.91,46.42-31.1,46.8a.75.75,0,0,1-1.33-.7c.9-1.72,22.18-42.17,35.18-50.17a.75.75,0,0,1,1,1L14.34,273.4A.74.74,0,0,1,13.71,273.74Z"/><path d="M39,235.1a.74.74,0,0,1-.74-.64.75.75,0,0,1,.63-.85l8.09-1.2a.76.76,0,0,1,.85.64.75.75,0,0,1-.63.85l-8.09,1.2Z"/><path d="M37.29,237.77a.75.75,0,0,1-.75-.7.74.74,0,0,1,.7-.79l8.91-.57a.74.74,0,0,1,.79.7.76.76,0,0,1-.7.8l-8.9.56Z"/><path d="M34.37,242.63a.75.75,0,0,1-.07-1.49L45.53,240a.73.73,0,0,1,.82.68.74.74,0,0,1-.67.82l-11.23,1.11Z"/><path d="M43.93,250.83H28.73a.75.75,0,1,1,0-1.5h15.2a.75.75,0,0,1,0,1.5Z"/><path d="M42.21,254.51h0l-15.67-.33a.76.76,0,0,1-.74-.77.72.72,0,0,1,.77-.73l15.67.33a.75.75,0,0,1,0,1.5Z"/><path d="M38.74,260.2h0l-15.44-.48a.74.74,0,0,1-.72-.77.78.78,0,0,1,.77-.73l15.44.48a.75.75,0,0,1,0,1.5Z"/><path d="M32.31,245.36a.74.74,0,0,1-.74-.69.73.73,0,0,1,.68-.8l13.3-1.07a.77.77,0,0,1,.81.69.76.76,0,0,1-.69.81l-13.3,1.06Z"/><path d="M32.31,239.13a.74.74,0,0,1-.71-.53l-3-9.76a.75.75,0,0,1,1.43-.44l3,9.76a.75.75,0,0,1-.5.94A.78.78,0,0,1,32.31,239.13Z"/><path d="M29.35,242.35a.76.76,0,0,1-.72-.51l-3.34-10.21a.75.75,0,0,1,1.43-.47l3.34,10.21a.74.74,0,0,1-.48.94A.66.66,0,0,1,29.35,242.35Z"/><path d="M27.12,247.11a.8.8,0,0,1-.4-.11.75.75,0,0,1-.3-.92c0-1-2-6.18-3.94-10.52a.75.75,0,0,1,1.37-.62c4.71,10.53,4.12,11.47,3.9,11.82A.75.75,0,0,1,27.12,247.11ZM26.48,246Z"/><path d="M25.23,250.15a.75.75,0,0,1-.71-.51L20.38,237a.75.75,0,0,1,.48-.95.73.73,0,0,1,.94.48L26,249.17a.77.77,0,0,1-.48,1Z"/><path d="M21.49,256.42a.77.77,0,0,1-.73-.57L17.2,241.79a.77.77,0,0,1,.55-.92.76.76,0,0,1,.91.55l3.56,14.06a.76.76,0,0,1-.54.92Z"/><path d="M17.06,264.2a.76.76,0,0,1-.73-.56l-3-11.22a.75.75,0,0,1,.53-.92.76.76,0,0,1,.92.54l3,11.22a.74.74,0,0,1-.53.91A.63.63,0,0,1,17.06,264.2Z"/><path d="M34.37,235.1a.75.75,0,0,1-.73-.58l-1.81-7.93a.75.75,0,0,1,.57-.9.76.76,0,0,1,.9.56l1.8,7.94a.76.76,0,0,1-.56.9Z"/><path d="M34.37,265.48H19.13a.75.75,0,1,1,0-1.5H34.37a.75.75,0,1,1,0,1.5Z"/><path d="M31.19,268.47h-14a.75.75,0,0,1,0-1.5h14a.75.75,0,0,1,0,1.5Z"/><path class="cls-4" d="M49,221.17c1.89-1.58,2.15-2.85.92-3.78s-2.41-.13-3.35,2.16l-1,3.69A24.25,24.25,0,0,0,49,221.17Z"/><path d="M44.83,224.74a.78.78,0,0,1-.48-.17.75.75,0,0,1-.24-.77l1-3.69c.69-1.69,1.47-2.62,2.42-2.93a2.48,2.48,0,0,1,3.16,2.21c0,1-.62,2-2,3.11a.1.1,0,0,1,0,0l-.14.1a24.18,24.18,0,0,1-3.38,2A.71.71,0,0,1,44.83,224.74Zm3.37-6.17a.73.73,0,0,0-.23,0c-.28.09-.84.47-1.46,2L46,222.5c.58-.35,1.12-.72,1.69-1.1l.1-.08c1.21-1,1.39-1.62,1.38-1.9,0-.08,0-.35-.45-.68A1,1,0,0,0,48.2,218.57Zm0,3.35h0Z"/><g class="cls-9"><path d="M183.88,280.58h-173V10.85h173Zm-169-4h165V14.85h-165Z"/></g><g class="cls-10"><path d="M77.7,37.78a31,31,0,0,0,1.48-9.51c0-16.73-13.3-30.35-29.64-30.35S19.89,11.54,19.89,28.27a30.66,30.66,0,0,0,1.49,9.51c-15.82.61-28.51,14-28.51,30.33,0,16.73,13.3,30.35,29.65,30.35a29.17,29.17,0,0,0,19.74-7.73l-6.38,22.15H63L56.57,90.5a29.16,29.16,0,0,0,20,8c16.35,0,29.64-13.62,29.64-30.35C106.2,51.76,93.52,38.39,77.7,37.78Z"/></g><path class="cls-2" d="M27,40a3.88,3.88,0,0,0,1-1.66,6.87,6.87,0,0,0,.34-1.78c.06-.67.08-1.71.08-3.12V24.55l-1.92-.26v-1h5.9v1l-1.83.26v9.07c0,1.06,0,1.91,0,2.55a10.26,10.26,0,0,1-.18,1.65,4.8,4.8,0,0,1-1.58,2.65A5.92,5.92,0,0,1,26,41.79L25.42,41A4,4,0,0,0,27,40Z"/></svg>