<svg id="圖層_1" data-name="圖層 1" xmlns="http://www.w3.org/2000/svg" xmlns:xlink="http://www.w3.org/1999/xlink" viewBox="0 0 194.94 294.58"><defs><style>.cls-1{fill:none;}.cls-2{fill:#fff;}.cls-3{fill:#170000;}.cls-4{fill:#da003a;}.cls-5{clip-path:url(#clip-path);}.cls-6{fill:#c21823;}</style><clipPath id="clip-path"><rect class="cls-1" x="36.45" y="49.3" width="145.66" height="128.46"/></clipPath></defs><title>新接龍</title><rect class="cls-2" x="12.88" y="12.85" width="169" height="265.73"/><path d="M183.88,280.58h-173V10.85h173Zm-169-4h165V14.85h-165Z"/><path d="M183.88,280.58h-173V10.85h173Zm-169-4h165V14.85h-165Z"/><path class="cls-3" d="M28.77,41.07q1.1-2.37,2.08-4.77c.67-1.6,1.59-3.86,2.78-6.79l.95-2.37-5.94.08-.85,2.67-1.28-.24.42-4h9.15l.42.54-2.75,7.71c-1.18,3.32-2.08,5.89-2.73,7.74Z"/><polygon class="cls-4" points="163.8 21.52 155.06 31.34 163.8 41.16 172.54 31.34 163.8 21.52"/><path d="M147.61,175.49a4,4,0,0,0-1,.45,3.41,3.41,0,1,0,3.66,5.76,3.72,3.72,0,0,0,.84-.74,3.49,3.49,0,0,0,5.82-3.86,3.37,3.37,0,0,0-2-1.44l2.54-.75-1.68-2.63-1.77,2a3.42,3.42,0,0,0-.46-2.44,3.5,3.5,0,0,0-6,3.64Z"/><path d="M108.29,195.93a3.31,3.31,0,0,0-1,.45,3.41,3.41,0,1,0,3.67,5.75,3.85,3.85,0,0,0,.83-.73,3.5,3.5,0,0,0,5.82-3.86,3.33,3.33,0,0,0-2-1.44l2.54-.75-1.67-2.64-1.78,2a3.4,3.4,0,0,0-.46-2.43,3.5,3.5,0,0,0-6,3.64Z"/><path d="M59.07,191.4a3.28,3.28,0,0,0-1,.55,3.41,3.41,0,1,0,4.22,5.36,3.6,3.6,0,0,0,.75-.81,3.5,3.5,0,0,0,5.41-4.43,3.37,3.37,0,0,0-2.11-1.23l2.46-1-1.93-2.46-1.57,2.18a3.37,3.37,0,0,0-.7-2.38,3.5,3.5,0,0,0-5.57,4.22Z"/><path d="M118.85,168a3.43,3.43,0,1,0,.5,6.72,3.72,3.72,0,0,0,1-.42,3.5,3.5,0,1,0,5.35-3.78l2.66.12-.74-3-2.33,1.33a3.34,3.34,0,0,0,.35-2.45,3.5,3.5,0,0,0-6.82,1.52Z"/><path d="M160.06,141.32a3.69,3.69,0,0,0-1.08.25,3.41,3.41,0,1,0,2.5,6.35,3.66,3.66,0,0,0,1-.56,3.5,3.5,0,0,0,6.45-2.69,3.39,3.39,0,0,0-1.66-1.79l2.64-.25-1.15-2.9-2.12,1.63a3.37,3.37,0,0,0,0-2.48,3.5,3.5,0,0,0-6.55,2.44Z"/><path d="M91.52,186.07a3.66,3.66,0,0,0-1.1-.16,3.41,3.41,0,1,0,.07,6.82,3.38,3.38,0,0,0,1.1-.18,3.49,3.49,0,0,0,7-.2,3.38,3.38,0,0,0-.91-2.26l2.55.7,0-3.12-2.57.77a3.38,3.38,0,0,0,.89-2.31,3.49,3.49,0,0,0-7-.06Z"/><path d="M168.1,158.51a3.56,3.56,0,0,0-.43,1,3.41,3.41,0,1,0,6.62,1.67,3.7,3.7,0,0,0,.1-1.1,3.5,3.5,0,0,0,1.59-6.81,3.39,3.39,0,0,0-2.43.31l1.34-2.29-3-.77.09,2.68a3.38,3.38,0,0,0-2-1.45,3.5,3.5,0,0,0-1.85,6.74Z"/><g class="cls-5"><path d="M79.9,103.37l6.79-7s1.66-1.45-3-3.31c-3.47-1.39-10.86,3.83-12.67,4.88-.86.5-3.62.57-4.59.79a3.92,3.92,0,0,1-1.26.14,3.12,3.12,0,0,1-1.52-1.1,2.49,2.49,0,0,1,0,2.6c-.77,1.66-3.88,5.17-3.41,7.33.43,2,2.83,6.06,7,6.27a13.28,13.28,0,0,0,6.6-1.08c1.1-.33,4.44-.57,6.52.94a6.45,6.45,0,0,0,3.93.77l.87,0-5.15-7.28"/><path d="M83.54,115.37a6.17,6.17,0,0,1-3.57-.94c-1.88-1.37-5-1.08-5.87-.83-.2.06-.41.14-.64.23a13.1,13.1,0,0,1-6.2.88c-4.69-.23-7.25-4.81-7.7-6.86-.4-1.82,1.14-4.15,2.37-6A15.69,15.69,0,0,0,63,100.06a1.86,1.86,0,0,0,.08-1.84.76.76,0,0,1,.13-1,.73.73,0,0,1,1,.08c.67.75,1,.85,1.09.87a3.47,3.47,0,0,0,1-.14c.38-.08.93-.14,1.58-.21a11.78,11.78,0,0,0,2.8-.49c.24-.14.58-.36,1-.63,2.91-1.83,9-5.65,12.32-4.3,2.29.92,3.5,1.91,3.69,3a1.7,1.7,0,0,1-.51,1.54l-6.76,7a.75.75,0,0,1-1.07-1l6.8-7a.21.21,0,0,0,.07-.22c0-.14-.31-.89-2.78-1.88-2.64-1-8.69,2.75-11,4.18-.44.28-.79.51-1,.65a9.68,9.68,0,0,1-3.39.69c-.57.06-1.11.12-1.41.19a4.15,4.15,0,0,1-1.54.15,1.61,1.61,0,0,1-.36-.1,4.31,4.31,0,0,1-.36,1.17,18.38,18.38,0,0,1-1.19,2c-1,1.54-2.43,3.66-2.16,4.88.41,1.89,2.69,5.5,6.31,5.69a11.94,11.94,0,0,0,5.59-.78,8,8,0,0,1,.76-.28c1.27-.37,4.85-.63,7.17,1a5,5,0,0,0,3,.66l-4.36-6.16a.74.74,0,0,1,.18-1,.73.73,0,0,1,1,.18l5.15,7.28a.73.73,0,0,1,.07.75.74.74,0,0,1-.64.42l-.87,0Z"/><path d="M99.6,147.59a.75.75,0,0,1-.74-.66.74.74,0,0,1,.66-.82,36.85,36.85,0,0,0,14.77-5.18c1-.79,3.86-3.25,4.5-4.74.84-1.93,9.57-12.23,15.44-12.5a.78.78,0,0,1,.78.72.74.74,0,0,1-.71.77c-4.9.22-13.25,9.54-14.14,11.6s-4.58,5-5,5.36a37.75,37.75,0,0,1-15.47,5.45Z"/><path d="M84.66,146.28l-.19,0c-8.56-2.21-15.21-9.4-16.16-17.49a9.75,9.75,0,0,0-8.47-8.8c-1.21-.11-2.5-.18-3.87-.26-1.07-.06-2.17-.12-3.32-.2-8.57-.62-9.11-11.82-9.11-11.94a.73.73,0,0,1,.64-.76l5.57-.79A.75.75,0,0,1,50,107.5l-4.88.68c.23,2.27,1.46,9.39,7.68,9.84,1.13.09,2.23.15,3.29.21,1.39.07,2.69.14,3.93.25a11.26,11.26,0,0,1,9.81,10.12c.88,7.49,7.07,14.16,15,16.22a.74.74,0,0,1-.18,1.46Z"/><path d="M77.74,111a1.77,1.77,0,0,1-1.25-.53,51.31,51.31,0,0,1-5-6.38.74.74,0,0,1,.18-1,.75.75,0,0,1,1,.19,47.32,47.32,0,0,0,4.82,6.18.22.22,0,0,0,.23.08s.13,0,.18-.16l1.2-2.81c0-.09,2.27-4.52,1.28-7.14a2.53,2.53,0,0,0-1.52-1.53,8.23,8.23,0,0,0-7.49.7,7.19,7.19,0,0,1-3.32.38,10.17,10.17,0,0,0-1.69.05,4.15,4.15,0,0,1-1.54.15c-1.16-.19-2.24-1.64-3-2.69l-.38-.5c-.21-.26-.45-.58-.7-.93-.79-1.08-2-2.73-2.89-2.86-2-.3-4.83-.31-5.43.09l0,0A31.92,31.92,0,0,0,55,94.85a7.93,7.93,0,0,1,2.93,2.84,9.76,9.76,0,0,0,1.88,2.16.94.94,0,0,1-.16,1.58,4.69,4.69,0,0,0-2.46,3.43,1.36,1.36,0,0,1-.56.87c-.63.47-2.35,1.31-6.69,1.77a.74.74,0,1,1-.15-1.48c4.25-.45,5.64-1.25,6-1.49a6.23,6.23,0,0,1,2.54-4,13.24,13.24,0,0,1-1.59-2,6.51,6.51,0,0,0-2.43-2.4A22.75,22.75,0,0,1,51.17,93a1.4,1.4,0,0,1,0-1.57c1.08-1.58,6.34-.85,6.94-.76,1.52.22,2.82,2,3.87,3.46.24.32.46.62.66.87s.25.33.41.53c.49.66,1.51,2,2.08,2.12a3.63,3.63,0,0,0,1-.13,9.94,9.94,0,0,1,2-.09,9.73,9.73,0,0,0,2.56-.17,9.62,9.62,0,0,1,8.79-.8,4,4,0,0,1,2.36,2.39c1.21,3.23-1.23,8.08-1.33,8.29l-1.18,2.76A1.71,1.71,0,0,1,77.74,111ZM58.87,101ZM52.42,92.2Z"/><path class="cls-2" d="M68.35,103.16a.76.76,0,0,1-.43-.14,9.07,9.07,0,0,0-2.13-.41.75.75,0,0,1,.15-1.49,8.26,8.26,0,0,1,2.83.68.75.75,0,0,1,.19,1A.78.78,0,0,1,68.35,103.16Z"/><path d="M48.85,106.9l-4.57.64s.89,4.43.92,4.5A8.86,8.86,0,0,0,48.85,106.9Z"/><path d="M45.19,112.79a.86.86,0,0,1-.27-.05.74.74,0,0,1-.44-.5s0-.1-.93-4.55a.75.75,0,0,1,.13-.58.71.71,0,0,1,.5-.3l4.57-.64a.71.71,0,0,1,.65.23.75.75,0,0,1,.18.67,9.61,9.61,0,0,1-4,5.61A.77.77,0,0,1,45.19,112.79Zm0-4.62.51,2.55a8.31,8.31,0,0,0,2.1-2.91Z"/><path d="M64.18,98s.89,0-2.42,2.11c-.81.51-2.28,1.69-2.85,2.16a14.78,14.78,0,0,0-2.45,2.63,5.52,5.52,0,0,1,2.9-4.18.2.2,0,0,0,0-.33c-2-1.63-5.78-1.18-7-3.56s-1.62-8.23,1.77-11.06c1.09-.92,2.19,1.27,2.6,2.06a23,23,0,0,0,2.6,4.36c1.6,1.92,2.81,4.29,4.81,5.81"/><path d="M56.46,105.65a.92.92,0,0,1-.28-.05.75.75,0,0,1-.45-.82,6.47,6.47,0,0,1,2.5-4.23A12.48,12.48,0,0,0,56,99.8c-1.7-.46-3.45-1-4.3-2.63-1.32-2.6-1.8-8.83,1.95-12A1.55,1.55,0,0,1,55,84.84c1.16.23,2,1.77,2.38,2.59l.41.78a17.88,17.88,0,0,0,2.14,3.51c.56.68,1.08,1.41,1.58,2.11a15.94,15.94,0,0,0,3,3.51.83.83,0,0,1,.47.56c.16.63-.23,1.22-2.85,2.86-.8.49-2.33,1.73-2.78,2.1a13.36,13.36,0,0,0-2.3,2.47A.75.75,0,0,1,56.46,105.65ZM54.72,86.3c-3.13,2.6-2.72,8.09-1.65,10.2.55,1.09,1.86,1.45,3.37,1.87a9.24,9.24,0,0,1,3.41,1.45.91.91,0,0,1,.33.51c.44-.33.86-.63,1.19-.84a19.54,19.54,0,0,0,1.88-1.29,19.34,19.34,0,0,1-3-3.51c-.5-.71-1-1.38-1.5-2a19.54,19.54,0,0,1-2.33-3.79l-.36-.7C55.18,86.4,54.78,86.3,54.72,86.3Zm9.42,12.45Z"/><path class="cls-2" d="M64.47,107.14a.76.76,0,0,1-.51-.2.73.73,0,0,1,0-1,3.57,3.57,0,0,1,2.3-.78h0a.75.75,0,0,1,0,1.49,2.72,2.72,0,0,0-1.24.29A.75.75,0,0,1,64.47,107.14Z"/><path d="M175.64,129.64c-5.56,0-12-1.56-14.2-3.44-2.86-2.4-5.68-1.3-8.94,0l-.68.27a24.14,24.14,0,0,1-10.09,1.14c-6.49-.38-12.09-7-12.32-7.26a.75.75,0,0,1,1.14-1c0,.07,5.42,6.39,11.27,6.74a23,23,0,0,0,9.47-1l.67-.26c3.39-1.34,6.9-2.71,10.44.27,3,2.49,15.31,4.46,19.74,1.86,2.57-1.51,2.8-2.46,2.78-2.8,0-.52-.68-1.1-1.83-1.61l-.63-.28c-1.81-.82-2.42-1.1-7.24-.71s-5.8-.55-7.12-2.58c-.19-.29-.4-.61-.64-1-1.92-2.67-3.48-3.93-6.26-3-3.81,1.33-6.7-2.42-7-2.86a4.3,4.3,0,0,1-.5-2.25c0-.26,0-.49-.06-.6a30.58,30.58,0,0,0-2-6.26c-2.1-4.69-5.34-7.86-9.14-8.91a.75.75,0,0,1,.36-1.45,18.44,18.44,0,0,0,14.31-2.29,14.88,14.88,0,0,0,6.39-10.22c.71-4.35-2.78-9.1-6.4-11.73a16.75,16.75,0,0,1,2.18,9.12c-.34,3.72-2.58,5.21-5.69,6.92A26,26,0,0,1,140.51,87c-2.83-.23-12.95,0-24.34,12.4C106,110.45,103,111.87,98,113.6c-4.3,1.49-11.77,3.67-13.38,1.4a.75.75,0,0,1,1.21-.87c.6.84,5.13.34,11.69-1.94,4.75-1.65,7.69-3,17.57-13.76,11.85-12.89,22.57-13.11,25.56-12.88a24.28,24.28,0,0,0,12.3-2.35c2.88-1.57,4.65-2.75,4.93-5.75A15.23,15.23,0,0,0,154,66.68a.75.75,0,0,1,.79-1.23c4.87,1.87,11.28,8.64,10.23,15a16.31,16.31,0,0,1-7,11.2,18.92,18.92,0,0,1-11,3.06,18.86,18.86,0,0,1,6,7.75,32.38,32.38,0,0,1,2.08,6.57,6.52,6.52,0,0,1,.08.78,10.08,10.08,0,0,0,.19,1.45l0,0c.1.14,2.42,3.38,5.34,2.36,4-1.4,6.21,1.06,8,3.49.26.36.48.7.68,1,1.07,1.64,1.47,2.26,5.75,1.91,5-.4,5.87-.12,8,.84l.62.27c1.74.77,2.65,1.74,2.72,2.89.08,1.36-1.07,2.72-3.51,4.16C181.18,129.22,178.52,129.64,175.64,129.64Zm-20.35-18.45Z"/><path d="M176.73,118.19A32.12,32.12,0,0,1,165.88,116a.75.75,0,0,1-.44-1,.74.74,0,0,1,1-.43c5.46,2.06,12.73,3.25,16.79.44a4.16,4.16,0,0,0,1.89-2.21.86.86,0,0,0-.23-.72,7.11,7.11,0,0,0-4.29-2.41,13.81,13.81,0,0,0-3.14.31,12.24,12.24,0,0,1-4.15.26,4.7,4.7,0,0,1-3.16-2.08c-.22-.27-.46-.56-.73-.84a8.37,8.37,0,0,0-4.6-2.34c-4-.57-6.58.12-11.09,1.49a.73.73,0,0,1-.93-.49.74.74,0,0,1,.5-.93c4.58-1.4,7.39-2.16,11.72-1.54a9.88,9.88,0,0,1,5.48,2.78c.3.32.56.63.8.92a3.3,3.3,0,0,0,2.25,1.56,10.91,10.91,0,0,0,3.65-.25,15,15,0,0,1,3.5-.34,8.59,8.59,0,0,1,5.33,3,2.38,2.38,0,0,1,.57,1.87c-.18,1.35-1.47,2.5-2.52,3.23A12.78,12.78,0,0,1,176.73,118.19Z"/><path d="M70.49,172.36h-.13A3.24,3.24,0,0,1,67,169.78a14.9,14.9,0,0,1,.69-6.27c.14-.56.29-1.14.43-1.74.49-2.13,4.5-5,9.7-8.43,1.42-1,2.77-1.85,3.66-2.53,3.13-2.38,5.59-10.8,5.62-10.88a.73.73,0,0,1,.92-.51.75.75,0,0,1,.51.92c-.11.37-2.63,9-6.15,11.66-.92.71-2.29,1.62-3.73,2.58-3.46,2.31-8.69,5.8-9.08,7.52-.14.62-.29,1.21-.44,1.78a13.57,13.57,0,0,0-.66,5.69c.13.86,1.07,1.27,2,1.3a4,4,0,0,0,3.89-3.54c1.13-5.64,7.31-8.66,9.6-9.34,4.36-1.32,10-3.33,11.38-4.69,1.77-1.7,5.46-9.06,4.9-14.79a.74.74,0,0,1,1.48-.15c.6,6.07-3.18,13.93-5.35,16-2,1.94-9.68,4.35-12,5-1.91.57-7.59,3.32-8.58,8.21A5.43,5.43,0,0,1,70.49,172.36Z"/><path d="M53.46,166.11a3.63,3.63,0,0,1-2.77-1.67,7.72,7.72,0,0,1-.47-8.71,9.3,9.3,0,0,1,3.46-3.34,234.58,234.58,0,0,0,21.05-12.73.74.74,0,0,1,.85,1.22A235.65,235.65,0,0,1,54.4,153.69a7.91,7.91,0,0,0-2.92,2.83,6.22,6.22,0,0,0,.38,7c.62.79,1.21,1.16,1.73,1.09s1.57-.62,2.89-3.61c1.19-2.7,3.4-4.14,5.61-5.3.67-.35,1.33-.71,2-1.07a43.78,43.78,0,0,1,6.7-3.17c.6-.2,1.28-.4,2-.62,3.6-1.08,8.54-2.56,9.56-6.1a.76.76,0,0,1,.92-.51.75.75,0,0,1,.51.93c-1.25,4.31-6.63,5.93-10.57,7.11-.7.21-1.37.4-1.95.6a42.45,42.45,0,0,0-6.46,3.07l-2,1.08c-2,1-3.94,2.3-4.94,4.58-1.25,2.83-2.58,4.3-4.06,4.49Z"/><path class="cls-6" d="M87.27,114.56s4.2-6.82,13.46-1.68C100.73,112.88,93.55,121,87.27,114.56Z"/><path class="cls-6" d="M89.43,97.62s-6.73,4-2.5,14.06C86.93,111.68,95.09,104.67,89.43,97.62Z"/><path d="M86.59,113.5l-.51-.9c-5.08-8.93.81-13.74.87-13.79l.51-.4.47.45c6.19,6-.58,13.79-.65,13.86Zm.8-13c-1.09,1.2-3.37,4.66-.54,10.41C88.2,109,90.78,104.37,87.39,100.46Z"/><path class="cls-6" d="M88.31,114.2c-1.38-4-6.77,1.26-8,2.34-3.45,3.15-6.88,6.27-10.48,9.25-1.1.92-2.47,1.41-2.79,3.1-.38,2,1.65,4.7,3.32,3.26,4.43-3.83,9.12-7.4,13.32-11.52C85.05,119.39,89.17,116.73,88.31,114.2Z"/><path d="M69.84,130.22a2.12,2.12,0,0,1-1.1-.32,3.35,3.35,0,0,1-1.37-3.5,4.32,4.32,0,0,1,2.07-2.56c.23-.17.46-.33.68-.51,3.21-2.63,6.29-5.38,9.27-8l.2-.18c2-1.83,4.56-3.86,6.38-3.36a2.14,2.14,0,0,1,1.49,1.59h0c.67,2.16-1.89,4.22-3.58,5.59-.32.25-.6.47-.8.66-2.5,2.38-5.22,4.61-7.85,6.76-1.33,1.1-2.66,2.19-4,3.3A2.19,2.19,0,0,1,69.84,130.22Zm15.5-17.06c-.68,0-2,.6-4.75,3.06l-.21.19c-3,2.67-6.08,5.42-9.31,8.07-.25.21-.51.39-.77.57-.72.51-1.29.91-1.49,1.7a1.88,1.88,0,0,0,.71,1.88.61.61,0,0,0,.78-.1c1.31-1.12,2.65-2.22,4-3.32,2.61-2.13,5.3-4.34,7.77-6.7.24-.21.54-.46.88-.73,1.21-1,3.47-2.8,3.1-4h0c-.16-.51-.38-.58-.47-.6A.75.75,0,0,0,85.34,113.16Z"/><path d="M91.39,116a7.31,7.31,0,0,1-5.34-2.45l-.41-.41.31-.5c0-.06,4.23-6.64,13-1.76l.81.45-.61.69c-.14.16-3.47,3.87-7.6,4ZM87.57,113a5.56,5.56,0,0,0,4,1.56c2.5-.06,4.75-1.8,5.84-2.79C91.69,109,88.57,111.8,87.57,113Z"/><path d="M100.59,111.67s11.91,5.56,18.24,2.63c8.86-4.11,13.5-8.33,15.33-10.43,2.86-3.3,4-14.51-6.15-14,0,0-1.94.31-12.39,9.05C112.14,101.84,106.11,108.3,100.59,111.67Z"/><path d="M114.28,115.9c-6.31,0-13.62-3.37-14-3.55a.76.76,0,0,1-.43-.64.74.74,0,0,1,.36-.68c3.76-2.3,7.82-6.1,11.08-9.16,1.49-1.4,2.78-2.61,3.86-3.51,10.09-8.45,12.39-9.16,12.75-9.22,5-.27,7.15,2,8.12,4,1.73,3.57.75,8.85-1.29,11.19-1.48,1.71-6,6.17-15.58,10.62A11.61,11.61,0,0,1,114.28,115.9Zm-12.1-4.37c3.19,1.3,11.57,4.29,16.33,2.09,9.34-4.33,13.66-8.6,15.08-10.24a10.06,10.06,0,0,0,1.07-9.55c-1.11-2.27-3.32-3.34-6.53-3.2-.35.12-2.85,1.2-12,8.88-1,.88-2.32,2.07-3.8,3.46A87.91,87.91,0,0,1,102.18,111.53Z"/></g></svg>