<svg id="圖層_1" data-name="圖層 1" xmlns="http://www.w3.org/2000/svg" xmlns:xlink="http://www.w3.org/1999/xlink" viewBox="0 0 194.94 294.58"><defs><style>.cls-1{fill:none;}.cls-2{clip-path:url(#clip-path);}.cls-3{fill:#fff;}.cls-4{fill:#170000;}.cls-5{clip-path:url(#clip-path-2);}.cls-6{fill:#c21823;}</style><clipPath id="clip-path"><rect class="cls-1" x="-108.07" y="72.47" width="79.18" height="100.3"/></clipPath><clipPath id="clip-path-2"><rect class="cls-1" x="70.88" y="61.53" width="111.24" height="111.24"/></clipPath></defs><title>新接龍</title><g class="cls-2"><path d="M32.9,138.39c-6,0-14.15-2.7-16.5-5.17-2.57-2.72-5.49-1.94-8.87-1l-.71.19a24.09,24.09,0,0,1-10.16,0c-6.41-1.11-11.23-8.29-11.43-8.6a.75.75,0,0,1,.21-1,.75.75,0,0,1,1,.21c0,.07,4.67,7,10.44,8a22.94,22.94,0,0,0,9.53,0l.7-.19c3.52-.94,7.16-1.92,10.34,1.44,2.66,2.81,14.72,6.16,19.41,4.07C39.61,135,40,134.13,40,133.79c0-.53-.56-1.17-1.65-1.8l-.59-.35c-1.71-1-2.28-1.37-7.11-1.52s-5.7-1.2-6.79-3.37c-.15-.31-.32-.65-.53-1-1.61-2.87-3-4.29-5.88-3.64-3.93.9-6.39-3.17-6.66-3.64a4.29,4.29,0,0,1-.25-2.28c0-.27,0-.5,0-.61a30.5,30.5,0,0,0-1.26-6.44c-1.56-4.9-4.43-8.41-8.08-9.88a.75.75,0,0,1,.52-1.4,18.42,18.42,0,0,0,14.48-.67,14.89,14.89,0,0,0,7.48-9.44c.86-3-.84-8.85-5.1-12.53a16.81,16.81,0,0,1,1.21,9.46c-.76,3.66-3.15,4.89-6.43,6.24A26.11,26.11,0,0,1,0,92c-2.79-.54-12.87-1.45-25.58,9.59-11.3,9.81-14.51,10.87-19.66,12-4.45,1-12.11,2.32-13.46-.12a.75.75,0,0,1,.3-1,.75.75,0,0,1,1,.3c.49.89,5,.91,11.82-.63,4.91-1.1,8-2.12,19-11.7C-13.34,88.94-2.67,89.91.28,90.49a24.36,24.36,0,0,0,12.49-1c3-1.24,4.93-2.21,5.54-5.16a15.24,15.24,0,0,0-2.62-11.14.74.74,0,0,1,.92-1.13C21.24,74.5,26.85,82,25.1,88.15A16.37,16.37,0,0,1,16.87,98.5a19,19,0,0,1-11.29,1.8,18.89,18.89,0,0,1,5.1,8.38A32,32,0,0,1,12,115.43a6.71,6.71,0,0,1,0,.79,9.69,9.69,0,0,0,0,1.46v0c.09.14,2.05,3.61,5.05,2.94,4.14-1,6.05,1.75,7.51,4.36.22.39.4.75.56,1.08.88,1.75,1.21,2.41,5.5,2.54,5,.16,5.85.54,7.84,1.73l.57.34c1.65,1,2.45,2,2.38,3.17-.07,1.37-1.36,2.59-4,3.74A11.47,11.47,0,0,1,32.9,138.39ZM12,117.61Z"/><path d="M34.59,127.09c-4.17,0-8.89-1.59-12.64-3.51a.74.74,0,0,1,.68-1.32c5.19,2.66,12.29,4.66,16.63,2.32a4.13,4.13,0,0,0,2.13-2,.85.85,0,0,0-.15-.73,7.12,7.12,0,0,0-4-2.88,13.28,13.28,0,0,0-3.16,0,12.14,12.14,0,0,1-4.15-.21A4.7,4.7,0,0,1,27,116.3c-.19-.29-.39-.6-.63-.91a8.35,8.35,0,0,0-4.31-2.84c-3.94-1-6.54-.62-11.18.24a.74.74,0,0,1-.87-.6.73.73,0,0,1,.6-.86c4.71-.88,7.58-1.32,11.83-.22a9.89,9.89,0,0,1,5.12,3.38c.26.35.48.69.69,1a3.35,3.35,0,0,0,2.06,1.81,11.1,11.1,0,0,0,3.66.15,14.76,14.76,0,0,1,3.51.07,8.55,8.55,0,0,1,5,3.52,2.4,2.4,0,0,1,.35,1.92c-.34,1.32-1.75,2.32-2.87,2.93A11.3,11.3,0,0,1,34.59,127.09Z"/></g><rect class="cls-3" x="12.88" y="12.85" width="169" height="265.73"/><path d="M183.88,280.58h-173V10.85h173Zm-169-4h165V14.85h-165Z"/><path class="cls-4" d="M27.67,41.36a7.36,7.36,0,0,1-.94-.17V40.05a5.62,5.62,0,0,0,1.58.2,6.73,6.73,0,0,0,2.74-.51,4.12,4.12,0,0,0,1.77-1.36,3.18,3.18,0,0,0,.61-1.89,2.7,2.7,0,0,0-.83-2.11A3.8,3.8,0,0,0,30,33.6l-.62.16a3.21,3.21,0,0,1-.65.18l-.34-1.06A8,8,0,0,0,30,32.4,5.33,5.33,0,0,0,32,31a2.81,2.81,0,0,0,.76-1.85,2,2,0,0,0-.67-1.68,2.71,2.71,0,0,0-1.72-.53,4.92,4.92,0,0,0-1.74.32,6.24,6.24,0,0,0-1.43.78l-.54-.9a5.77,5.77,0,0,1,1.79-1.09A6.27,6.27,0,0,1,31,25.52a5,5,0,0,1,3,.79,2.76,2.76,0,0,1,1.13,2.42A3.62,3.62,0,0,1,34,31.31,6.73,6.73,0,0,1,31.28,33l.57,0a4.75,4.75,0,0,1,2.08.44,3.52,3.52,0,0,1,1.4,1.2,3,3,0,0,1,.49,1.69A4.27,4.27,0,0,1,34.94,39a5.81,5.81,0,0,1-2.5,1.82,10.09,10.09,0,0,1-3.75.65A7.83,7.83,0,0,1,27.67,41.36Z"/><path d="M183.88,280.58h-173V10.85h173Zm-169-4h165V14.85h-165Z"/><path d="M168.46,28.66A4.35,4.35,0,1,0,160,27.27a4.64,4.64,0,0,0,.21,1.39,4.43,4.43,0,0,0,.17,8.86,4.24,4.24,0,0,0,2.88-1.13l-.93,3.24h4l-.94-3.27a4.25,4.25,0,0,0,2.92,1.16,4.43,4.43,0,0,0,.16-8.86Z"/><path d="M147.61,175.49a4,4,0,0,0-1,.45,3.41,3.41,0,1,0,3.66,5.76,3.72,3.72,0,0,0,.84-.74,3.49,3.49,0,0,0,5.82-3.86,3.37,3.37,0,0,0-2-1.44l2.54-.75-1.68-2.63-1.77,2a3.42,3.42,0,0,0-.46-2.44,3.5,3.5,0,0,0-6,3.64Z"/><path d="M118.85,168a3.43,3.43,0,1,0,.5,6.72,3.72,3.72,0,0,0,1-.42,3.5,3.5,0,1,0,5.35-3.78l2.66.12-.74-3-2.33,1.33a3.34,3.34,0,0,0,.35-2.45,3.5,3.5,0,0,0-6.82,1.52Z"/><path d="M160.06,141.32a3.69,3.69,0,0,0-1.08.25,3.41,3.41,0,1,0,2.5,6.35,3.66,3.66,0,0,0,1-.56,3.5,3.5,0,0,0,6.45-2.69,3.39,3.39,0,0,0-1.66-1.79l2.64-.25-1.15-2.9-2.12,1.63a3.37,3.37,0,0,0,0-2.48,3.5,3.5,0,0,0-6.55,2.44Z"/><g class="cls-5"><path d="M121.88,93.67l7.54-6.19s1.81-1.26-2.57-3.62c-3.29-1.77-11.23,2.59-13.14,3.43-.91.4-3.66.16-4.65.27a4.41,4.41,0,0,1-1.27,0,3.24,3.24,0,0,1-1.39-1.27,2.46,2.46,0,0,1-.28,2.58c-.94,1.57-4.43,4.71-4.21,6.9.21,2,2.13,6.34,6.26,7a13.26,13.26,0,0,0,6.67-.33c1.14-.2,4.48-.07,6.38,1.66a6.41,6.41,0,0,0,3.81,1.22l.87,0-4.3-7.8"/><path d="M125.9,106.14h-.05l-.87-.06a7,7,0,0,1-4.26-1.41c-1.72-1.57-4.86-1.64-5.75-1.48a5.21,5.21,0,0,0-.66.16,13.07,13.07,0,0,1-6.26.18c-4.63-.76-6.66-5.59-6.88-7.68-.19-1.86,1.6-4,3-5.72a16.65,16.65,0,0,0,1.28-1.64,1.89,1.89,0,0,0,.29-1.82.74.74,0,0,1,.24-1,.72.72,0,0,1,1,.19c.58.82.9,1,1,1a3.31,3.31,0,0,0,1,0c.39,0,1,0,1.6,0a11,11,0,0,0,2.83-.18c.26-.11.62-.28,1.07-.5,3.1-1.5,9.55-4.6,12.72-2.89,2.18,1.17,3.27,2.29,3.33,3.41a1.7,1.7,0,0,1-.68,1.47l-7.5,6.16a.74.74,0,0,1-.94-1.15L129,86.91a.23.23,0,0,0,.09-.22c0-.14-.2-.91-2.55-2.17s-8.94,1.75-11.36,2.92L114,88a9.76,9.76,0,0,1-3.44.3c-.58,0-1.13,0-1.43,0a4.05,4.05,0,0,1-1.55,0,1.58,1.58,0,0,1-.34-.13,4.84,4.84,0,0,1-.49,1.12,17.65,17.65,0,0,1-1.41,1.83c-1.19,1.42-2.82,3.37-2.7,4.6.21,1.93,2.06,5.78,5.64,6.37a11.78,11.78,0,0,0,5.64-.15,6.9,6.9,0,0,1,.79-.19c1.31-.22,4.89-.07,7,1.85a5.05,5.05,0,0,0,2.87,1L121,97.94a.74.74,0,0,1,.29-1,.75.75,0,0,1,1,.3l4.31,7.81a.74.74,0,0,1,0,.76A.75.75,0,0,1,125.9,106.14Z"/><path d="M136.58,139.83a.74.74,0,0,1-.74-.74.75.75,0,0,1,.74-.75,36.73,36.73,0,0,0,15.26-3.48c1.09-.67,4.21-2.8,5-4.21,1.05-1.82,10.91-11.05,16.74-10.68a.74.74,0,1,1-.1,1.48h-.29c-5,0-14,8.05-15.06,9.95s-5.12,4.49-5.57,4.76a37.67,37.67,0,0,1-16,3.68Z"/><path d="M121.88,136.85a.75.75,0,0,1-.26,0c-8.27-3.16-14.06-11-14.1-19.19a9.77,9.77,0,0,0-7.43-9.7c-1.18-.25-2.46-.46-3.81-.69-1-.18-2.15-.36-3.28-.58-8.45-1.57-7.73-12.77-7.72-12.88a.75.75,0,0,1,.72-.69l5.63-.15a.75.75,0,0,1,0,1.49l-4.93.13c0,2.28.4,9.5,6.53,10.64,1.12.21,2.21.4,3.26.57,1.36.23,2.65.45,3.86.7A11.23,11.23,0,0,1,109,117.61c0,7.54,5.45,14.86,13.15,17.8a.74.74,0,0,1-.27,1.44Z"/><path d="M119.07,101a1.75,1.75,0,0,1-1.37-.68,50.87,50.87,0,0,1-4.24-6.89.75.75,0,0,1,1.31-.71,49.21,49.21,0,0,0,4.09,6.68.27.27,0,0,0,.23.11.23.23,0,0,0,.2-.14l1.5-2.66c0-.09,2.76-4.24,2.08-7a2.55,2.55,0,0,0-1.34-1.69A8.19,8.19,0,0,0,114,88a7.39,7.39,0,0,1-3.34,0,10.48,10.48,0,0,0-1.69-.14,4.05,4.05,0,0,1-1.55,0c-1.13-.32-2-1.87-2.71-3l-.32-.54c-.18-.28-.38-.62-.59-1-.66-1.17-1.67-2.93-2.55-3.16-2-.54-4.77-.86-5.41-.53a.08.08,0,0,0,0,0,31.76,31.76,0,0,0,2.21,2.81,7.85,7.85,0,0,1,2.6,3.15,9.64,9.64,0,0,0,1.62,2.36.94.94,0,0,1-.33,1.55,4.7,4.7,0,0,0-2.83,3.13,1.39,1.39,0,0,1-.65.81c-.68.39-2.5,1.06-6.85,1a.75.75,0,0,1,0-1.49h.29c4.06,0,5.47-.62,5.82-.81a6.24,6.24,0,0,1,3-3.72,13.37,13.37,0,0,1-1.36-2.12,6.5,6.5,0,0,0-2.14-2.65,23.12,23.12,0,0,1-2.73-3.44,1.42,1.42,0,0,1,.16-1.57c1.26-1.45,6.4-.13,7,0,1.48.39,2.58,2.32,3.46,3.87.2.35.39.67.56.94s.21.36.34.58c.42.7,1.28,2.17,1.83,2.33a3.43,3.43,0,0,0,1,0,10,10,0,0,1,2,.14,9,9,0,0,0,2.56.11,9.66,9.66,0,0,1,8.83.2,4,4,0,0,1,2.07,2.64c.85,3.35-2.12,7.89-2.25,8.09l-1.48,2.61a1.74,1.74,0,0,1-1.38.9ZM101.25,89h0Zm-5.42-9.48Z"/><path class="cls-3" d="M110.51,92.17A.76.76,0,0,1,110,92a8.69,8.69,0,0,0-2.07-.66.74.74,0,0,1,.31-1.45,8,8,0,0,1,2.74,1,.74.74,0,0,1,.07,1A.73.73,0,0,1,110.51,92.17Z"/><path d="M90.64,93.7,86,93.83s.39,4.49.41,4.57A9,9,0,0,0,90.64,93.7Z"/><path d="M86.43,99.14a.72.72,0,0,1-.35-.08.75.75,0,0,1-.39-.54s0-.1-.41-4.63a.73.73,0,0,1,.19-.56.76.76,0,0,1,.53-.25L90.62,93a.7.7,0,0,1,.62.31.75.75,0,0,1,.1.68,9.58,9.58,0,0,1-4.6,5.12A.7.7,0,0,1,86.43,99.14Zm.4-4.59c.07.71.16,1.77.23,2.59a8.39,8.39,0,0,0,2.41-2.66Z"/><path d="M106.87,86.58s.88.16-2.64,1.83c-.87.42-2.46,1.43-3.09,1.83a14.75,14.75,0,0,0-2.72,2.33,5.49,5.49,0,0,1,3.35-3.82.2.2,0,0,0,.06-.33c-1.85-1.84-5.6-1.82-6.53-4.32s-.69-8.36,3-10.79c1.19-.79,2,1.5,2.35,2.34a23.77,23.77,0,0,0,2.09,4.62c1.38,2.09,2.32,4.58,4.14,6.31"/><path d="M98.42,93.32a.8.8,0,0,1-.36-.09.76.76,0,0,1-.35-.87,6.46,6.46,0,0,1,3-3.92,12.67,12.67,0,0,0-2.09-1c-1.64-.65-3.33-1.33-4-3.09-1-2.74-.79-9,3.27-11.68a1.55,1.55,0,0,1,1.36-.21c1,.32,1.59,1.55,2.08,2.85l.31.81a18.18,18.18,0,0,0,1.73,3.73c.49.73.92,1.52,1.34,2.27a16.33,16.33,0,0,0,2.6,3.83.83.83,0,0,1,.41.61c.09.64-.36,1.19-3.15,2.52a32.24,32.24,0,0,0-3,1.78A14,14,0,0,0,99,93.06.73.73,0,0,1,98.42,93.32Zm.35-19.43c-3.39,2.23-3.6,7.73-2.78,10,.43,1.14,1.69,1.65,3.14,2.23a9.45,9.45,0,0,1,3.23,1.82,1,1,0,0,1,.27.55c.47-.27.93-.53,1.28-.7a18.56,18.56,0,0,0,2-1.07,19.18,19.18,0,0,1-2.53-3.82c-.43-.76-.82-1.48-1.28-2.17a19.62,19.62,0,0,1-1.88-4l-.28-.73C99.22,74,98.84,73.9,98.77,73.89ZM101.52,88Zm5.22-.73h0Z"/><path class="cls-3" d="M106.21,95.69a.74.74,0,0,1-.49-1.3,3.6,3.6,0,0,1,2.37-.51.75.75,0,0,1,.68.8.76.76,0,0,1-.8.68,2.75,2.75,0,0,0-1.27.15A.76.76,0,0,1,106.21,95.69Z"/><path d="M216.85,130.69c-6,0-14.15-2.7-16.5-5.17-2.58-2.72-5.5-1.94-8.88-1l-.7.19a24.09,24.09,0,0,1-10.16,0c-6.41-1.11-11.23-8.29-11.43-8.6a.74.74,0,1,1,1.24-.82c.05.07,4.67,7,10.44,8a23.11,23.11,0,0,0,9.53,0l.7-.19c3.52-.94,7.15-1.92,10.34,1.44,2.66,2.81,14.71,6.16,19.41,4.06,2.72-1.21,3.06-2.12,3.08-2.46,0-.53-.56-1.17-1.65-1.8l-.59-.35c-1.71-1-2.29-1.37-7.12-1.52s-5.69-1.2-6.78-3.37c-.16-.31-.33-.65-.53-1-1.61-2.87-3-4.29-5.89-3.64a5.24,5.24,0,0,1-4.54-1.17,9.38,9.38,0,0,1-2.07-2.41c-.31-.4-.33-1-.29-2.34,0-.27,0-.5,0-.61a30.37,30.37,0,0,0-1.27-6.44c-1.55-4.9-4.42-8.41-8.08-9.89a.75.75,0,0,1-.42-1,.76.76,0,0,1,1-.44,18.44,18.44,0,0,0,14.47-.67A14.87,14.87,0,0,0,207.61,80c1.2-4.25-1.74-9.35-5-12.37a16.77,16.77,0,0,1,1.15,9.3c-.76,3.66-3.15,4.89-6.44,6.24a26.1,26.1,0,0,1-13.34,1c-2.78-.54-12.86-1.45-25.57,9.59-11.3,9.8-14.52,10.87-19.66,12-4.45,1-12.12,2.32-13.46-.12a.74.74,0,0,1,.29-1,.76.76,0,0,1,1,.3c.49.89,5.05.9,11.82-.63,4.91-1.1,8-2.13,19-11.7,13.22-11.48,23.89-10.5,26.84-9.92a24.36,24.36,0,0,0,12.49-1c3-1.24,4.93-2.21,5.54-5.16a15.2,15.2,0,0,0-2.63-11.14.74.74,0,0,1,0-.94.75.75,0,0,1,.92-.19c4.63,2.4,10.24,9.85,8.48,16a16.33,16.33,0,0,1-8.23,10.35,18.91,18.91,0,0,1-11.28,1.8,18.79,18.79,0,0,1,5.09,8.38,32,32,0,0,1,1.33,6.75,6.71,6.71,0,0,1,0,.79,8.52,8.52,0,0,0,0,1.46v0c0,.09,2,3.61,5,2.94,4.16-1,6.06,1.75,7.52,4.36.21.39.4.75.56,1.08.88,1.75,1.21,2.41,5.5,2.54,5,.16,5.85.54,7.83,1.73l.58.34c1.64,1,2.44,2,2.38,3.17-.07,1.37-1.37,2.59-4,3.74A11.47,11.47,0,0,1,216.85,130.69Zm-20.93-20.78h0Z"/><path d="M218.53,119.39c-4.16,0-8.88-1.59-12.63-3.51a.74.74,0,0,1-.32-1,.74.74,0,0,1,1-.32c5.19,2.66,12.28,4.66,16.63,2.32a4.13,4.13,0,0,0,2.13-2,.85.85,0,0,0-.15-.73,7.15,7.15,0,0,0-4-2.88,13.28,13.28,0,0,0-3.16,0,12.14,12.14,0,0,1-4.15-.21A4.7,4.7,0,0,1,211,108.6c-.19-.29-.39-.6-.63-.91a8.29,8.29,0,0,0-4.31-2.84c-3.94-1-6.55-.62-11.19.24a.74.74,0,0,1-.27-1.46c4.72-.88,7.59-1.32,11.83-.22a9.88,9.88,0,0,1,5.13,3.38c.26.35.48.69.69,1a3.3,3.3,0,0,0,2.06,1.81,11.09,11.09,0,0,0,3.66.15,15.3,15.3,0,0,1,3.51.06,8.62,8.62,0,0,1,5,3.53,2.33,2.33,0,0,1,.35,1.92c-.33,1.32-1.74,2.32-2.87,2.93A11.27,11.27,0,0,1,218.53,119.39Z"/><path d="M105.35,161.2a3.87,3.87,0,0,1-.69,0,3.24,3.24,0,0,1-3.07-2.94,15,15,0,0,1,1.39-6.15c.21-.54.42-1.09.63-1.68.72-2.06,5-4.42,10.58-7.28,1.52-.79,3-1.53,3.92-2.11,3.38-2,6.77-10.1,6.8-10.18a.75.75,0,1,1,1.38.57c-.15.35-3.62,8.62-7.42,10.89-1,.6-2.46,1.35-4,2.15-3.69,1.91-9.27,4.79-9.86,6.45-.21.6-.43,1.17-.64,1.72a13.65,13.65,0,0,0-1.29,5.58c0,.87.92,1.39,1.79,1.51a4,4,0,0,0,4.26-3.08c1.76-5.48,8.24-7.78,10.59-8.21,4.48-.81,10.27-2.19,11.83-3.38,2-1.49,6.45-8.38,6.54-14.14a.74.74,0,1,1,1.48,0c-.08,6.09-4.72,13.48-7.11,15.3-2.23,1.71-10.11,3.24-12.48,3.67-2,.35-7.91,2.44-9.43,7.2A5.49,5.49,0,0,1,105.35,161.2Z"/><path d="M88.86,153.07a3.48,3.48,0,0,1-2.86-2,7.74,7.74,0,0,1,.51-8.7,9.37,9.37,0,0,1,3.82-2.94,230.88,230.88,0,0,0,22.34-10.29.75.75,0,0,1,1,.31.73.73,0,0,1-.3,1A234.79,234.79,0,0,1,90.9,140.82a7.86,7.86,0,0,0-3.22,2.48,6.22,6.22,0,0,0-.41,7c.52.85,1.06,1.28,1.59,1.28h0c.52,0,1.62-.44,3.27-3.27,1.49-2.55,3.85-3.73,6.18-4.64l2.09-.83a43.32,43.32,0,0,1,7-2.4l2.06-.4c3.7-.66,8.77-1.58,10.19-5a.74.74,0,1,1,1.37.57c-1.72,4.15-7.26,5.15-11.29,5.88-.73.13-1.41.25-2,.39a41.68,41.68,0,0,0-6.78,2.31c-.7.29-1.41.58-2.11.85-2.08.81-4.18,1.85-5.43,4-1.56,2.68-3.05,4-4.54,4Z"/><path class="cls-6" d="M128,105.62s4.94-6.3,13.56-.16C141.51,105.46,133.47,112.72,128,105.62Z"/><path class="cls-6" d="M132,89s-7.14,3.19-4.06,13.69C127.94,102.72,136.83,96.68,132,89Z"/><path d="M127.4,104.49l-.41-.95c-4-9.45,2.34-13.56,2.41-13.6l.55-.35.42.51c5.48,6.68-2.12,13.63-2.2,13.7Zm2.25-12.87c-1.21,1.07-3.87,4.25-1.7,10.28C129.5,100.18,132.58,95.89,129.65,91.62Z"/><path class="cls-6" d="M129,105.38c-.91-4.17-6.87.49-8.17,1.44-3.79,2.73-7.55,5.45-11.45,8-1.21.79-2.62,1.12-3.13,2.77-.6,2,1.12,4.85,2.94,3.6,4.82-3.3,9.89-6.32,14.53-10C125.2,110.17,129.6,108,129,105.38Z"/><path d="M109.09,119.24a2,2,0,0,1-1.28-.46,3.36,3.36,0,0,1-1-3.63,4.35,4.35,0,0,1,2.34-2.31c.25-.14.5-.27.74-.43,3.51-2.27,7-4.75,10.11-6.94l.22-.16c2.21-1.59,5-3.32,6.72-2.62a2.18,2.18,0,0,1,1.3,1.75h0c.42,2.22-2.36,4-4.19,5.15l-.87.57c-2.75,2.09-5.7,4-8.56,5.84-1.44.94-2.89,1.87-4.31,2.83A2.25,2.25,0,0,1,109.09,119.24ZM126,104c-.72,0-2.14.52-4.91,2.51l-.23.16c-3.11,2.2-6.63,4.7-10.16,7-.27.18-.55.33-.83.49-.77.42-1.38.75-1.67,1.52a1.88,1.88,0,0,0,.49,1.94.61.61,0,0,0,.79,0c1.43-1,2.88-1.91,4.33-2.85,2.84-1.83,5.77-3.72,8.49-5.79.25-.18.58-.39,1-.63,1.31-.83,3.76-2.39,3.53-3.61h0c-.1-.53-.32-.62-.4-.65A1,1,0,0,0,126,104Z"/><path d="M132.69,107.6q-.31,0-.63,0a7.32,7.32,0,0,1-5.22-3l-.35-.46.36-.45c.05-.06,5-6.13,13.14-.29l.75.53-.68.63C139.91,104.61,136.55,107.6,132.69,107.6Zm-4.27-3.51a5.66,5.66,0,0,0,3.77,2c2.49.23,4.91-1.24,6.1-2.11C132.93,100.61,129.54,103,128.42,104.09Z"/><path d="M141.51,104.24s11.21,6.86,17.83,4.66c9.27-3.08,14.35-6.76,16.4-8.64,3.22-3,5.63-14-4.54-14.59,0,0-2,.09-13.32,7.6C154.09,95.78,147.38,101.52,141.51,104.24Z"/><path d="M156.37,110.09c-6.66,0-14.85-5-15.25-5.21a.74.74,0,0,1-.36-.68.77.77,0,0,1,.44-.64c4-1.85,8.45-5.18,12-7.85,1.64-1.23,3.05-2.28,4.23-3.06,11-7.26,13.35-7.71,13.71-7.73,5,.3,6.87,2.84,7.61,4.92,1.33,3.73-.24,8.87-2.53,11-1.67,1.54-6.64,5.47-16.67,8.8A10.22,10.22,0,0,1,156.37,110.09Zm-13.26-5.8c3,1.64,11,5.56,16,3.9,9.76-3.25,14.54-7,16.14-8.48a10.08,10.08,0,0,0,2.13-9.37c-.85-2.38-2.91-3.7-6.13-3.91-.36.08-3,.87-13,7.47-1.14.75-2.54,1.8-4.16,3A87.8,87.8,0,0,1,143.11,104.29Z"/></g></svg>