<svg id="圖層_1" data-name="圖層 1" xmlns="http://www.w3.org/2000/svg" xmlns:xlink="http://www.w3.org/1999/xlink" viewBox="0 0 194.94 294.58"><defs><style>.cls-1{fill:none;}.cls-2{clip-path:url(#clip-path);}.cls-3{fill:#fff;}.cls-4{fill:#170000;}.cls-5{clip-path:url(#clip-path-2);}.cls-6{fill:#c21823;}</style><clipPath id="clip-path"><rect class="cls-1" x="-102.96" y="76.5" width="73.83" height="100.3"/></clipPath><clipPath id="clip-path-2"><rect class="cls-1" x="102.93" y="72.47" width="79.18" height="100.3"/></clipPath></defs><title>新接龍</title><g class="cls-2"><path d="M38,142.43c-6,0-14.15-2.7-16.5-5.18-2.57-2.72-5.49-1.93-8.87-1l-.71.19a24.27,24.27,0,0,1-10.16,0c-6.41-1.11-11.23-8.3-11.43-8.61a.75.75,0,0,1,.21-1,.76.76,0,0,1,1,.21c0,.07,4.66,7,10.43,8a22.77,22.77,0,0,0,9.53,0l.7-.19c3.52-.94,7.16-1.91,10.34,1.45,2.66,2.8,14.72,6.15,19.41,4.06,2.72-1.21,3.06-2.13,3.08-2.47,0-.52-.56-1.16-1.65-1.8l-.59-.35c-1.71-1-2.28-1.36-7.11-1.52s-5.7-1.2-6.79-3.36c-.15-.31-.32-.65-.53-1-1.61-2.86-3-4.29-5.88-3.64-3.93.9-6.39-3.16-6.66-3.63a4.28,4.28,0,0,1-.24-2.29c0-.27,0-.49,0-.61a30.5,30.5,0,0,0-1.26-6.44c-1.56-4.9-4.43-8.41-8.08-9.88a.74.74,0,0,1-.42-1,.75.75,0,0,1,.94-.45,18.42,18.42,0,0,0,14.48-.67,14.89,14.89,0,0,0,7.48-9.44c1.21-4.24-1.73-9.35-5-12.37a16.69,16.69,0,0,1,1.15,9.3c-.76,3.66-3.15,4.9-6.43,6.24A25.89,25.89,0,0,1,5.11,96c-2.79-.54-12.87-1.44-25.58,9.59-11.3,9.81-14.51,10.87-19.66,12-4.45,1-12.11,2.32-13.46-.11a.75.75,0,0,1,.3-1,.74.74,0,0,1,1,.29c.49.9,5.05.91,11.82-.62,4.91-1.11,8-2.13,19-11.71C-8.23,93,2.44,93.94,5.39,94.52a24.36,24.36,0,0,0,12.49-1c3-1.24,4.93-2.21,5.54-5.16A15.24,15.24,0,0,0,20.8,77.26a.74.74,0,0,1,.92-1.13C26.35,78.54,32,86,30.21,92.18A16.37,16.37,0,0,1,22,102.53a18.88,18.88,0,0,1-11.29,1.8,19,19,0,0,1,5.1,8.38,32.17,32.17,0,0,1,1.33,6.75c0,.15,0,.45,0,.8a9.75,9.75,0,0,0,0,1.46l0,0c.08.15,2,3.62,5,2.94,4.14-1,6.05,1.75,7.51,4.36.22.39.4.75.56,1.08.89,1.75,1.21,2.41,5.5,2.55,5,.15,5.85.54,7.84,1.72l.57.34c1.65,1,2.45,2,2.39,3.17-.08,1.37-1.37,2.59-4,3.75A11.65,11.65,0,0,1,38,142.43ZM17.09,121.64Z"/><path d="M39.7,131.12c-4.16,0-8.88-1.58-12.63-3.51a.74.74,0,0,1-.33-1,.75.75,0,0,1,1-.32C32.93,129,40,131,44.37,128.61a4.16,4.16,0,0,0,2.13-2,.86.86,0,0,0-.15-.74,7.08,7.08,0,0,0-4-2.87,13.29,13.29,0,0,0-3.16,0,12.37,12.37,0,0,1-4.15-.2,4.78,4.78,0,0,1-2.92-2.43c-.19-.29-.39-.6-.63-.92a8.35,8.35,0,0,0-4.31-2.84c-3.94-1-6.54-.62-11.18.24a.74.74,0,1,1-.27-1.46c4.71-.88,7.59-1.32,11.83-.22a10,10,0,0,1,5.12,3.38c.27.35.48.69.69,1a3.37,3.37,0,0,0,2.06,1.8,11.1,11.1,0,0,0,3.66.16,14.75,14.75,0,0,1,3.51.06,8.59,8.59,0,0,1,5,3.52A2.41,2.41,0,0,1,48,127c-.33,1.32-1.75,2.32-2.87,2.93A11.3,11.3,0,0,1,39.7,131.12Z"/><path d="M-22.46,121.82c-6.66,0-14.85-5-15.26-5.2a.76.76,0,0,1-.35-.69.73.73,0,0,1,.43-.63c4-1.86,8.45-5.19,12-7.86,1.64-1.22,3.06-2.28,4.24-3.06,11-7.26,13.34-7.71,13.7-7.72,5,.29,6.88,2.83,7.62,4.91,1.32,3.74-.25,8.88-2.54,11-1.67,1.53-6.64,5.46-16.67,8.8A10.16,10.16,0,0,1-22.46,121.82ZM-35.73,116c3,1.65,11,5.56,16,3.9,9.75-3.24,14.53-7,16.13-8.48a10,10,0,0,0,2.13-9.37c-.84-2.38-2.9-3.69-6.12-3.91-.36.08-3,.87-13,7.47-1.14.76-2.54,1.8-4.16,3A86.36,86.36,0,0,1-35.73,116Z"/></g><rect class="cls-3" x="12.88" y="12.85" width="169" height="265.73"/><path d="M183.88,280.58h-173V10.85h173Zm-169-4h165V14.85h-165Z"/><path class="cls-4" d="M29.88,35a13.32,13.32,0,0,0,2.46-2.8,5.17,5.17,0,0,0,.91-2.73,2.37,2.37,0,0,0-.66-1.76A2.6,2.6,0,0,0,30.7,27a4.07,4.07,0,0,0-2,.45,7.35,7.35,0,0,0-1.52,1.12l-.64-.91a6.52,6.52,0,0,1,2-1.49,6,6,0,0,1,2.79-.67,5,5,0,0,1,2.37.51,3.42,3.42,0,0,1,1.43,1.33,3.72,3.72,0,0,1,.46,1.81,6.21,6.21,0,0,1-1.91,4.08A20.07,20.07,0,0,1,28.94,37l6.22-.47.7-1.72,1,.2-.52,3.17H26.79l-.3-.84A20.68,20.68,0,0,0,29.88,35Z"/><path d="M183.88,280.58h-173V10.85h173Zm-169-4h165V14.85h-165Z"/><path d="M168.46,28.66A4.35,4.35,0,1,0,160,27.27a4.64,4.64,0,0,0,.21,1.39,4.43,4.43,0,0,0,.17,8.86,4.24,4.24,0,0,0,2.88-1.13l-.93,3.24h4l-.94-3.27a4.25,4.25,0,0,0,2.92,1.16,4.43,4.43,0,0,0,.16-8.86Z"/><path d="M147.61,175.49a4,4,0,0,0-1,.45,3.41,3.41,0,1,0,3.66,5.76,3.72,3.72,0,0,0,.84-.74,3.49,3.49,0,0,0,5.82-3.86,3.37,3.37,0,0,0-2-1.44l2.54-.75-1.68-2.63-1.77,2a3.42,3.42,0,0,0-.46-2.44,3.5,3.5,0,0,0-6,3.64Z"/><path d="M118.85,168a3.43,3.43,0,1,0,.5,6.72,3.72,3.72,0,0,0,1-.42,3.5,3.5,0,1,0,5.35-3.78l2.66.12-.74-3-2.33,1.33a3.34,3.34,0,0,0,.35-2.45,3.5,3.5,0,0,0-6.82,1.52Z"/><g class="cls-5"><path d="M148.93,101.38l7.54-6.2s1.81-1.26-2.57-3.62c-3.29-1.77-11.23,2.59-13.14,3.43-.91.4-3.66.16-4.65.27a4.34,4.34,0,0,1-1.26,0A3.14,3.14,0,0,1,133.46,94a2.47,2.47,0,0,1-.29,2.58c-.94,1.57-4.43,4.71-4.2,6.9.2,2,2.13,6.34,6.25,7a13.31,13.31,0,0,0,6.68-.33c1.13-.2,4.47-.07,6.37,1.66a6.44,6.44,0,0,0,3.82,1.22l.87.06-4.31-7.81"/><path d="M153,113.84h-.05l-.87-.06a7,7,0,0,1-4.27-1.41c-1.72-1.57-4.86-1.63-5.75-1.48-.2,0-.41.09-.65.16a13.12,13.12,0,0,1-6.27.18c-4.63-.76-6.66-5.59-6.87-7.68-.2-1.86,1.59-4,3-5.71a17.84,17.84,0,0,0,1.28-1.65,1.84,1.84,0,0,0,.28-1.82.75.75,0,0,1,.24-1,.73.73,0,0,1,1,.19c.58.82.91,1,1,1a3.34,3.34,0,0,0,1,0,15.34,15.34,0,0,1,1.6,0,11.44,11.44,0,0,0,2.83-.18l1.07-.51c3.1-1.49,9.55-4.61,12.72-2.89,2.18,1.17,3.27,2.29,3.34,3.42a1.69,1.69,0,0,1-.69,1.46L149.41,102a.75.75,0,0,1-1-.1.75.75,0,0,1,.1-1L156,94.61a.24.24,0,0,0,.1-.22c0-.14-.21-.91-2.55-2.17-2.51-1.35-9,1.75-11.37,2.92l-1.12.53a10.21,10.21,0,0,1-3.44.31c-.58,0-1.13,0-1.43,0a4.46,4.46,0,0,1-1.55,0,2.44,2.44,0,0,1-.34-.14,4.45,4.45,0,0,1-.49,1.12,17.65,17.65,0,0,1-1.41,1.83c-1.19,1.42-2.82,3.37-2.69,4.61.2,1.92,2.06,5.77,5.63,6.36a11.64,11.64,0,0,0,5.64-.15c.29-.08.55-.14.79-.19,1.31-.23,4.89-.07,7,1.85a5.08,5.08,0,0,0,2.87,1L148,105.65a.74.74,0,1,1,1.3-.72l4.31,7.81a.75.75,0,0,1-.65,1.1Z"/><path d="M163.64,147.53a.75.75,0,1,1,0-1.49,36.77,36.77,0,0,0,15.25-3.48c1.09-.67,4.21-2.8,5-4.21,1-1.82,10.91-11,16.75-10.68a.74.74,0,0,1,.69.79.75.75,0,0,1-.79.69c-4.93-.35-14.24,8-15.35,9.95s-5.12,4.48-5.57,4.76a38,38,0,0,1-16,3.67Z"/><path d="M148.93,144.56a.85.85,0,0,1-.26-.05c-8.26-3.16-14.06-11-14.1-19.19a9.75,9.75,0,0,0-7.43-9.7c-1.19-.25-2.46-.46-3.82-.69l-3.27-.58c-8.45-1.57-7.72-12.77-7.72-12.88a.75.75,0,0,1,.73-.69l5.62-.15a.76.76,0,0,1,.77.73.75.75,0,0,1-.73.76l-4.92.13c0,2.28.4,9.5,6.52,10.64,1.12.21,2.21.39,3.25.57,1.37.23,2.66.45,3.87.7a11.25,11.25,0,0,1,8.62,11.15c0,7.54,5.44,14.86,13.14,17.81a.74.74,0,0,1,.43,1A.76.76,0,0,1,148.93,144.56Z"/><path d="M146.12,108.74a1.75,1.75,0,0,1-1.37-.67,51.8,51.8,0,0,1-4.24-6.9.74.74,0,0,1,.31-1,.73.73,0,0,1,1,.3,48.44,48.44,0,0,0,4.1,6.68.23.23,0,0,0,.22.11.22.22,0,0,0,.2-.14l1.5-2.66c.06-.09,2.77-4.23,2.08-7a2.55,2.55,0,0,0-1.34-1.69,8.22,8.22,0,0,0-7.52-.14,7.39,7.39,0,0,1-3.34,0,10.48,10.48,0,0,0-1.69-.14,4.15,4.15,0,0,1-1.55,0c-1.13-.31-2-1.87-2.71-3l-.32-.54c-.18-.28-.38-.62-.59-1-.66-1.17-1.67-2.93-2.55-3.16-2-.53-4.77-.86-5.41-.53,0,0,0,0,0,0a30.11,30.11,0,0,0,2.22,2.81,7.82,7.82,0,0,1,2.59,3.15,9.41,9.41,0,0,0,1.63,2.36.94.94,0,0,1-.34,1.55,4.71,4.71,0,0,0-2.82,3.13,1.44,1.44,0,0,1-.66.81c-.68.39-2.48,1-6.84,1a.75.75,0,0,1,0-1.49H119c4.06,0,5.48-.62,5.82-.81a6.28,6.28,0,0,1,3-3.72A13.27,13.27,0,0,1,126.43,94a6.6,6.6,0,0,0-2.15-2.65,23.26,23.26,0,0,1-2.73-3.44,1.42,1.42,0,0,1,.16-1.56c1.26-1.45,6.4-.14,7,0,1.48.39,2.57,2.32,3.46,3.86.2.36.38.68.55,1l.35.57c.38.66,1.27,2.18,1.83,2.34a3,3,0,0,0,1,0,10,10,0,0,1,2,.14,9.47,9.47,0,0,0,2.56.12,9.63,9.63,0,0,1,8.83.19,4.06,4.06,0,0,1,2.08,2.64c.84,3.35-2.13,7.89-2.26,8.09l-1.47,2.61a1.76,1.76,0,0,1-1.38.9Zm-17.6-13h0Z"/><path class="cls-3" d="M137.56,99.87a.76.76,0,0,1-.49-.18A8.69,8.69,0,0,0,135,99a.74.74,0,0,1-.57-.88.75.75,0,0,1,.89-.57,8.14,8.14,0,0,1,2.74,1,.73.73,0,0,1,.06,1.05A.72.72,0,0,1,137.56,99.87Z"/><path d="M117.69,101.4l-4.61.13s.39,4.5.4,4.57A8.93,8.93,0,0,0,117.69,101.4Z"/><path d="M113.48,106.84a.72.72,0,0,1-.35-.08.75.75,0,0,1-.39-.54s0-.1-.4-4.63a.76.76,0,0,1,.18-.56.78.78,0,0,1,.54-.25l4.61-.12a.74.74,0,0,1,.62.31.72.72,0,0,1,.1.68,9.54,9.54,0,0,1-4.6,5.12A.67.67,0,0,1,113.48,106.84Zm.41-4.59.22,2.59a8.27,8.27,0,0,0,2.41-2.66Z"/><path d="M133.92,94.28s.88.16-2.64,1.84c-.86.41-2.45,1.42-3.08,1.82a14.35,14.35,0,0,0-2.72,2.33,5.49,5.49,0,0,1,3.35-3.82.2.2,0,0,0,.06-.33c-1.86-1.84-5.61-1.82-6.54-4.32s-.69-8.36,3-10.79c1.19-.79,2,1.5,2.36,2.34A22.39,22.39,0,0,0,129.79,88c1.38,2.09,2.31,4.58,4.13,6.31"/><path d="M125.48,101a.74.74,0,0,1-.36-.09.75.75,0,0,1-.36-.87,6.5,6.5,0,0,1,3-3.92,12.67,12.67,0,0,0-2.09-1c-1.63-.65-3.32-1.33-4-3.09-1-2.74-.79-9,3.28-11.67a1.52,1.52,0,0,1,1.36-.22c1,.32,1.58,1.55,2.07,2.84l.31.81a18.29,18.29,0,0,0,1.74,3.74c.48.73.91,1.52,1.33,2.27a16.15,16.15,0,0,0,2.61,3.83.85.85,0,0,1,.41.61c.08.64-.37,1.19-3.16,2.52-.85.4-2.51,1.46-3,1.78a13.21,13.21,0,0,0-2.56,2.2A.77.77,0,0,1,125.48,101Zm.35-19.43c-3.4,2.23-3.61,7.73-2.78,10,.42,1.14,1.68,1.65,3.14,2.23a9.57,9.57,0,0,1,3.22,1.82,1,1,0,0,1,.27.55c.47-.27.93-.53,1.28-.7a16.7,16.7,0,0,0,2-1.07,19.18,19.18,0,0,1-2.53-3.82c-.42-.76-.82-1.48-1.27-2.17a19.15,19.15,0,0,1-1.89-4l-.28-.73C126.28,81.74,125.9,81.6,125.83,81.59Zm8,13.43h0Z"/><path class="cls-3" d="M133.26,103.39a.73.73,0,0,1-.56-.25.74.74,0,0,1,.07-1,3.64,3.64,0,0,1,2.38-.51.74.74,0,0,1-.13,1.48,2.62,2.62,0,0,0-1.27.16A.79.79,0,0,1,133.26,103.39Z"/><path d="M243.9,138.39c-6,0-14.15-2.7-16.5-5.17-2.57-2.72-5.49-1.94-8.87-1l-.71.19a24.09,24.09,0,0,1-10.16,0c-6.41-1.11-11.23-8.29-11.43-8.6a.74.74,0,1,1,1.24-.82c.05.07,4.67,7,10.44,8a22.94,22.94,0,0,0,9.53,0l.7-.19c3.52-.94,7.16-1.92,10.34,1.44,2.66,2.81,14.72,6.16,19.41,4.07,2.72-1.22,3.06-2.13,3.08-2.47,0-.53-.56-1.17-1.65-1.8l-.59-.35c-1.71-1-2.28-1.37-7.11-1.52s-5.7-1.2-6.79-3.37c-.15-.31-.32-.65-.53-1-1.61-2.87-3-4.29-5.88-3.64-3.93.9-6.39-3.17-6.66-3.64a4.29,4.29,0,0,1-.25-2.28c0-.27,0-.5,0-.61a30.5,30.5,0,0,0-1.26-6.44c-1.56-4.9-4.43-8.41-8.08-9.88a.75.75,0,0,1,.52-1.4,18.42,18.42,0,0,0,14.48-.67,14.89,14.89,0,0,0,7.48-9.44c.86-3-.84-8.85-5.1-12.53a16.81,16.81,0,0,1,1.21,9.46c-.76,3.66-3.15,4.89-6.43,6.24A26.11,26.11,0,0,1,211,92c-2.79-.54-12.87-1.45-25.58,9.59-11.3,9.81-14.51,10.87-19.66,12-4.45,1-12.11,2.32-13.46-.12a.75.75,0,1,1,1.31-.71c.49.89,5,.91,11.82-.63,4.91-1.1,8-2.12,19-11.7,13.22-11.47,23.89-10.5,26.84-9.92a24.36,24.36,0,0,0,12.49-1c3-1.24,4.93-2.21,5.54-5.16a15.24,15.24,0,0,0-2.62-11.14.74.74,0,0,1,.92-1.13c4.63,2.4,10.24,9.85,8.49,16.05a16.37,16.37,0,0,1-8.23,10.35,19,19,0,0,1-11.29,1.8,18.89,18.89,0,0,1,5.1,8.38,32,32,0,0,1,1.32,6.75,6.71,6.71,0,0,1,0,.79,9.69,9.69,0,0,0,0,1.46v0c.09.14,2.05,3.61,5.05,2.94,4.14-1,6,1.75,7.51,4.36.22.39.4.75.56,1.08.88,1.75,1.21,2.41,5.5,2.54,5,.16,5.85.54,7.84,1.73l.57.34c1.65,1,2.45,2,2.38,3.17-.07,1.37-1.36,2.59-3.95,3.74A11.47,11.47,0,0,1,243.9,138.39ZM223,117.61Z"/><path d="M132.4,168.9a4,4,0,0,1-.69-.05,3.23,3.23,0,0,1-3.06-2.94,14.88,14.88,0,0,1,1.38-6.15c.21-.54.43-1.09.63-1.68.72-2.06,5-4.42,10.58-7.28,1.53-.79,3-1.53,3.92-2.1,3.38-2,6.77-10.11,6.81-10.19a.74.74,0,0,1,1-.41.75.75,0,0,1,.4,1c-.14.35-3.62,8.62-7.41,10.89-1,.6-2.39,1.32-4,2.15-3.7,1.91-9.28,4.79-9.86,6.45-.21.6-.43,1.17-.65,1.73a13.76,13.76,0,0,0-1.29,5.57c0,.87.92,1.39,1.79,1.51a4,4,0,0,0,4.26-3.08c1.76-5.48,8.24-7.78,10.59-8.21,4.48-.81,10.27-2.18,11.84-3.38,1.95-1.49,6.44-8.38,6.53-14.14a.75.75,0,0,1,.74-.74h0a.75.75,0,0,1,.73.76c-.09,6.09-4.73,13.48-7.12,15.31-2.23,1.7-10.11,3.23-12.47,3.66-2,.35-7.91,2.44-9.44,7.2A5.49,5.49,0,0,1,132.4,168.9Z"/><path d="M115.91,160.77a3.45,3.45,0,0,1-2.85-2,7.73,7.73,0,0,1,.5-8.7,9.33,9.33,0,0,1,3.83-2.94,234.23,234.23,0,0,0,22.34-10.29.75.75,0,0,1,1,.31.73.73,0,0,1-.31,1A235.92,235.92,0,0,1,118,148.52a7.85,7.85,0,0,0-3.21,2.48,6.21,6.21,0,0,0-.42,7c.53.85,1.06,1.28,1.59,1.28h0c.52,0,1.63-.44,3.27-3.27,1.49-2.55,3.85-3.73,6.18-4.64l2.1-.84a44.51,44.51,0,0,1,7-2.39l2.06-.4c3.71-.66,8.78-1.58,10.19-5a.74.74,0,0,1,1-.4.75.75,0,0,1,.41,1c-1.73,4.15-7.26,5.15-11.3,5.88-.73.13-1.41.25-2,.39a41.57,41.57,0,0,0-6.77,2.31c-.7.29-1.41.58-2.12.85-2.08.81-4.17,1.85-5.43,4-1.56,2.68-3,4-4.54,4Z"/><path class="cls-6" d="M155,113.32s4.95-6.3,13.56-.16C168.56,113.16,160.53,120.42,155,113.32Z"/><path class="cls-6" d="M159.05,96.73s-7.13,3.19-4.06,13.69C155,110.42,163.88,104.38,159.05,96.73Z"/><path d="M154.45,112.19l-.41-1c-4-9.45,2.35-13.56,2.41-13.6l.56-.34.41.5c5.48,6.68-2.12,13.63-2.19,13.7Zm2.25-12.87c-1.21,1.07-3.87,4.25-1.7,10.28C156.55,107.88,159.64,103.59,156.7,99.32Z"/><path class="cls-6" d="M156.08,113.08c-.92-4.17-6.87.49-8.18,1.44-3.79,2.73-7.55,5.45-11.45,8-1.21.79-2.62,1.12-3.13,2.77-.6,2,1.12,4.85,2.94,3.6,4.83-3.3,9.89-6.32,14.53-10C152.26,117.87,156.65,115.69,156.08,113.08Z"/><path d="M136.15,126.94a2,2,0,0,1-1.28-.46,3.36,3.36,0,0,1-1-3.63,4.36,4.36,0,0,1,2.35-2.31c.24-.14.49-.27.73-.43,3.48-2.25,6.85-4.63,10.11-6.94l.22-.16c2.21-1.59,5-3.32,6.72-2.62a2.16,2.16,0,0,1,1.3,1.75h0c.42,2.22-2.35,4-4.19,5.15-.34.22-.64.41-.86.57-2.75,2.09-5.71,4-8.56,5.84-1.45.94-2.89,1.87-4.32,2.83A2.24,2.24,0,0,1,136.15,126.94Zm16.94-15.23c-.72,0-2.14.52-4.91,2.51l-.23.16c-3.27,2.32-6.65,4.72-10.16,7-.27.18-.55.33-.83.49-.77.42-1.38.75-1.66,1.52a1.86,1.86,0,0,0,.49,1.94.59.59,0,0,0,.78,0c1.43-1,2.89-1.91,4.34-2.85,2.83-1.83,5.76-3.72,8.48-5.79l1-.63c1.32-.83,3.76-2.39,3.53-3.61h0c-.1-.53-.32-.62-.4-.65A1,1,0,0,0,153.09,111.71Z"/><path d="M159.74,115.3q-.31,0-.63,0a7.3,7.3,0,0,1-5.21-3l-.36-.46.36-.46c0-.06,5-6.13,13.14-.29l.76.53-.69.63C167,112.31,163.61,115.3,159.74,115.3Zm-4.26-3.5a5.7,5.7,0,0,0,3.76,2c2.49.21,4.91-1.25,6.11-2.12C160,108.34,156.61,110.73,155.48,111.8Z"/><path d="M168.56,111.94s11.22,6.86,17.83,4.66c9.27-3.08,14.36-6.76,16.41-8.64,3.21-2.95,5.62-14-4.54-14.59,0,0-2,.09-13.33,7.6C181.14,103.48,174.43,109.22,168.56,111.94Z"/><path d="M183.43,117.79c-6.66,0-14.86-5-15.26-5.21a.76.76,0,0,1,.08-1.32c4-1.85,8.45-5.18,12-7.85,1.64-1.23,3.06-2.28,4.24-3.06,11-7.26,13.34-7.71,13.7-7.73,5,.3,6.88,2.84,7.61,4.92,1.33,3.73-.24,8.87-2.53,11-1.67,1.53-6.64,5.46-16.67,8.79A10.16,10.16,0,0,1,183.43,117.79ZM170.16,112c3,1.64,11,5.56,16,3.9,9.75-3.25,14.53-7,16.13-8.48A10.06,10.06,0,0,0,204.42,98c-.84-2.38-2.9-3.7-6.12-3.91-.37.08-3,.87-13,7.47-1.14.75-2.54,1.8-4.16,3A86.36,86.36,0,0,1,170.16,112Z"/></g></svg>