<svg id="圖層_1" data-name="圖層 1" xmlns="http://www.w3.org/2000/svg" viewBox="0 0 194.94 294.58"><defs><style>.cls-1{fill:#fff;}.cls-2{fill:#170000;}.cls-3{fill:#c21823;}</style></defs><title>新接龍</title><rect class="cls-1" x="12.88" y="12.85" width="169" height="265.73"/><path d="M183.88,280.58h-173V10.85h173Zm-169-4h165V14.85h-165Z"/><path class="cls-2" d="M27.62,32.33a5.82,5.82,0,0,1,2.32-1.7A7,7,0,0,1,28.11,29a3.51,3.51,0,0,1-.64-2.14,3.34,3.34,0,0,1,.63-2,3.88,3.88,0,0,1,1.68-1.29A5.58,5.58,0,0,1,32,23.11a5.06,5.06,0,0,1,3.13.9,2.86,2.86,0,0,1,1.18,2.41,3.6,3.6,0,0,1-.69,2.12,5.85,5.85,0,0,1-2,1.69,10.57,10.57,0,0,1,2.49,1.83A3.17,3.17,0,0,1,37,34.35a3.34,3.34,0,0,1-.71,2.13,4.67,4.67,0,0,1-1.9,1.42,6.53,6.53,0,0,1-2.56.5,7.1,7.1,0,0,1-2.42-.4,4.1,4.1,0,0,1-1.86-1.28,3.32,3.32,0,0,1-.72-2.19A3.57,3.57,0,0,1,27.62,32.33Zm6.86,1.16a4.22,4.22,0,0,0-1.06-1c-.42-.27-1-.59-1.73-1-.38-.19-.66-.34-.85-.45a4.26,4.26,0,0,0-1.52,1.29,2.87,2.87,0,0,0-.59,1.73A3,3,0,0,0,32,37.38a3.25,3.25,0,0,0,1.39-.32,2.92,2.92,0,0,0,1.1-.93,2.31,2.31,0,0,0,.42-1.36A2.07,2.07,0,0,0,34.48,33.49ZM29.76,27.7a4,4,0,0,0,1.08,1c.43.26,1.05.61,1.85,1a4,4,0,0,0,1.42-1.22,2.75,2.75,0,0,0,.53-1.61,2.9,2.9,0,0,0-.73-2.08A2.57,2.57,0,0,0,32,24.05a2.82,2.82,0,0,0-1.88.64,2.13,2.13,0,0,0-.77,1.73A2,2,0,0,0,29.76,27.7Z"/><path d="M183.88,280.58h-173V10.85h173Zm-169-4h165V14.85h-165Z"/><path d="M168.46,28.66A4.35,4.35,0,1,0,160,27.27a4.64,4.64,0,0,0,.21,1.39,4.43,4.43,0,0,0,.17,8.86,4.24,4.24,0,0,0,2.88-1.13l-.93,3.24h4l-.94-3.27a4.25,4.25,0,0,0,2.92,1.16,4.43,4.43,0,0,0,.16-8.86Z"/><path d="M147.61,175.49a4,4,0,0,0-1,.45,3.41,3.41,0,1,0,3.66,5.76,3.72,3.72,0,0,0,.84-.74,3.49,3.49,0,0,0,5.82-3.86,3.37,3.37,0,0,0-2-1.44l2.54-.75-1.68-2.63-1.77,2a3.42,3.42,0,0,0-.46-2.44,3.5,3.5,0,0,0-6,3.64Z"/><path d="M108.29,195.93a3.31,3.31,0,0,0-1,.45,3.41,3.41,0,1,0,3.67,5.75,3.85,3.85,0,0,0,.83-.73,3.5,3.5,0,0,0,5.82-3.86,3.33,3.33,0,0,0-2-1.44l2.54-.75-1.67-2.64-1.78,2a3.4,3.4,0,0,0-.46-2.43,3.5,3.5,0,0,0-6,3.64Z"/><path d="M118.85,168a3.43,3.43,0,1,0,.5,6.72,3.72,3.72,0,0,0,1-.42,3.5,3.5,0,1,0,5.35-3.78l2.66.12-.74-3-2.33,1.33a3.34,3.34,0,0,0,.35-2.45,3.5,3.5,0,0,0-6.82,1.52Z"/><path d="M160.06,141.32a3.69,3.69,0,0,0-1.08.25,3.41,3.41,0,1,0,2.5,6.35,3.66,3.66,0,0,0,1-.56,3.5,3.5,0,0,0,6.45-2.69,3.39,3.39,0,0,0-1.66-1.79l2.64-.25-1.15-2.9-2.12,1.63a3.37,3.37,0,0,0,0-2.48,3.5,3.5,0,0,0-6.55,2.44Z"/><path d="M91.52,186.07a3.66,3.66,0,0,0-1.1-.16,3.41,3.41,0,1,0,.07,6.82,3.38,3.38,0,0,0,1.1-.18,3.49,3.49,0,0,0,7-.2,3.38,3.38,0,0,0-.91-2.26l2.55.7,0-3.12-2.57.77a3.38,3.38,0,0,0,.89-2.31,3.49,3.49,0,0,0-7-.06Z"/><path d="M41.13,177.36A3.35,3.35,0,0,0,40,177.2a3.41,3.41,0,1,0,.07,6.82,3.32,3.32,0,0,0,1.09-.18,3.49,3.49,0,0,0,7-.21,3.31,3.31,0,0,0-.91-2.26l2.56.71,0-3.13-2.57.77a3.35,3.35,0,0,0,.89-2.31,3.5,3.5,0,0,0-7,0Z"/><path d="M168.1,158.51a3.56,3.56,0,0,0-.43,1,3.41,3.41,0,1,0,6.62,1.67,3.7,3.7,0,0,0,.1-1.1,3.5,3.5,0,0,0,1.59-6.81,3.39,3.39,0,0,0-2.43.31l1.34-2.29-3-.77.09,2.68a3.38,3.38,0,0,0-2-1.45,3.5,3.5,0,0,0-1.85,6.74Z"/><path d="M71,98.76l7.32-6.45s1.77-1.32-2.7-3.53c-3.34-1.66-11.12,3-13,3.88-.9.43-3.65.29-4.63.43a4,4,0,0,1-1.27,0,3.16,3.16,0,0,1-1.43-1.22,2.51,2.51,0,0,1-.2,2.6c-.89,1.59-4.27,4.85-4,7,.27,2,2.34,6.27,6.49,6.8a13.26,13.26,0,0,0,6.66-.56c1.13-.24,4.47-.22,6.43,1.44a6.41,6.41,0,0,0,3.85,1.09l.87,0-4.57-7.66"/><path d="M75.42,111.08h0l-.87,0a7,7,0,0,1-4.31-1.26c-1.78-1.51-4.92-1.46-5.8-1.28-.2,0-.41.11-.65.18a13.24,13.24,0,0,1-6.26.39c-4.65-.6-6.84-5.36-7.13-7.43-.26-1.85,1.45-4.05,2.83-5.82a14.53,14.53,0,0,0,1.22-1.69,1.83,1.83,0,0,0,.22-1.82.75.75,0,0,1,.21-1,.73.73,0,0,1,1,.15c.61.8.93.93,1,1a3.36,3.36,0,0,0,1-.06c.38,0,1-.07,1.6-.09A11.16,11.16,0,0,0,62.29,92l1.05-.54c3-1.6,9.38-4.93,12.62-3.34,2.21,1.1,3.34,2.18,3.44,3.31a1.71,1.71,0,0,1-.63,1.49l-7.28,6.41a.74.74,0,0,1-1-1.12l7.32-6.45a.23.23,0,0,0,.09-.21c0-.14-.24-.91-2.63-2.09-2.55-1.26-8.87,2.06-11.26,3.31-.46.25-.83.44-1.1.57a9.89,9.89,0,0,1-3.42.42c-.58,0-1.13,0-1.43.08a4.27,4.27,0,0,1-1.55,0,1.89,1.89,0,0,1-.35-.13,4,4,0,0,1-.45,1.14,18,18,0,0,1-1.34,1.88c-1.14,1.46-2.71,3.46-2.54,4.69.27,1.92,2.26,5.7,5.85,6.17a11.55,11.55,0,0,0,5.63-.35c.29-.08.54-.16.79-.21,1.3-.27,4.89-.24,7.06,1.61a5.07,5.07,0,0,0,2.9.88l-3.87-6.48a.75.75,0,0,1,.26-1,.74.74,0,0,1,1,.26L76.06,110a.74.74,0,0,1,0,.76A.73.73,0,0,1,75.42,111.08Z"/><path d="M87.26,144.38a.74.74,0,0,1,0-1.48,37,37,0,0,0,15.13-4c1.06-.71,4.11-2.95,4.86-4.38,1-1.84,10.3-11.26,16.19-11.26h.18a.75.75,0,1,1,0,1.49h-.14c-4.93,0-13.83,8.5-14.86,10.47s-5,4.65-5.4,4.95a37.8,37.8,0,0,1-15.86,4.22Z"/><path d="M72.46,141.92a.69.69,0,0,1-.24,0c-8.37-2.86-14.43-10.55-14.75-18.68a9.78,9.78,0,0,0-7.76-9.45c-1.19-.2-2.47-.37-3.83-.55-1.06-.14-2.16-.29-3.3-.46-8.5-1.29-8.16-12.5-8.16-12.61a.76.76,0,0,1,.7-.72l5.62-.34a.74.74,0,1,1,.09,1.48l-4.92.31c.06,2.27.73,9.47,6.89,10.4,1.13.18,2.23.32,3.28.46,1.37.19,2.66.36,3.88.57,5,.84,8.78,5.41,9,10.85.29,7.53,5.95,14.66,13.74,17.34a.74.74,0,0,1,.47.94A.76.76,0,0,1,72.46,141.92Z"/><path d="M68.39,106.22a1.76,1.76,0,0,1-1.34-.63,50,50,0,0,1-4.47-6.75.74.74,0,1,1,1.28-.75,49,49,0,0,0,4.32,6.54.24.24,0,0,0,.23.1.24.24,0,0,0,.2-.15l1.4-2.71c0-.09,2.62-4.33,1.84-7a2.55,2.55,0,0,0-1.39-1.64,8.21,8.21,0,0,0-7.53.12,7.35,7.35,0,0,1-3.33.11,11.4,11.4,0,0,0-1.7-.08,4,4,0,0,1-1.55,0c-1.14-.28-2.1-1.81-2.81-2.92-.13-.2-.24-.38-.34-.52s-.39-.62-.62-1c-.71-1.15-1.77-2.88-2.66-3.08-2-.46-4.79-.69-5.42-.34l0,0a33.47,33.47,0,0,0,2.31,2.74,7.77,7.77,0,0,1,2.7,3,9.55,9.55,0,0,0,1.71,2.3.94.94,0,0,1,.28.87.9.9,0,0,1-.57.69,4.73,4.73,0,0,0-2.71,3.23,1.46,1.46,0,0,1-.62.83c-.68.42-2.46,1.13-6.81,1.25a.75.75,0,0,1-.05-1.49c4.28-.12,5.73-.82,6.08-1a6.3,6.3,0,0,1,2.84-3.82,13.27,13.27,0,0,1-1.43-2.06A6.54,6.54,0,0,0,46,89.57a22.53,22.53,0,0,1-2.85-3.35,1.39,1.39,0,0,1,.11-1.56c1.2-1.5,6.39-.36,7-.22,1.49.34,2.65,2.23,3.59,3.75l.58.92c.11.15.23.35.37.56.4.64,1.35,2.14,1.91,2.27a2.65,2.65,0,0,0,1,0,9.94,9.94,0,0,1,2,.07,9.18,9.18,0,0,0,2.56,0,9.6,9.6,0,0,1,8.83-.11,4,4,0,0,1,2.16,2.56c1,3.32-1.85,8-2,8.16l-1.38,2.67a1.74,1.74,0,0,1-1.35.94ZM50.22,94.77Zm.19-.91Z"/><path class="cls-1" d="M59.56,97.65a.75.75,0,0,1-.47-.17A8.68,8.68,0,0,0,57,96.9a.74.74,0,1,1,.27-1.46,7.89,7.89,0,0,1,2.77.89.75.75,0,0,1,.11,1A.76.76,0,0,1,59.56,97.65Z"/><path d="M39.77,99.86l-4.6.29s.54,4.48.56,4.55A8.88,8.88,0,0,0,39.77,99.86Z"/><path d="M35.73,105.45a.76.76,0,0,1-.33-.08.71.71,0,0,1-.4-.52s0-.1-.57-4.61a.74.74,0,0,1,.17-.57.76.76,0,0,1,.52-.27l4.61-.28a.69.69,0,0,1,.63.29.72.72,0,0,1,.12.68,9.64,9.64,0,0,1-4.41,5.28A.84.84,0,0,1,35.73,105.45Zm.27-4.61c.09.71.22,1.77.32,2.58a8.33,8.33,0,0,0,2.32-2.74Z"/><path d="M55.75,92.19s.89.12-2.57,1.92c-.85.44-2.41,1.51-3,1.93a14.32,14.32,0,0,0-2.64,2.43,5.51,5.51,0,0,1,3.21-3.94.2.2,0,0,0,.05-.33c-1.91-1.78-5.66-1.63-6.68-4.1s-1-8.33,2.62-10.88c1.16-.83,2.08,1.43,2.43,2.26A23.78,23.78,0,0,0,51.4,86c1.45,2,2.47,4.49,4.35,6.16"/><path d="M47.52,99.21a.68.68,0,0,1-.34-.08.74.74,0,0,1-.38-.85,6.45,6.45,0,0,1,2.82-4,12.18,12.18,0,0,0-2.12-.91c-1.66-.6-3.37-1.22-4.09-3-1.11-2.7-1.1-9,2.88-11.78a1.52,1.52,0,0,1,1.34-.26c1.14.32,1.81,1.91,2.18,2.76l.34.81A18.32,18.32,0,0,0,52,85.59c.51.72,1,1.49,1.41,2.23a16.43,16.43,0,0,0,2.74,3.73.87.87,0,0,1,.43.6c.11.64-.32,1.2-3.07,2.62-.83.43-2.46,1.55-2.94,1.88a13.82,13.82,0,0,0-2.48,2.29A.74.74,0,0,1,47.52,99.21Zm-.3-19.43c-3.31,2.35-3.33,7.86-2.43,10C45.25,91,46.53,91.41,48,92a9.23,9.23,0,0,1,3.29,1.71.88.88,0,0,1,.29.53c.46-.29.91-.56,1.25-.74a17.17,17.17,0,0,0,2-1.14,19.48,19.48,0,0,1-2.66-3.73c-.45-.75-.87-1.45-1.34-2.12a20.05,20.05,0,0,1-2-4l-.3-.73C47.68,79.91,47.29,79.79,47.22,79.78Zm8.42,13.14h0Z"/><path class="cls-1" d="M55.38,101.31a.7.7,0,0,1-.54-.23.73.73,0,0,1,0-1,3.51,3.51,0,0,1,2.36-.6.74.74,0,0,1,.7.78.72.72,0,0,1-.78.71,2.72,2.72,0,0,0-1.26.19A.77.77,0,0,1,55.38,101.31Z"/><path d="M166.44,132.5c-5.94,0-13.59-2.32-15.93-4.62-2.66-2.62-5.55-1.74-8.9-.72l-.7.21a24.17,24.17,0,0,1-10.15.36c-6.45-.89-11.51-7.91-11.72-8.21a.74.74,0,0,1,1.21-.86c0,.07,4.91,6.79,10.71,7.59a22.59,22.59,0,0,0,9.52-.31l.7-.21c3.48-1.06,7.08-2.16,10.38,1.09,2.75,2.71,14.92,5.64,19.54,3.39,2.68-1.31,3-2.23,3-2.57,0-.52-.6-1.14-1.71-1.74l-.6-.33c-1.74-1-2.33-1.28-7.16-1.27h-.11c-4.86,0-5.64-1-6.79-3.14-.17-.3-.35-.63-.57-1-1.7-2.81-3.16-4.19-6-3.44-3.8,1-6.34-2.7-6.76-3.38-.3-.4-.34-1-.34-2.3a4.91,4.91,0,0,0,0-.61,31.12,31.12,0,0,0-1.48-6.39c-1.73-4.84-4.72-8.25-8.42-9.6A.74.74,0,0,1,134.6,93a18.41,18.41,0,0,0,14.45-1.17,14.87,14.87,0,0,0,7.16-9.69c1-4.28-2.06-9.29-5.47-12.19a16.65,16.65,0,0,1,1.47,9.26c-.63,3.68-3,5-6.21,6.45a25.93,25.93,0,0,1-13.3,1.5c-2.8-.44-12.91-1-25.23,10.46-11,10.2-14.13,11.37-19.23,12.71-4.42,1.15-12,2.73-13.46.35a.75.75,0,0,1,1.28-.77c.53.88,5.08.74,11.8-1,4.86-1.28,7.9-2.41,18.59-12.36C119.27,84.65,130,85.26,132.93,85.73a24.28,24.28,0,0,0,12.45-1.39c3-1.34,4.85-2.37,5.37-5.35a15.31,15.31,0,0,0-3-11,.74.74,0,0,1,0-.94.75.75,0,0,1,.91-.22c4.71,2.24,10.58,9.49,9,15.75a16.33,16.33,0,0,1-7.87,10.63,19,19,0,0,1-11.21,2.19,18.73,18.73,0,0,1,5.38,8.19,32.12,32.12,0,0,1,1.56,6.71c0,.15,0,.44,0,.79a9.33,9.33,0,0,0,.07,1.46.16.16,0,0,1,0,.07h0s2.13,3.5,5.12,2.71c4.11-1.08,6.11,1.55,7.66,4.1.23.38.42.74.6,1.06.94,1.73,1.26,2.38,5.58,2.36,5,0,5.86.34,7.89,1.46l.59.32c1.67.9,2.51,1.94,2.49,3.08,0,1.37-1.28,2.64-3.83,3.88A12.55,12.55,0,0,1,166.44,132.5Zm-20.88-20.07Z"/><path d="M167.89,121.14a30.32,30.32,0,0,1-12.16-3.08.74.74,0,0,1-.35-1,.75.75,0,0,1,1-.36c5.28,2.48,12.43,4.24,16.69,1.75a4.13,4.13,0,0,0,2.07-2.06.89.89,0,0,0-.18-.73,7.12,7.12,0,0,0-4.08-2.73,13.45,13.45,0,0,0-3.16.06,12.38,12.38,0,0,1-4.16-.06,4.74,4.74,0,0,1-3-2.33c-.2-.28-.41-.58-.66-.89a8.28,8.28,0,0,0-4.41-2.69c-4-.88-6.56-.39-11.17.62a.72.72,0,0,1-.88-.56.74.74,0,0,1,.56-.89c4.69-1,7.54-1.58,11.82-.62a9.83,9.83,0,0,1,5.23,3.2c.28.34.51.67.73,1a3.36,3.36,0,0,0,2.12,1.73,10.93,10.93,0,0,0,3.66,0,14.77,14.77,0,0,1,3.52-.06,8.61,8.61,0,0,1,5.09,3.35,2.37,2.37,0,0,1,.41,1.91c-.28,1.33-1.66,2.38-2.76,3A11.62,11.62,0,0,1,167.89,121.14Z"/><path d="M56.63,166.82a4.41,4.41,0,0,1-.52,0A3.24,3.24,0,0,1,53,164a15,15,0,0,1,1.17-6.2c.19-.54.39-1.11.57-1.7.65-2.08,4.87-4.58,10.32-7.64,1.5-.84,2.91-1.63,3.85-2.24,3.31-2.14,6.42-10.33,6.45-10.41a.74.74,0,1,1,1.39.52c-.13.36-3.31,8.74-7,11.14-1,.64-2.41,1.44-3.93,2.29-3.63,2-9.1,5.1-9.63,6.79-.19.6-.39,1.18-.58,1.74a13.7,13.7,0,0,0-1.1,5.61c.06.88,1,1.36,1.84,1.45a4,4,0,0,0,4.15-3.22c1.57-5.53,8-8.06,10.3-8.57,4.45-1,10.19-2.54,11.72-3.79,1.9-1.55,6.15-8.6,6-14.36a.75.75,0,0,1,.73-.76.78.78,0,0,1,.76.73c.12,6.1-4.26,13.64-6.59,15.55-2.18,1.78-10,3.58-12.34,4.09-2,.42-7.82,2.71-9.19,7.52A5.47,5.47,0,0,1,56.63,166.82Z"/><path d="M40,159.26a3.52,3.52,0,0,1-2.83-1.89,7.75,7.75,0,0,1,.21-8.72,9.29,9.29,0,0,1,3.72-3.06,236.53,236.53,0,0,0,22-11.05.75.75,0,0,1,1,.26.74.74,0,0,1-.27,1,234.64,234.64,0,0,1-22.11,11.12,7.94,7.94,0,0,0-3.13,2.59,6.23,6.23,0,0,0-.17,7c.37.57,1,1.23,1.6,1.23h0c.52,0,1.61-.5,3.16-3.38,1.4-2.6,3.71-3.87,6-4.85.69-.29,1.38-.6,2.06-.91A43.75,43.75,0,0,1,58.17,146c.61-.16,1.3-.31,2-.47,3.68-.8,8.72-1.89,10-5.33a.75.75,0,0,1,1.4.52c-1.59,4.21-7.08,5.4-11.09,6.27-.72.15-1.4.3-2,.45A43.26,43.26,0,0,0,51.84,150l-2.08.92c-2,.88-4.11,2-5.29,4.19-1.46,2.72-2.9,4.08-4.4,4.15Z"/><path class="cls-3" d="M77.48,110.49S82.2,104,91,109.86C91,109.86,83.24,117.4,77.48,110.49Z"/><path class="cls-3" d="M81,93.77s-7,3.43-3.59,13.82C77.36,107.59,86,101.24,81,93.77Z"/><path d="M76.89,109.38l-.44-.94c-4.38-9.3,1.87-13.63,1.93-13.67l.55-.37.43.5c5.71,6.48-1.65,13.69-1.72,13.76Zm1.8-12.94c-1.17,1.11-3.72,4.38-1.34,10.34C78.84,105,81.77,100.6,78.69,96.44Z"/><path class="cls-3" d="M78.54,110.21c-1.06-4.13-6.85.73-8.12,1.72-3.69,2.87-7.36,5.71-11.17,8.4-1.18.83-2.57,1.21-3,2.88-.53,2,1.28,4.81,3.06,3.5,4.71-3.47,9.67-6.66,14.18-10.45C74.89,115.13,79.21,112.8,78.54,110.21Z"/><path d="M59,124.75a2,2,0,0,1-1.22-.42,3.36,3.36,0,0,1-1.1-3.59A4.38,4.38,0,0,1,59,118.35c.24-.14.49-.29.72-.45,3.4-2.37,6.69-4.87,9.86-7.29l.21-.16c2.16-1.67,4.86-3.49,6.63-2.86a2.16,2.16,0,0,1,1.36,1.71h0c.5,2.2-2.21,4.06-4,5.29-.33.23-.63.43-.84.6-2.68,2.18-5.56,4.19-8.35,6.13-1.42,1-2.83,2-4.22,3A2.21,2.21,0,0,1,59,124.75Zm16.53-15.81c-.71,0-2.11.55-4.88,2.69l-.21.17c-3.19,2.42-6.49,4.93-9.92,7.32-.26.19-.54.35-.81.51-.76.45-1.35.8-1.61,1.58a1.86,1.86,0,0,0,.55,1.92.6.6,0,0,0,.79,0c1.4-1,2.81-2,4.23-3,2.77-1.93,5.63-3.92,8.28-6.08.25-.19.57-.41.93-.66,1.28-.88,3.67-2.52,3.4-3.73h0c-.12-.53-.33-.61-.41-.64A1.06,1.06,0,0,0,75.56,108.94Z"/><path d="M82,112.31h-.38a7.32,7.32,0,0,1-5.32-2.87L76,109l.34-.47c0-.07,4.74-6.3,13.13-.75l.77.51-.67.65C89.39,109.07,86,112.31,82,112.31ZM77.9,109a5.68,5.68,0,0,0,3.83,1.86c2.5.13,4.87-1.42,6-2.32C82.28,105.31,79,107.84,77.9,109Z"/><path d="M91,108.65s11.44,6.47,18,4c9.16-3.4,14.11-7.25,16.1-9.2,3.11-3.07,5.14-14.16-5-14.43,0,0-2,.16-13.06,8.06C103.26,99.75,96.75,105.72,91,108.65Z"/><path d="M105.56,114c-6.58,0-14.55-4.46-15-4.68a.76.76,0,0,1-.38-.67.76.76,0,0,1,.41-.65c3.93-2,8.27-5.47,11.76-8.27,1.6-1.28,3-2.38,4.13-3.2,10.72-7.63,13.07-8.17,13.43-8.2,5,.13,7,2.6,7.77,4.66,1.46,3.68.07,8.88-2.15,11-1.62,1.59-6.45,5.69-16.36,9.37A10.45,10.45,0,0,1,105.56,114Zm-13-5.34c3.08,1.54,11.2,5.17,16.12,3.34,9.64-3.58,14.28-7.5,15.83-9a10,10,0,0,0,1.81-9.43c-.93-2.35-3-3.6-6.26-3.71-.36.1-2.93,1-12.68,7.92-1.12.79-2.48,1.89-4.06,3.15A87.79,87.79,0,0,1,92.58,108.64Z"/><path d="M59.07,191.4a3.28,3.28,0,0,0-1,.55,3.41,3.41,0,1,0,4.22,5.36,3.6,3.6,0,0,0,.75-.81,3.5,3.5,0,0,0,5.41-4.43,3.37,3.37,0,0,0-2.11-1.23l2.46-1-1.93-2.46-1.57,2.18a3.37,3.37,0,0,0-.7-2.38,3.5,3.5,0,0,0-5.57,4.22Z"/></svg>