<svg id="圖層_1" data-name="圖層 1" xmlns="http://www.w3.org/2000/svg" xmlns:xlink="http://www.w3.org/1999/xlink" viewBox="0 0 194.94 294.58"><defs><style>.cls-1{fill:none;}.cls-2{fill:#fff;}.cls-3{clip-path:url(#clip-path);}.cls-4{fill:#c21823;}.cls-5{fill:#170000;}.cls-6{clip-path:url(#clip-path-2);}</style><clipPath id="clip-path"><rect class="cls-1" x="70.88" y="61.53" width="111.24" height="111.24"/></clipPath><clipPath id="clip-path-2"><rect class="cls-1" x="-142.11" y="61.53" width="111.24" height="111.24"/></clipPath></defs><title>新接龍</title><rect class="cls-2" x="12.88" y="12.85" width="169" height="265.73"/><path d="M183.88,280.58h-173V10.85h173Zm-169-4h165V14.85h-165Z"/><path d="M147.61,175.49a4,4,0,0,0-1,.45,3.41,3.41,0,1,0,3.66,5.76,3.72,3.72,0,0,0,.84-.74,3.49,3.49,0,0,0,5.82-3.86,3.37,3.37,0,0,0-2-1.44l2.54-.75-1.68-2.63-1.77,2a3.42,3.42,0,0,0-.46-2.44,3.5,3.5,0,0,0-6,3.64Z"/><path d="M118.85,168a3.43,3.43,0,1,0,.5,6.72,3.72,3.72,0,0,0,1-.42,3.5,3.5,0,1,0,5.35-3.78l2.66.12-.74-3-2.33,1.33a3.34,3.34,0,0,0,.35-2.45,3.5,3.5,0,0,0-6.82,1.52Z"/><path d="M160.06,141.32a3.69,3.69,0,0,0-1.08.25,3.41,3.41,0,1,0,2.5,6.35,3.66,3.66,0,0,0,1-.56,3.5,3.5,0,0,0,6.45-2.69,3.39,3.39,0,0,0-1.66-1.79l2.64-.25-1.15-2.9-2.12,1.63a3.37,3.37,0,0,0,0-2.48,3.5,3.5,0,0,0-6.55,2.44Z"/><path d="M168.1,158.51a3.56,3.56,0,0,0-.43,1,3.41,3.41,0,1,0,6.62,1.67,3.7,3.7,0,0,0,.1-1.1,3.5,3.5,0,0,0,1.59-6.81,3.39,3.39,0,0,0-2.43.31l1.34-2.29-3-.77.09,2.68a3.38,3.38,0,0,0-2-1.45,3.5,3.5,0,0,0-1.85,6.74Z"/><g class="cls-3"><path d="M125.24,88.65l8.4-5s2-1-2-4c-3-2.25-11.49.83-13.51,1.36-1,.25-3.64-.4-4.63-.45a3.79,3.79,0,0,1-1.26-.2A3.15,3.15,0,0,1,111.08,79a2.5,2.5,0,0,1-.67,2.52c-1.18,1.4-5.11,4-5.23,6.16-.1,2,1.13,6.6,5.1,7.9a13.16,13.16,0,0,0,6.65.7c1.15,0,4.43.63,6,2.63a6.41,6.41,0,0,0,3.58,1.79l.85.19-3.05-8.38"/><path d="M127.4,101.6l-.16,0-.85-.19a7,7,0,0,1-4-2c-1.46-1.82-4.56-2.33-5.45-2.35-.21,0-.43,0-.68.05a13,13,0,0,1-6.21-.79c-4.45-1.47-5.72-6.55-5.61-8.65.1-1.86,2.19-3.7,3.88-5.17A19.22,19.22,0,0,0,109.84,81a1.86,1.86,0,0,0,.56-1.75.76.76,0,0,1,.39-1,.74.74,0,0,1,1,.34c.45.9.74,1.09.82,1.13a3.64,3.64,0,0,0,1,.13,14.83,14.83,0,0,1,1.58.21,10.78,10.78,0,0,0,2.83.26l1.13-.33c3.29-1,10.15-3.08,13-.9,2,1.5,2.87,2.77,2.76,3.89a1.71,1.71,0,0,1-.9,1.35l-8.36,4.93a.75.75,0,0,1-.75-1.29l8.4-5a.21.21,0,0,0,.13-.2c0-.14-.06-.93-2.18-2.54-2.27-1.72-9.11.35-11.69,1.13-.49.15-.9.28-1.18.35a9.85,9.85,0,0,1-3.45-.23c-.57-.09-1.11-.18-1.41-.2a4,4,0,0,1-1.53-.26,1.79,1.79,0,0,1-.32-.19,4.64,4.64,0,0,1-.65,1,19.61,19.61,0,0,1-1.68,1.59c-1.4,1.22-3.31,2.89-3.37,4.13-.1,1.94,1.14,6,4.58,7.16a11.57,11.57,0,0,0,5.6.72c.29,0,.56-.06.8-.06,1.33-.07,4.85.68,6.64,2.91a5.08,5.08,0,0,0,2.68,1.41l-2.58-7.09a.75.75,0,0,1,.45-1,.74.74,0,0,1,1,.45l3,8.38a.74.74,0,0,1-.7,1Z"/><path d="M138.11,136.94a35.22,35.22,0,0,1-5.47-.41.75.75,0,0,1-.63-.85.74.74,0,0,1,.85-.62A37,37,0,0,0,148.47,134c1.18-.5,4.59-2.12,5.6-3.38,1.32-1.64,12.46-9.27,18.2-8a.74.74,0,1,1-.33,1.45c-4.79-1.08-15.3,5.7-16.7,7.45s-5.75,3.64-6.24,3.84A36.72,36.72,0,0,1,138.11,136.94Z"/><path d="M118.68,131.33a.86.86,0,0,1-.37-.1c-7.67-4.4-12.18-13.09-11-21.14a9.77,9.77,0,0,0-5.84-10.73c-1.14-.43-2.38-.84-3.69-1.28-1-.33-2-.68-3.13-1.06C86.59,94.15,89,83.21,89.06,83.1a.74.74,0,0,1,.82-.57l5.58.72a.73.73,0,0,1,.64.83.74.74,0,0,1-.83.64l-4.89-.63c-.37,2.25-1.07,9.45,4.81,11.52,1.07.38,2.11.73,3.11,1.06,1.32.44,2.56.86,3.73,1.3,4.75,1.77,7.6,7,6.79,12.34-1.13,7.46,3.08,15.53,10.23,19.62a.75.75,0,0,1-.37,1.4Z"/><path d="M121.59,95.52h-.13a1.72,1.72,0,0,1-1.39-.89A50.83,50.83,0,0,1,117,87.15a.74.74,0,1,1,1.4-.5,50,50,0,0,0,3,7.24.28.28,0,0,0,.21.14.27.27,0,0,0,.22-.11l1.89-2.4c.07-.07,3.39-3.75,3.13-6.54a2.55,2.55,0,0,0-1.06-1.88,8.23,8.23,0,0,0-7.41-1.3,7.29,7.29,0,0,1-3.3-.52,9.85,9.85,0,0,0-1.65-.39,4.19,4.19,0,0,1-1.53-.27c-1.06-.49-1.72-2.17-2.21-3.4-.08-.22-.16-.41-.23-.57-.14-.31-.28-.68-.43-1.09-.48-1.25-1.2-3.15-2-3.52-1.88-.83-4.58-1.59-5.26-1.35v0a30.74,30.74,0,0,0,1.75,3.12,7.76,7.76,0,0,1,2.08,3.51,9.42,9.42,0,0,0,1.24,2.58.93.93,0,0,1,.12.91.91.91,0,0,1-.69.57,4.71,4.71,0,0,0-3.27,2.66,1.46,1.46,0,0,1-.77.7c-.74.28-2.62.64-6.92-.06a.74.74,0,1,1,.24-1.47c4.22.69,5.78.28,6.15.14a6.3,6.3,0,0,1,3.51-3.22,13.58,13.58,0,0,1-1-2.3,6.53,6.53,0,0,0-1.71-3,23.38,23.38,0,0,1-2.17-3.82,1.41,1.41,0,0,1,.41-1.52c1.43-1.21,6,.7,6.89,1.1,1.4.62,2.19,2.69,2.82,4.36.15.37.28.72.4,1s.16.39.26.63c.3.76.92,2.35,1.45,2.59a3.47,3.47,0,0,0,1,.13,10.18,10.18,0,0,1,2,.45,8.92,8.92,0,0,0,2.51.51,9.67,9.67,0,0,1,8.69,1.55,4,4,0,0,1,1.64,2.93c.32,3.45-3.32,7.48-3.47,7.65L123,94.85A1.78,1.78,0,0,1,121.59,95.52Zm-16-14.7Zm.36-.86h0Z"/><path class="cls-2" d="M114.35,85.42a.74.74,0,0,1-.57-.27,9,9,0,0,0-2-1,.75.75,0,1,1,.54-1.39,7.87,7.87,0,0,1,2.55,1.4.75.75,0,0,1-.09,1A.78.78,0,0,1,114.35,85.42Z"/><path d="M94.36,83.85l-4.57-.58s-.31,4.5-.31,4.58A8.89,8.89,0,0,0,94.36,83.85Z"/><path d="M89.48,88.59a.74.74,0,0,1-.45-.15.76.76,0,0,1-.3-.58s0-.11.31-4.65a.76.76,0,0,1,.27-.52.74.74,0,0,1,.57-.16l4.58.59A.74.74,0,0,1,95,84.21a9.6,9.6,0,0,1-5.34,4.35A.69.69,0,0,1,89.48,88.59Zm1-4.49c0,.72-.12,1.78-.17,2.6a8.38,8.38,0,0,0,2.79-2.26Z"/><path d="M111.5,79.33s.84.29-2.89,1.4c-.92.27-2.65,1-3.33,1.33a14.43,14.43,0,0,0-3,1.88,5.52,5.52,0,0,1,3.9-3.26.19.19,0,0,0,.11-.31c-1.55-2.11-5.26-2.67-5.79-5.29s.61-8.36,4.62-10.19c1.3-.6,1.78,1.8,2,2.68a22.87,22.87,0,0,0,1.35,4.89c1,2.27,1.58,4.88,3.11,6.87"/><path d="M102.23,84.69a.74.74,0,0,1-.46-.16.75.75,0,0,1-.21-.91,6.45,6.45,0,0,1,3.53-3.41,12.37,12.37,0,0,0-1.92-1.3c-1.51-.9-3.08-1.83-3.45-3.68-.58-2.86.6-9,5-11a1.53,1.53,0,0,1,1.37,0c.93.46,1.33,1.77,1.62,3.13l.18.85a18.68,18.68,0,0,0,1.13,4c.37.79.68,1.63,1,2.45a16.3,16.3,0,0,0,2,4.18.87.87,0,0,1,.31.66c0,.65-.55,1.12-3.51,2-.91.28-2.71,1.06-3.24,1.3a13.46,13.46,0,0,0-2.87,1.77A.74.74,0,0,1,102.23,84.69Zm3.23-19.15c-3.7,1.68-4.75,7.08-4.28,9.4.24,1.19,1.41,1.89,2.75,2.69a9.25,9.25,0,0,1,2.91,2.3,1,1,0,0,1,.19.58c.5-.2,1-.38,1.36-.49a17.82,17.82,0,0,0,2.15-.75,19.48,19.48,0,0,1-1.9-4.16c-.3-.82-.59-1.6-.93-2.34a20.07,20.07,0,0,1-1.24-4.27l-.16-.78C105.88,65.75,105.53,65.56,105.46,65.54ZM111.25,80h0Z"/><path class="cls-2" d="M109.56,88.23a.74.74,0,0,1-.64-.35.73.73,0,0,1,.24-1,3.57,3.57,0,0,1,2.42-.14.75.75,0,0,1,.55.9.73.73,0,0,1-.9.54,2.67,2.67,0,0,0-1.28,0A.78.78,0,0,1,109.56,88.23Z"/><path d="M215.78,140.1c-6.12,0-15.72-4.66-17.94-7.87s-5.13-2.76-8.61-2.38l-.72.07a24.2,24.2,0,0,1-10-1.56c-6.16-2.09-9.81-9.93-10-10.26a.74.74,0,1,1,1.35-.62c0,.07,3.54,7.59,9.09,9.47a22.68,22.68,0,0,0,9.4,1.49l.72-.08c3.63-.38,7.37-.79,10,3,2.19,3.19,13.59,8.36,18.55,7,2.88-.78,3.35-1.63,3.42-2,.11-.52-.37-1.24-1.35-2l-.53-.43c-1.53-1.28-2-1.71-6.79-2.6s-5.45-2.07-6.19-4.38q-.15-.49-.36-1.08c-1.15-3.08-2.32-4.71-5.26-4.51-3.3.22-5.32-2.78-6-4.62a4.25,4.25,0,0,1,.11-2.29c.05-.26.09-.49.1-.6a30,30,0,0,0-.26-6.56c-.78-5.08-3.07-9-6.45-11a.75.75,0,0,1,.73-1.3,18.46,18.46,0,0,0,14.41,1.57A14.85,14.85,0,0,0,212,88.42c1.85-4-.27-9.51-3.07-13a16.67,16.67,0,0,1-.3,9.37c-1.32,3.5-3.86,4.35-7.32,5.16a25.89,25.89,0,0,1-13.34-1c-2.67-1-12.49-3.41-26.75,5.53-12.68,7.94-16,8.5-21.28,8.85-4.56.3-12.33.42-13.28-2.19a.75.75,0,1,1,1.4-.51c.35,1,4.84,1.68,11.78,1.21,5-.33,8.21-.87,20.59-8.62,14.83-9.3,25.22-6.69,28.05-5.67a24.26,24.26,0,0,0,12.49,1c3.19-.76,5.2-1.42,6.27-4.25a15.25,15.25,0,0,0-.88-11.41.75.75,0,0,1,1.09-1c4.2,3.09,8.6,11.31,5.91,17.17a16.35,16.35,0,0,1-9.74,9,18.92,18.92,0,0,1-11.42,0A18.83,18.83,0,0,1,196,107.1a32.39,32.39,0,0,1,.27,6.88,7.7,7.7,0,0,1-.13.79,9.67,9.67,0,0,0-.2,1.44v0c.06.16,1.47,3.92,4.53,3.69,4.26-.28,5.71,2.67,6.75,5.47.16.41.28.8.39,1.15.6,1.87.83,2.57,5,3.36,4.9.93,5.69,1.44,7.47,2.92l.52.43c1.48,1.2,2.11,2.38,1.87,3.5-.29,1.34-1.76,2.35-4.49,3.09A8.59,8.59,0,0,1,215.78,140.1Zm-19.9-24,0,0,0,0Z"/><path d="M219,129.16c-4.67,0-10.11-2.66-14.13-5.59a.75.75,0,0,1-.17-1,.74.74,0,0,1,1-.16c4.72,3.42,11.42,6.5,16.07,4.86a4.21,4.21,0,0,0,2.42-1.63.86.86,0,0,0,0-.75,7.12,7.12,0,0,0-3.49-3.46,13.38,13.38,0,0,0-3.12-.53,12.39,12.39,0,0,1-4.07-.85,4.7,4.7,0,0,1-2.5-2.85c-.14-.31-.29-.65-.48-1a8.42,8.42,0,0,0-3.82-3.47c-3.74-1.62-6.37-1.62-11.09-1.49a.72.72,0,0,1-.76-.72.75.75,0,0,1,.72-.77c4.8-.13,7.7-.12,11.72,1.61a9.93,9.93,0,0,1,4.54,4.14c.21.38.37.75.53,1.09a3.31,3.31,0,0,0,1.76,2.1,10.87,10.87,0,0,0,3.59.73,14.44,14.44,0,0,1,3.46.6,8.58,8.58,0,0,1,4.37,4.25,2.41,2.41,0,0,1,.05,2c-.54,1.25-2.09,2-3.29,2.45A9.78,9.78,0,0,1,219,129.16Z"/><path d="M99.25,152.88a5,5,0,0,1-1.45-.22,3.24,3.24,0,0,1-2.58-3.37,14.84,14.84,0,0,1,2.33-5.87q.44-.75.87-1.56c1-1.93,5.65-3.59,11.58-5.56,1.63-.55,3.16-1.06,4.2-1.48,3.65-1.47,8.25-8.94,8.3-9a.74.74,0,1,1,1.27.77c-.2.33-4.91,8-9,9.62-1.08.44-2.64,1-4.29,1.51-3.94,1.31-9.9,3.3-10.73,4.85-.3.56-.61,1.09-.9,1.6a13.52,13.52,0,0,0-2.14,5.31c-.11.87.69,1.51,1.53,1.77a4,4,0,0,0,4.69-2.38c2.58-5.14,9.34-6.42,11.73-6.48,4.55-.11,10.49-.57,12.21-1.51,2.17-1.17,7.67-7.29,8.64-13a.74.74,0,0,1,.86-.6.73.73,0,0,1,.61.85c-1,6-6.75,12.59-9.4,14-2.46,1.33-10.48,1.63-12.88,1.69-2,0-8.2,1.19-10.44,5.66A5.59,5.59,0,0,1,99.25,152.88Z"/><path d="M83.84,142.26a2.3,2.3,0,0,1-.37,0,3.47,3.47,0,0,1-2.55-2.41,7.74,7.74,0,0,1,1.85-8.52A9.3,9.3,0,0,1,87,129a235.35,235.35,0,0,0,23.66-6.72.75.75,0,0,1,.5,1.41,237.91,237.91,0,0,1-23.81,6.76,7.92,7.92,0,0,0-3.57,2,6.23,6.23,0,0,0-1.49,6.85c.39.93.86,1.44,1.39,1.51s1.67-.18,3.74-2.72c1.86-2.29,4.37-3.09,6.81-3.63l2.21-.5a42.86,42.86,0,0,1,7.3-1.28c.62,0,1.33-.06,2.09-.08,3.76-.08,8.91-.21,10.84-3.35a.73.73,0,0,1,1-.24.75.75,0,0,1,.25,1c-2.35,3.83-8,4-12.07,4.06l-2.05.07a43.08,43.08,0,0,0-7,1.25l-2.23.51c-2.18.47-4.41,1.18-6,3.11C86.78,141.19,85.23,142.26,83.84,142.26Z"/><path class="cls-4" d="M129.39,101.4s5.86-5.47,13.42,1.93C142.81,103.33,133.75,109.26,129.39,101.4Z"/><path class="cls-4" d="M136,85.63s-7.54,2-6.13,12.9C129.82,98.53,139.54,93.93,136,85.63Z"/><path d="M129,100.19l-.26-1c-2.54-10,4.41-13,4.48-13.07l.6-.25.33.56c4.39,7.45-4.19,13.14-4.28,13.2Zm4.21-12.37c-1.37.87-4.48,3.61-3.27,9.9C131.76,96.25,135.47,92.49,133.23,87.82Z"/><path class="cls-4" d="M130.49,101.32c-.26-4.26-6.87-.57-8.3.16-4.17,2.12-8.31,4.22-12.56,6.15-1.31.59-2.75.7-3.51,2.25-.9,1.83.35,5,2.34,4,5.28-2.53,10.75-4.73,15.89-7.59C126,105.46,130.65,104,130.49,101.32Z"/><path d="M109,112a2,2,0,0,1-1.51-.68,3.34,3.34,0,0,1-.39-3.73,4.32,4.32,0,0,1,2.67-1.92c.27-.1.53-.19.79-.31,3.8-1.69,7.49-3.52,11.06-5.3l.24-.12c2.43-1.23,5.43-2.51,7-1.55a2.15,2.15,0,0,1,1,1.93h0c.08,2.25-2.94,3.57-4.93,4.44-.37.16-.7.3-.94.43-3,1.63-6.25,3.06-9.36,4.45-1.57.7-3.14,1.4-4.7,2.13A2.42,2.42,0,0,1,109,112Zm18.48-12.48c-.8,0-2.27.4-4.94,1.75l-.25.12c-3.59,1.79-7.3,3.63-11.12,5.33-.3.13-.6.24-.89.35a3,3,0,0,0-1.88,1.25,1.87,1.87,0,0,0,.18,2,.6.6,0,0,0,.78.11c1.56-.73,3.15-1.44,4.73-2.14,3.08-1.38,6.26-2.79,9.26-4.41.29-.15.64-.3,1.05-.48,1.42-.62,4.07-1.78,4-3h0c0-.54-.22-.66-.29-.7A1.28,1.28,0,0,0,127.45,99.48Z"/><path d="M135,104.17a7.52,7.52,0,0,1-1.87-.22,7.35,7.35,0,0,1-4.68-3.81l-.28-.51.43-.4c.06,0,5.84-5.29,13,1.75l.66.64-.77.51A13.42,13.42,0,0,1,135,104.17ZM130.09,100a5.72,5.72,0,0,0,3.41,2.55c2.41.59,5-.48,6.36-1.15C135.11,97.24,131.37,99.08,130.09,100Z"/><path d="M143,102.13s10,8.51,16.89,7.35c9.64-1.61,15.23-4.46,17.54-6,3.64-2.42,7.72-12.94-2.23-15.12,0,0-1.95-.21-14.34,5.46C156.73,95.7,149.22,100.34,143,102.13Z"/><path d="M158.56,110.34c-7,0-15.66-7.31-16.05-7.64a.74.74,0,0,1-.24-.73.73.73,0,0,1,.52-.56c4.24-1.22,9.15-3.82,13.1-5.91,1.81-1,3.38-1.78,4.66-2.37,12-5.47,14.37-5.56,14.74-5.51,4.86,1.06,6.35,3.86,6.76,6,.73,3.9-1.61,8.73-4.2,10.45-1.89,1.26-7.4,4.37-17.83,6.12A8.9,8.9,0,0,1,158.56,110.34Zm-14-7.92c2.73,2.09,10,7.19,15.2,6.32,10.14-1.7,15.44-4.68,17.25-5.88a10.08,10.08,0,0,0,3.55-8.93c-.46-2.49-2.3-4.1-5.44-4.82-.38,0-3.07.41-14,5.39-1.24.57-2.79,1.38-4.58,2.33A88.61,88.61,0,0,1,144.57,102.42Z"/></g><path class="cls-5" d="M33.47,38.2H26.81l-.52-.9c.79-1.5,1.76-3.49,2.91-5.95s2.18-4.74,3.09-6.8h.52l1.6.86L29,35.85l-.81,1.22,5.28-.28.08-3.91,1.71-.14v3.95l2.83-.14V38.2H35.26v3.23H33.47Z"/><path d="M183.88,280.58h-173V10.85h173Zm-169-4h165V14.85h-165Z"/><path d="M168.46,28.66A4.35,4.35,0,1,0,160,27.27a4.64,4.64,0,0,0,.21,1.39,4.43,4.43,0,0,0,.17,8.86,4.24,4.24,0,0,0,2.88-1.13l-.93,3.24h4l-.94-3.27a4.25,4.25,0,0,0,2.92,1.16,4.43,4.43,0,0,0,.16-8.86Z"/><g class="cls-6"><path d="M3.86,130.69c-6,0-14.15-2.7-16.5-5.17-2.58-2.72-5.5-1.94-8.88-1l-.7.19a24.09,24.09,0,0,1-10.16,0c-6.41-1.11-11.23-8.29-11.43-8.6a.74.74,0,0,1,.21-1,.74.74,0,0,1,1,.21c0,.07,4.67,7,10.44,8a23.11,23.11,0,0,0,9.53,0l.7-.19c3.52-.94,7.16-1.92,10.34,1.44,2.66,2.81,14.71,6.16,19.41,4.06,2.72-1.21,3.06-2.12,3.08-2.46,0-.53-.56-1.17-1.65-1.8l-.59-.35c-1.71-1-2.29-1.37-7.12-1.52s-5.69-1.2-6.78-3.37c-.16-.31-.33-.65-.53-1-1.61-2.87-3-4.29-5.89-3.64a5.24,5.24,0,0,1-4.54-1.17,9.38,9.38,0,0,1-2.07-2.41c-.31-.4-.33-1-.29-2.34,0-.27,0-.5,0-.61a30.37,30.37,0,0,0-1.27-6.44c-1.55-4.9-4.42-8.41-8.08-9.89a.73.73,0,0,1-.41-1,.74.74,0,0,1,.94-.44,18.44,18.44,0,0,0,14.47-.67A14.87,14.87,0,0,0-5.38,80c1.2-4.25-1.74-9.35-5-12.37A16.77,16.77,0,0,1-9.27,77c-.76,3.66-3.15,4.89-6.44,6.24a26.1,26.1,0,0,1-13.34,1c-2.78-.54-12.86-1.45-25.57,9.59-11.3,9.8-14.52,10.87-19.66,12-4.45,1-12.12,2.32-13.46-.12a.74.74,0,0,1,.29-1,.76.76,0,0,1,1,.3c.49.89,5.05.9,11.82-.63,4.91-1.1,8-2.13,19-11.7,13.22-11.48,23.89-10.5,26.84-9.92a24.36,24.36,0,0,0,12.49-1c3-1.24,4.93-2.21,5.54-5.16a15.2,15.2,0,0,0-2.63-11.14.75.75,0,0,1,0-.94.75.75,0,0,1,.92-.19c4.63,2.4,10.24,9.85,8.48,16A16.33,16.33,0,0,1-12.18,90.8a18.91,18.91,0,0,1-11.28,1.8A18.79,18.79,0,0,1-18.37,101,32,32,0,0,1-17,107.73a6.71,6.71,0,0,1,0,.79A8.52,8.52,0,0,0-17,110l0,0c0,.09,2,3.61,5,2.94,4.16-1,6.06,1.75,7.52,4.36.22.39.4.75.56,1.08.88,1.75,1.21,2.41,5.5,2.54,5,.16,5.85.54,7.83,1.73L10,123c1.64,1,2.45,2,2.38,3.17-.07,1.37-1.37,2.59-3.95,3.74A11.47,11.47,0,0,1,3.86,130.69Zm-20.92-20.78Z"/><path d="M5.54,119.39c-4.16,0-8.88-1.59-12.63-3.51a.74.74,0,0,1-.32-1,.74.74,0,0,1,1-.32c5.19,2.66,12.28,4.66,16.63,2.32a4.13,4.13,0,0,0,2.13-2,.85.85,0,0,0-.15-.73,7.15,7.15,0,0,0-4-2.88,13.28,13.28,0,0,0-3.16,0A12.14,12.14,0,0,1,.9,111,4.7,4.7,0,0,1-2,108.6c-.19-.29-.39-.6-.63-.91a8.29,8.29,0,0,0-4.31-2.84c-3.94-1-6.55-.62-11.19.24a.74.74,0,0,1-.86-.6.73.73,0,0,1,.59-.86c4.72-.88,7.59-1.32,11.83-.22a9.88,9.88,0,0,1,5.13,3.38c.26.35.48.69.69,1A3.3,3.3,0,0,0,1.3,109.6a11.09,11.09,0,0,0,3.66.15,15.3,15.3,0,0,1,3.51.06,8.59,8.59,0,0,1,5,3.53,2.37,2.37,0,0,1,.36,1.92c-.34,1.32-1.75,2.32-2.88,2.93A11.27,11.27,0,0,1,5.54,119.39Z"/></g></svg>