<svg id="圖層_1" data-name="圖層 1" xmlns="http://www.w3.org/2000/svg" xmlns:xlink="http://www.w3.org/1999/xlink" viewBox="0 0 194.94 294.58"><defs><style>.cls-1{fill:none;}.cls-2{fill:#fff;}.cls-3{fill:#170000;}.cls-4{clip-path:url(#clip-path);}</style><clipPath id="clip-path"><rect class="cls-1" x="14.4" y="68.96" width="119.63" height="114.16"/></clipPath></defs><title>新接龍</title><rect class="cls-2" x="12.88" y="12.85" width="169" height="265.73"/><path d="M183.88,280.58h-173V10.85h173Zm-169-4h165V14.85h-165Z"/><path class="cls-3" d="M29.32,27.84a10.49,10.49,0,0,1-1.33.38c-.6.15-1.09.25-1.46.31l-.2-1.13a9.2,9.2,0,0,0,2.09-.74,8.45,8.45,0,0,0,1.8-1.14h0l1.22.2V37l2.49.19v1H26.73v-1L29.32,37Z"/><path class="cls-3" d="M36.89,36.6A7.66,7.66,0,0,1,35.62,32a7.74,7.74,0,0,1,.72-3.44,5.33,5.33,0,0,1,2-2.26A5,5,0,0,1,41,25.54a4.35,4.35,0,0,1,3.81,1.67,7.77,7.77,0,0,1,1.2,4.59,8.13,8.13,0,0,1-.69,3.44,5.49,5.49,0,0,1-1.9,2.32,4.74,4.74,0,0,1-2.72.82A4.41,4.41,0,0,1,36.89,36.6ZM43.81,32a9.55,9.55,0,0,0-.68-4,2.31,2.31,0,0,0-2.25-1.4,2.44,2.44,0,0,0-2.29,1.33,8,8,0,0,0-.74,3.83,9.7,9.7,0,0,0,.71,4.08,2.37,2.37,0,0,0,2.26,1.54Q43.81,37.36,43.81,32Z"/><path d="M168.46,28.66A4.35,4.35,0,1,0,160,27.27a4.64,4.64,0,0,0,.21,1.39,4.43,4.43,0,0,0,.17,8.86,4.24,4.24,0,0,0,2.88-1.13l-.93,3.24h4l-.94-3.27a4.25,4.25,0,0,0,2.92,1.16,4.43,4.43,0,0,0,.16-8.86Z"/><path d="M147.61,175.49a4,4,0,0,0-1,.45,3.41,3.41,0,1,0,3.66,5.76,3.72,3.72,0,0,0,.84-.74,3.49,3.49,0,0,0,5.82-3.86,3.37,3.37,0,0,0-2-1.44l2.54-.75-1.68-2.63-1.77,2a3.42,3.42,0,0,0-.46-2.44,3.5,3.5,0,0,0-6,3.64Z"/><path d="M108.29,195.93a3.31,3.31,0,0,0-1,.45,3.41,3.41,0,1,0,3.67,5.75,3.85,3.85,0,0,0,.83-.73,3.5,3.5,0,0,0,5.82-3.86,3.33,3.33,0,0,0-2-1.44l2.54-.75-1.67-2.64-1.78,2a3.4,3.4,0,0,0-.46-2.43,3.5,3.5,0,0,0-6,3.64Z"/><path d="M118.85,168a3.43,3.43,0,1,0,.5,6.72,3.72,3.72,0,0,0,1-.42,3.5,3.5,0,1,0,5.35-3.78l2.66.12-.74-3-2.33,1.33a3.34,3.34,0,0,0,.35-2.45,3.5,3.5,0,0,0-6.82,1.52Z"/><path d="M160.06,141.32a3.69,3.69,0,0,0-1.08.25,3.41,3.41,0,1,0,2.5,6.35,3.66,3.66,0,0,0,1-.56,3.5,3.5,0,0,0,6.45-2.69,3.39,3.39,0,0,0-1.66-1.79l2.64-.25-1.15-2.9-2.12,1.63a3.37,3.37,0,0,0,0-2.48,3.5,3.5,0,0,0-6.55,2.44Z"/><path d="M91.52,186.07a3.66,3.66,0,0,0-1.1-.16,3.41,3.41,0,1,0,.07,6.82,3.38,3.38,0,0,0,1.1-.18,3.49,3.49,0,0,0,7-.2,3.38,3.38,0,0,0-.91-2.26l2.55.7,0-3.12-2.57.77a3.38,3.38,0,0,0,.89-2.31,3.49,3.49,0,0,0-7-.06Z"/><path d="M21.47,183.3a3.89,3.89,0,0,0-.75-.82,3.42,3.42,0,1,0-4.27,5.33,3.68,3.68,0,0,0,1,.55,3.5,3.5,0,0,0,5.53,4.27,3.36,3.36,0,0,0,.73-2.33l1.53,2.17L27.15,190l-2.47-1a3.31,3.31,0,0,0,2.15-1.22,3.49,3.49,0,0,0-5.36-4.47Z"/><path d="M41.13,177.36A3.35,3.35,0,0,0,40,177.2a3.41,3.41,0,1,0,.07,6.82,3.32,3.32,0,0,0,1.09-.18,3.49,3.49,0,0,0,7-.21,3.31,3.31,0,0,0-.91-2.26l2.56.71,0-3.13-2.57.77a3.35,3.35,0,0,0,.89-2.31,3.5,3.5,0,0,0-7,0Z"/><path d="M168.1,158.51a3.56,3.56,0,0,0-.43,1,3.41,3.41,0,1,0,6.62,1.67,3.7,3.7,0,0,0,.1-1.1,3.5,3.5,0,0,0,1.59-6.81,3.39,3.39,0,0,0-2.43.31l1.34-2.29-3-.77.09,2.68a3.38,3.38,0,0,0-2-1.45,3.5,3.5,0,0,0-1.85,6.74Z"/><path d="M28,204.16a3.58,3.58,0,0,0-.44,1,3.41,3.41,0,1,0,6.62,1.67,3.4,3.4,0,0,0,.1-1.1,3.49,3.49,0,0,0,1.59-6.8,3.31,3.31,0,0,0-2.42.3L34.77,197l-3-.77.09,2.68a3.37,3.37,0,0,0-2-1.45A3.5,3.5,0,0,0,28,204.16Z"/><path d="M59.07,191.4a3.28,3.28,0,0,0-1,.55,3.41,3.41,0,1,0,4.22,5.36,3.6,3.6,0,0,0,.75-.81,3.5,3.5,0,0,0,5.41-4.43,3.37,3.37,0,0,0-2.11-1.23l2.46-1-1.93-2.46-1.57,2.18a3.37,3.37,0,0,0-.7-2.38,3.5,3.5,0,0,0-5.57,4.22Z"/><g class="cls-4"><path d="M-9,165.31a.74.74,0,0,1-.74-.72.74.74,0,0,1,.72-.77,36.89,36.89,0,0,0,15.12-4c1.07-.71,4.11-2.94,4.87-4.37,1-1.86,10.53-11.45,16.36-11.26a.75.75,0,0,1,0,1.49h0c-4.9-.21-13.95,8.48-15,10.46s-5,4.66-5.4,5A37.82,37.82,0,0,1-9,165.31Z"/><path d="M70.14,153.42c-6,0-13.6-2.32-15.93-4.62-2.67-2.62-5.56-1.74-8.91-.72l-.69.21a24.05,24.05,0,0,1-10.16.36c-6.44-.89-11.5-7.9-11.71-8.2a.75.75,0,0,1,1.21-.87c.05.07,4.9,6.8,10.71,7.6a22.92,22.92,0,0,0,9.52-.31l.69-.21c3.48-1.07,7.09-2.16,10.38,1.08,2.76,2.71,14.92,5.65,19.55,3.39,2.67-1.3,3-2.23,3-2.57,0-.52-.59-1.14-1.7-1.74l-.6-.33c-1.75-1-2.35-1.27-7.17-1.27H68.2c-4.86,0-5.63-1-6.78-3.13-.17-.31-.35-.64-.57-1-1.7-2.81-3.17-4.19-6-3.43-3.9,1-6.49-2.95-6.77-3.41a4.2,4.2,0,0,1-.33-2.27c0-.27,0-.5,0-.61A30.18,30.18,0,0,0,46.24,125c-1.72-4.85-4.71-8.26-8.41-9.6a.76.76,0,0,1-.46-.94.75.75,0,0,1,.93-.47,18.43,18.43,0,0,0,14.44-1.18,14.85,14.85,0,0,0,7.16-9.68c1.06-4.29-2.06-9.29-5.46-12.2a16.84,16.84,0,0,1,1.47,9.26c-.64,3.68-3,5-6.22,6.45a25.89,25.89,0,0,1-13.29,1.5c-2.81-.44-12.91-1-25.24,10.47C.2,128.78-3,130-8.07,131.29c-4.41,1.15-12,2.74-13.45.35a.74.74,0,0,1,.26-1,.74.74,0,0,1,1,.26c.52.87,5.08.73,11.79-1,4.87-1.28,7.9-2.4,18.6-12.35C23,105.57,33.66,106.18,36.63,106.65a24.28,24.28,0,0,0,12.45-1.38c3-1.35,4.85-2.38,5.36-5.35a15.24,15.24,0,0,0-3-11,.74.74,0,0,1,0-.93.75.75,0,0,1,.91-.22c4.72,2.24,10.58,9.49,9,15.74a16.37,16.37,0,0,1-7.87,10.63,19,19,0,0,1-11.21,2.19,18.84,18.84,0,0,1,5.37,8.2,31.41,31.41,0,0,1,1.56,6.7,7.29,7.29,0,0,1,0,.79,9.09,9.09,0,0,0,.08,1.46v0c.09.15,2.16,3.55,5.14,2.77,4.11-1.09,6.11,1.54,7.66,4.1.23.38.43.73.6,1.06.93,1.7,1.29,2.35,5.45,2.35h.43c4.72,0,5.61.36,7.6,1.46l.58.32c1.68.9,2.52,1.94,2.49,3.08,0,1.37-1.28,2.64-3.82,3.88A12.43,12.43,0,0,1,70.14,153.42Zm-20.82-20Zm-.07-.11h0Z"/><path d="M71.59,142.06A30.28,30.28,0,0,1,59.43,139a.74.74,0,1,1,.63-1.34c5.28,2.47,12.44,4.24,16.7,1.74,1.16-.68,1.93-1.44,2.06-2a.83.83,0,0,0-.17-.73,7.11,7.11,0,0,0-4.09-2.74,13,13,0,0,0-3.16.07,12.33,12.33,0,0,1-4.15-.07,4.7,4.7,0,0,1-3-2.33c-.2-.28-.41-.58-.66-.89a8.35,8.35,0,0,0-4.4-2.69c-4-.88-6.57-.39-11.17.63a.75.75,0,0,1-.89-.57.74.74,0,0,1,.57-.89c4.68-1,7.53-1.57,11.81-.62a9.92,9.92,0,0,1,5.24,3.2c.27.34.5.67.72,1a3.35,3.35,0,0,0,2.13,1.73,10.93,10.93,0,0,0,3.66,0,15.22,15.22,0,0,1,3.51-.06,8.63,8.63,0,0,1,5.09,3.36,2.34,2.34,0,0,1,.42,1.9c-.29,1.33-1.67,2.38-2.77,3A11.7,11.7,0,0,1,71.59,142.06Z"/><path d="M-5.32,129.57s11.44,6.47,18,4c9.15-3.4,14.11-7.25,16.09-9.2,3.12-3.06,5.14-14.16-5-14.42,0,0-2,.15-13,8.05C7,120.67.45,126.64-5.32,129.57Z"/><path d="M9.25,134.9c-6.57,0-14.54-4.45-14.94-4.68a.73.73,0,0,1-.38-.67.73.73,0,0,1,.41-.65c3.93-2,8.27-5.47,11.75-8.26,1.6-1.28,3-2.39,4.13-3.21,10.72-7.63,13.07-8.16,13.43-8.19,5,.12,7,2.6,7.78,4.65,1.45,3.69.06,8.88-2.15,11.06-1.62,1.59-6.45,5.68-16.36,9.36A10.47,10.47,0,0,1,9.25,134.9Zm-13-5.34c3.07,1.54,11.19,5.17,16.12,3.35,9.63-3.58,14.28-7.51,15.83-9a10.07,10.07,0,0,0,1.8-9.44c-.92-2.35-3-3.6-6.25-3.7-.36.1-2.94,1-12.69,7.91-1.12.8-2.48,1.89-4.06,3.16A87.9,87.9,0,0,1-3.72,129.56Z"/></g><path d="M183.88,280.58h-173V10.85h173Zm-169-4h165V14.85h-165Z"/></svg>