<svg id="圖層_1" data-name="圖層 1" xmlns="http://www.w3.org/2000/svg" xmlns:xlink="http://www.w3.org/1999/xlink" viewBox="0 0 194.94 294.58"><defs><style>.cls-1{fill:none;}.cls-2{opacity:0.6;}.cls-3{fill:#fff;}.cls-4{fill:#170000;}.cls-5{clip-path:url(#clip-path);}.cls-6{fill:#c21823;}</style><clipPath id="clip-path"><rect class="cls-1" x="108.04" y="76.5" width="73.83" height="100.3"/></clipPath></defs><title>新接龍</title><g class="cls-2"><rect class="cls-3" x="12.88" y="12.85" width="169" height="265.73"/><path d="M183.88,280.58h-173V10.85h173Zm-169-4h165V14.85h-165Z"/></g><path class="cls-4" d="M28.86,23.17h2.21L36,37l1.24.2v1h-5.3v-1l1.67-.2-.94-3H26.76l-1,3,1.73.2v1H22.78v-1L24,37Zm1.27,3.21-.5-1.77-.49,1.81-2,6.44h5.12Z"/><path d="M183.88,280.58h-173V10.85h173Zm-169-4h165V14.85h-165Z"/><path d="M168.46,28.66A4.35,4.35,0,1,0,160,27.27a4.64,4.64,0,0,0,.21,1.39,4.43,4.43,0,0,0,.17,8.86,4.24,4.24,0,0,0,2.88-1.13l-.93,3.24h4l-.94-3.27a4.25,4.25,0,0,0,2.92,1.16,4.43,4.43,0,0,0,.16-8.86Z"/><path d="M147.61,175.49a4,4,0,0,0-1,.45,3.41,3.41,0,1,0,3.66,5.76,3.72,3.72,0,0,0,.84-.74,3.49,3.49,0,0,0,5.82-3.86,3.37,3.37,0,0,0-2-1.44l2.54-.75-1.68-2.63-1.77,2a3.42,3.42,0,0,0-.46-2.44,3.5,3.5,0,0,0-6,3.64Z"/><g class="cls-5"><path d="M154.05,105.41l7.54-6.19s1.8-1.26-2.58-3.63c-3.29-1.77-11.22,2.59-13.14,3.43-.91.4-3.66.16-4.64.27a3.78,3.78,0,0,1-1.27,0A3.08,3.08,0,0,1,138.57,98a2.49,2.49,0,0,1-.29,2.59c-.94,1.56-4.43,4.7-4.2,6.9.2,2,2.13,6.34,6.25,7a13.26,13.26,0,0,0,6.68-.34c1.13-.2,4.48-.06,6.37,1.67a6.49,6.49,0,0,0,3.82,1.21l.87.06-4.31-7.81"/><path d="M158.07,117.87h0l-.87-.06a7,7,0,0,1-4.27-1.4c-1.72-1.57-4.86-1.64-5.75-1.49l-.65.16a13.12,13.12,0,0,1-6.27.18c-4.62-.76-6.66-5.59-6.87-7.68-.2-1.86,1.59-4,3-5.71a15.5,15.5,0,0,0,1.28-1.65c.67-1.11.3-1.78.28-1.81a.77.77,0,0,1,.24-1,.74.74,0,0,1,1,.19c.59.82.91,1,1,1a3.22,3.22,0,0,0,1,0,15.34,15.34,0,0,1,1.6,0,11.44,11.44,0,0,0,2.83-.18c.26-.11.62-.29,1.07-.51,3.1-1.49,9.55-4.6,12.72-2.89,2.18,1.17,3.27,2.29,3.34,3.42a1.71,1.71,0,0,1-.69,1.47L154.52,106a.74.74,0,0,1-1.05-.1.75.75,0,0,1,.1-1l7.54-6.19a.22.22,0,0,0,.1-.21c0-.15-.21-.92-2.55-2.18-2.5-1.35-8.95,1.76-11.37,2.93-.47.22-.85.41-1.12.52a10.21,10.21,0,0,1-3.44.31c-.58,0-1.12,0-1.43,0a3.9,3.9,0,0,1-1.54,0,1.51,1.51,0,0,1-.35-.14,4.45,4.45,0,0,1-.49,1.12,15.75,15.75,0,0,1-1.41,1.83c-1.19,1.43-2.82,3.38-2.69,4.61.2,1.93,2.06,5.77,5.63,6.36a11.5,11.5,0,0,0,5.64-.15c.29-.07.55-.14.79-.18,1.31-.23,4.89-.08,7,1.85a5.08,5.08,0,0,0,2.86,1l-3.64-6.61a.74.74,0,0,1,.29-1,.75.75,0,0,1,1,.29l4.3,7.81a.75.75,0,0,1-.65,1.1Z"/><path d="M168.75,151.57a.76.76,0,0,1-.75-.75.75.75,0,0,1,.75-.74A36.81,36.81,0,0,0,184,146.59c1.09-.67,4.21-2.8,5-4.2,1.05-1.83,10.91-11.07,16.75-10.69a.74.74,0,0,1,.69.79.76.76,0,0,1-.79.7c-4.93-.34-14.24,8-15.35,9.94s-5.12,4.48-5.57,4.76a38,38,0,0,1-16,3.68Z"/><path d="M154.05,148.59a.86.86,0,0,1-.27-.05c-8.26-3.16-14.06-11-14.1-19.19a9.75,9.75,0,0,0-7.43-9.7c-1.18-.24-2.46-.46-3.82-.69-1.05-.18-2.14-.36-3.27-.57-8.44-1.58-7.72-12.77-7.71-12.89a.74.74,0,0,1,.72-.69l5.62-.15a.76.76,0,0,1,.77.73.75.75,0,0,1-.73.76l-4.92.13c0,2.28.4,9.5,6.52,10.64,1.12.21,2.21.4,3.25.57,1.37.23,2.66.45,3.87.7,5,1,8.59,5.71,8.62,11.16,0,7.54,5.44,14.86,13.14,17.8a.74.74,0,0,1-.26,1.44Z"/><path d="M151.24,112.78a1.77,1.77,0,0,1-1.38-.68,51.8,51.8,0,0,1-4.24-6.9.75.75,0,0,1,.31-1,.73.73,0,0,1,1,.3,48.83,48.83,0,0,0,4.1,6.69.3.3,0,0,0,.22.11.27.27,0,0,0,.2-.14l1.5-2.67c.06-.08,2.77-4.23,2.08-7a2.57,2.57,0,0,0-1.34-1.69,8.22,8.22,0,0,0-7.52-.14,7.23,7.23,0,0,1-3.34,0,11.69,11.69,0,0,0-1.69-.14,4.16,4.16,0,0,1-1.55,0c-1.13-.32-2-1.88-2.71-3l-.32-.53c-.18-.29-.37-.63-.59-1-.66-1.17-1.67-2.94-2.55-3.17-2-.53-4.77-.85-5.41-.53l0,0a30.24,30.24,0,0,0,2.22,2.82,7.76,7.76,0,0,1,2.59,3.15,9.83,9.83,0,0,0,1.63,2.35.92.92,0,0,1,.25.88.89.89,0,0,1-.59.67,4.74,4.74,0,0,0-2.82,3.14,1.5,1.5,0,0,1-.65.81c-.69.39-2.5,1-6.85,1a.74.74,0,0,1-.74-.75.77.77,0,0,1,.75-.74c4.28,0,5.75-.61,6.1-.81a6.28,6.28,0,0,1,3-3.72A12.84,12.84,0,0,1,131.54,98a6.59,6.59,0,0,0-2.15-2.65,23.26,23.26,0,0,1-2.73-3.44,1.42,1.42,0,0,1,.16-1.56c1.26-1.45,6.4-.13,7,0,1.48.39,2.58,2.32,3.46,3.87.2.35.38.68.55.94l.35.58c.38.65,1.27,2.18,1.83,2.33a2.9,2.9,0,0,0,1,0,11,11,0,0,1,2,.14,9,9,0,0,0,2.55.12,9.66,9.66,0,0,1,8.83.19,4.05,4.05,0,0,1,2.08,2.64c.84,3.35-2.13,7.9-2.26,8.09l-1.47,2.62a1.75,1.75,0,0,1-1.38.89Zm-17.6-13h0ZM128,91.22Z"/><path class="cls-3" d="M142.68,103.9a.79.79,0,0,1-.5-.18,8.36,8.36,0,0,0-2.07-.65.76.76,0,0,1-.57-.89.75.75,0,0,1,.89-.57,8.14,8.14,0,0,1,2.74,1,.74.74,0,0,1-.49,1.3Z"/><path d="M122.8,105.44l-4.61.12s.39,4.5.4,4.57A8.88,8.88,0,0,0,122.8,105.44Z"/><path d="M118.59,110.88a.73.73,0,0,1-.35-.09.75.75,0,0,1-.39-.54s0-.1-.4-4.63a.77.77,0,0,1,.18-.56.78.78,0,0,1,.54-.25l4.61-.12a.75.75,0,0,1,.72,1,9.63,9.63,0,0,1-4.6,5.12A.82.82,0,0,1,118.59,110.88Zm.41-4.6c.06.72.15,1.78.22,2.59a8.17,8.17,0,0,0,2.41-2.66Z"/><path d="M139,98.31s.88.16-2.64,1.84c-.86.41-2.45,1.42-3.08,1.82a14.59,14.59,0,0,0-2.72,2.34,5.51,5.51,0,0,1,3.35-3.83.2.2,0,0,0,.06-.33c-1.86-1.84-5.61-1.82-6.54-4.32s-.69-8.36,3-10.79c1.19-.79,2,1.51,2.36,2.34A22.72,22.72,0,0,0,134.9,92c1.38,2.08,2.31,4.57,4.13,6.3"/><path d="M130.59,105.05a.74.74,0,0,1-.72-1,6.49,6.49,0,0,1,3-3.93,12.66,12.66,0,0,0-2.09-1c-1.63-.66-3.32-1.34-4-3.1-1-2.74-.79-9,3.28-11.67a1.55,1.55,0,0,1,1.36-.22c1,.32,1.58,1.56,2.07,2.84l.31.82a18.54,18.54,0,0,0,1.74,3.74c.48.73.92,1.51,1.33,2.26a16.15,16.15,0,0,0,2.61,3.83.85.85,0,0,1,.41.61c.08.65-.36,1.19-3.16,2.52-.82.39-2.37,1.37-3,1.78a13.23,13.23,0,0,0-2.56,2.2A.77.77,0,0,1,130.59,105.05Zm.35-19.43c-3.4,2.23-3.6,7.74-2.78,9.95.42,1.15,1.68,1.65,3.14,2.24a9.24,9.24,0,0,1,3.22,1.82.91.91,0,0,1,.28.55c.47-.28.92-.54,1.27-.7a20.4,20.4,0,0,0,2-1.07,19.18,19.18,0,0,1-2.53-3.82c-.42-.77-.82-1.49-1.27-2.17a19.46,19.46,0,0,1-1.89-4l-.28-.73C131.39,85.77,131,85.63,130.94,85.62Zm2.75,14.16Zm5.21-.73h0Z"/><path class="cls-3" d="M138.37,107.43a.76.76,0,0,1-.56-.26.73.73,0,0,1,.07-1,3.59,3.59,0,0,1,2.38-.52.74.74,0,0,1,.67.81.75.75,0,0,1-.8.68,2.64,2.64,0,0,0-1.27.15A.74.74,0,0,1,138.37,107.43Z"/><path d="M249,142.43c-6,0-14.15-2.7-16.5-5.18-2.57-2.72-5.49-1.93-8.87-1l-.71.19a24.27,24.27,0,0,1-10.16,0c-6.41-1.11-11.23-8.3-11.43-8.61a.75.75,0,0,1,.21-1,.76.76,0,0,1,1,.21c0,.07,4.66,7,10.43,8a22.77,22.77,0,0,0,9.53,0l.7-.19c3.52-.94,7.16-1.91,10.34,1.45,2.66,2.8,14.72,6.15,19.41,4.06,2.72-1.21,3.06-2.13,3.08-2.47,0-.52-.56-1.16-1.65-1.8l-.59-.35c-1.71-1-2.28-1.36-7.11-1.52s-5.7-1.2-6.79-3.36c-.15-.31-.32-.65-.53-1-1.61-2.86-3-4.29-5.88-3.64-3.93.9-6.39-3.16-6.66-3.63a4.28,4.28,0,0,1-.24-2.29c0-.27,0-.49,0-.61a30.5,30.5,0,0,0-1.26-6.44c-1.56-4.9-4.43-8.41-8.08-9.88a.74.74,0,0,1-.42-1,.75.75,0,0,1,.94-.45,18.42,18.42,0,0,0,14.48-.67,14.89,14.89,0,0,0,7.48-9.44c1.21-4.24-1.73-9.35-5-12.37a16.69,16.69,0,0,1,1.15,9.3c-.76,3.66-3.15,4.9-6.43,6.24a25.89,25.89,0,0,1-13.34,1c-2.79-.54-12.87-1.44-25.58,9.59-11.3,9.81-14.51,10.87-19.66,12-4.45,1-12.11,2.32-13.46-.11a.75.75,0,0,1,.3-1,.74.74,0,0,1,1,.29c.49.9,5.05.91,11.82-.62,4.91-1.11,8-2.13,19-11.71,13.22-11.47,23.89-10.5,26.84-9.92a24.36,24.36,0,0,0,12.49-1c3-1.24,4.93-2.21,5.54-5.16a15.24,15.24,0,0,0-2.62-11.14.74.74,0,0,1,.92-1.13c4.63,2.41,10.24,9.85,8.49,16.05A16.37,16.37,0,0,1,233,102.53a18.88,18.88,0,0,1-11.29,1.8,19,19,0,0,1,5.1,8.38,32.17,32.17,0,0,1,1.33,6.75c0,.15,0,.45,0,.8a9.75,9.75,0,0,0,0,1.46l0,0c.08.15,2,3.62,5,2.94,4.14-1,6.05,1.75,7.51,4.36.22.39.4.75.56,1.08.89,1.75,1.21,2.41,5.5,2.55,5,.15,5.85.54,7.84,1.72l.57.34c1.65,1,2.45,2,2.39,3.17-.08,1.37-1.37,2.59-4,3.75A11.65,11.65,0,0,1,249,142.43Zm-20.92-20.79Z"/><path d="M137.51,172.94a5.06,5.06,0,0,1-.68-.05,3.24,3.24,0,0,1-3.07-2.94,14.93,14.93,0,0,1,1.38-6.16c.21-.54.43-1.09.63-1.68.72-2.06,5-4.41,10.58-7.28,1.52-.78,3-1.53,3.92-2.1,3.38-2,6.77-10.11,6.81-10.19a.74.74,0,1,1,1.37.57c-.14.35-3.61,8.62-7.41,10.9-1,.59-2.46,1.35-4,2.14-3.69,1.91-9.27,4.79-9.85,6.46-.21.6-.43,1.16-.65,1.72a13.76,13.76,0,0,0-1.29,5.57c0,.88.92,1.39,1.79,1.51a4,4,0,0,0,4.26-3.07c1.76-5.48,8.24-7.79,10.59-8.21,4.48-.82,10.27-2.19,11.84-3.39,1.95-1.49,6.44-8.38,6.53-14.14a.71.71,0,0,1,.76-.73.73.73,0,0,1,.73.75c-.09,6.1-4.73,13.48-7.12,15.31-2.23,1.7-10.11,3.23-12.47,3.66-2,.36-7.91,2.44-9.44,7.2A5.5,5.5,0,0,1,137.51,172.94Z"/><path d="M121,164.8a3.46,3.46,0,0,1-2.85-2,7.75,7.75,0,0,1,.51-8.71,9.28,9.28,0,0,1,3.82-2.93,236.93,236.93,0,0,0,22.34-10.29.74.74,0,1,1,.7,1.31,236,236,0,0,1-22.48,10.35,7.91,7.91,0,0,0-3.21,2.48,6.23,6.23,0,0,0-.42,7c.53.85,1.06,1.28,1.59,1.28h0c.51,0,1.62-.44,3.26-3.26,1.49-2.55,3.85-3.74,6.18-4.64.7-.27,1.4-.56,2.09-.84a44.31,44.31,0,0,1,7-2.4c.62-.13,1.32-.26,2.07-.39,3.7-.67,8.77-1.59,10.18-5a.75.75,0,1,1,1.38.57c-1.73,4.15-7.26,5.14-11.3,5.87-.73.13-1.41.26-2,.39a42.69,42.69,0,0,0-6.78,2.32l-2.11.85c-2.08.8-4.17,1.84-5.43,4-1.56,2.67-3,4-4.54,4Z"/><path class="cls-6" d="M160.11,117.36s4.95-6.31,13.57-.17C173.68,117.19,165.64,124.46,160.11,117.36Z"/><path class="cls-6" d="M164.16,100.76S157,104,160.1,114.45C160.1,114.45,169,108.41,164.16,100.76Z"/><path d="M159.56,116.22l-.4-1c-4.06-9.44,2.34-13.56,2.4-13.6l.56-.34.41.5c5.48,6.69-2.12,13.63-2.19,13.7Zm2.25-12.87c-1.21,1.08-3.86,4.26-1.7,10.29C161.66,111.91,164.75,107.62,161.81,103.35Z"/><path class="cls-6" d="M161.19,117.11c-.92-4.17-6.87.49-8.18,1.44-3.79,2.74-7.55,5.46-11.45,8-1.21.79-2.62,1.12-3.13,2.77-.6,1.95,1.12,4.86,2.94,3.61,4.83-3.31,9.89-6.33,14.53-10C157.37,121.9,161.76,119.73,161.19,117.11Z"/><path d="M141.26,131a2,2,0,0,1-1.28-.46,3.35,3.35,0,0,1-1-3.62,4.35,4.35,0,0,1,2.35-2.32c.24-.13.49-.27.73-.42,3.48-2.25,6.85-4.64,10.11-7l.22-.16c2.21-1.58,5-3.32,6.72-2.62a2.16,2.16,0,0,1,1.3,1.75h0c.42,2.22-2.35,4-4.19,5.15-.34.22-.64.41-.86.57-2.76,2.09-5.71,4-8.56,5.85-1.45.93-2.89,1.86-4.31,2.82A2.22,2.22,0,0,1,141.26,131Zm16.94-15.23c-.72,0-2.14.52-4.91,2.51l-.23.17c-3.27,2.31-6.65,4.71-10.16,7-.27.17-.55.33-.83.48-.77.42-1.38.75-1.66,1.52a1.87,1.87,0,0,0,.49,1.94.58.58,0,0,0,.78,0c1.43-1,2.88-1.9,4.34-2.84,2.83-1.84,5.76-3.73,8.48-5.8.26-.18.58-.39.95-.62,1.32-.84,3.76-2.39,3.53-3.62-.1-.53-.31-.61-.39-.64A1,1,0,0,0,158.2,115.74Z"/><path d="M164.86,119.33c-.22,0-.43,0-.64,0a7.32,7.32,0,0,1-5.21-3l-.36-.46.36-.46c.05-.06,5-6.13,13.14-.29l.76.54-.69.62C172.07,116.34,168.72,119.33,164.86,119.33Zm-4.27-3.5a5.68,5.68,0,0,0,3.76,2c2.49.21,4.92-1.25,6.11-2.11C165.13,112.37,161.72,114.76,160.59,115.83Z"/><path d="M173.68,116s11.21,6.86,17.82,4.65c9.27-3.08,14.36-6.75,16.41-8.63,3.22-3,5.62-14-4.54-14.59,0,0-2,.09-13.33,7.6C186.25,107.51,179.54,113.25,173.68,116Z"/><path d="M188.54,121.82c-6.66,0-14.85-5-15.26-5.2a.76.76,0,0,1-.35-.69.73.73,0,0,1,.43-.63c4-1.86,8.45-5.19,12-7.86,1.64-1.22,3.06-2.28,4.24-3.06,11-7.26,13.34-7.71,13.7-7.72,5,.29,6.88,2.83,7.62,4.91,1.32,3.74-.25,8.88-2.54,11-1.67,1.53-6.64,5.46-16.67,8.8A10.16,10.16,0,0,1,188.54,121.82ZM175.27,116c3,1.65,11,5.56,16,3.9,9.75-3.24,14.53-7,16.13-8.48a10,10,0,0,0,2.13-9.37c-.84-2.38-2.9-3.69-6.12-3.91-.36.08-3,.87-13,7.47-1.14.76-2.54,1.8-4.16,3A86.36,86.36,0,0,1,175.27,116Z"/></g></svg>