<svg id="圖層_1" data-name="圖層 1" xmlns="http://www.w3.org/2000/svg" viewBox="0 0 194.94 294.58"><defs><style>.cls-1{fill:#fff;}.cls-2{fill:#170000;}.cls-3{fill:#da003a;}.cls-4{fill:#4fad28;}.cls-5{fill:#231815;}.cls-6{fill:#c21823;}.cls-7{fill:#ffb4c0;}</style></defs><title>新接龍</title><rect class="cls-1" x="12.88" y="12.85" width="169" height="265.73"/><path d="M183.88,280.58h-173V10.85h173Zm-169-4h165V14.85h-165Z"/><path class="cls-2" d="M29.32,27.84a10.49,10.49,0,0,1-1.33.38c-.6.15-1.09.25-1.46.31l-.2-1.13a9.2,9.2,0,0,0,2.09-.74,8.45,8.45,0,0,0,1.8-1.14h0l1.23.2V37l2.48.18v1H26.73v-1L29.32,37Z"/><path class="cls-2" d="M36.89,36.6A7.66,7.66,0,0,1,35.62,32a7.74,7.74,0,0,1,.72-3.44,5.33,5.33,0,0,1,2-2.26A5,5,0,0,1,41,25.54a4.35,4.35,0,0,1,3.81,1.67,7.76,7.76,0,0,1,1.21,4.59,8.13,8.13,0,0,1-.7,3.44,5.49,5.49,0,0,1-1.9,2.32,4.74,4.74,0,0,1-2.72.82A4.41,4.41,0,0,1,36.89,36.6ZM43.81,32a9.73,9.73,0,0,0-.67-4,2.34,2.34,0,0,0-2.26-1.4,2.44,2.44,0,0,0-2.29,1.33,8,8,0,0,0-.74,3.83,9.7,9.7,0,0,0,.71,4.08,2.37,2.37,0,0,0,2.26,1.54Q43.81,37.36,43.81,32Z"/><path class="cls-3" d="M167.94,23.05a4.11,4.11,0,0,0-3.6,1.74,4.07,4.07,0,0,0-3.58-1.74,4.81,4.81,0,0,0-5,5.08,6.75,6.75,0,0,0,1,3.66,17.39,17.39,0,0,0,4.3,4.22c.84.64,1.62,1.19,2.13,1.53,1,.65,1,.66,1.12.66h0c.11,0,.18,0,1.11-.66.51-.34,1.29-.88,2.13-1.52a17.3,17.3,0,0,0,4.31-4.23,6.72,6.72,0,0,0,1-3.66A4.81,4.81,0,0,0,167.94,23.05Z"/><path class="cls-4" d="M88.11,105.24c6,2.52,8.69,9.57,8.69,9.57s-7,3-12.92.47-8.68-9.57-8.68-9.57S82.15,102.73,88.11,105.24Z"/><path class="cls-5" d="M89.93,115.44a12.34,12.34,0,0,1-4.8-.91c-5.25-2.21-7.62-8.22-7.72-8.48a.52.52,0,0,1,.27-.64c.25-.11,6.21-2.61,11.46-.4s7.61,8.22,7.71,8.48a.5.5,0,0,1-.27.64A18.62,18.62,0,0,1,89.93,115.44Zm-11.38-9.29c.65,1.42,2.92,5.75,7,7.46s8.73.31,10.21-.22c-.66-1.42-2.93-5.76-7-7.46S80,105.62,78.55,106.15Z"/><path class="cls-5" d="M96.38,114.17a.43.43,0,0,1-.19,0l-18.5-7.8a.5.5,0,1,1,.38-.92l18.51,7.8a.51.51,0,0,1,.27.65A.52.52,0,0,1,96.38,114.17Z"/><path class="cls-4" d="M102.42,99c-4.35,4.79-3.85,12.34-3.85,12.34s7.56-.22,11.91-5S114.33,94,114.33,94,106.77,94.19,102.42,99Z"/><path class="cls-5" d="M98.47,110.61a.5.5,0,0,1-.5-.47c0-.27-.41-6.72,3.42-10.94s10.29-4.45,10.56-4.46a.51.51,0,0,1,.51.47c0,.27.41,6.73-3.42,10.94s-10.29,4.45-10.56,4.46Zm13-14.83c-1.56.14-6.4.85-9.35,4.1S99,108,99,109.57c1.56-.14,6.4-.84,9.35-4.09S111.48,97.35,111.48,95.78Z"/><path class="cls-5" d="M98.47,110.61a.5.5,0,0,1-.37-.84l13.49-14.86a.51.51,0,0,1,.71,0,.5.5,0,0,1,0,.71L98.84,110.45A.5.5,0,0,1,98.47,110.61Z"/><path class="cls-3" d="M93.09,108.23A4.87,4.87,0,0,0,97,105.51a4.89,4.89,0,0,0,4.56,1.38,5.75,5.75,0,0,0,4.91-6.93,8.13,8.13,0,0,0-1.86-4.12,20.53,20.53,0,0,0-5.86-4.18c-1.11-.6-2.13-1.1-2.79-1.41-1.27-.59-1.32-.59-1.45-.57h0c-.13,0-.21.07-1.19,1-.53.5-1.35,1.28-2.23,2.19a20.66,20.66,0,0,0-4.29,5.8,8.05,8.05,0,0,0-.49,4.5A5.75,5.75,0,0,0,93.09,108.23Z"/><path class="cls-5" d="M90.4,108.44a6.18,6.18,0,0,1-6.27-5.58,8.43,8.43,0,0,1,.52-4.76A21.12,21.12,0,0,1,89,92.15c.89-.92,1.71-1.71,2.25-2.22,1-1,1.16-1.06,1.46-1.11s.48,0,1.76.61c.67.31,1.7.81,2.82,1.42a21,21,0,0,1,6,4.3,8.45,8.45,0,0,1,2,4.36A6.22,6.22,0,0,1,100,107a5.46,5.46,0,0,1-4.51-1.07,5.43,5.43,0,0,1-4,2.41h0A6.92,6.92,0,0,1,90.4,108.44ZM92.88,89.8s-.56.54-.91.87c-.52.49-1.34,1.27-2.21,2.17a20.1,20.1,0,0,0-4.18,5.63,7.6,7.6,0,0,0-.47,4.24,5.5,5.5,0,0,0,2.37,3.91,5.7,5.7,0,0,0,3.87.75h0a4.41,4.41,0,0,0,3.54-2.45.49.49,0,0,1,.38-.27.48.48,0,0,1,.44.15A4.42,4.42,0,0,0,99.82,106a5.28,5.28,0,0,0,4.5-6.36,7.58,7.58,0,0,0-1.76-3.88,20,20,0,0,0-5.7-4.06c-1.11-.6-2.12-1.09-2.77-1.39C93.68,90.15,93,89.83,92.88,89.8Z"/><path class="cls-4" d="M70.48,63.64c4.47,4.67,4.16,12.23,4.16,12.23s-7.56,0-12-4.71-4.16-12.23-4.16-12.23S66,59,70.48,63.64Z"/><path class="cls-5" d="M74.72,75.16h0c-.27,0-6.74-.07-10.67-4.19S60.33,60.4,60.34,60.12a.5.5,0,0,1,.5-.48h0c.28,0,6.74.08,10.68,4.19s3.71,10.58,3.7,10.85A.5.5,0,0,1,74.72,75.16ZM61.34,60.67c0,1.56.4,6.44,3.43,9.61s7.89,3.75,9.45,3.86c0-1.57-.39-6.45-3.43-9.62h0C67.76,61.35,62.91,60.77,61.34,60.67Z"/><path class="cls-5" d="M74.72,75.16a.48.48,0,0,1-.36-.16L60.48,60.49a.5.5,0,0,1,0-.71.49.49,0,0,1,.7,0L75.08,74.31a.5.5,0,0,1,0,.71A.54.54,0,0,1,74.72,75.16Z"/><path class="cls-4" d="M86.1,63.58c-5.9,2.67-8.44,9.79-8.44,9.79s7,2.8,12.92.14S99,63.72,99,63.72,92,60.92,86.1,63.58Z"/><path class="cls-5" d="M84.14,73.83a18.43,18.43,0,0,1-6.28-1.15.5.5,0,0,1-.29-.63c.1-.26,2.31-6.33,7.5-8.67h0c5.18-2.35,11.2,0,11.46.1a.5.5,0,0,1,.28.63c-.09.26-2.3,6.33-7.49,8.68A12.46,12.46,0,0,1,84.14,73.83ZM78.7,71.92c1.49.49,6.21,1.77,10.21,0s6.16-6.2,6.77-7.64c-1.48-.48-6.21-1.76-10.2.05h0C81.47,66.1,79.32,70.48,78.7,71.92Zm6.57-8.09h0Z"/><path class="cls-5" d="M78.05,72.72a.51.51,0,0,1-.46-.29.51.51,0,0,1,.25-.67l18.3-8.27a.5.5,0,1,1,.41.91l-18.3,8.28A.48.48,0,0,1,78.05,72.72Z"/><path class="cls-3" d="M73.86,68.36a4.89,4.89,0,0,0,4.67-.94,4.9,4.9,0,0,0,3.63,3.08,5.76,5.76,0,0,0,7.26-4.41,8,8,0,0,0-.07-4.52,20.51,20.51,0,0,0-3.7-6.17c-.79-1-1.53-1.85-2-2.4-.93-1-1-1.06-1.11-1.1h0c-.12,0-.22,0-1.48.43-.69.24-1.75.63-2.92,1.12a20.45,20.45,0,0,0-6.24,3.62A8,8,0,0,0,69.63,61,5.75,5.75,0,0,0,73.86,68.36Z"/><path class="cls-5" d="M82.41,70.2A6.88,6.88,0,0,1,80.66,70,5.42,5.42,0,0,1,77,67.2a5.48,5.48,0,0,1-4.6.64h0a6.23,6.23,0,0,1-4.59-8,8.45,8.45,0,0,1,2.37-4.16A20.76,20.76,0,0,1,76.54,52c1.19-.5,2.26-.89,2.95-1.14,1.31-.46,1.48-.51,1.78-.44s.43.21,1.37,1.26c.7.8,1.4,1.64,2,2.42a20.89,20.89,0,0,1,3.8,6.34,8.49,8.49,0,0,1,.07,4.79A6.14,6.14,0,0,1,82.41,70.2Zm-5.25-4.28h.12a.51.51,0,0,1,.35.32A4.39,4.39,0,0,0,80.91,69a5.27,5.27,0,0,0,6.65-4,7.53,7.53,0,0,0-.06-4.26,20.3,20.3,0,0,0-3.62-6c-.61-.77-1.3-1.59-2-2.38-.3-.33-.79-.89-.9-1s-.75.29-1.17.44c-.68.24-1.73.62-2.89,1.11a20,20,0,0,0-6.08,3.51,7.53,7.53,0,0,0-2.11,3.7,5.26,5.26,0,0,0,3.87,6.75A4.39,4.39,0,0,0,76.83,66,.5.5,0,0,1,77.16,65.92Z"/><path class="cls-4" d="M120.46,92.12c6,2.52,8.68,9.57,8.68,9.57s-6.95,3-12.91.47-8.69-9.57-8.69-9.57S114.49,89.61,120.46,92.12Z"/><path class="cls-5" d="M122.27,102.32a12.34,12.34,0,0,1-4.8-.91c-5.25-2.21-7.62-8.22-7.71-8.48a.5.5,0,0,1,.27-.64c.25-.11,6.21-2.61,11.45-.4h0c5.25,2.21,7.62,8.23,7.71,8.48a.5.5,0,0,1-.27.64A18.38,18.38,0,0,1,122.27,102.32ZM110.89,93c.65,1.43,2.92,5.76,7,7.46s8.72.3,10.2-.22c-.65-1.42-2.92-5.75-7-7.46h0C117.05,91.11,112.36,92.51,110.89,93Z"/><path class="cls-5" d="M128.73,101.05a.48.48,0,0,1-.2,0L110,93.21a.49.49,0,0,1-.27-.65.51.51,0,0,1,.66-.27l18.5,7.8a.5.5,0,0,1-.19,1Z"/><path class="cls-4" d="M134.76,85.86c-4.35,4.8-3.84,12.34-3.84,12.34s7.55-.22,11.9-5,3.85-12.34,3.85-12.34S139.11,81.07,134.76,85.86Z"/><path class="cls-5" d="M130.81,97.49a.5.5,0,0,1-.5-.47c0-.27-.4-6.72,3.42-10.94s10.29-4.45,10.56-4.46a.52.52,0,0,1,.52.47c0,.27.4,6.73-3.43,10.94s-10.28,4.45-10.56,4.46Zm13-14.83c-1.56.14-6.4.85-9.35,4.1s-3.18,8.13-3.18,9.7c1.56-.15,6.4-.85,9.35-4.1S143.83,84.23,143.82,82.66Z"/><path class="cls-5" d="M130.81,97.49a.5.5,0,0,1-.34-.13.49.49,0,0,1,0-.7l13.5-14.87a.49.49,0,0,1,.7,0,.51.51,0,0,1,0,.71l-13.5,14.87A.5.5,0,0,1,130.81,97.49Z"/><path class="cls-3" d="M125.43,95.11a4.89,4.89,0,0,0,3.92-2.72,4.86,4.86,0,0,0,4.55,1.38,5.74,5.74,0,0,0,4.91-6.92A8,8,0,0,0,137,82.72a20.6,20.6,0,0,0-5.85-4.18c-1.12-.6-2.14-1.1-2.8-1.4-1.27-.6-1.31-.6-1.45-.58h0c-.13,0-.22.07-1.19,1-.54.5-1.36,1.28-2.23,2.19a20.26,20.26,0,0,0-4.29,5.8,8,8,0,0,0-.5,4.5A5.75,5.75,0,0,0,125.43,95.11Z"/><path class="cls-5" d="M122.74,95.32a6.18,6.18,0,0,1-6.27-5.57A8.5,8.5,0,0,1,117,85a20.87,20.87,0,0,1,4.4-6c.89-.94,1.72-1.72,2.25-2.22,1-.94,1.15-1.06,1.45-1.11s.48,0,1.76.61c.67.31,1.7.81,2.82,1.42a21,21,0,0,1,6,4.3,8.64,8.64,0,0,1,2,4.37,6.43,6.43,0,0,1-1.26,5.23,6.54,6.54,0,0,1-4.07,2.26,5.46,5.46,0,0,1-4.51-1.07,5.41,5.41,0,0,1-4,2.41h0A6.92,6.92,0,0,1,122.74,95.32Zm2.48-18.64s-.57.56-.9.87c-.52.48-1.33,1.25-2.21,2.17a20.12,20.12,0,0,0-4.19,5.63,7.5,7.5,0,0,0-.46,4.24,5.44,5.44,0,0,0,2.36,3.91,5.72,5.72,0,0,0,3.88.75h0a4.45,4.45,0,0,0,3.54-2.44.5.5,0,0,1,.81-.13,4.42,4.42,0,0,0,4.11,1.23A5.66,5.66,0,0,0,135.61,91a5.48,5.48,0,0,0,1-4.45,7.5,7.5,0,0,0-1.76-3.88,19.73,19.73,0,0,0-5.7-4.06c-1.11-.6-2.12-1.09-2.77-1.39C126,77,125.34,76.71,125.22,76.68Z"/><path class="cls-4" d="M51.31,107.81c5.9,2.67,8.44,9.79,8.44,9.79s-7,2.8-12.92.13-8.44-9.79-8.44-9.79S45.42,105.14,51.31,107.81Z"/><path class="cls-5" d="M53.27,118.06a12.62,12.62,0,0,1-5.18-1c-5.19-2.35-7.4-8.42-7.49-8.68a.5.5,0,0,1,.28-.63c.26-.1,6.28-2.45,11.47-.11s7.39,8.42,7.49,8.68a.5.5,0,0,1-.29.63A18.5,18.5,0,0,1,53.27,118.06Zm-11.54-9.59c.61,1.44,2.77,5.83,6.77,7.64s8.72.53,10.21,0c-.62-1.44-2.78-5.83-6.78-7.64S43.21,108,41.73,108.47Z"/><path class="cls-5" d="M59.36,117a.53.53,0,0,1-.2,0l-18.3-8.27a.5.5,0,0,1-.25-.66.51.51,0,0,1,.66-.25L59.57,116a.51.51,0,0,1,.25.66A.49.49,0,0,1,59.36,117Z"/><path class="cls-3" d="M65.06,103.85a8.05,8.05,0,0,0-2.24-3.93,20.6,20.6,0,0,0-6.24-3.61c-1.18-.49-2.24-.88-2.92-1.13-1.26-.44-1.36-.46-1.49-.43h0c-.13,0-.18,0-1.1,1.1-.48.54-1.22,1.4-2,2.4a20.57,20.57,0,0,0-3.71,6.16,8,8,0,0,0-.07,4.53,5.75,5.75,0,0,0,7.26,4.4,4.86,4.86,0,0,0,3.63-3.08,4.89,4.89,0,0,0,4.68.94A5.75,5.75,0,0,0,65.06,103.85Z"/><path class="cls-5" d="M52.28,113.06a6.37,6.37,0,0,1-2.89-.68,6.45,6.45,0,0,1-3.24-4.31,8.49,8.49,0,0,1,.08-4.79A20.88,20.88,0,0,1,50,97c.8-1,1.55-1.88,2-2.42,1-1.1,1.06-1.18,1.35-1.26s.47,0,1.8.44c.69.25,1.77.64,2.94,1.14a20.64,20.64,0,0,1,6.4,3.72,8.5,8.5,0,0,1,2.38,4.16h0a6.23,6.23,0,0,1-4.6,8,5.46,5.46,0,0,1-4.59-.64A5.46,5.46,0,0,1,54,112.84,6.92,6.92,0,0,1,52.28,113.06Zm1.33-18.82c0,.05-.52.61-.81,1-.48.54-1.21,1.38-2,2.38a19.84,19.84,0,0,0-3.62,6,7.62,7.62,0,0,0-.07,4.26,5.48,5.48,0,0,0,2.73,3.67,5.6,5.6,0,0,0,3.92.38,4.42,4.42,0,0,0,3.29-2.77.48.48,0,0,1,.34-.31.52.52,0,0,1,.46.11,4.4,4.4,0,0,0,4.21.83A5.27,5.27,0,0,0,66,103a7.64,7.64,0,0,0-2.11-3.71,20.1,20.1,0,0,0-6.08-3.5c-1.16-.48-2.21-.87-2.9-1.12A13.09,13.09,0,0,0,53.61,94.24Z"/><path class="cls-4" d="M62.75,105.89c-4.47,4.67-4.16,12.23-4.16,12.23s7.56,0,12-4.71,4.17-12.23,4.17-12.23S67.23,101.21,62.75,105.89Z"/><path class="cls-5" d="M58.51,117.41a.51.51,0,0,1-.5-.48c0-.28-.22-6.74,3.71-10.85s10.4-4.18,10.67-4.19h0a.5.5,0,0,1,.5.48c0,.28.23,6.74-3.7,10.85s-10.4,4.19-10.67,4.19Zm13.38-14.49c-1.56.1-6.42.68-9.45,3.85s-3.39,8-3.43,9.61c1.57-.1,6.42-.68,9.46-3.85S71.86,104.48,71.89,102.92Z"/><path class="cls-5" d="M58.51,117.41a.51.51,0,0,1-.34-.14.5.5,0,0,1,0-.71L72,102.05a.5.5,0,1,1,.72.69L58.88,117.25A.49.49,0,0,1,58.51,117.41Z"/><path class="cls-5" d="M144.76,167.78l-.22-4.8-4.46.41A9.32,9.32,0,0,0,144.76,167.78Z"/><path class="cls-5" d="M144.76,168.53a.75.75,0,0,1-.26-.05,10,10,0,0,1-5.1-4.77.75.75,0,0,1,0-.67.74.74,0,0,1,.53-.39l4.52-.41a.73.73,0,0,1,.56.18.74.74,0,0,1,.25.53l.23,4.79a.75.75,0,0,1-.31.65A.77.77,0,0,1,144.76,168.53Zm-3.43-4.5a8.84,8.84,0,0,0,2.62,2.53l-.13-2.76Z"/><path class="cls-2" d="M77.6,234.22a33.11,33.11,0,0,1-19.35-5.86C41.19,216.4,41.55,214,42,211.27L42,211c.22-1.6,1.22-3.48,2.9-3.79s3.34,1,4.94,3.81c2.6,4.64,5.63,4.21,6.51,4a33.93,33.93,0,0,1,4.31-6.8c3.77-4.54,7.8-6.18,11.68-4.75A34.64,34.64,0,0,1,81.82,209a35.78,35.78,0,0,1,2.81,2.72c1.52,1.56,3.23,3.32,4.25,3.72a.75.75,0,0,1,.43,1,.76.76,0,0,1-1,.43c-1.33-.52-3.08-2.33-4.78-4.08a33.81,33.81,0,0,0-2.68-2.59,32.82,32.82,0,0,0-9-5.34c-3.26-1.21-6.62.24-10,4.3a33.75,33.75,0,0,0-4.23,6.75.74.74,0,0,1-.38.38s-5,2.1-8.67-4.51c-1.19-2.14-2.42-3.26-3.35-3.08s-1.54,1.41-1.69,2.53l-.06.34c-.31,2.07-.64,4.21,15.66,15.64,16.84,11.81,37.75,1.24,38,1.13a.76.76,0,0,1,.33-.08c30.59-.5,44-24.9,44.11-25.15a.69.69,0,0,1,.68-.4,7.91,7.91,0,0,0,4.27-1.63.76.76,0,0,1,.7-.13,7.88,7.88,0,0,1,4.3,4.7,17,17,0,0,1,.69,5.21,11.21,11.21,0,0,0,.38,3.3,2.18,2.18,0,0,0,.63-.42,33.6,33.6,0,0,0,5.35-6,5.3,5.3,0,0,0,.11-4.22c-1.49-3.73-6.73-6-6.78-6a.74.74,0,0,1-.35-1.07,30.92,30.92,0,0,0,2.39-4.69,29.66,29.66,0,0,0,.53-6.95.75.75,0,0,1,.21-.57.73.73,0,0,1,.57-.23s3.49,0,8.59-2.78a11.44,11.44,0,0,0,5.66-6.36c-2.54-1.48-8.25-4.35-10.79-3.59-2.73.83-5.89,5.59-6.88,7.36a.74.74,0,0,1-.58.38.73.73,0,0,1-.64-.25c-2.18-2.46-5-.43-5.15-.35a.76.76,0,0,1-.78.07.75.75,0,0,1-.42-.65l-.46-13.14c-3.18-.79-6.7.6-9.06,3.62a10.94,10.94,0,0,0-2.22,5,18.43,18.43,0,0,0-.14,2.81A15.17,15.17,0,0,1,132,180c-1.42,5.76-3.81,6.11-7.28,6s-10.4-5.7-11.17-6.33h0a.46.46,0,0,1-.07-.07.74.74,0,0,1,0-1,.72.72,0,0,1,.55-.24h0c.26-.13,1.34-.78,4.56-4.14a2,2,0,0,0,.64-1.62c-.15-2.41-4-5.85-7-8.24-5.66-4.62-11.24-5-12.4-3.62a3.15,3.15,0,0,0-.9,3c.88,3,6.89,5.37,9.13,6a.75.75,0,0,1,.51.93.75.75,0,0,1-.93.51c-.37-.11-8.86-2.67-10.15-7a4.6,4.6,0,0,1,1.2-4.44c2-2.34,8.62-1.37,14.49,3.43,5.12,4.18,7.36,7,7.51,9.31a3.56,3.56,0,0,1-1.06,2.75,36.48,36.48,0,0,1-4.26,4c2.46,1.91,7.12,5.19,9.37,5.27,2.83.11,4.53.17,5.76-4.84a13.63,13.63,0,0,0,.27-3.52,19.62,19.62,0,0,1,.16-3,12.35,12.35,0,0,1,2.52-5.74c2.84-3.62,7.17-5.2,11-4l.17.05a.74.74,0,0,1,.51.69l.44,12.45A5.05,5.05,0,0,1,151,177c1.16-1.87,4.17-6.31,7.27-7.24,3.84-1.15,11.6,3.49,12.48,4a.74.74,0,0,1,.34.77c0,.2-.9,4.79-6.54,7.9a22.38,22.38,0,0,1-8.56,2.93,34.08,34.08,0,0,1-.58,6.56,23.93,23.93,0,0,1-2.17,4.47c1.65.83,5.46,3.06,6.82,6.47a6.76,6.76,0,0,1-.15,5.43l-.06.12a34.39,34.39,0,0,1-5.67,6.35c-.31.27-1.26,1.09-2.2.68-1.13-.49-1.19-2.24-1.28-4.65a15.76,15.76,0,0,0-.59-4.7,6.8,6.8,0,0,0-3.05-3.68,9.33,9.33,0,0,1-4.4,1.68c-1.89,3.2-15.81,25-45,25.54A49.3,49.3,0,0,1,77.6,234.22Zm36.86-55.78.05,0h0Z"/><path class="cls-2" d="M63.84,206.36c-1.69,0-6.39-.4-9.29-4.5-.53-.74-1.09-1.48-1.66-2.22C49.2,194.8,45,189.3,49.62,179.89c.42-.85,4.2-8.28,8.09-7.15a3.2,3.2,0,0,1,2.1,2c.9,2.27-.15,5.62-.9,6.9-1.16,2-2.06,5.09-1.31,7.35a3.67,3.67,0,0,0,1.56,2c1.22-2.29,5.37-9.64,9.52-11.88,5.17-2.8,13.32-.6,16.88,3.16,2.56,2.69,3.45,7.14,3.75,9.62,2.31-2.49,7.67-7.53,13.47-7.73a.72.72,0,0,1,.77.73.74.74,0,0,1-.72.77c-6.87.23-13.46,8.44-13.53,8.52a.72.72,0,0,1-.82.24.73.73,0,0,1-.51-.68c0-.07-.28-7-3.49-10.44S73.92,178,69.39,180.42s-9.19,11.81-9.24,11.91a.74.74,0,0,1-1,.35,5.17,5.17,0,0,1-3-3.26c-.89-2.72.08-6.27,1.44-8.58.63-1.07,1.46-3.92.8-5.59a1.68,1.68,0,0,0-1.12-1.07c-1.93-.55-4.86,3.39-6.32,6.37-4.21,8.58-.65,13.25,3.12,18.18.57.76,1.14,1.51,1.68,2.27,3,4.25,8.51,3.85,8.56,3.84a.75.75,0,0,1,.13,1.5S64.19,206.36,63.84,206.36Z"/><path class="cls-2" d="M112.15,219.86a11.72,11.72,0,0,1-7.75-2.74,3.7,3.7,0,0,1-1.24-3.74c.73-2.51,3.06-3.18,5.31-3.83s4.22-1.22,5.11-3.31a.73.73,0,0,1,.28-.34c-.45-.26-.9-.56-1.35-.87-3.91-2.77-4.37-6.38-3.08-8.73a4.51,4.51,0,0,1,5.8-2.06c.63.26,1.33.63,2,1l1,.53a24.73,24.73,0,0,0,3.11,1.27l5.76,1.89c2.13.7,3.42,1.86,3.82,3.45.87,3.39-2.77,7.34-2.93,7.51s-7.18,7.75-12.52,9.48A10.83,10.83,0,0,1,112.15,219.86ZM115,206.54a.71.71,0,0,1-.06.28c-1.17,2.75-3.78,3.51-6.08,4.17-2,.59-3.78,1.09-4.28,2.8a2.34,2.34,0,0,0,.84,2.26c1.86,1.8,6.16,3,9.59,1.87,5-1.61,11.81-9,11.88-9.07.91-1,3.13-4,2.58-6.12-.27-1.06-1.23-1.87-2.84-2.39l-5.76-1.9a24.3,24.3,0,0,1-3.3-1.35l-1-.54c-.65-.34-1.32-.69-1.88-.92a3,3,0,0,0-3.91,1.39c-1,1.77-.53,4.55,2.63,6.78a16.56,16.56,0,0,0,2.79,1.62c4.14,1.86,6.4.33,6.49.27a.75.75,0,0,1,.88,1.21c-.12.09-3,2.13-8-.11Z"/><path class="cls-2" d="M102.8,185.65a.77.77,0,0,1-.36-.09,4.56,4.56,0,0,1-2.59-3.44c-.36-2.92,2.53-6,3.79-7.15a19.75,19.75,0,0,1,2.44-1.84c.69-.46,1.85-1.23,1.86-1.55,0,0,0-.17-.48-.49a.76.76,0,0,1-.17-1.05.75.75,0,0,1,1-.17,2.15,2.15,0,0,1,1.11,1.73c0,1.1-1.12,1.84-2.52,2.78a17.71,17.71,0,0,0-2.26,1.69c-.85.79-3.6,3.56-3.32,5.87a3.12,3.12,0,0,0,1.83,2.31.75.75,0,0,1,.29,1A.77.77,0,0,1,102.8,185.65Z"/><path class="cls-5" d="M145,177.76c-2,3.09-1,7.54,3.47,7.34s6.74-.4,6.74-.4,12.43-1.16,15.15-10.25c0,0-7.12-4-9.5-4s-6.22,1.81-9.7,7.76c0,0-1.37-1.63-2.83-1.47A13.53,13.53,0,0,0,145,177.76Z"/><path class="cls-5" d="M148.13,185.86a4.66,4.66,0,0,1-4.29-2.28,6.06,6.06,0,0,1,.48-6.23.7.7,0,0,1,.32-.27A13.74,13.74,0,0,1,148.2,176a3.85,3.85,0,0,1,2.76,1c4.2-6.68,8.56-7.3,9.84-7.32h0c2.55,0,9.08,3.68,9.83,4.1a.75.75,0,0,1,.34.87c-2.82,9.47-15.26,10.72-15.79,10.77,0,0-2.32.21-6.77.41Zm-2.67-7.51a4.58,4.58,0,0,0-.31,4.49,3.25,3.25,0,0,0,3.24,1.51c4.42-.2,6.68-.4,6.71-.4s11.42-1.17,14.3-9.15c-2.73-1.51-7-3.6-8.54-3.6h0c-1.13,0-5.11.62-9.07,7.39a.76.76,0,0,1-1.22.1c-.31-.36-1.32-1.3-2.18-1.21A12.27,12.27,0,0,0,145.46,178.35Z"/><path class="cls-5" d="M154.89,188.27s-7.65-1.72-11.34.18-4.91,6.58-4.91,6.58-2,9.93-.27,12.62l8.55-6.05s4.64,2.52,4.23,5.78a12.81,12.81,0,0,0,.4,5.84c.3,1.17,0,2.89,4.56-1.37s4.71-7.66,2.44-10.09c-1.6-1.71-4.07-4.83-6.6-5,.09,0,2-3.47,2.22-3.83A7.28,7.28,0,0,0,154.89,188.27Z"/><path class="cls-5" d="M152.31,215.33a1.35,1.35,0,0,1-.41-.07c-.75-.24-.9-1-1-1.53,0-.11-.05-.22-.07-.32l-.1-.35a13.14,13.14,0,0,1-.32-5.77c.28-2.21-2.42-4.14-3.45-4.8l-8.16,5.78a.77.77,0,0,1-.57.12.75.75,0,0,1-.49-.32c-1.89-2.88-.05-12.15.17-13.19.06-.24,1.35-5.06,5.29-7.1s11.53-.32,11.85-.24a.75.75,0,0,1,.58.61,8.1,8.1,0,0,1-.8,5.1c-.73,1.42-1.25,2.36-1.64,3,2,.73,3.85,2.75,5.25,4.29l.65.72c1.64,1.75,3.5,5.52-2.46,11.14C154.19,214.68,153.08,215.33,152.31,215.33Zm-5.39-14.48a.77.77,0,0,1,.36.09c.21.11,5.09,2.81,4.61,6.54a11.86,11.86,0,0,0,.29,5.19l.1.37.09.4c0,.11,0,.24.07.35a12.78,12.78,0,0,0,3.16-2.49c3.82-3.6,4.63-6.64,2.4-9-.21-.22-.44-.47-.67-.74-1.49-1.64-3.53-3.9-5.44-4.05h0a.75.75,0,0,1-.69-.8.71.71,0,0,1,.21-.47c.3-.44,1.87-3.23,2.09-3.65a6.4,6.4,0,0,0,.71-3.66c-1.73-.34-7.44-1.27-10.32.22-3.34,1.72-4.51,6-4.52,6.1-.68,3.28-1.37,8.87-.69,11.29l7.81-5.53A.75.75,0,0,1,146.92,200.85Z"/><path class="cls-1" d="M152.2,184.71a.76.76,0,0,1-.73-.56,8.92,8.92,0,0,0-1.37-1.77.75.75,0,1,1,1.09-1,8.62,8.62,0,0,1,1.74,2.41.76.76,0,0,1-.54.92Z"/><path class="cls-1" d="M150.06,192.64a.74.74,0,0,1-.45-.15.75.75,0,0,1-.15-1.05,9.37,9.37,0,0,0,.51-2.18.75.75,0,0,1,1.49.21,8.71,8.71,0,0,1-.8,2.87A.75.75,0,0,1,150.06,192.64Z"/><path class="cls-1" d="M146.61,192.43a.75.75,0,0,1-.74-.66,2.86,2.86,0,0,0-.45-1.31.75.75,0,0,1,1-1.16,3.86,3.86,0,0,1,1,2.28.75.75,0,0,1-.65.84Z"/><path class="cls-1" d="M145.89,183.84a.79.79,0,0,1-.46-.15.75.75,0,0,1-.14-1.05,3,3,0,0,0,.6-1.25.74.74,0,0,1,.66-.82.75.75,0,0,1,.83.66,3.87,3.87,0,0,1-.9,2.31A.72.72,0,0,1,145.89,183.84Z"/><path class="cls-5" d="M112.56,250.49A20.1,20.1,0,0,1,105.1,249C98.71,246.4,92.2,240,93,232.18a11.38,11.38,0,0,1,.39-2,.75.75,0,0,1,.93-.51.76.76,0,0,1,.51.94,9.32,9.32,0,0,0-.34,1.76c-.73,7.09,5.28,12.88,11.16,15.26,5.17,2.09,12.2,2.39,16.45-3a8.9,8.9,0,0,0,1.37-8.14,5.11,5.11,0,0,0-1.33-2.07l-.23-.16c.4,3-.55,6.64-3.75,8.42-4.24,2.36-9.43-.17-11.46-1.37-4-2.36-7.55-7.73-6.54-12.63a.75.75,0,0,1,.89-.58.74.74,0,0,1,.58.89c-.86,4.18,2.35,9,5.83,11,1.81,1.07,6.41,3.34,10,1.35,2.92-1.63,3.5-5.22,2.81-7.87a.94.94,0,0,1,.37-1.08c.89-.53,2.52.88,2.53.89a6.5,6.5,0,0,1,1.74,2.68,10.26,10.26,0,0,1-1.6,9.56A13.13,13.13,0,0,1,112.56,250.49Z"/><path class="cls-6" d="M139.46,208c4.08-.81-.4-7.16-1.3-8.55-2.63-4-5.24-8-7.69-12.19-.75-1.28-1.06-2.76-2.66-3.34-1.89-.7-4.75,1-3.55,2.93,3.17,5.13,6,10.5,9.53,15.45C134.83,203.84,136.9,208.49,139.46,208Z"/><path d="M140,207.24c-2,0-3.58-2.72-4.63-4.56-.21-.36-.39-.68-.55-.92-2-2.93-3.83-6.06-5.59-9.09-.9-1.54-1.79-3.08-2.71-4.59a2.19,2.19,0,0,1,.18-2.69,3.16,3.16,0,0,1,3.52-.78,4.55,4.55,0,0,1,2.22,2.51c.13.26.26.53.41.78,2.15,3.69,4.44,7.28,6.65,10.76l.15.23c1.55,2.38,3.22,5.34,2.44,7.1a2.11,2.11,0,0,1-1.72,1.22h0Zm-11-21.37a1.67,1.67,0,0,0-1.21.5.71.71,0,0,0,0,.93c.92,1.52,1.82,3.06,2.72,4.61,1.76,3,3.57,6.12,5.55,9,.18.27.37.61.6,1,.74,1.29,2.31,4,3.45,3.79h0c.48-.08.56-.27.6-.35.25-.56.05-2-2.33-5.67l-.15-.25c-2.22-3.48-4.52-7.08-6.69-10.8-.17-.29-.31-.59-.46-.88-.4-.82-.72-1.47-1.47-1.79A1.43,1.43,0,0,0,129.05,185.87Z"/><path class="cls-6" d="M139.23,206.86s6.1,5.35,0,14.1C139.23,221,132.24,212.36,139.23,206.86Z"/><path class="cls-6" d="M155.37,211.64s-3-7.53-13.3-4.7C142.07,206.94,147.86,216.4,155.37,211.64Z"/><path d="M140.8,220.23l-.63-.77c-.14-.17-3.37-4.22-2.89-8.51a7.51,7.51,0,0,1,3-5.17l.49-.38.47.41c.06.05,5.89,5.33.12,13.6Zm-.09-12.83a5.88,5.88,0,0,0-1.94,3.71c-.29,2.62,1.11,5.23,2,6.54C144,212.23,141.75,208.63,140.71,207.4Z"/><path d="M149.43,211.77a6.12,6.12,0,0,1-.74,0c-4.3-.43-7.58-4.44-7.72-4.61l-.62-.77.92-.39c9.29-3.91,13.24,2.89,13.28,3l.3.55-.48.4A7.63,7.63,0,0,1,149.43,211.77ZM142.86,207c1.1,1.1,3.38,3,6,3.28a5.87,5.87,0,0,0,4-1.11C151.88,207.85,148.81,204.89,142.86,207Z"/><path class="cls-5" d="M126.3,220s-3.19-5.47-7.11-3.43-7.08,3.43-12,1.48-3.33-4.49-3.33-4.49-5.75.77-8.52,3.08-11.7,7-11.7,7-5.34,1.28-1.28,4.31a22.59,22.59,0,0,0,7.42,3.83l7.61-2.83s9.85-.95,11.79-1.44S125.4,222.54,126.3,220Z"/><path class="cls-5" d="M89.8,232.52l-.17,0a23.24,23.24,0,0,1-7.7-4c-1.39-1-2-2.08-1.78-3.11.34-1.65,2.68-2.36,3.24-2.51.87-.46,9-4.71,11.49-6.83,2.9-2.42,8.66-3.22,8.9-3.25a.75.75,0,0,1,.74,1.14,1.37,1.37,0,0,0,0,1.07c.21.6.9,1.48,3,2.32,4.51,1.8,7.43.6,11.35-1.44,3.6-1.88,6.88,1.6,8.1,3.71a.7.7,0,0,1,.06.63c-1.15,3.23-17.45,7.92-17.62,8-1.88.48-10.7,1.34-11.8,1.44l-7.52,2.8A.75.75,0,0,1,89.8,232.52Zm13.09-18c-1.75.34-5.18,1.17-7,2.73-2.8,2.34-11.48,6.86-11.84,7l-.17.07c-.83.2-2.1.77-2.22,1.37-.08.39.36,1,1.21,1.61A23,23,0,0,0,89.77,231l7.38-2.75.19,0c.1,0,9.81-.94,11.67-1.42,3.56-.9,14.78-4.81,16.41-6.73-.74-1.08-3.18-4.19-5.89-2.78-4.16,2.17-7.49,3.54-12.6,1.51-2.14-.86-3.45-2-3.89-3.28A3.25,3.25,0,0,1,102.89,214.51Z"/><path class="cls-7" d="M80.1,193.92s22.67-6.91,22.15,7S77,205.72,77,205.72,68.51,200.07,80.1,193.92Z"/><path class="cls-4" d="M102.37,137c-2.26,6.07,1,12.89,1,12.89s6.94-3,9.21-9.07-1-12.88-1-12.88S104.64,130.9,102.37,137Z"/><path class="cls-5" d="M102.82,149.26a.5.5,0,0,1-.45-.28c-.12-.25-2.86-6.1-.87-11.43h0c2-5.33,7.91-8,8.16-8.06a.51.51,0,0,1,.65.25c.12.24,2.86,6.1.87,11.43s-7.91,7.94-8.16,8.05A.45.45,0,0,1,102.82,149.26Zm-.38-11.36c-1.54,4.11,0,8.73.64,10.19,1.39-.72,5.63-3.16,7.16-7.27s0-8.74-.64-10.19c-1.39.71-5.63,3.16-7.16,7.27Z"/><path class="cls-5" d="M102.82,149.26l-.17,0a.49.49,0,0,1-.29-.64l7-18.81a.5.5,0,1,1,.93.35l-7,18.81A.49.49,0,0,1,102.82,149.26Z"/><path class="cls-4" d="M88,143.07c6.47.12,11.61,5.67,11.61,5.67s-5.35,5.34-11.82,5.22-11.61-5.67-11.61-5.67S81.53,142.94,88,143.07Z"/><path class="cls-5" d="M88.87,152.81h-.2c-5.69-.11-10.12-4.82-10.31-5a.5.5,0,0,1,0-.69c.19-.19,4.83-4.72,10.49-4.62h0c5.69.11,10.12,4.82,10.3,5a.5.5,0,0,1,0,.7C99,148.38,94.47,152.81,88.87,152.81Zm-9.42-5.35c1.14,1.08,4.85,4.26,9.24,4.34h.18c4.31,0,8-3,9.21-4-1.13-1.08-4.84-4.26-9.23-4.35h-.18C84.36,143.47,80.61,146.44,79.45,147.46Z"/><path class="cls-5" d="M98.81,148.33h0l-20.08-.39a.5.5,0,0,1-.49-.51.52.52,0,0,1,.51-.49l20.08.39a.52.52,0,0,1,.49.51A.5.5,0,0,1,98.81,148.33Z"/><path class="cls-3" d="M102.12,134.2a8,8,0,0,0-3.61-2.73,20.33,20.33,0,0,0-7.16-.86c-1.27,0-2.4.07-3.13.12-1.33.08-1.43.11-1.53.19h0c-.11.09-.14.12-.58,1.45-.23.69-.57,1.77-.9,3a20.87,20.87,0,0,0-1,7.13,8.11,8.11,0,0,0,1.73,4.19,5.74,5.74,0,0,0,8.4,1.18,4.9,4.9,0,0,0,2.13-4.26,4.85,4.85,0,0,0,4.66-1A5.75,5.75,0,0,0,102.12,134.2Z"/><path class="cls-5" d="M91.49,148.22h-.41a6.41,6.41,0,0,1-4.67-2.68,8.49,8.49,0,0,1-1.82-4.43,20.91,20.91,0,0,1,1-7.32c.33-1.23.67-2.32.91-3,.46-1.39.5-1.5.75-1.69s.41-.21,1.82-.3c.73-.05,1.87-.11,3.15-.12a20.92,20.92,0,0,1,7.35.89,8.54,8.54,0,0,1,3.82,2.89h0a6.41,6.41,0,0,1,1.41,5.2,6.59,6.59,0,0,1-2.48,3.94,5.49,5.49,0,0,1-4.48,1.22,5.44,5.44,0,0,1-2.31,4A6.63,6.63,0,0,1,91.49,148.22Zm1.13-18.57h-.4c-1.26,0-2.38.07-3.1.11-.44,0-1.19.08-1.31.12s-.24.8-.37,1.19c-.23.69-.57,1.76-.9,3a20.25,20.25,0,0,0-1,6.94,7.52,7.52,0,0,0,1.62,3.94,5.44,5.44,0,0,0,4,2.29A5.68,5.68,0,0,0,94.91,146a4.42,4.42,0,0,0,1.93-3.84.52.52,0,0,1,.19-.43.47.47,0,0,1,.46-.07,4.43,4.43,0,0,0,4.2-.9,5.67,5.67,0,0,0,2.12-3.33,5.47,5.47,0,0,0-1.22-4.41,7.59,7.59,0,0,0-3.4-2.57A19.42,19.42,0,0,0,92.62,129.65Z"/><path class="cls-4" d="M49.21,148.84c1.95,6.17-1.67,12.81-1.67,12.81s-6.77-3.37-8.72-9.54S40.5,139.3,40.5,139.3,47.27,142.67,49.21,148.84Z"/><path class="cls-5" d="M48.14,161.1a.46.46,0,0,1-.22-.06c-.25-.12-6-3-7.72-8.47s1.34-11.13,1.47-11.37a.5.5,0,0,1,.66-.2c.25.12,6,3,7.72,8.47h0c1.71,5.43-1.34,11.13-1.47,11.37A.51.51,0,0,1,48.14,161.1Zm-5.81-19c-.66,1.42-2.5,6-1.18,10.14s5.42,6.85,6.77,7.64c.67-1.42,2.5-6,1.18-10.14h0C47.78,145.57,43.68,142.92,42.33,142.13Z"/><path class="cls-5" d="M48.14,161.1a.51.51,0,0,1-.48-.35l-6-19.16a.5.5,0,0,1,1-.3l6,19.16a.5.5,0,0,1-.33.62A.4.4,0,0,1,48.14,161.1Z"/><path class="cls-4" d="M63.24,155.69c-6.47-.21-11.89,5.05-11.89,5.05s5.06,5.62,11.53,5.84,11.89-5.06,11.89-5.06S69.71,155.91,63.24,155.69Z"/><path class="cls-5" d="M62.42,165.38h-.36c-5.69-.19-10.05-5-10.23-5.17a.5.5,0,0,1,0-.69c.2-.19,4.84-4.66,10.56-4.47s10,5,10.23,5.16a.51.51,0,0,1,0,.7C72.43,161.09,68,165.38,62.42,165.38Zm-9.5-5.48c1.12,1.1,4.79,4.33,9.18,4.48s8.26-2.84,9.45-3.86c-1.12-1.09-4.79-4.32-9.18-4.47S54.11,158.89,52.92,159.9Z"/><path class="cls-5" d="M72.27,161.05h0l-20.07-.67a.5.5,0,0,1-.48-.52.48.48,0,0,1,.52-.48l20.07.67a.5.5,0,0,1,0,1Z"/><path class="cls-3" d="M50.15,154.57a4.89,4.89,0,0,0,4.61,1.22,4.89,4.89,0,0,0,1.9,4.36,5.73,5.73,0,0,0,8.45-.74,7.88,7.88,0,0,0,1.94-4.09,20.45,20.45,0,0,0-.6-7.16c-.26-1.25-.55-2.34-.74-3-.37-1.35-.39-1.39-.5-1.48h0c-.1-.09-.19-.12-1.52-.27-.72-.09-1.85-.21-3.11-.29a20.57,20.57,0,0,0-7.2.49,8,8,0,0,0-3.75,2.53A5.76,5.76,0,0,0,50.15,154.57Z"/><path class="cls-5" d="M59.82,160.67A6.67,6.67,0,0,1,55.54,159a5.45,5.45,0,0,1-2.1-4.13,5.46,5.46,0,0,1-4.4-1.46h0a6.23,6.23,0,0,1-.6-9.18,8.58,8.58,0,0,1,4-2.68,20.91,20.91,0,0,1,7.39-.51c1.27.08,2.41.2,3.14.28,1.4.17,1.56.19,1.79.39s.29.33.67,1.74c.2.71.49,1.82.75,3.07a21.07,21.07,0,0,1,.61,7.36,8.5,8.5,0,0,1-2.06,4.32A6.33,6.33,0,0,1,59.82,160.67ZM54,153.78a.55.55,0,0,1,.33.12.52.52,0,0,1,.17.44,4.38,4.38,0,0,0,1.72,3.93,5.28,5.28,0,0,0,7.76-.69,7.58,7.58,0,0,0,1.82-3.85,19.91,19.91,0,0,0-.6-7c-.26-1.23-.54-2.32-.73-3-.12-.43-.32-1.15-.38-1.26s-.79-.08-1.24-.13c-.72-.09-1.84-.21-3.08-.28a20.09,20.09,0,0,0-7,.45,7.58,7.58,0,0,0-3.53,2.39,5.27,5.27,0,0,0,.49,7.77,4.41,4.41,0,0,0,4.15,1.12Z"/><path class="cls-4" d="M36.72,251.19C38.66,257.37,35,264,35,264s-6.77-3.37-8.71-9.54S28,241.65,28,241.65,34.78,245,36.72,251.19Z"/><path class="cls-5" d="M35.65,263.45a.42.42,0,0,1-.22-.05c-.25-.12-6-3-7.72-8.47s1.34-11.13,1.47-11.37a.5.5,0,0,1,.66-.21c.25.12,6,3.05,7.72,8.47h0c1.71,5.42-1.34,11.12-1.47,11.36A.49.49,0,0,1,35.65,263.45Zm-5.81-19c-.67,1.42-2.5,5.95-1.18,10.14s5.42,6.85,6.77,7.63c.66-1.42,2.5-5.95,1.18-10.13h0C35.29,247.93,31.19,245.27,29.84,244.49Z"/><path class="cls-5" d="M35.65,263.45a.5.5,0,0,1-.48-.35l-6-19.15a.51.51,0,0,1,.33-.63.5.5,0,0,1,.62.33l6,19.15a.51.51,0,0,1-.33.63A.39.39,0,0,1,35.65,263.45Z"/><path class="cls-4" d="M50.75,258.05c-6.47-.22-11.89,5.05-11.89,5.05s5.06,5.62,11.53,5.83,11.89-5.05,11.89-5.05S57.22,258.26,50.75,258.05Z"/><path class="cls-5" d="M49.92,267.74h-.35c-5.69-.19-10-5-10.23-5.16a.5.5,0,0,1,0-.69c.2-.19,4.86-4.67,10.56-4.47s10,5,10.23,5.16a.5.5,0,0,1,0,.69C59.94,263.45,55.45,267.74,49.92,267.74Zm-9.49-5.48c1.12,1.1,4.79,4.33,9.18,4.48s8.25-2.84,9.45-3.86c-1.12-1.09-4.79-4.33-9.18-4.47S41.62,261.24,40.43,262.26Z"/><path class="cls-5" d="M59.78,263.4h0l-20.07-.66a.5.5,0,0,1,0-1h0l20.07.67a.5.5,0,0,1,0,1Z"/><path class="cls-3" d="M37.66,256.92a4.93,4.93,0,0,0,4.61,1.23,4.87,4.87,0,0,0,1.89,4.36,5.75,5.75,0,0,0,8.46-.74,8.07,8.07,0,0,0,1.94-4.09,20.5,20.5,0,0,0-.6-7.17c-.26-1.24-.55-2.34-.74-3-.37-1.35-.4-1.38-.5-1.47l0,0c-.1-.08-.2-.11-1.52-.27-.72-.08-1.85-.2-3.12-.28a20.58,20.58,0,0,0-7.19.48,8.06,8.06,0,0,0-3.75,2.54A5.74,5.74,0,0,0,37.66,256.92Z"/><path class="cls-5" d="M47.31,263a6.6,6.6,0,0,1-4.26-1.63,5.47,5.47,0,0,1-2.1-4.14,5.44,5.44,0,0,1-4.41-1.45h0a6.24,6.24,0,0,1-.59-9.18,8.47,8.47,0,0,1,4-2.69,21.14,21.14,0,0,1,7.38-.5c1.28.08,2.42.19,3.15.28,1.4.17,1.56.19,1.79.39s.29.33.67,1.74c.2.71.48,1.82.75,3.06a20.8,20.8,0,0,1,.6,7.36,8.4,8.4,0,0,1-2,4.33A6.44,6.44,0,0,1,47.4,263Zm-5.83-6.88a.52.52,0,0,1,.33.12.55.55,0,0,1,.17.44,4.38,4.38,0,0,0,1.72,3.93A5.62,5.62,0,0,0,47.39,262a5.42,5.42,0,0,0,4.06-2.08,7.59,7.59,0,0,0,1.83-3.85,20,20,0,0,0-.6-7c-.26-1.22-.54-2.31-.73-3-.12-.43-.32-1.16-.38-1.27s-.79-.07-1.24-.13c-.72-.08-1.83-.2-3.09-.27a20.06,20.06,0,0,0-7,.45,7.58,7.58,0,0,0-3.53,2.39A5.27,5.27,0,0,0,37.2,255a4.43,4.43,0,0,0,4.15,1.12Z"/><path class="cls-4" d="M165,241.47c-4.54,4.62-4.33,12.18-4.33,12.18s7.56.07,12.09-4.54S177,236.93,177,236.93,169.48,236.86,165,241.47Z"/><path class="cls-5" d="M160.59,252.93h0a.49.49,0,0,1-.49-.48c0-.28-.14-6.74,3.85-10.8h0c4-4.06,10.49-4,10.73-4a.5.5,0,0,1,.49.49c0,.27.14,6.74-3.85,10.8S161.21,252.93,160.59,252.93Zm4-10.58c-3.07,3.13-3.5,8-3.56,9.57,1.57-.08,6.43-.6,9.51-3.73s3.5-8,3.56-9.56c-1.57.08-6.43.59-9.51,3.72Z"/><path class="cls-5" d="M160.56,252.93a.46.46,0,0,1-.35-.14.5.5,0,0,1,0-.71l14.08-14.32a.5.5,0,0,1,.71,0,.5.5,0,0,1,0,.7l-14.08,14.32A.47.47,0,0,1,160.56,252.93Z"/><path class="cls-4" d="M149.34,241.2c5.85,2.75,8.29,9.91,8.29,9.91s-7.06,2.7-12.92-.05-8.29-9.9-8.29-9.9S143.48,238.46,149.34,241.2Z"/><path class="cls-5" d="M151.36,251.48a12.73,12.73,0,0,1-5.38-1.11c-5.15-2.42-7.28-8.52-7.37-8.78a.5.5,0,0,1,.3-.63c.25-.1,6.31-2.37,11.46,0h0c5.15,2.42,7.28,8.52,7.37,8.78a.5.5,0,0,1-.29.63A18.84,18.84,0,0,1,151.36,251.48Zm-11.62-9.75c.6,1.45,2.69,5.87,6.67,7.73s8.71.65,10.2.18c-.6-1.45-2.69-5.86-6.66-7.72h0C146,240.05,141.24,241.27,139.74,241.73Z"/><path class="cls-5" d="M157.27,250.45a.44.44,0,0,1-.22,0l-18.18-8.52a.5.5,0,0,1-.24-.67.51.51,0,0,1,.67-.24l18.18,8.53a.49.49,0,0,1,.24.66A.51.51,0,0,1,157.27,250.45Z"/><path class="cls-3" d="M165.84,238.84a8,8,0,0,0-2.19-4,20.66,20.66,0,0,0-6.19-3.7c-1.16-.5-2.22-.91-2.9-1.16-1.25-.46-1.35-.48-1.48-.45h0c-.14,0-.18.05-1.12,1.09-.49.54-1.24,1.39-2,2.37a20.43,20.43,0,0,0-3.79,6.11,8,8,0,0,0-.13,4.53,5.74,5.74,0,0,0,7.19,4.5,4.9,4.9,0,0,0,3.68-3,4.9,4.9,0,0,0,4.66,1A5.76,5.76,0,0,0,165.84,238.84Z"/><path class="cls-5" d="M153,247.88a6.2,6.2,0,0,1-6.15-5.08A8.45,8.45,0,0,1,147,238a20.83,20.83,0,0,1,3.88-6.29c.81-1,1.57-1.85,2.06-2.39.95-1,1.06-1.16,1.37-1.23s.47,0,1.79.46c.68.25,1.75.66,2.93,1.17a21,21,0,0,1,6.35,3.81,8.49,8.49,0,0,1,2.31,4.19,6.23,6.23,0,0,1-4.7,7.91,5.49,5.49,0,0,1-4.59-.7,5.43,5.43,0,0,1-3.74,2.73A7.23,7.23,0,0,1,153,247.88Zm1.5-18.8s-.53.6-.83.93c-.48.53-1.22,1.37-2,2.35a20.25,20.25,0,0,0-3.71,5.95,7.53,7.53,0,0,0-.12,4.26,5.48,5.48,0,0,0,2.67,3.7,5.66,5.66,0,0,0,3.92.43,4.41,4.41,0,0,0,3.33-2.72.45.45,0,0,1,.34-.3.51.51,0,0,1,.46.11,4.4,4.4,0,0,0,4.21.89,5.28,5.28,0,0,0,4-6.7h0a7.58,7.58,0,0,0-2.06-3.73,19.94,19.94,0,0,0-6-3.59c-1.16-.5-2.21-.91-2.88-1.15A12.75,12.75,0,0,0,154.53,229.08Z"/><path class="cls-4" d="M142.73,256.8C138.2,261.42,138.4,269,138.4,269s7.56.08,12.1-4.53,4.33-12.18,4.33-12.18S147.27,252.19,142.73,256.8Z"/><path class="cls-5" d="M138.38,268.26h0a.51.51,0,0,1-.5-.49c0-.27-.13-6.73,3.86-10.79s10.48-4,10.72-4a.51.51,0,0,1,.5.49c0,.27.14,6.73-3.85,10.79S139,268.26,138.38,268.26ZM151.91,254c-1.56.08-6.42.59-9.5,3.72s-3.5,8-3.56,9.57c1.56-.09,6.43-.6,9.5-3.73S151.86,255.52,151.91,254Z"/><path class="cls-5" d="M138.34,268.26a.54.54,0,0,1-.35-.14.5.5,0,0,1,0-.71l14.07-14.32a.5.5,0,0,1,.72.7L138.7,268.11A.51.51,0,0,1,138.34,268.26Z"/><path class="cls-4" d="M127.12,256.53c5.86,2.75,8.3,9.91,8.3,9.91s-7.06,2.7-12.92-.05-8.3-9.9-8.3-9.9S121.26,253.78,127.12,256.53Z"/><path class="cls-5" d="M129.15,266.8a12.55,12.55,0,0,1-5.38-1.11c-5.16-2.41-7.28-8.52-7.37-8.78a.49.49,0,0,1,.29-.62c.26-.1,6.31-2.37,11.46,0s7.29,8.52,7.38,8.78a.5.5,0,0,1-.3.62A18.45,18.45,0,0,1,129.15,266.8Zm-11.62-9.74c.59,1.45,2.69,5.86,6.66,7.73s8.71.65,10.21.18c-.6-1.45-2.7-5.86-6.67-7.73S119,256.59,117.53,257.06Z"/><path class="cls-5" d="M135.05,265.78a.54.54,0,0,1-.21,0l-18.18-8.52a.5.5,0,0,1-.24-.67.49.49,0,0,1,.66-.24l18.18,8.53a.5.5,0,0,1-.21.95Z"/><path class="cls-3" d="M143.62,254.17a8,8,0,0,0-2.19-4,20.19,20.19,0,0,0-6.19-3.7c-1.16-.51-2.22-.91-2.9-1.16-1.25-.47-1.35-.49-1.48-.45h0c-.13,0-.17,0-1.12,1.09-.49.53-1.24,1.38-2,2.37a20.52,20.52,0,0,0-3.79,6.11,8,8,0,0,0-.13,4.52,5.76,5.76,0,0,0,7.2,4.51,4.9,4.9,0,0,0,3.67-3,4.87,4.87,0,0,0,4.66,1A5.74,5.74,0,0,0,143.62,254.17Z"/><path class="cls-5" d="M130.81,263.2a6.3,6.3,0,0,1-3-.72,6.44,6.44,0,0,1-3.18-4.35,8.49,8.49,0,0,1,.14-4.79,20.93,20.93,0,0,1,3.88-6.28c.8-1,1.56-1.84,2.06-2.39.95-1,1.07-1.16,1.37-1.24s.47,0,1.79.46c.69.26,1.76.67,2.93,1.18a21,21,0,0,1,6.35,3.81,8.5,8.5,0,0,1,2.32,4.19,6.43,6.43,0,0,1-.83,5.32A6.58,6.58,0,0,1,140.8,261a5.49,5.49,0,0,1-4.59-.7,5.45,5.45,0,0,1-3.75,2.72A6.65,6.65,0,0,1,130.81,263.2Zm1.5-18.8c0,.06-.53.61-.83.94-.49.54-1.24,1.38-2,2.35a20.06,20.06,0,0,0-3.7,5.94,7.66,7.66,0,0,0-.13,4.27,5.49,5.49,0,0,0,2.68,3.7,5.65,5.65,0,0,0,3.92.43,4.4,4.4,0,0,0,3.32-2.72.52.52,0,0,1,.35-.31.49.49,0,0,1,.45.12,4.44,4.44,0,0,0,4.21.89,5.68,5.68,0,0,0,3.29-2.19,5.46,5.46,0,0,0,.68-4.51h0a7.55,7.55,0,0,0-2.07-3.73,19.94,19.94,0,0,0-6-3.59c-1.15-.5-2.19-.91-2.87-1.16C133.14,244.68,132.43,244.42,132.31,244.4Z"/><path class="cls-4" d="M170.62,259.79c-2.81,5.83-.18,12.92-.18,12.92s7.18-2.36,10-8.19.18-12.92.18-12.92S173.42,254,170.62,259.79Z"/><path class="cls-5" d="M170,272.08a.51.51,0,0,1-.47-.32c-.09-.26-2.3-6.34.17-11.47h0c2.47-5.13,8.6-7.19,8.86-7.28a.5.5,0,0,1,.62.3c.1.26,2.3,6.34-.17,11.47s-8.59,7.19-8.85,7.28Zm8.4-17.94c-1.45.58-5.89,2.63-7.8,6.59h0c-1.9,3.95-.73,8.7-.28,10.2,1.45-.58,5.89-2.63,7.79-6.59S178.84,255.64,178.39,254.14Zm-8.25,6.37h0Z"/><path class="cls-5" d="M170,272.08a.41.41,0,0,1-.21-.05.5.5,0,0,1-.24-.67l8.71-18.09a.5.5,0,0,1,.9.44l-8.71,18.09A.48.48,0,0,1,170,272.08Z"/><path class="cls-4" d="M155.75,264.57c6.43.71,11.05,6.7,11.05,6.7s-5.82,4.83-12.25,4.12-11-6.7-11-6.7S149.32,263.85,155.75,264.57Z"/><path class="cls-5" d="M156.72,274.39a9.61,9.61,0,0,1-1.19-.07c-5.66-.63-9.64-5.72-9.81-5.93a.5.5,0,0,1,.08-.69c.21-.18,5.21-4.28,10.87-3.65s9.64,5.72,9.8,5.94a.5.5,0,0,1-.07.69C166.2,270.84,161.87,274.39,156.72,274.39Zm-9.88-6.23c1,1.18,4.44,4.68,8.8,5.17s8.45-2.19,9.72-3.12c-1-1.18-4.44-4.68-8.8-5.17h0C152.18,264.56,148.1,267.23,146.84,268.16Z"/><path class="cls-5" d="M166.08,270.79H166l-20-2.21a.5.5,0,0,1,.11-1l20,2.21a.5.5,0,0,1,.44.56A.49.49,0,0,1,166.08,270.79Z"/><path class="cls-3" d="M170.61,257a7.94,7.94,0,0,0-3.35-3,20.44,20.44,0,0,0-7-1.51c-1.26-.1-2.39-.15-3.12-.16-1.33,0-1.43,0-1.55,0h0c-.12.07-.15.1-.71,1.39-.29.66-.73,1.71-1.17,2.9a20.48,20.48,0,0,0-1.62,7,8,8,0,0,0,1.33,4.32,5.76,5.76,0,0,0,8.27,1.95,4.92,4.92,0,0,0,2.5-4.05,4.88,4.88,0,0,0,4.73-.56A5.74,5.74,0,0,0,170.61,257Z"/><path class="cls-5" d="M159.31,270a6.2,6.2,0,0,1-1-.07,6.45,6.45,0,0,1-4.41-3.1,8.46,8.46,0,0,1-1.41-4.57,20.76,20.76,0,0,1,1.65-7.2c.44-1.2.88-2.26,1.18-2.93.58-1.34.64-1.45.89-1.61s.44-.18,1.85-.14c.73,0,1.87.06,3.15.17a20.82,20.82,0,0,1,7.24,1.56,8.4,8.4,0,0,1,3.54,3.22h0a6.4,6.4,0,0,1,.93,5.31,6.56,6.56,0,0,1-2.83,3.69,5.46,5.46,0,0,1-4.57.81,5.42,5.42,0,0,1-2.67,3.79A6.71,6.71,0,0,1,159.31,270Zm-2.22-18.64h-.33c0,.06-.32.77-.49,1.16-.28.66-.72,1.7-1.15,2.88a19.93,19.93,0,0,0-1.59,6.81,7.59,7.59,0,0,0,1.25,4.08,5.46,5.46,0,0,0,3.73,2.64,5.69,5.69,0,0,0,3.85-.85,4.44,4.44,0,0,0,2.27-3.65.48.48,0,0,1,.23-.4.47.47,0,0,1,.46,0,4.44,4.44,0,0,0,4.27-.51A5.66,5.66,0,0,0,172,260.4a5.42,5.42,0,0,0-.81-4.49h0A7.58,7.58,0,0,0,168,253a20,20,0,0,0-6.87-1.45c-1.26-.11-2.38-.15-3.1-.17Z"/><path d="M183.88,280.58h-173V10.85h173Zm-169-4h165V14.85h-165Z"/></svg>