<svg id="圖層_1" data-name="圖層 1" xmlns="http://www.w3.org/2000/svg" viewBox="0 0 194.94 294.58"><defs><style>.cls-1{fill:#fff;}.cls-2{fill:#170000;}.cls-3{fill:#da003a;}.cls-4{fill:#4fad28;}.cls-5{fill:#231815;}.cls-6{fill:#c21823;}.cls-7{fill:#858585;}</style></defs><title>新接龍</title><rect class="cls-1" x="12.88" y="12.85" width="169" height="265.73"/><path d="M183.88,280.58h-173V10.85h173Zm-169-4h165V14.85h-165Z"/><path class="cls-2" d="M28.77,41.07q1.1-2.37,2.08-4.77c.67-1.6,1.59-3.86,2.78-6.79l.95-2.37-5.94.08-.85,2.67-1.28-.24.42-4h9.15l.42.54-2.75,7.71L31,41.67Z"/><path class="cls-3" d="M167.94,23.05a4.11,4.11,0,0,0-3.6,1.74,4.07,4.07,0,0,0-3.58-1.74,4.81,4.81,0,0,0-5,5.08,6.75,6.75,0,0,0,1,3.66,17.39,17.39,0,0,0,4.3,4.22c.84.64,1.62,1.19,2.13,1.53,1,.65,1,.66,1.12.66h0c.11,0,.18,0,1.11-.66.51-.34,1.29-.88,2.13-1.52a17.3,17.3,0,0,0,4.31-4.23,6.72,6.72,0,0,0,1-3.66A4.81,4.81,0,0,0,167.94,23.05Z"/><path class="cls-4" d="M77.31,139.69c6,2.51,8.68,9.57,8.68,9.57s-6.95,3-12.91.47-8.68-9.57-8.68-9.57S71.35,137.18,77.31,139.69Z"/><path class="cls-5" d="M79.12,149.89a12.41,12.41,0,0,1-4.8-.91c-5.25-2.21-7.61-8.23-7.71-8.48a.5.5,0,0,1,.27-.64c.25-.11,6.2-2.61,11.45-.4h0c5.25,2.21,7.62,8.22,7.72,8.48a.52.52,0,0,1-.27.64A18.77,18.77,0,0,1,79.12,149.89ZM67.74,140.6c.66,1.42,2.92,5.75,7,7.46s8.73.3,10.2-.22c-.65-1.43-2.92-5.76-7-7.46S69.22,140.07,67.74,140.6Z"/><path class="cls-5" d="M85.58,148.62a.58.58,0,0,1-.19,0l-18.51-7.8a.52.52,0,0,1-.27-.66.51.51,0,0,1,.66-.26l18.5,7.8a.49.49,0,0,1,.27.65A.51.51,0,0,1,85.58,148.62Z"/><path class="cls-4" d="M91.61,133.43c-4.35,4.79-3.84,12.34-3.84,12.34s7.56-.23,11.91-5,3.84-12.33,3.84-12.33S96,128.64,91.61,133.43Z"/><path class="cls-5" d="M87.66,145.06a.5.5,0,0,1-.5-.47c0-.27-.4-6.72,3.42-10.94s10.29-4.45,10.56-4.46a.51.51,0,0,1,.52.47c0,.27.4,6.72-3.43,10.94S88,145.05,87.68,145.06Zm13-14.83c-1.56.14-6.4.85-9.35,4.09s-3.18,8.14-3.17,9.7c1.56-.14,6.39-.85,9.34-4.09S100.68,131.79,100.67,130.23Z"/><path class="cls-5" d="M87.66,145.06a.5.5,0,0,1-.37-.84l13.5-14.86a.5.5,0,1,1,.74.67L88,144.89A.5.5,0,0,1,87.66,145.06Z"/><path class="cls-3" d="M82.28,142.68A4.89,4.89,0,0,0,86.2,140a4.89,4.89,0,0,0,4.55,1.38,5.75,5.75,0,0,0,4.91-6.93,7.93,7.93,0,0,0-1.86-4.12A20.4,20.4,0,0,0,88,126.11c-1.12-.61-2.14-1.1-2.8-1.41-1.27-.59-1.31-.59-1.45-.57h0c-.13,0-.21.08-1.19,1-.53.49-1.35,1.28-2.23,2.19a20.46,20.46,0,0,0-4.29,5.8,8,8,0,0,0-.5,4.5A5.75,5.75,0,0,0,82.28,142.68Z"/><path class="cls-5" d="M79.6,142.89a6.2,6.2,0,0,1-6.28-5.58,8.52,8.52,0,0,1,.53-4.76,20.73,20.73,0,0,1,4.39-6c.9-.93,1.72-1.72,2.25-2.21,1-.94,1.15-1.06,1.45-1.11s.49,0,1.76.61c.67.31,1.7.81,2.83,1.41a21,21,0,0,1,6,4.31,8.45,8.45,0,0,1,2,4.36,6.45,6.45,0,0,1-1.26,5.24,6.56,6.56,0,0,1-4.07,2.26,5.43,5.43,0,0,1-4.5-1.07,5.49,5.49,0,0,1-4,2.41h0A6.89,6.89,0,0,1,79.6,142.89Zm2.47-18.64s-.57.56-.9.86c-.52.49-1.33,1.26-2.21,2.18a20,20,0,0,0-4.19,5.63,7.67,7.67,0,0,0-.46,4.24,5.42,5.42,0,0,0,2.36,3.9,5.62,5.62,0,0,0,3.88.75h0a4.39,4.39,0,0,0,3.54-2.44.5.5,0,0,1,.81-.13A4.41,4.41,0,0,0,89,140.47a5.65,5.65,0,0,0,3.45-1.9,5.48,5.48,0,0,0,1-4.45,7.64,7.64,0,0,0-1.75-3.89,20.36,20.36,0,0,0-5.71-4.06c-1.11-.59-2.12-1.08-2.77-1.39C82.87,124.59,82.2,124.28,82.07,124.25Z"/><path class="cls-4" d="M86.21,163.57c5.9,2.66,8.43,9.79,8.43,9.79s-7,2.8-12.92.13-8.43-9.79-8.43-9.79S80.32,160.9,86.21,163.57Z"/><path class="cls-5" d="M88.16,173.81a12.63,12.63,0,0,1-5.18-1c-5.18-2.35-7.39-8.42-7.49-8.68a.5.5,0,0,1,.29-.63c.25-.11,6.28-2.46,11.46-.11s7.4,8.42,7.49,8.68a.5.5,0,0,1-.28.63A18.64,18.64,0,0,1,88.16,173.81Zm-11.54-9.58c.62,1.44,2.78,5.83,6.78,7.63s8.71.54,10.2,0c-.61-1.44-2.77-5.83-6.77-7.64h0C82.83,162.46,78.11,163.74,76.62,164.23Z"/><path class="cls-5" d="M94.26,172.71a.46.46,0,0,1-.2-.05l-18.3-8.27a.51.51,0,0,1-.25-.67.49.49,0,0,1,.66-.24l18.3,8.27a.5.5,0,0,1,.25.66A.51.51,0,0,1,94.26,172.71Z"/><path class="cls-3" d="M97.5,156.81a8.1,8.1,0,0,0-2.25-3.93A20.26,20.26,0,0,0,89,149.27c-1.17-.5-2.23-.89-2.92-1.13-1.25-.45-1.35-.46-1.48-.43h0c-.14,0-.18.05-1.11,1.1-.48.54-1.22,1.4-2,2.4a20.24,20.24,0,0,0-3.71,6.16,8,8,0,0,0-.07,4.53,5.75,5.75,0,0,0,7.26,4.4,4.9,4.9,0,0,0,3.63-3.08,4.88,4.88,0,0,0,4.67.94A5.75,5.75,0,0,0,97.5,156.81Z"/><path class="cls-5" d="M84.71,166a6.15,6.15,0,0,1-6.12-5,8.58,8.58,0,0,1,.07-4.79,21,21,0,0,1,3.8-6.33c.62-.79,1.32-1.63,2-2.43.94-1,1-1.17,1.36-1.25s.49,0,1.8.44c1,.35,2,.75,2.94,1.13a21.17,21.17,0,0,1,6.4,3.72,8.45,8.45,0,0,1,2.37,4.16h0A6.41,6.41,0,0,1,98.6,161a6.61,6.61,0,0,1-3.84,2.64,5.48,5.48,0,0,1-4.59-.64,5.45,5.45,0,0,1-3.71,2.77A6.89,6.89,0,0,1,84.71,166Zm1.34-18.82c0,.05-.52.61-.82,1-.69.78-1.38,1.6-2,2.37a20.3,20.3,0,0,0-3.62,6,7.53,7.53,0,0,0-.06,4.26,5.26,5.26,0,0,0,6.65,4,4.37,4.37,0,0,0,3.28-2.76.51.51,0,0,1,.8-.21,4.41,4.41,0,0,0,4.22.84,5.68,5.68,0,0,0,3.26-2.23,5.48,5.48,0,0,0,.62-4.53h0a7.55,7.55,0,0,0-2.12-3.7,20,20,0,0,0-6.08-3.5c-.9-.38-1.9-.77-2.89-1.12C86.88,147.46,86.17,147.21,86.05,147.2Z"/><path class="cls-4" d="M95.19,158.84C90.72,163.52,91,171.08,91,171.08s7.56,0,12-4.71,4.16-12.23,4.16-12.23S99.66,154.17,95.19,158.84Z"/><path class="cls-5" d="M91,170.36a.5.5,0,0,1-.5-.48c0-.27-.23-6.73,3.71-10.84h0c3.94-4.13,10.42-4.19,10.67-4.19a.5.5,0,0,1,.5.48c0,.27.23,6.73-3.71,10.85S91.23,170.36,91,170.36Zm3.93-10.63c-3,3.17-3.39,8-3.43,9.61,1.57-.1,6.42-.68,9.45-3.85s3.4-8.05,3.43-9.62c-1.56.11-6.42.69-9.45,3.86Z"/><path class="cls-5" d="M91,170.36a.48.48,0,0,1-.34-.13.5.5,0,0,1,0-.71L104.47,155a.5.5,0,0,1,.71,0,.51.51,0,0,1,0,.71L91.31,170.21A.51.51,0,0,1,91,170.36Z"/><path class="cls-4" d="M93.15,116.92c-5.9,2.66-8.43,9.79-8.43,9.79s7,2.8,12.92.13,8.43-9.79,8.43-9.79S99,114.25,93.15,116.92Z"/><path class="cls-5" d="M91.2,127.16A18.64,18.64,0,0,1,84.91,126a.5.5,0,0,1-.28-.63c.09-.26,2.3-6.34,7.49-8.68l.2.46-.2-.46c5.18-2.35,11.21,0,11.46.11a.5.5,0,0,1,.29.63c-.1.26-2.31,6.33-7.49,8.67A12.49,12.49,0,0,1,91.2,127.16Zm-5.44-1.9c1.49.48,6.21,1.76,10.2-.05s6.16-6.19,6.78-7.63c-1.49-.49-6.21-1.77-10.21,0h0C88.53,119.43,86.38,123.82,85.76,125.26Z"/><path class="cls-5" d="M85.1,126.05a.52.52,0,0,1-.46-.29.5.5,0,0,1,.25-.66l18.3-8.28a.5.5,0,0,1,.66.25.51.51,0,0,1-.25.67L85.3,126A.45.45,0,0,1,85.1,126.05Z"/><path class="cls-3" d="M86.1,117.52a4.87,4.87,0,0,0,4.67-.94,4.9,4.9,0,0,0,3.63,3.08,5.75,5.75,0,0,0,7.26-4.41,8,8,0,0,0-.07-4.52,20.24,20.24,0,0,0-3.71-6.16c-.78-1-1.52-1.86-2-2.4-.93-1-1-1.07-1.11-1.11h0c-.13,0-.23,0-1.48.43-.69.24-1.75.63-2.92,1.12a20.45,20.45,0,0,0-6.24,3.62,8,8,0,0,0-2.24,3.93A5.74,5.74,0,0,0,86.1,117.52Z"/><path class="cls-5" d="M94.65,119.36a6.88,6.88,0,0,1-1.75-.22,5.46,5.46,0,0,1-3.71-2.78,5.44,5.44,0,0,1-4.59.64h0A6.22,6.22,0,0,1,80,109a8.45,8.45,0,0,1,2.37-4.16,21.17,21.17,0,0,1,6.4-3.72c1.17-.49,2.25-.89,3-1.13,1.3-.46,1.48-.52,1.77-.45s.44.21,1.38,1.26c.7.8,1.4,1.64,2,2.42a21.1,21.1,0,0,1,3.8,6.34,8.58,8.58,0,0,1,.07,4.79A6.14,6.14,0,0,1,94.65,119.36Zm-5.25-4.28.12,0a.5.5,0,0,1,.35.31,4.37,4.37,0,0,0,3.28,2.76,5.26,5.26,0,0,0,6.65-4,7.53,7.53,0,0,0-.06-4.26,20.3,20.3,0,0,0-3.62-6c-.61-.77-1.3-1.59-2-2.37-.3-.34-.8-.9-.9-1s-.75.28-1.17.43c-.69.24-1.75.63-2.89,1.11a20.16,20.16,0,0,0-6.08,3.51,7.45,7.45,0,0,0-2.11,3.7A5.27,5.27,0,0,0,84.85,116a4.43,4.43,0,0,0,4.22-.84A.5.5,0,0,1,89.4,115.08Z"/><path class="cls-4" d="M84.17,112.19c4.47,4.68,4.16,12.24,4.16,12.24s-7.56,0-12-4.71-4.16-12.23-4.16-12.23S79.7,107.52,84.17,112.19Z"/><path class="cls-5" d="M88.41,123.71h0c-.28,0-6.74-.07-10.67-4.18S74,109,74,108.68a.5.5,0,0,1,.5-.48h0c.28,0,6.74.07,10.67,4.19h0c3.94,4.11,3.72,10.57,3.71,10.84A.5.5,0,0,1,88.41,123.71ZM75,109.22c0,1.57.4,6.45,3.43,9.62s7.89,3.75,9.45,3.85c0-1.57-.4-6.44-3.43-9.61h0C81.45,109.91,76.59,109.33,75,109.22Z"/><path class="cls-5" d="M88.41,123.71a.51.51,0,0,1-.36-.15L74.17,109.05a.5.5,0,0,1,.72-.7l13.88,14.52a.5.5,0,0,1,0,.7A.49.49,0,0,1,88.41,123.71Z"/><path d="M140.28,144.36s-.1,12.1-1.31,14.11-8.35,6.08-8.35,6.08a20.66,20.66,0,0,1,.48-16.09.34.34,0,0,0-.4-.46l-2.16.52s-8.91,2.64-10.13.21c0,0,2.3-5.59,5.13-8.13a16.77,16.77,0,0,1,5.37-3.36,15.75,15.75,0,0,1,3.41,1,17.93,17.93,0,0,1,3.61,3.91l1.22,1.91Z"/><path d="M144.73,144.76s-.86,9.08,0,11.16,2.26,5.89,3.82,6.93a16.5,16.5,0,0,0,4.22,1.7s1.93-6.64,1.28-9.72a45.9,45.9,0,0,0-2.08-6.59,37.8,37.8,0,0,1,4.38.89,40.5,40.5,0,0,1,5.53,2.5l1.11-2.69-4-7.87-2.72-2.36L151.07,141l-4.3,4Z"/><path d="M131.34,244.28c-2.7,0-6.17-2.35-9.23-6.36-2.64-3.46-4.54-8.86-6.21-13.61-.76-2.16-1.48-4.19-2.15-5.69-1.72-3.82-2.09-9.87-2.17-12.39-1.18.52-3.17,1.39-5.15,2.15-3.36,1.29-9.65-1.09-13.81-2.66-3.76-1.41-11-3.3-13.32-3.9-3.13,13-14.39,19.76-16.64,21-.11,1.13-.34,2.33-.58,3.59-.71,3.72-1.43,7.57.48,10.23.31.43.64.83.94,1.19.87,1,1.68,2,1.44,3.16-.19.88-1,1.61-2.48,2.35a6.29,6.29,0,0,1-5.14.18,4.32,4.32,0,0,1-2.47-2.76c0-.06-2.12-7.07-3.3-10.87s-1.35-15.29,2.07-18.71c2-1.95,1.76-5.28,1.47-10.33-.13-2.14-.27-4.58-.27-7.34,0-9.77,9.34-16.62,14.86-19.12,3.22-1.47,11.09-.92,18.7-.38,5.14.36,10,.7,12.46.32,6.07-.94,21.86-5.5,23.39-6.57a90.93,90.93,0,0,1,6.63-7.05.75.75,0,0,1,1.06,0,.75.75,0,0,1,0,1.06,90.26,90.26,0,0,0-6.41,6.78c-.78,1.57-19.85,6.55-24.43,7.26-2.63.4-7.57.06-12.79-.31-7.09-.49-15.11-1.05-18,.25-5.19,2.36-14,8.76-14,17.76,0,2.72.14,5.13.26,7.26.32,5.45.52,9.05-1.89,11.47C51.9,215,51.83,225.75,53,229.44s3.3,10.83,3.32,10.91a2.79,2.79,0,0,0,1.62,1.79A4.87,4.87,0,0,0,61.8,242c1.35-.66,1.63-1.11,1.67-1.32.09-.42-.5-1.13-1.12-1.88-.33-.39-.67-.81-1-1.27-2.29-3.19-1.46-7.55-.74-11.39a37.46,37.46,0,0,0,.61-3.85.74.74,0,0,1,.41-.61c.13-.06,13.43-6.95,16.38-20.91a.77.77,0,0,1,.34-.48.74.74,0,0,1,.58-.1c.39.1,9.65,2.42,14.23,4.15,3.71,1.4,9.92,3.74,12.74,2.66,3-1.16,6.07-2.57,6.1-2.58a.75.75,0,0,1,1.06.68c0,.08,0,8.4,2.06,12.93.7,1.55,1.43,3.61,2.2,5.8,1.64,4.65,3.5,9.93,6,13.2,3.59,4.71,7.11,6.23,8.86,5.65.82-.28,1.24-.55,1.31-.86s-.08-1.49-3.25-4.51c-4-3.84-5.91-16-4.83-23.82.42-3.05,1.23-5.32,2.41-6.74,1.65-2,2.39-3,2.72-3.51a.74.74,0,0,1,.26-.88.88.88,0,0,1,1.26,0c.52.55.52,1-3.09,5.33a12.34,12.34,0,0,0-2.07,6c-1.13,8.19,1,19.35,4.38,22.53,2.88,2.75,4,4.52,3.67,5.92-.25,1.14-1.36,1.64-2.3,2A3.88,3.88,0,0,1,131.34,244.28Z"/><path d="M145.32,240.44a6.85,6.85,0,0,1-3.38-1.15c-5.86-3.52-11.32-14.55-11.84-15.62-.61-.82-6.12-8.37-4.22-12.67l1.37.61c-1.34,3,2.5,9.12,4.09,11.21l.08.13c.05.12,5.64,11.66,11.29,15.05,1.13.68,2.66,1.34,3.52.64A3.2,3.2,0,0,0,147,236c-1.9-1.44-6.53-7.85-7.3-9-2.58-3.9-3.28-14.57-3.31-15s-.45-13.77,2.24-18.17c2.48-4.05,3.7-18.06,3.71-18.2l1.49.13c-.05.59-1.26,14.5-3.92,18.86-2.45,4-2,17.17-2,17.31s.7,10.69,3.06,14.26a65.32,65.32,0,0,0,6.9,8.7.87.87,0,0,1,.54.58,4.59,4.59,0,0,1-1.18,4.35A2.87,2.87,0,0,1,145.32,240.44Zm1.71-4.37a.66.66,0,0,0,.54.25A1.08,1.08,0,0,1,147,236.07Zm.84-1.17Zm-.3-.08h0Z"/><path d="M37.09,238a6.61,6.61,0,0,1-3.21-.92c-2.81-1.59-4.64-4.7-4.25-7.25.53-3.49,4.29-9.38,7.32-11.46,2-1.38,3.18-3.5,4.31-5.56,1.28-2.35,2.49-4.57,4.84-5.4,3.08-1.08,7.46-8.12,8.89-10.74l1.31.72c-.22.4-5.46,9.94-9.7,11.44-1.81.64-2.84,2.52-4,4.7s-2.46,4.5-4.77,6.08c-2.72,1.86-6.22,7.32-6.69,10.45-.29,1.93,1.25,4.44,3.51,5.72a4.07,4.07,0,0,0,4.73-.11c.51-.43.51-1.09.46-2.14a6.74,6.74,0,0,1,.11-1.95c.87-3.26,4.31-8.28,6.95-10.13.58-.4,1.13-.76,1.64-1.09,1.33-.87,2.48-1.62,2.58-2.24l1.48.22c-.2,1.29-1.47,2.12-3.24,3.27-.5.33-1,.68-1.6,1.07A21.14,21.14,0,0,0,41.37,232a5.47,5.47,0,0,0-.06,1.49c0,1.09.11,2.44-1,3.36A5,5,0,0,1,37.09,238Z"/><path class="cls-5" d="M56.42,189.7a.8.8,0,0,1-.3-.06c-7.18-3.12-11.79-8.25-13.72-15.26s-.13-13.24,5.29-17.68a14.36,14.36,0,0,1,8.84-3.54h0a10.27,10.27,0,0,1,8.51,4.63,6.59,6.59,0,0,1,1,3s.11,2.17-.86,2.54a.92.92,0,0,1-1.08-.36c-1.66-2.18-4.85-3.94-7.93-2.64-3.39,1.43-4.85,5.55-5.07,8.64-.46,6.3,4.6,10.26,9.84,10.92a.75.75,0,0,1,.65.84.76.76,0,0,1-.84.65c-6.92-.87-11.61-6.14-11.15-12.51.26-3.52,2-8.23,6-9.92,3.37-1.42,6.81,0,8.94,2.23,0-.13,0-.23,0-.3a5.09,5.09,0,0,0-.8-2.3,8.89,8.89,0,0,0-7.25-3.93h0a12.85,12.85,0,0,0-7.89,3.2c-4.93,4-6.59,9.62-4.8,16.12s6,11.32,12.88,14.29a.75.75,0,0,1-.3,1.43Z"/><path d="M140.28,169.23s-.25-1.42,2.34-1.17,2.77.92,2.72,1.17-.47,2.66-1.31,2.91a1.55,1.55,0,0,1-1.22,0S141.2,172.06,140.28,169.23Z"/><path class="cls-5" d="M113.6,172.25s-5.13,12.11-11.79,14.17c-9.33,2.88-15.6,2.85-18.36,2.51-4.34-.53-12.71-8.09-4.8-14.5C78.65,174.43,97.38,175.23,113.6,172.25Z"/><path class="cls-5" d="M86.34,189.84a25,25,0,0,1-3-.16c-3.08-.38-7.35-3.65-8.44-7.46-.61-2.12-.54-5.29,3.26-8.38a.79.79,0,0,1,.51-.16c.18,0,18.84.76,34.79-2.16a.75.75,0,0,1,.72.26.76.76,0,0,1,.1.77c-.21.5-5.34,12.44-12.26,14.58A53.57,53.57,0,0,1,86.34,189.84ZM78.9,175.19c-2.37,2-3.23,4.24-2.55,6.62a10.05,10.05,0,0,0,7.19,6.38c2.15.26,8.22.55,18-2.49,5-1.55,9.22-9.35,10.73-12.46C97.64,175.72,81.27,175.27,78.9,175.19Z"/><path class="cls-6" d="M123.44,165.59c-3.68,1.93,2.42,6.75,3.68,7.83,3.67,3.12,7.3,6.22,10.83,9.5,1.09,1,1.8,2.34,3.5,2.45,2,.13,4.27-2.3,2.57-3.82-4.49-4-8.78-8.35-13.53-12.11C129.05,168.24,125.75,164.37,123.44,165.59Z"/><path d="M140.25,185.39a1.83,1.83,0,0,1-.33,0,4.54,4.54,0,0,1-2.84-1.77c-.2-.22-.4-.43-.61-.64-3.12-2.93-6.33-5.72-9.44-8.42l-.21-.18c-2.16-1.85-4.6-4.21-4.35-6.11a2.1,2.1,0,0,1,1.3-1.66h0c2-1,4.46,1.37,6.08,2.92.3.29.57.54.79.73,2.75,2.24,5.39,4.73,8,7.14,1.29,1.21,2.59,2.43,3.89,3.62a2.19,2.19,0,0,1,.6,2.63A3.17,3.17,0,0,1,140.25,185.39Zm-15.83-17.45c-.43.2-.45.41-.47.5-.07.61.53,1.94,3.84,4.78l.22.19c3.12,2.71,6.34,5.51,9.48,8.46.24.23.47.47.69.71a3.11,3.11,0,0,0,1.92,1.3,1.68,1.68,0,0,0,1.61-.87.71.71,0,0,0-.23-.9c-1.32-1.2-2.62-2.42-3.92-3.64-2.54-2.39-5.16-4.86-7.88-7.08-.25-.21-.54-.48-.87-.8-1.08-1-3.33-3.18-4.39-2.65Z"/><path class="cls-6" d="M124,166.6s-7.37-3.41-4-13.53C120,153.07,129.12,159.34,124,166.6Z"/><path class="cls-6" d="M107.15,166.6s5,6.36,14.09.73C121.24,167.33,113,159.9,107.15,166.6Z"/><path d="M122.91,168.44l-.57-.26c-.07,0-7.15-3.44-4-13l.32-.95.82.57c.18.12,4.43,3.08,5.19,7.33a7.52,7.52,0,0,1-1.42,5.81Zm-3.43-11.76c-1.61,6.13,1.58,8.94,2.93,9.82a6,6,0,0,0,.81-4.11C122.76,159.81,120.66,157.7,119.48,156.68Z"/><path d="M114.64,171.15a9.1,9.1,0,0,1-5.93-2.18l-.45-.43.35-.52a7.48,7.48,0,0,1,4.92-3.41c4.24-.81,8.52,2.11,8.7,2.23l.82.57-.77.63A12,12,0,0,1,114.64,171.15Zm-4.38-2.85c1.31.94,5.09,2.9,10.21-.76-1.37-.75-4.09-1.95-6.67-1.45A5.85,5.85,0,0,0,110.26,168.3Z"/><path d="M142.8,176.8a12,12,0,0,1-9.74-5.1,29.17,29.17,0,0,1-4.36-17.82,18.17,18.17,0,0,1,2.36-6.77c-.41-.15-.86-.26-1.08-.12-1,.54-8.3,2.78-10.3,1.68a1.29,1.29,0,0,1-.71-1.09c-.14-3,6.56-8.69,7.9-9.8a3.75,3.75,0,0,1,3.29-1.26c3.4.43,6.61,5.45,7.44,6.85l8.74.79a7.87,7.87,0,0,1,1.68-1.87c.51-.42,5-4.12,8.23-4.33,3.45-.25,7.34,10.24,7.49,12.06a.78.78,0,0,1,0,.3,2.47,2.47,0,0,1-1.46,1.5,2.91,2.91,0,0,1-2.62-.6c-1.43-1-4.53-1.67-6.35-2a19.26,19.26,0,0,1,1.53,5.54c.37,3.76-.59,8-3.69,16.28a8.41,8.41,0,0,1-7.21,5.7A10.14,10.14,0,0,1,142.8,176.8Zm-10.3-29.17a16,16,0,0,0-2.3,6.39,27.89,27.89,0,0,0,4.12,16.86,10.39,10.39,0,0,0,9.41,4.37,7,7,0,0,0,6-4.73c3-8,3.94-12.11,3.59-15.62a18.51,18.51,0,0,0-2-6.29.77.77,0,0,1,0-.79.74.74,0,0,1,.72-.32c.25,0,6,.84,8.4,2.49a1.64,1.64,0,0,0,1.3.41.86.86,0,0,0,.45-.43,27,27,0,0,0-2.33-6.08c-1.82-3.57-3.07-4.46-3.54-4.43-2.22.14-5.79,2.67-7.37,4a5.47,5.47,0,0,0-1.52,1.8.75.75,0,0,1-.76.45l-9.62-.86a.76.76,0,0,1-.59-.38c-.93-1.68-3.93-6.12-6.52-6.44a2.36,2.36,0,0,0-2.07.86c-3.1,2.57-7.31,6.79-7.43,8.53,1.15.53,7.53-1,8.76-1.72a3.34,3.34,0,0,1,2.9.24.81.81,0,0,1,.33-.13.91.91,0,0,1,1,.59.93.93,0,0,1-.17,1A.84.84,0,0,1,132.5,147.63Z"/><path class="cls-1" d="M134.49,154.14a.75.75,0,0,1-.18-1.48,8.46,8.46,0,0,1,3-.33.75.75,0,0,1,.53.92.74.74,0,0,1-.92.53,9.52,9.52,0,0,0-2.21.33Z"/><path class="cls-1" d="M149.06,154a.73.73,0,0,1-.35-.09,9.53,9.53,0,0,0-2.24-.18.74.74,0,0,1-.76-.74.76.76,0,0,1,.75-.76,8.66,8.66,0,0,1,2.95.35.75.75,0,0,1-.35,1.42Z"/><path class="cls-7" d="M54.14,268.67l3.62-9.59,3.44-7.26,38.17-14.07L124,242.66l19.07-5s13-8.57,17.78-8.4l11.16.33,11.64-2.33V276.4L43.53,278.14Z"/><path d="M183.28,278.89H46.76l0-.7c-.18-2.86,28.67-17,45.51-18.84l13-5.79,19.38-9.7,18.49-5c1.47-1.09,14.52-10.54,22.91-9.06a50,50,0,0,0,16.37-.14l.9-.18Zm-135.13-.51Zm1.19-1H181.78V231.28a50.82,50.82,0,0,1-16,0c-8.09-1.43-21.73,8.76-21.86,8.86l-.12.09-18.69,5.06-19.21,9.64-13.37,5.9C76.49,262.56,54.72,273.68,49.34,277.39Z"/><path d="M71,278.82l-.62-1.36c.79-.36,19.49-8.81,29.12-11,9.08-2,25.63-3.81,27.56-4l13.67-9,.26,0c.55.06,13.19,1.36,18.54,6.23l8.77-2.9,14.17-.67.07,1.49-14.07.67-9.34,3.12-.33-.33c-4.38-4.38-15.82-5.87-17.7-6.09l-13.52,8.92h-.18c-.18,0-18.06,1.9-27.57,4S71.22,278.74,71,278.82Z"/><path d="M105.87,276.75l-.67-1.34c.85-.43,21-10.37,30.87-10,9.28.36,26,2.63,27.75,2.87l11.54-2.89h7.17v1.5h-7.07l-11.55,2.91-.15,0c-.18,0-18.07-2.5-27.74-2.88h-.53C125.76,266.93,106.07,276.65,105.87,276.75Z"/><path d="M58.48,272,57,271.6,62,253.73l.32-.15c1.11-.51,27.38-12.72,33.81-14.72,6.61-2,28,4.72,28.94,5l-.46,1.43c-.22-.07-21.87-6.9-28-5-6,1.84-30.26,13.08-33.32,14.5Z"/><path class="cls-4" d="M101.51,65.14c3.21,5.62,1.08,12.88,1.08,12.88s-7.33-1.86-10.54-7.48S91,57.66,91,57.66,98.31,59.52,101.51,65.14Z"/><path class="cls-5" d="M103,77.36h-.12c-.27-.07-6.52-1.7-9.35-6.65s-1-11.16-1-11.42a.49.49,0,0,1,.6-.34c.26.06,6.52,1.7,9.34,6.64h0c2.82,4.94,1,11.16,1,11.42A.5.5,0,0,1,103,77.36ZM93.37,60.05c-.35,1.53-1.18,6.34,1,10.16s6.75,5.54,8.24,6c.35-1.53,1.18-6.34-1-10.15h0C99.43,62.26,94.86,60.53,93.37,60.05Z"/><path class="cls-5" d="M103,77.36a.52.52,0,0,1-.44-.25l-10-17.44a.5.5,0,0,1,.19-.68.49.49,0,0,1,.68.18l10,17.44a.51.51,0,0,1-.18.69A.57.57,0,0,1,103,77.36Z"/><path class="cls-4" d="M116.68,68.87c-6.37,1.16-10.55,7.46-10.55,7.46s6.13,4.41,12.5,3.25,10.55-7.45,10.55-7.45S123,67.71,116.68,68.87Z"/><path class="cls-5" d="M115.59,78.76a17.49,17.49,0,0,1-9.11-3.05.5.5,0,0,1-.12-.69c.15-.22,3.77-5.58,9.37-6.6s10.87,2.72,11.09,2.88A.49.49,0,0,1,127,72c-.15.23-3.77,5.58-9.37,6.6A10.45,10.45,0,0,1,115.59,78.76Zm-8.1-3.59c1.32.83,5.6,3.21,9.91,2.43s7.47-4.52,8.42-5.77c-1.33-.83-5.6-3.21-9.91-2.43h0C111.58,70.19,108.43,73.92,107.49,75.17Zm8.33-6.26h0Z"/><path class="cls-5" d="M106.77,75.8a.51.51,0,0,1-.49-.41.5.5,0,0,1,.41-.58l19.75-3.6a.5.5,0,0,1,.18,1l-19.76,3.6Z"/><path class="cls-3" d="M103.65,70.54a4.89,4.89,0,0,0,4.76.22,4.89,4.89,0,0,0,2.78,3.87,5.75,5.75,0,0,0,8.11-2.52,8.08,8.08,0,0,0,1-4.41,20.52,20.52,0,0,0-2.11-6.88c-.52-1.15-1-2.17-1.37-2.81-.64-1.24-.68-1.27-.8-1.34h0c-.12-.06-.22-.07-1.54.06-.73.07-1.85.19-3.11.39a20.37,20.37,0,0,0-6.93,2,8.08,8.08,0,0,0-3.13,3.27A5.76,5.76,0,0,0,103.65,70.54Z"/><path class="cls-5" d="M113.07,74.6a6.75,6.75,0,0,1-3.21-.84,5.47,5.47,0,0,1-2.93-3.59,5.45,5.45,0,0,1-4.61-.49,6.54,6.54,0,0,1-3.08-3.49,6.41,6.41,0,0,1,.55-5.36,8.49,8.49,0,0,1,3.31-3.46,20.86,20.86,0,0,1,7.11-2.06c1.27-.2,2.4-.32,3.14-.39,1.4-.13,1.56-.14,1.83,0s.37.3,1,1.56c.34.64.86,1.66,1.39,2.83a21,21,0,0,1,2.14,7.07A8.43,8.43,0,0,1,118.64,71a6.14,6.14,0,0,1-5.57,3.56ZM107.32,69a.53.53,0,0,1,.24.06.52.52,0,0,1,.26.39,4.36,4.36,0,0,0,2.51,3.47,5.62,5.62,0,0,0,3.9.58,5.48,5.48,0,0,0,3.54-2.89,7.6,7.6,0,0,0,1-4.15,19.83,19.83,0,0,0-2.06-6.69c-.52-1.16-1-2.16-1.35-2.79-.21-.4-.55-1.06-.64-1.16s-.79.09-1.24.14c-.72.06-1.83.19-3.07.38a19.78,19.78,0,0,0-6.75,1.93,7.48,7.48,0,0,0-3,3.08,5.44,5.44,0,0,0-.49,4.54,5.61,5.61,0,0,0,2.62,3,4.41,4.41,0,0,0,4.29.21A.59.59,0,0,1,107.32,69Z"/><path class="cls-4" d="M81.79,85c-5.89,2.66-8.43,9.79-8.43,9.79s7,2.8,12.92.13,8.43-9.79,8.43-9.79S87.69,82.35,81.79,85Z"/><path class="cls-5" d="M79.84,95.26a18.55,18.55,0,0,1-6.28-1.14.5.5,0,0,1-.29-.63c.09-.26,2.31-6.33,7.49-8.68l.21.46-.21-.46c5.19-2.35,11.21,0,11.47.11a.51.51,0,0,1,.28.63c-.09.26-2.3,6.33-7.49,8.68A12.6,12.6,0,0,1,79.84,95.26Zm-5.44-1.9c1.49.48,6.21,1.76,10.21,0s6.16-6.19,6.77-7.63c-1.49-.49-6.21-1.77-10.21,0h0C77.18,87.53,75,91.92,74.4,93.36Z"/><path class="cls-5" d="M73.74,94.16a.5.5,0,0,1-.2-1l18.29-8.27a.5.5,0,0,1,.67.24.51.51,0,0,1-.25.67L74,94.11A.54.54,0,0,1,73.74,94.16Z"/><path class="cls-3" d="M74.74,85.62a4.9,4.9,0,0,0,4.68-.94,4.88,4.88,0,0,0,3.63,3.08,5.74,5.74,0,0,0,7.25-4.4,8.11,8.11,0,0,0-.06-4.53,20.66,20.66,0,0,0-3.71-6.16c-.79-1-1.53-1.86-2-2.4-.93-1-1-1.07-1.1-1.1h0c-.13,0-.23,0-1.49.43-.68.24-1.75.63-2.92,1.13a20.26,20.26,0,0,0-6.24,3.61,8,8,0,0,0-2.24,3.93A5.75,5.75,0,0,0,74.74,85.62Z"/><path class="cls-5" d="M83.3,87.47a6.77,6.77,0,0,1-1.75-.23,5.45,5.45,0,0,1-3.71-2.77,5.51,5.51,0,0,1-4.6.64,6.59,6.59,0,0,1-3.83-2.64,6.44,6.44,0,0,1-.76-5.34A8.61,8.61,0,0,1,71,73a21.12,21.12,0,0,1,6.41-3.72c1.16-.49,2.24-.88,2.94-1.13,1.3-.46,1.48-.52,1.78-.45s.44.21,1.37,1.26c.71.8,1.41,1.64,2,2.43a20.88,20.88,0,0,1,3.79,6.33,8.4,8.4,0,0,1,.07,4.79A6.14,6.14,0,0,1,83.3,87.47ZM78,83.18l.13,0a.48.48,0,0,1,.34.31,4.37,4.37,0,0,0,3.29,2.76,5.27,5.27,0,0,0,6.65-4A7.62,7.62,0,0,0,88.38,78a19.94,19.94,0,0,0-3.62-6c-.61-.78-1.29-1.6-2-2.38a10.93,10.93,0,0,0-.9-1s-.74.28-1.17.43c-.68.24-1.74.63-2.89,1.12a20.1,20.1,0,0,0-6.08,3.5,7.61,7.61,0,0,0-2.11,3.7,5.44,5.44,0,0,0,.62,4.53,5.66,5.66,0,0,0,3.25,2.23h0a4.39,4.39,0,0,0,4.22-.84A.5.5,0,0,1,78,83.18Z"/><path class="cls-4" d="M72.82,80.29C77.29,85,77,92.53,77,92.53s-7.56,0-12-4.71-4.16-12.23-4.16-12.23S68.34,75.62,72.82,80.29Z"/><path class="cls-5" d="M77.05,91.81c-.23,0-6.72,0-10.67-4.18s-3.72-10.58-3.7-10.85a.5.5,0,0,1,.5-.48c.19,0,6.72.06,10.67,4.19h0c3.93,4.11,3.71,10.57,3.7,10.85A.5.5,0,0,1,77.05,91.81ZM63.68,77.32c0,1.57.39,6.45,3.42,9.62s7.89,3.75,9.45,3.85c0-1.57-.39-6.44-3.42-9.61h0C70.09,78,65.24,77.43,63.68,77.32Z"/><path class="cls-5" d="M77.05,91.81a.51.51,0,0,1-.36-.15L62.81,77.15a.5.5,0,1,1,.73-.69L77.42,91a.49.49,0,0,1-.37.84Z"/><path class="cls-4" d="M130,55.93c-2.37,6-9.36,8.92-9.36,8.92S117.45,58,119.82,52,129.17,43,129.17,43,132.32,49.91,130,55.93Z"/><path class="cls-5" d="M121.74,64.91a.51.51,0,0,1-.46-.29c-.11-.25-2.76-6.15-.68-11.45s8-7.81,8.29-7.92a.49.49,0,0,1,.64.26c.12.25,2.77,6.14.69,11.44s-8,7.81-8.29,7.92A.72.72,0,0,1,121.74,64.91Zm7.07-18.52c-1.4.69-5.68,3.06-7.28,7.15s-.09,8.73.47,10.19c1.41-.69,5.68-3.06,7.28-7.14h0C130.89,52.5,129.38,47.85,128.81,46.39Z"/><path class="cls-5" d="M121.74,64.91a.43.43,0,0,1-.19,0,.51.51,0,0,1-.28-.65l7.34-18.69a.51.51,0,0,1,.65-.28.5.5,0,0,1,.28.65L122.2,64.59A.49.49,0,0,1,121.74,64.91Z"/><path class="cls-3" d="M137.28,66.86a8,8,0,0,0,3.81-2.44A20.24,20.24,0,0,0,144.38,58c.43-1.19.77-2.28,1-3,.38-1.28.39-1.38.35-1.51v0c0-.13-.07-.17-1.16-1-.57-.46-1.46-1.15-2.5-1.89a20.59,20.59,0,0,0-6.34-3.39,8,8,0,0,0-4.52.16,5.73,5.73,0,0,0-4,7.47,4.88,4.88,0,0,0,3.25,3.47,4.91,4.91,0,0,0-.7,4.71A5.75,5.75,0,0,0,137.28,66.86Z"/><path class="cls-5" d="M136.21,69a6.21,6.21,0,0,1-5.91-4.55,5.49,5.49,0,0,1,.41-4.63,5.41,5.41,0,0,1-3-3.56,6.51,6.51,0,0,1,.22-4.65,6.45,6.45,0,0,1,4.14-3.45A8.58,8.58,0,0,1,136.9,48a20.94,20.94,0,0,1,6.51,3.48c1.05.74,2,1.44,2.52,1.9,1.11.88,1.23,1,1.32,1.29s.05.49-.34,1.81c-.21.71-.56,1.81-1,3a21,21,0,0,1-3.39,6.58,8.51,8.51,0,0,1-4,2.58h0A7.73,7.73,0,0,1,136.21,69Zm2.13-.85h0Zm-3.57-19.42a7.72,7.72,0,0,0-2.36.39,5.45,5.45,0,0,0-3.53,2.9A5.66,5.66,0,0,0,128.7,56a4.39,4.39,0,0,0,2.93,3.14.54.54,0,0,1,.33.33.48.48,0,0,1-.09.46,4.44,4.44,0,0,0-.62,4.26,5.28,5.28,0,0,0,6.95,3.53h0a7.61,7.61,0,0,0,3.6-2.3A20.11,20.11,0,0,0,145,59.16c.42-1.17.76-2.25,1-2.94.11-.39.3-1,.34-1.22-.15-.16-.66-.57-1-.82-.56-.45-1.45-1.14-2.48-1.87A20,20,0,0,0,136.67,49,8,8,0,0,0,134.77,48.76Z"/><path class="cls-4" d="M135.13,64.66c-4.9-4.23-12.43-3.54-12.43-3.54s.41,7.55,5.3,11.78,12.43,3.54,12.43,3.54S140,68.89,135.13,64.66Z"/><path class="cls-5" d="M138,74.65c-2.09,0-6.6-.36-9.88-3.19-4.31-3.73-4.71-10.18-4.72-10.45a.5.5,0,0,1,.45-.53c.28,0,6.72-.56,11,3.16h0c4.31,3.72,4.7,10.17,4.72,10.45a.5.5,0,0,1-.45.52C139.08,74.62,138.66,74.65,138,74.65ZM124.45,61.46c.19,1.55,1,6.37,4.33,9.24s8.21,3,9.77,2.94c-.18-1.56-1-6.38-4.32-9.24h0C130.91,61.53,126,61.41,124.45,61.46Z"/><path class="cls-5" d="M139.1,74.61a.52.52,0,0,1-.33-.12L123.58,61.36a.5.5,0,0,1,.65-.76l15.2,13.13a.51.51,0,0,1,0,.71A.52.52,0,0,1,139.1,74.61Z"/><path class="cls-4" d="M153.88,107.54c-6-2.37-8.91-9.35-8.91-9.35s6.88-3.15,12.9-.78,8.91,9.36,8.91,9.36S159.9,109.91,153.88,107.54Z"/><path class="cls-5" d="M157.33,108.6a12.12,12.12,0,0,1-4.47-.8c-5.29-2.08-7.8-8-7.91-8.29a.51.51,0,0,1,.26-.65c.24-.11,6.14-2.76,11.44-.67s7.81,8,7.91,8.29a.51.51,0,0,1-.25.65A18.56,18.56,0,0,1,157.33,108.6Zm-11.24-9c.68,1.41,3.06,5.69,7.14,7.29s8.73.1,10.2-.46c-.69-1.41-3.06-5.68-7.15-7.29S147.55,99,146.09,99.58Z"/><path class="cls-5" d="M164.1,107.17a.57.57,0,0,1-.18,0l-18.69-7.36a.49.49,0,0,1-.28-.64.5.5,0,0,1,.65-.29l18.68,7.36a.5.5,0,0,1-.18,1Z"/><path class="cls-3" d="M143,114.86a8.08,8.08,0,0,0,2.43,3.81,20.62,20.62,0,0,0,6.42,3.3c1.19.43,2.27.77,3,1,1.28.38,1.38.39,1.5.35h0c.14,0,.18-.07,1.05-1.16.45-.57,1.15-1.46,1.89-2.49a20.73,20.73,0,0,0,3.39-6.35,8,8,0,0,0-.15-4.52,5.75,5.75,0,0,0-7.47-4,4.87,4.87,0,0,0-3.47,3.26,4.92,4.92,0,0,0-4.72-.71A5.75,5.75,0,0,0,143,114.86Z"/><path class="cls-5" d="M154.86,124.89a7.56,7.56,0,0,1-1.56-.4c-.7-.21-1.79-.55-3-1a21,21,0,0,1-6.57-3.4,8.47,8.47,0,0,1-2.58-4h0a6.23,6.23,0,0,1,4.19-8.19,5.47,5.47,0,0,1,4.62.41,5.49,5.49,0,0,1,3.57-3,6.23,6.23,0,0,1,8.09,4.37,8.49,8.49,0,0,1,.17,4.79,21.16,21.16,0,0,1-3.48,6.51c-.74,1-1.44,2-1.9,2.52-.88,1.1-1,1.23-1.29,1.32A.8.8,0,0,1,154.86,124.89Zm-12.76-9.11a7.63,7.63,0,0,0,2.3,3.59,20.35,20.35,0,0,0,6.24,3.2c1.19.42,2.26.76,3,1,.43.12,1.15.34,1.27.35s.49-.64.77-1c.45-.57,1.14-1.45,1.87-2.48a20.08,20.08,0,0,0,3.31-6.16,7.53,7.53,0,0,0-.14-4.26,5.27,5.27,0,0,0-6.85-3.71,4.4,4.4,0,0,0-3.14,2.92.5.5,0,0,1-.33.33.51.51,0,0,1-.46-.08,4.39,4.39,0,0,0-4.25-.62,5.28,5.28,0,0,0-3.54,6.94Z"/><path class="cls-4" d="M145.15,112.71c4.24-4.89,3.55-12.42,3.55-12.42s-7.55.4-11.79,5.29S133.37,118,133.37,118,140.92,117.6,145.15,112.71Z"/><path class="cls-5" d="M135.7,117.18a.5.5,0,0,1-.5-.46c0-.27-.57-6.71,3.16-11S148.54,101,148.81,101a.5.5,0,0,1,.52.46c0,.27.57,6.71-3.16,11h0c-3.72,4.31-10.17,4.7-10.45,4.72ZM148.36,102c-1.55.18-6.37,1-9.24,4.32s-3,8.2-3,9.77c1.56-.18,6.38-1,9.25-4.32h0C148.29,108.49,148.41,103.61,148.36,102Z"/><path class="cls-5" d="M135.7,117.18a.46.46,0,0,1-.33-.13.49.49,0,0,1-.05-.7l13.14-15.19a.5.5,0,1,1,.75.66L136.07,117A.46.46,0,0,1,135.7,117.18Z"/><path d="M183.88,280.58h-173V10.85h173Zm-169-4h165V14.85h-165Z"/></svg>