<svg id="圖層_1" data-name="圖層 1" xmlns="http://www.w3.org/2000/svg" viewBox="0 0 194.94 294.58"><defs><style>.cls-1{fill:#fff;}.cls-2{fill:#170000;}.cls-3{fill:#da003a;}.cls-4{fill:#4fad28;}.cls-5{fill:#231815;}.cls-6{fill:#c21823;}.cls-7{fill:#ffb4c0;}</style></defs><title>新接龍</title><rect class="cls-1" x="12.88" y="12.85" width="169" height="265.73"/><path d="M183.88,280.58h-173V10.85h173Zm-169-4h165V14.85h-165Z"/><path class="cls-2" d="M35,26.29a4.65,4.65,0,0,1,1.73,2.12,7.65,7.65,0,0,1,.58,3,10.53,10.53,0,0,1-4.07,8.4,8.81,8.81,0,0,1-3.84,1.71L29,40.67a8.28,8.28,0,0,0,3.79-2.47,9.15,9.15,0,0,0,2-4,4.43,4.43,0,0,1-3.24,1.4A4.81,4.81,0,0,1,29.11,35a4.08,4.08,0,0,1-1.6-1.69A5.53,5.53,0,0,1,27,30.81a5.61,5.61,0,0,1,.63-2.63,5,5,0,0,1,1.82-1.93,5.18,5.18,0,0,1,2.79-.73A5,5,0,0,1,35,26.29Zm-1.17,7.6A2.76,2.76,0,0,0,35,32.8l.06-.92A9.58,9.58,0,0,0,34.4,28a2.6,2.6,0,0,0-3.93-.89,3.35,3.35,0,0,0-1,1.44,5.23,5.23,0,0,0-.32,1.86,5,5,0,0,0,.75,3,2.42,2.42,0,0,0,2,1A3.54,3.54,0,0,0,33.87,33.89Z"/><path class="cls-3" d="M167.94,23.05a4.11,4.11,0,0,0-3.6,1.74,4.07,4.07,0,0,0-3.58-1.74,4.81,4.81,0,0,0-5,5.08,6.75,6.75,0,0,0,1,3.66,17.39,17.39,0,0,0,4.3,4.22c.84.64,1.62,1.19,2.13,1.53,1,.65,1,.66,1.12.66h0c.11,0,.18,0,1.11-.66.51-.34,1.29-.88,2.13-1.52a17.3,17.3,0,0,0,4.31-4.23,6.72,6.72,0,0,0,1-3.66A4.81,4.81,0,0,0,167.94,23.05Z"/><path class="cls-4" d="M88.11,105.24c6,2.52,8.69,9.57,8.69,9.57s-7,3-12.92.47-8.68-9.57-8.68-9.57S82.15,102.73,88.11,105.24Z"/><path class="cls-5" d="M89.93,115.44a12.34,12.34,0,0,1-4.8-.91c-5.25-2.21-7.62-8.22-7.72-8.48a.52.52,0,0,1,.27-.64c.25-.11,6.22-2.61,11.46-.4s7.61,8.22,7.71,8.48a.5.5,0,0,1-.27.64A18.62,18.62,0,0,1,89.93,115.44Zm-11.38-9.29c.65,1.42,2.92,5.75,7,7.46s8.73.31,10.21-.22c-.66-1.42-2.93-5.76-7-7.46h0C84.7,104.22,80,105.62,78.55,106.15Z"/><path class="cls-5" d="M96.38,114.17a.43.43,0,0,1-.19,0l-18.5-7.8a.5.5,0,1,1,.38-.92l18.51,7.8a.51.51,0,0,1,.27.65A.52.52,0,0,1,96.38,114.17Z"/><path class="cls-4" d="M102.42,99c-4.35,4.79-3.85,12.34-3.85,12.34s7.56-.22,11.91-5S114.33,94,114.33,94,106.77,94.19,102.42,99Z"/><path class="cls-5" d="M98.47,110.61a.49.49,0,0,1-.5-.47c0-.27-.41-6.72,3.42-10.94s10.29-4.45,10.56-4.46a.51.51,0,0,1,.51.47c0,.27.41,6.73-3.42,10.94s-10.29,4.45-10.56,4.46Zm13-14.83c-1.56.14-6.4.85-9.35,4.1S98.94,108,99,109.57c1.56-.14,6.4-.84,9.35-4.09S111.48,97.35,111.48,95.78Z"/><path class="cls-5" d="M98.47,110.61a.5.5,0,0,1-.37-.84l13.49-14.86a.51.51,0,0,1,.71,0,.5.5,0,0,1,0,.71L98.84,110.45A.5.5,0,0,1,98.47,110.61Z"/><path class="cls-3" d="M93.09,108.23A4.87,4.87,0,0,0,97,105.51a4.89,4.89,0,0,0,4.56,1.38,5.75,5.75,0,0,0,4.91-6.93,8.13,8.13,0,0,0-1.86-4.12,20.53,20.53,0,0,0-5.86-4.18c-1.11-.6-2.13-1.1-2.79-1.41-1.27-.59-1.32-.59-1.45-.57h0c-.13,0-.21.07-1.19,1-.53.5-1.35,1.28-2.23,2.19a20.66,20.66,0,0,0-4.29,5.8,8.05,8.05,0,0,0-.49,4.5A5.75,5.75,0,0,0,93.09,108.23Z"/><path class="cls-5" d="M90.4,108.44a6.18,6.18,0,0,1-6.27-5.58,8.43,8.43,0,0,1,.52-4.76A21,21,0,0,1,89,92.15c.88-.92,1.71-1.71,2.25-2.22,1-.94,1.16-1.06,1.46-1.11s.48,0,1.76.61c.66.31,1.69.81,2.82,1.42a21,21,0,0,1,6,4.3,8.45,8.45,0,0,1,2,4.36A6.22,6.22,0,0,1,100,107a5.46,5.46,0,0,1-4.51-1.07,5.43,5.43,0,0,1-4,2.41h0A6.92,6.92,0,0,1,90.4,108.44ZM92.88,89.8s-.58.56-.91.87c-.53.49-1.34,1.27-2.2,2.17a20,20,0,0,0-4.19,5.63,7.6,7.6,0,0,0-.47,4.24,5.5,5.5,0,0,0,2.37,3.91,5.7,5.7,0,0,0,3.87.75h0a4.41,4.41,0,0,0,3.54-2.45.49.49,0,0,1,.38-.27.49.49,0,0,1,.44.15A4.42,4.42,0,0,0,99.82,106a5.27,5.27,0,0,0,4.49-6.36,7.49,7.49,0,0,0-1.75-3.88,20,20,0,0,0-5.7-4.06c-1.12-.6-2.13-1.09-2.77-1.39C93.68,90.15,93,89.83,92.88,89.8Z"/><path class="cls-4" d="M49.46,72.37C53.93,77,53.62,84.6,53.62,84.6s-7.56,0-12-4.71-4.16-12.23-4.16-12.23S45,67.69,49.46,72.37Z"/><path class="cls-5" d="M53.7,83.89h0c-.28,0-6.74-.08-10.67-4.19s-3.72-10.57-3.71-10.85a.47.47,0,0,1,.5-.48c.28,0,6.74.07,10.67,4.19s3.72,10.57,3.71,10.85A.5.5,0,0,1,53.7,83.89ZM40.32,69.4c0,1.56.4,6.44,3.43,9.61s7.89,3.75,9.45,3.85c0-1.56-.39-6.44-3.43-9.61h0C46.73,70.07,41.88,69.5,40.32,69.4Z"/><path class="cls-5" d="M53.7,83.89a.52.52,0,0,1-.36-.16L39.46,69.22a.5.5,0,0,1,0-.71.49.49,0,0,1,.7,0L54.06,83a.51.51,0,0,1,0,.71A.54.54,0,0,1,53.7,83.89Z"/><path class="cls-4" d="M65.07,72.31C59.18,75,56.64,82.1,56.64,82.1s7,2.8,12.92.14S78,72.45,78,72.45,71,69.64,65.07,72.31Z"/><path class="cls-5" d="M63.12,82.56a18.43,18.43,0,0,1-6.28-1.15.5.5,0,0,1-.29-.63c.1-.26,2.31-6.33,7.49-8.68h0c5.19-2.34,11.21,0,11.47.11a.5.5,0,0,1,.28.63c-.09.26-2.3,6.33-7.49,8.68A12.62,12.62,0,0,1,63.12,82.56Zm-5.44-1.91c1.49.49,6.21,1.77,10.21,0s6.16-6.2,6.77-7.64c-1.49-.49-6.2-1.76-10.2,0S58.3,79.21,57.68,80.65Z"/><path class="cls-5" d="M57,81.45a.49.49,0,0,1-.45-.3.51.51,0,0,1,.25-.66l18.3-8.27a.51.51,0,0,1,.66.25.5.5,0,0,1-.25.66L57.23,81.4A.54.54,0,0,1,57,81.45Z"/><path class="cls-3" d="M52.84,77.09a4.92,4.92,0,0,0,4.67-.94,4.9,4.9,0,0,0,3.63,3.08,5.76,5.76,0,0,0,7.26-4.41,8,8,0,0,0-.07-4.52,20.38,20.38,0,0,0-3.71-6.17c-.78-1-1.52-1.85-2-2.4-.93-1-1-1.06-1.11-1.1h0c-.13,0-.22,0-1.48.43-.69.24-1.75.63-2.92,1.12a20.47,20.47,0,0,0-6.24,3.61,8.05,8.05,0,0,0-2.24,3.93A5.76,5.76,0,0,0,52.84,77.09Z"/><path class="cls-5" d="M61.39,78.93a7.36,7.36,0,0,1-1.75-.22,5.42,5.42,0,0,1-3.7-2.78,5.47,5.47,0,0,1-4.6.64h0a6.55,6.55,0,0,1-3.83-2.64,6.38,6.38,0,0,1-.76-5.33,8.45,8.45,0,0,1,2.37-4.16,20.76,20.76,0,0,1,6.4-3.72c1.17-.49,2.25-.89,2.95-1.14,1.3-.46,1.48-.51,1.77-.44s.44.2,1.38,1.26c.48.55,1.23,1.42,2,2.42a20.89,20.89,0,0,1,3.8,6.34,8.54,8.54,0,0,1,.07,4.78A6.14,6.14,0,0,1,61.39,78.93Zm-5.25-4.28h.12a.51.51,0,0,1,.35.32,4.41,4.41,0,0,0,3.28,2.76,5.27,5.27,0,0,0,6.65-4,7.57,7.57,0,0,0-.06-4.27,20.28,20.28,0,0,0-3.62-6c-.78-1-1.51-1.84-2-2.38-.3-.33-.8-.89-.9-1s-.75.29-1.17.44c-.68.24-1.74.63-2.89,1.11a19.74,19.74,0,0,0-6.08,3.51,7.45,7.45,0,0,0-2.11,3.7,5.45,5.45,0,0,0,.61,4.52,5.64,5.64,0,0,0,3.26,2.23,4.4,4.4,0,0,0,4.22-.83A.5.5,0,0,1,56.14,74.65Z"/><path class="cls-4" d="M93.81,83c6,2.51,8.68,9.57,8.68,9.57s-6.95,3-12.91.46-8.69-9.57-8.69-9.57S87.84,80.46,93.81,83Z"/><path class="cls-5" d="M95.62,93.17a12.32,12.32,0,0,1-4.8-.9c-5.25-2.22-7.62-8.23-7.71-8.49a.48.48,0,0,1,.27-.63c.25-.11,6.21-2.62,11.45-.41h0c5.25,2.21,7.61,8.23,7.71,8.48a.49.49,0,0,1-.27.64A18.38,18.38,0,0,1,95.62,93.17ZM84.24,83.89c.65,1.42,2.92,5.75,7,7.45s8.72.31,10.2-.22c-.65-1.42-2.92-5.75-7-7.46h0C90.4,82,85.72,83.36,84.24,83.89Z"/><path class="cls-5" d="M102.08,91.9a.48.48,0,0,1-.2,0l-18.5-7.79a.5.5,0,0,1-.27-.66.52.52,0,0,1,.66-.27l18.5,7.8a.51.51,0,0,1,.27.66A.5.5,0,0,1,102.08,91.9Z"/><path class="cls-4" d="M108.11,76.72c-4.35,4.79-3.84,12.33-3.84,12.33s7.55-.22,11.9-5S120,71.7,120,71.7,112.46,71.93,108.11,76.72Z"/><path class="cls-5" d="M104.16,88.34a.5.5,0,0,1-.5-.46c0-.28-.4-6.73,3.42-10.94s10.29-4.45,10.56-4.46a.54.54,0,0,1,.52.46c0,.28.4,6.73-3.43,10.94s-10.28,4.46-10.56,4.46Zm13-14.83c-1.56.15-6.4.85-9.35,4.1s-3.18,8.13-3.17,9.7c1.56-.15,6.39-.85,9.34-4.1S117.18,75.08,117.17,73.51Z"/><path class="cls-5" d="M104.16,88.34a.5.5,0,0,1-.34-.13.49.49,0,0,1,0-.7l13.5-14.87a.5.5,0,0,1,.74.67l-13.5,14.87A.5.5,0,0,1,104.16,88.34Z"/><path class="cls-3" d="M98.78,86a4.92,4.92,0,0,0,3.92-2.73,4.86,4.86,0,0,0,4.55,1.39,5.76,5.76,0,0,0,4.91-6.93,8,8,0,0,0-1.86-4.13,20.6,20.6,0,0,0-5.85-4.18c-1.12-.6-2.14-1.09-2.8-1.4-1.27-.59-1.31-.59-1.45-.57h0c-.13,0-.22.08-1.19,1-.54.49-1.36,1.27-2.23,2.19a20.38,20.38,0,0,0-4.29,5.79,8,8,0,0,0-.5,4.5A5.76,5.76,0,0,0,98.78,86Z"/><path class="cls-5" d="M96.1,86.18a6.22,6.22,0,0,1-6.28-5.58,8.51,8.51,0,0,1,.52-4.76,20.87,20.87,0,0,1,4.4-6c.88-.92,1.71-1.71,2.25-2.21,1-1,1.15-1.07,1.45-1.12s.49,0,1.76.61c.66.31,1.69.81,2.82,1.42a21,21,0,0,1,6,4.3,8.58,8.58,0,0,1,2,4.37,6.46,6.46,0,0,1-1.26,5.24,6.59,6.59,0,0,1-4.07,2.26,5.45,5.45,0,0,1-4.51-1.08,5.45,5.45,0,0,1-4,2.42h0A6.89,6.89,0,0,1,96.1,86.18Zm1-.59h0Zm1.45-18s-.55.54-.9.86c-.53.49-1.35,1.27-2.21,2.17a20,20,0,0,0-4.19,5.64,7.46,7.46,0,0,0-.46,4.23,5.42,5.42,0,0,0,2.36,3.91,5.66,5.66,0,0,0,3.88.75h0a4.41,4.41,0,0,0,3.54-2.44.48.48,0,0,1,.37-.28.48.48,0,0,1,.44.15,4.41,4.41,0,0,0,4.11,1.23A5.61,5.61,0,0,0,109,81.85,5.47,5.47,0,0,0,110,77.4a7.57,7.57,0,0,0-1.75-3.88,20.16,20.16,0,0,0-5.71-4.06c-1.11-.6-2.12-1.09-2.77-1.39C99.37,67.88,98.69,67.56,98.57,67.54Z"/><path class="cls-4" d="M51.31,107.81c5.9,2.67,8.44,9.79,8.44,9.79s-7,2.8-12.92.13-8.44-9.79-8.44-9.79S45.42,105.14,51.31,107.81Z"/><path class="cls-5" d="M53.27,118.06a12.62,12.62,0,0,1-5.18-1c-5.19-2.35-7.4-8.42-7.49-8.68a.5.5,0,0,1,.28-.63c.26-.1,6.28-2.45,11.47-.11s7.39,8.42,7.49,8.68a.5.5,0,0,1-.29.63A18.5,18.5,0,0,1,53.27,118.06Zm-11.54-9.59c.61,1.44,2.77,5.83,6.77,7.64s8.72.53,10.21,0c-.62-1.44-2.78-5.83-6.78-7.64h0C47.93,106.7,43.21,108,41.73,108.47Z"/><path class="cls-5" d="M59.36,117a.53.53,0,0,1-.2,0l-18.3-8.27a.5.5,0,0,1,.41-.91L59.57,116a.51.51,0,0,1,.25.66A.49.49,0,0,1,59.36,117Z"/><path class="cls-3" d="M65.06,103.85a8.05,8.05,0,0,0-2.24-3.93,20.6,20.6,0,0,0-6.24-3.61c-1.18-.49-2.24-.88-2.92-1.13-1.26-.44-1.36-.46-1.49-.43h0c-.13,0-.18,0-1.1,1.1-.48.54-1.22,1.4-2,2.4a20.57,20.57,0,0,0-3.71,6.16,8,8,0,0,0-.07,4.53,5.75,5.75,0,0,0,7.26,4.4,4.86,4.86,0,0,0,3.63-3.08,4.89,4.89,0,0,0,4.68.94A5.75,5.75,0,0,0,65.06,103.85Z"/><path class="cls-5" d="M52.27,113.06a6.15,6.15,0,0,1-6.12-5,8.49,8.49,0,0,1,.08-4.79A20.88,20.88,0,0,1,50,97c.8-1,1.54-1.88,2-2.42.93-1.06,1.05-1.18,1.35-1.26s.47,0,1.8.44c.7.25,1.77.65,2.94,1.14a20.64,20.64,0,0,1,6.4,3.72,8.5,8.5,0,0,1,2.38,4.16h0a6.23,6.23,0,0,1-4.59,8,5.47,5.47,0,0,1-4.6-.64A5.46,5.46,0,0,1,54,112.84,7.23,7.23,0,0,1,52.27,113.06Zm1.34-18.82c0,.05-.52.61-.81,1-.48.54-1.21,1.39-2,2.38a19.84,19.84,0,0,0-3.62,6,7.62,7.62,0,0,0-.07,4.26,5.28,5.28,0,0,0,6.65,4.05,4.42,4.42,0,0,0,3.29-2.77.48.48,0,0,1,.34-.31.52.52,0,0,1,.46.11,4.42,4.42,0,0,0,4.22.83A5.27,5.27,0,0,0,66,103h0a7.64,7.64,0,0,0-2.11-3.71,20.1,20.1,0,0,0-6.08-3.5c-1.15-.48-2.21-.87-2.9-1.12A13.09,13.09,0,0,0,53.61,94.24Z"/><path class="cls-4" d="M62.75,105.89c-4.47,4.67-4.16,12.23-4.16,12.23s7.56,0,12-4.71,4.17-12.23,4.17-12.23S67.23,101.21,62.75,105.89Z"/><path class="cls-5" d="M58.51,117.41a.51.51,0,0,1-.5-.48c0-.28-.22-6.74,3.71-10.85h0c3.93-4.11,10.4-4.18,10.67-4.19a.46.46,0,0,1,.5.48c0,.28.23,6.74-3.7,10.85s-10.4,4.19-10.67,4.19Zm3.93-10.64c-3,3.17-3.39,8-3.43,9.61,1.57-.1,6.42-.68,9.46-3.85s3.39-8,3.42-9.61c-1.56.1-6.41.68-9.45,3.85Z"/><path class="cls-5" d="M58.51,117.41a.51.51,0,0,1-.34-.14.5.5,0,0,1,0-.71L72,102.05a.5.5,0,1,1,.72.69L58.88,117.25A.49.49,0,0,1,58.51,117.41Z"/><path class="cls-5" d="M135.2,158.52l-1.44-4.58-4.2,1.52A9.3,9.3,0,0,0,135.2,158.52Z"/><path class="cls-5" d="M135.2,159.27h-.08a10,10,0,0,1-6.14-3.33.73.73,0,0,1-.15-.65.77.77,0,0,1,.42-.51l4.26-1.55a.76.76,0,0,1,.59,0,.75.75,0,0,1,.38.44l1.43,4.59a.74.74,0,0,1-.13.7A.76.76,0,0,1,135.2,159.27Zm-4.28-3.51a8.55,8.55,0,0,0,3.19,1.78l-.83-2.63Z"/><path class="cls-2" d="M77.92,241a31.48,31.48,0,0,1-11-2c-19.53-7.24-19.78-9.63-20.07-12.4l0-.32c-.19-1.61.3-3.68,1.85-4.41s3.47.08,5.74,2.44c3.69,3.83,6.51,2.64,7.3,2.17a34.74,34.74,0,0,1,2.45-7.67c2.49-5.34,6-7.94,10.09-7.55a34.52,34.52,0,0,1,10.57,3,36.07,36.07,0,0,1,3.41,1.91c1.85,1.13,4,2.4,5,2.52a.75.75,0,0,1,.66.83.76.76,0,0,1-.83.67c-1.41-.16-3.57-1.47-5.66-2.74a33.16,33.16,0,0,0-3.24-1.82A32.19,32.19,0,0,0,74,212.82c-3.46-.35-6.35,1.91-8.58,6.69a33.57,33.57,0,0,0-2.39,7.6.71.71,0,0,1-.27.46s-4.26,3.3-9.53-2.16c-1.69-1.76-3.16-2.54-4-2.13s-1.13,1.76-1,2.88l0,.34c.22,2.09.45,4.24,19.11,11.16,19.31,7.16,36.83-8.37,37-8.53a.9.9,0,0,1,.3-.17c29.47-8.23,36.23-35.23,36.29-35.51a.75.75,0,0,1,.56-.55,7.83,7.83,0,0,0,3.71-2.67.78.78,0,0,1,.65-.29c.12,0,3,.21,5.35,3.45a16.57,16.57,0,0,1,2,4.86,11.41,11.41,0,0,0,1.21,3.1,2.74,2.74,0,0,0,.5-.57,34.28,34.28,0,0,0,3.66-7.15,5.33,5.33,0,0,0-1-4.11c-2.39-3.23-8-4.07-8.08-4.08a.74.74,0,0,1-.61-.95,31.13,31.13,0,0,0,1.13-5.15,30.26,30.26,0,0,0-1.25-6.85.77.77,0,0,1,0-.61.75.75,0,0,1,.49-.36s3.38-.84,7.61-4.87a11.48,11.48,0,0,0,3.86-7.59c-2.83-.79-9.08-2.11-11.34-.73-2.44,1.49-4.29,6.9-4.79,8.86a.8.8,0,0,1-.46.52.77.77,0,0,1-.69-.08c-2.75-1.85-5,.85-5.07,1a.76.76,0,0,1-.73.26.74.74,0,0,1-.58-.52l-3.77-12.59c-3.28,0-6.33,2.27-7.86,5.79a10.94,10.94,0,0,0-.86,5.44,17.3,17.3,0,0,0,.58,2.75,15.82,15.82,0,0,1,.68,3.84c.09,5.93-2.13,6.87-5.52,7.62s-11.51-2.87-12.42-3.29h0l-.08,0a.74.74,0,0,1-.26-1,.69.69,0,0,1,.47-.37c.22-.19,1.1-1.1,3.36-5.16a2,2,0,0,0,.21-1.73c-.75-2.29-5.39-4.64-8.82-6.21-6.65-3-12.14-2-12.91-.35a3.15,3.15,0,0,0-.11,3.16c1.61,2.67,8,3.45,10.37,3.52a.75.75,0,0,1,0,1.5c-.38,0-9.24-.34-11.6-4.24a4.6,4.6,0,0,1,0-4.6c1.34-2.76,8-3.5,14.88-.35,6,2.75,8.89,4.87,9.63,7.1a3.54,3.54,0,0,1-.33,2.93,36.49,36.49,0,0,1-3.11,4.94c2.86,1.22,8.21,3.21,10.4,2.72,2.76-.61,4.43-1,4.35-6.14a14.1,14.1,0,0,0-.63-3.47,20.3,20.3,0,0,1-.63-3,12.43,12.43,0,0,1,1-6.19c1.83-4.22,5.63-6.84,9.66-6.69H134a.75.75,0,0,1,.68.53l3.58,11.94a5,5,0,0,1,5.25-.83c.64-2.11,2.43-7.16,5.2-8.85,3.42-2.09,12.11.43,13.08.73a.76.76,0,0,1,.54.66c0,.19.34,4.86-4.32,9.3a22.64,22.64,0,0,1-7.55,5,33,33,0,0,1,1.1,6.49,23.78,23.78,0,0,1-1,4.88c1.8.38,6,1.57,8.23,4.52a6.81,6.81,0,0,1,1.24,5.3l0,.13a34.62,34.62,0,0,1-3.87,7.57c-.23.35-.95,1.39-2,1.23-1.22-.19-1.72-1.87-2.41-4.18a16,16,0,0,0-1.77-4.4,6.82,6.82,0,0,0-3.88-2.79,9.27,9.27,0,0,1-3.84,2.75c-1,3.58-8.94,28.18-37.06,36.12C103.89,231.55,92.36,241,77.92,241Zm30.67-64.52.06,0h0A.11.11,0,0,0,108.59,176.52Z"/><path class="cls-2" d="M63.44,216.77a10.45,10.45,0,0,1-6.86-2.4c-.7-.59-1.43-1.16-2.17-1.73-4.8-3.75-10.25-8-8.17-18.27.19-.93,1.93-9,5.93-9h.08a3.16,3.16,0,0,1,2.52,1.36c1.45,2,1.29,5.47.88,6.9-.62,2.18-.69,5.44.6,7.44a3.63,3.63,0,0,0,2,1.57c.6-2.52,2.74-10.68,6.19-13.91,4.3-4,12.74-3.95,17.14-1.22,3.15,2,5.14,6,6.06,8.36,1.6-3,5.51-9.24,11.07-10.89a.74.74,0,0,1,.93.5.75.75,0,0,1-.5.93c-6.58,2-10.88,11.58-10.92,11.67a.77.77,0,0,1-.74.45.75.75,0,0,1-.67-.54c0-.06-2.06-6.75-6-9.21s-11.57-2.47-15.32,1.05-5.9,13.76-5.92,13.86a.74.74,0,0,1-.84.59A5.18,5.18,0,0,1,55,201.92c-1.56-2.41-1.51-6.09-.78-8.67.34-1.19.42-4.16-.65-5.61a1.67,1.67,0,0,0-1.35-.74h0c-2,0-3.8,4.53-4.46,7.76-1.89,9.37,2.73,13,7.63,16.8.74.58,1.49,1.16,2.2,1.76,4,3.36,9.2,1.57,9.26,1.55a.75.75,0,0,1,.5,1.41A12.33,12.33,0,0,1,63.44,216.77Z"/><path class="cls-2" d="M113.55,217.59a10.27,10.27,0,0,1-4.88-1.1,3.72,3.72,0,0,1-2.15-3.31c.07-2.61,2.15-3.85,4.16-5.05s3.78-2.25,4.1-4.5a.83.83,0,0,1,.19-.4c-.5-.14-1-.31-1.52-.5-4.49-1.68-5.85-5.06-5.19-7.66a4.49,4.49,0,0,1,5.09-3.46c.67.09,1.44.27,2.18.44l1.12.25a24.25,24.25,0,0,0,3.33.44l6,.37c2.24.14,3.77.93,4.57,2.37,1.7,3.05-.82,7.8-.93,8-.2.38-5,9.32-9.7,12.35A12.05,12.05,0,0,1,113.55,217.59Zm2.7-14a.75.75,0,0,1,0,.3c-.43,3-2.76,4.34-4.82,5.57-1.82,1.08-3.38,2-3.43,3.8a2.31,2.31,0,0,0,1.38,2c2.26,1.28,6.72,1.33,9.76-.62,4.39-2.81,9.14-11.7,9.19-11.79.63-1.17,2-4.63.94-6.57-.53-.95-1.66-1.49-3.35-1.59l-6.06-.38a25.81,25.81,0,0,1-3.53-.46l-1.16-.26c-.71-.16-1.44-.33-2-.41a3,3,0,0,0-3.44,2.33c-.49,2,.64,4.54,4.27,5.9a16.91,16.91,0,0,0,3.11.85c4.47.75,6.27-1.3,6.34-1.38a.75.75,0,0,1,1.16.95c-.09.11-2.36,2.81-7.75,1.91Z"/><path class="cls-2" d="M99,186.47a.65.65,0,0,1-.19,0,4.56,4.56,0,0,1-3.37-2.67c-1.09-2.74.94-6.42,1.86-7.87a18.9,18.9,0,0,1,1.89-2.4c.55-.62,1.48-1.67,1.4-2,0,0-.06-.15-.58-.35a.75.75,0,1,1,.53-1.4,2.11,2.11,0,0,1,1.5,1.39c.27,1.08-.61,2.07-1.72,3.33a18.35,18.35,0,0,0-1.76,2.21c-.62,1-2.58,4.36-1.73,6.52A3.14,3.14,0,0,0,99.14,185a.75.75,0,0,1-.19,1.47Z"/><path class="cls-5" d="M137.91,168.13c-1.18,3.51.93,7.55,5.22,6.22s6.42-2.1,6.42-2.1,11.73-4.27,12-13.75c0,0-7.91-2.11-10.2-1.46s-5.55,3.33-7.41,10c0,0-1.75-1.23-3.12-.7A13.3,13.3,0,0,0,137.91,168.13Z"/><path class="cls-5" d="M141.52,175.36a4.35,4.35,0,0,1-3.2-1.32,6.07,6.07,0,0,1-1.12-6.15.79.79,0,0,1,.24-.35,14.5,14.5,0,0,1,3.16-1.93,3.89,3.89,0,0,1,2.94.28c2.37-7.52,6.43-9.22,7.66-9.57,2.41-.69,9.76,1.23,10.59,1.45a.75.75,0,0,1,.56.75c-.33,9.88-12,14.25-12.54,14.43,0,0-2.19.79-6.46,2.12A6.39,6.39,0,0,1,141.52,175.36Zm-3-6.79a4.57,4.57,0,0,0,.83,4.42,3.28,3.28,0,0,0,3.52.64c4.22-1.31,6.36-2.08,6.38-2.09s10.76-4,11.52-12.47c-3-.78-7.78-1.72-9.2-1.31-1.09.31-4.78,1.9-6.9,9.45a.74.74,0,0,1-.47.5.75.75,0,0,1-.68-.09,3.2,3.2,0,0,0-2.42-.61A11.87,11.87,0,0,0,138.56,168.57Z"/><path class="cls-5" d="M150.19,175.77s-7.84.28-10.93,3-3.07,7.61-3.07,7.61.54,10.12,2.93,12.28l6.74-8s5.13,1.26,5.56,4.52a12.74,12.74,0,0,0,1.87,5.55c.58,1.05.76,2.78,4.06-2.49s2.62-8.6-.2-10.38c-2-1.24-5.16-3.64-7.66-3.18.09,0,1.09-3.88,1.18-4.27A7.29,7.29,0,0,0,150.19,175.77Z"/><path class="cls-5" d="M154.22,202.64h-.08c-.79,0-1.13-.75-1.36-1.22,0-.1-.09-.2-.14-.3l-.18-.31a13.21,13.21,0,0,1-1.78-5.5c-.27-2-3.06-3.31-4.55-3.77l-6.43,7.66a.75.75,0,0,1-.52.26.71.71,0,0,1-.56-.19c-2.55-2.3-3.12-11.73-3.18-12.8,0-.25,0-5.23,3.32-8.2s11.07-3.24,11.4-3.25a.79.79,0,0,1,.72.45,8.1,8.1,0,0,1,.52,5.13c-.35,1.56-.62,2.61-.83,3.32,2.14.18,4.42,1.67,6.16,2.81l.82.53c2,1.28,4.78,4.46.44,11.41C155.94,201.94,155,202.64,154.22,202.64Zm-8.36-12.7a.55.55,0,0,1,.18,0c.23,0,5.64,1.43,6.12,5.15a11.72,11.72,0,0,0,1.6,4.95l.19.34c.06.11.12.24.19.36s.1.22.15.32a12.92,12.92,0,0,0,2.43-3.21c2.78-4.45,2.79-7.6,0-9.34l-.84-.55c-1.86-1.21-4.41-2.88-6.29-2.54a.75.75,0,0,1-.87-.6.71.71,0,0,1,.09-.5c.18-.51,1-3.61,1.09-4.07a6.46,6.46,0,0,0-.23-3.72c-1.76.12-7.52.66-9.93,2.83-2.81,2.53-2.83,7-2.83,7.05.18,3.35.92,8.93,2.2,11.1l6.15-7.33A.73.73,0,0,1,145.86,189.94Z"/><path class="cls-1" d="M146.5,173a.75.75,0,0,1-.66-.39,9.48,9.48,0,0,0-1.78-1.36.75.75,0,0,1,.8-1.27,8.54,8.54,0,0,1,2.29,1.9.75.75,0,0,1-.29,1A.68.68,0,0,1,146.5,173Z"/><path class="cls-1" d="M146.44,181.25a1,1,0,0,1-.29-.05.75.75,0,0,1-.41-1,9.65,9.65,0,0,0-.05-2.24.74.74,0,0,1,.66-.83.75.75,0,0,1,.83.66,8.72,8.72,0,0,1-.05,3A.74.74,0,0,1,146.44,181.25Z"/><path class="cls-1" d="M143.05,181.92a.76.76,0,0,1-.7-.47,2.91,2.91,0,0,0-.76-1.15.76.76,0,0,1-.37-1,.75.75,0,0,1,1-.37,3.82,3.82,0,0,1,1.53,2,.74.74,0,0,1-.41,1A.71.71,0,0,1,143.05,181.92Z"/><path class="cls-1" d="M140.17,173.8a.75.75,0,0,1-.69-1,3,3,0,0,0,.26-1.35.75.75,0,0,1,1.4-.54,3.87,3.87,0,0,1-.28,2.46A.76.76,0,0,1,140.17,173.8Z"/><path class="cls-5" d="M120.15,247.3a22,22,0,0,1-2.72-.17c-6.84-.88-14.75-5.38-16-13.19a11.74,11.74,0,0,1-.14-2.07.74.74,0,0,1,.77-.73.75.75,0,0,1,.73.77,9.65,9.65,0,0,0,.12,1.8c1.09,7,8.37,11.12,14.67,11.93,5.52.71,12.4-.78,15.14-7.1a8.9,8.9,0,0,0-.74-8.22,5.18,5.18,0,0,0-1.81-1.66l-.26-.1c1.15,2.83,1.15,6.56-1.5,9.1-3.5,3.36-9.16,2.22-11.43,1.58-4.48-1.27-9.26-5.57-9.52-10.56a.75.75,0,0,1,.71-.79.76.76,0,0,1,.79.71c.22,4.27,4.55,8.09,8.43,9.2,2,.57,7,1.6,10-1.22,2.42-2.32,2.07-5.94.72-8.33a.93.93,0,0,1,.1-1.14c.72-.74,2.65.22,2.67.22a6.53,6.53,0,0,1,2.36,2.15,10.29,10.29,0,0,1,.87,9.66C131.51,245.19,125.6,247.3,120.15,247.3Z"/><path class="cls-6" d="M140.26,198.75c3.74-1.81-2.2-6.82-3.43-7.94-3.56-3.23-7.1-6.45-10.52-9.84-1-1.05-1.72-2.4-3.42-2.56-2-.19-4.34,2.17-2.69,3.74,4.36,4.16,8.52,8.62,13.14,12.53C134.74,195.92,137.92,199.89,140.26,198.75Z"/><path d="M140,198c-1.79,0-3.71-1.95-5.05-3.31-.29-.3-.55-.56-.76-.75-2.68-2.33-5.25-4.9-7.73-7.39-1.25-1.26-2.5-2.51-3.77-3.74a2.21,2.21,0,0,1-.51-2.65,3.18,3.18,0,0,1,3.21-1.64,4.48,4.48,0,0,1,2.78,1.86c.19.22.39.44.6.65,3,3,6.15,5.93,9.16,8.72l.2.19c2.1,1.91,4.47,4.35,4.16,6.24a2.14,2.14,0,0,1-1.35,1.63A2.39,2.39,0,0,1,140,198Zm-15-18a1.7,1.7,0,0,0-1.44.84.71.71,0,0,0,.21.9c1.28,1.24,2.54,2.5,3.8,3.76,2.46,2.47,5,5,7.66,7.33.23.21.51.5.83.82,1.05,1.07,3.23,3.28,4.31,2.8h0c.43-.2.47-.41.48-.49.1-.61-.46-2-3.69-4.91l-.21-.19c-3-2.8-6.15-5.7-9.21-8.76-.23-.23-.45-.48-.66-.73a3.17,3.17,0,0,0-1.88-1.36Z"/><path class="cls-6" d="M139.76,197.72s7.25,3.64,3.58,13.65C143.34,211.37,134.39,204.82,139.76,197.72Z"/><path class="cls-6" d="M156.58,198.25s-4.83-6.51-14.06-1.16C142.52,197.09,150.52,204.76,156.58,198.25Z"/><path d="M144.67,210.26l-.81-.59c-.17-.13-4.33-3.22-5-7.49a7.5,7.5,0,0,1,1.6-5.77l.38-.49.56.28c.07,0,7,3.66,3.56,13.13Zm-3.35-12.39a5.94,5.94,0,0,0-.93,4.08c.38,2.6,2.4,4.78,3.55,5.83C145.75,201.71,142.65,198.8,141.32,197.87Z"/><path d="M148.88,200.14a14.05,14.05,0,0,1-7.37-2.6l-.8-.59.79-.61c8-6.14,13.54-.56,13.6-.5l.43.45-.36.5a7.52,7.52,0,0,1-5,3.25A7.73,7.73,0,0,1,148.88,200.14Zm-5.59-3.24c1.35.79,4,2.07,6.62,1.66a5.87,5.87,0,0,0,3.62-2.1C152.24,195.48,148.53,193.4,143.29,196.9Z"/><path class="cls-5" d="M130.58,213.73s-4.47-4.47-7.74-1.5-6,5.11-11.21,4.46-4.36-3.49-4.36-3.49-5.37,2.2-7.46,5.14-9.55,9.7-9.55,9.7-4.84,2.6-.15,4.5a22.86,22.86,0,0,0,8.15,1.82l6.65-4.67s9.28-3.41,11-4.38S130.35,216.41,130.58,213.73Z"/><path class="cls-5" d="M98.19,235.11a23.74,23.74,0,0,1-8.36-1.88c-1.61-.65-2.46-1.51-2.51-2.56-.09-1.67,2-3,2.5-3.25.73-.66,7.46-6.83,9.38-9.52,2.19-3.08,7.56-5.3,7.78-5.4a.75.75,0,0,1,1,.92,1.33,1.33,0,0,0,.23,1c.35.53,1.25,1.21,3.5,1.49,4.83.59,7.34-1.31,10.61-4.28,3-2.73,7.06-.19,8.78,1.53a.75.75,0,0,1,.22.6c-.29,3.42-14.88,12.08-15,12.16-1.71.95-10,4-11,4.4L98.69,235a.75.75,0,0,1-.41.14Zm8.36-20.76c-1.61.77-4.72,2.44-6.13,4.42-2.11,3-9.35,9.54-9.66,9.82a.58.58,0,0,1-.15.11c-.74.4-1.83,1.28-1.8,1.89,0,.4.6.85,1.59,1.25A23,23,0,0,0,98,233.61l6.45-4.54a.56.56,0,0,1,.17-.09c.09,0,9.25-3.4,10.93-4.33,3.21-1.78,13.08-8.4,14.16-10.67-1-.86-4.14-3.25-6.4-1.2-3.47,3.15-6.35,5.33-11.8,4.65-2.3-.28-3.84-1-4.6-2.18A3,3,0,0,1,106.55,214.35Z"/><path class="cls-7" d="M79.28,200.21s20.17-12.44,23.21,1.18-23.25,11-23.25,11S69.63,209.1,79.28,200.21Z"/><path class="cls-4" d="M102.37,137c-2.26,6.07,1,12.89,1,12.89s6.94-3,9.21-9.07-1-12.88-1-12.88S104.64,130.9,102.37,137Z"/><path class="cls-5" d="M102.82,149.26a.5.5,0,0,1-.45-.28c-.12-.25-2.86-6.1-.87-11.43h0c2-5.33,7.91-8,8.16-8.06a.51.51,0,0,1,.65.25c.12.24,2.86,6.1.87,11.43s-7.91,7.94-8.16,8.05A.45.45,0,0,1,102.82,149.26Zm-.38-11.36c-1.54,4.11,0,8.73.64,10.19,1.39-.72,5.63-3.16,7.16-7.27s0-8.74-.64-10.19c-1.39.71-5.63,3.16-7.16,7.27Z"/><path class="cls-5" d="M102.82,149.26l-.17,0a.5.5,0,0,1-.3-.64l7-18.81a.5.5,0,1,1,.93.35l-7,18.81A.49.49,0,0,1,102.82,149.26Z"/><path class="cls-4" d="M88,143.07c6.47.12,11.61,5.67,11.61,5.67s-5.35,5.34-11.82,5.22-11.61-5.67-11.61-5.67S81.53,142.94,88,143.07Z"/><path class="cls-5" d="M88.87,152.81h-.2c-5.69-.11-10.12-4.82-10.31-5a.5.5,0,0,1,0-.69c.19-.19,4.69-4.62,10.28-4.62h.21c5.69.11,10.12,4.82,10.3,5a.5.5,0,0,1,0,.7C99,148.38,94.47,152.81,88.87,152.81Zm-9.42-5.35c1.14,1.08,4.85,4.26,9.24,4.34s8.22-2.94,9.39-4c-1.13-1.08-4.84-4.26-9.23-4.35h-.18C84.36,143.47,80.61,146.44,79.45,147.46Z"/><path class="cls-5" d="M98.81,148.33h0l-20.08-.39a.5.5,0,0,1-.49-.51.53.53,0,0,1,.51-.49l20.08.39a.52.52,0,0,1,.49.51A.5.5,0,0,1,98.81,148.33Z"/><path class="cls-3" d="M102.12,134.2a8,8,0,0,0-3.61-2.73,20.33,20.33,0,0,0-7.16-.86c-1.27,0-2.4.07-3.13.12-1.33.08-1.43.11-1.53.19h0c-.11.09-.14.12-.58,1.45-.23.69-.57,1.77-.9,3a20.87,20.87,0,0,0-1,7.13,8.11,8.11,0,0,0,1.73,4.19,5.74,5.74,0,0,0,8.4,1.18,4.9,4.9,0,0,0,2.13-4.26,4.85,4.85,0,0,0,4.66-1A5.75,5.75,0,0,0,102.12,134.2Z"/><path class="cls-5" d="M91.49,148.22h-.41a6.41,6.41,0,0,1-4.67-2.68,8.49,8.49,0,0,1-1.82-4.43,20.88,20.88,0,0,1,1-7.32c.33-1.23.67-2.32.91-3,.45-1.39.5-1.5.74-1.69s.42-.21,1.83-.3c.73-.05,1.87-.11,3.15-.12a21.12,21.12,0,0,1,7.35.89,8.49,8.49,0,0,1,3.82,2.89h0a6.41,6.41,0,0,1,1.41,5.2,6.55,6.55,0,0,1-2.48,3.94,5.49,5.49,0,0,1-4.48,1.22,5.44,5.44,0,0,1-2.31,4A6.63,6.63,0,0,1,91.49,148.22Zm1.13-18.57h-.4c-1.26,0-2.38.07-3.1.11-.44,0-1.19.08-1.31.12s-.24.8-.37,1.19c-.23.69-.57,1.76-.9,3a20.25,20.25,0,0,0-1,6.94,7.56,7.56,0,0,0,1.62,3.94,5.44,5.44,0,0,0,4,2.29A5.7,5.7,0,0,0,94.91,146a4.42,4.42,0,0,0,1.93-3.84.52.52,0,0,1,.19-.43.47.47,0,0,1,.46-.07,4.43,4.43,0,0,0,4.2-.9,5.67,5.67,0,0,0,2.12-3.33,5.47,5.47,0,0,0-1.22-4.41h0a7.59,7.59,0,0,0-3.4-2.57A19.42,19.42,0,0,0,92.62,129.65Z"/><path class="cls-4" d="M49.21,148.84c1.95,6.17-1.67,12.81-1.67,12.81s-6.77-3.37-8.72-9.54S40.5,139.3,40.5,139.3,47.27,142.67,49.21,148.84Z"/><path class="cls-5" d="M48.14,161.1a.46.46,0,0,1-.22-.06c-.25-.12-6-3-7.72-8.47s1.34-11.13,1.47-11.37a.5.5,0,0,1,.66-.2c.25.12,6,3,7.72,8.47h0c1.71,5.43-1.34,11.13-1.47,11.37A.51.51,0,0,1,48.14,161.1Zm-5.81-19c-.66,1.42-2.5,6-1.18,10.14s5.42,6.85,6.77,7.64c.67-1.42,2.5-6,1.18-10.14S43.68,142.92,42.33,142.13Z"/><path class="cls-5" d="M48.14,161.1a.51.51,0,0,1-.48-.35l-6-19.16a.5.5,0,0,1,1-.3l6,19.16a.5.5,0,0,1-.33.62A.4.4,0,0,1,48.14,161.1Z"/><path class="cls-4" d="M63.24,155.69c-6.47-.21-11.89,5.05-11.89,5.05s5.06,5.62,11.53,5.84,11.89-5.06,11.89-5.06S69.71,155.91,63.24,155.69Z"/><path class="cls-5" d="M62.42,165.38h-.36c-5.69-.19-10.05-5-10.23-5.17a.5.5,0,0,1,0-.69c.2-.19,4.83-4.66,10.56-4.47s10,5,10.23,5.16a.51.51,0,0,1,0,.7C72.43,161.09,67.94,165.38,62.42,165.38Zm-9.5-5.48c1.12,1.1,4.79,4.33,9.18,4.48s8.26-2.84,9.45-3.86c-1.12-1.09-4.79-4.32-9.18-4.47S54.11,158.88,52.92,159.9Z"/><path class="cls-5" d="M72.27,161.05h0l-20.06-.67a.5.5,0,0,1-.49-.52.5.5,0,0,1,.5-.48h0l20.07.67a.5.5,0,0,1,0,1Z"/><path class="cls-3" d="M50.15,154.57a4.89,4.89,0,0,0,4.61,1.22,4.89,4.89,0,0,0,1.9,4.36,5.73,5.73,0,0,0,8.45-.74,7.88,7.88,0,0,0,1.94-4.09,20.45,20.45,0,0,0-.6-7.16c-.26-1.25-.55-2.34-.74-3-.37-1.35-.39-1.39-.5-1.48h0c-.1-.09-.19-.12-1.52-.27-.72-.09-1.85-.21-3.11-.29a20.57,20.57,0,0,0-7.2.49,8,8,0,0,0-3.75,2.53A5.76,5.76,0,0,0,50.15,154.57Z"/><path class="cls-5" d="M59.82,160.67A6.65,6.65,0,0,1,55.54,159a5.45,5.45,0,0,1-2.1-4.13,5.47,5.47,0,0,1-4.4-1.46,6.59,6.59,0,0,1-2.28-4.06,6.44,6.44,0,0,1,1.68-5.12,8.58,8.58,0,0,1,4-2.68,20.91,20.91,0,0,1,7.39-.51c1.27.08,2.41.2,3.14.28,1.4.17,1.56.19,1.79.39s.3.38.67,1.74c.2.69.48,1.79.75,3.07a21.07,21.07,0,0,1,.61,7.36,8.5,8.5,0,0,1-2.06,4.32A6.33,6.33,0,0,1,59.82,160.67ZM54,153.78a.55.55,0,0,1,.33.12.52.52,0,0,1,.17.44,4.38,4.38,0,0,0,1.72,3.93,5.27,5.27,0,0,0,7.75-.69,7.52,7.52,0,0,0,1.83-3.85,20,20,0,0,0-.6-7c-.28-1.31-.58-2.45-.73-3s-.32-1.15-.38-1.26-.79-.08-1.24-.13c-.72-.09-1.84-.21-3.08-.28a20.09,20.09,0,0,0-7,.45,7.58,7.58,0,0,0-3.53,2.39,5.43,5.43,0,0,0-1.44,4.33,5.62,5.62,0,0,0,1.93,3.44h0a4.41,4.41,0,0,0,4.15,1.12Z"/><path class="cls-4" d="M165,241.47c-4.54,4.62-4.33,12.18-4.33,12.18s7.56.07,12.09-4.54S177,236.93,177,236.93,169.48,236.86,165,241.47Z"/><path class="cls-5" d="M160.59,252.93h0a.48.48,0,0,1-.49-.48c0-.28-.14-6.74,3.85-10.8h0c4-4.06,10.5-4,10.73-4a.5.5,0,0,1,.49.49c0,.27.14,6.74-3.85,10.8S161.21,252.93,160.59,252.93Zm13.54-14.3c-1.57.08-6.43.59-9.51,3.72h0c-3.07,3.13-3.5,8-3.56,9.57,1.57-.08,6.43-.6,9.51-3.73S174.07,240.2,174.13,238.63ZM164.27,242h0Z"/><path class="cls-5" d="M160.56,252.93a.46.46,0,0,1-.35-.14.5.5,0,0,1,0-.71l14.08-14.32a.48.48,0,0,1,.7,0,.49.49,0,0,1,0,.7l-14.08,14.32A.47.47,0,0,1,160.56,252.93Z"/><path class="cls-4" d="M149.34,241.2c5.85,2.75,8.29,9.91,8.29,9.91s-7.06,2.7-12.92-.05-8.29-9.9-8.29-9.9S143.48,238.46,149.34,241.2Z"/><path class="cls-5" d="M151.36,251.48a12.73,12.73,0,0,1-5.38-1.11c-5.15-2.42-7.28-8.52-7.37-8.78a.51.51,0,0,1,.3-.63c.25-.1,6.31-2.37,11.46,0h0c5.15,2.42,7.28,8.52,7.37,8.78a.5.5,0,0,1-.3.63A18.67,18.67,0,0,1,151.36,251.48Zm-11.62-9.75c.6,1.45,2.69,5.87,6.67,7.73s8.7.65,10.2.18c-.6-1.45-2.69-5.86-6.67-7.72h0C146,240.05,141.23,241.26,139.74,241.73Z"/><path class="cls-5" d="M157.27,250.45a.42.42,0,0,1-.22,0l-18.18-8.52a.5.5,0,1,1,.43-.91l18.18,8.53a.49.49,0,0,1,.24.66A.51.51,0,0,1,157.27,250.45Z"/><path class="cls-3" d="M165.84,238.84a8,8,0,0,0-2.19-4,20.66,20.66,0,0,0-6.19-3.7c-1.16-.5-2.22-.91-2.9-1.16-1.25-.46-1.35-.48-1.48-.45h0c-.14,0-.18.05-1.12,1.09-.49.54-1.24,1.39-2,2.37a20.43,20.43,0,0,0-3.79,6.11,8,8,0,0,0-.13,4.53,5.74,5.74,0,0,0,7.19,4.5,4.9,4.9,0,0,0,3.68-3,4.9,4.9,0,0,0,4.66,1A5.76,5.76,0,0,0,165.84,238.84Z"/><path class="cls-5" d="M153,247.87a6.14,6.14,0,0,1-6.14-5.07A8.45,8.45,0,0,1,147,238a20.83,20.83,0,0,1,3.88-6.29c.8-1,1.56-1.84,2.06-2.39,1-1.08,1.07-1.16,1.37-1.23s.47,0,1.79.46c.69.25,1.75.66,2.93,1.17a21,21,0,0,1,6.35,3.81,8.49,8.49,0,0,1,2.31,4.19h0a6.23,6.23,0,0,1-4.7,7.91,5.49,5.49,0,0,1-4.59-.7,5.43,5.43,0,0,1-3.74,2.73A7,7,0,0,1,153,247.87Zm1.51-18.79s-.55.62-.83.93c-.49.54-1.24,1.39-2,2.35a20.25,20.25,0,0,0-3.71,5.95,7.53,7.53,0,0,0-.12,4.26,5.27,5.27,0,0,0,6.59,4.13,4.41,4.41,0,0,0,3.33-2.72.45.45,0,0,1,.34-.3.51.51,0,0,1,.46.11,4.38,4.38,0,0,0,4.2.89,5.27,5.27,0,0,0,4-6.7,7.58,7.58,0,0,0-2.06-3.73,19.94,19.94,0,0,0-6-3.59c-1.16-.5-2.2-.91-2.88-1.15A12.75,12.75,0,0,0,154.53,229.08Z"/><path class="cls-4" d="M142.73,256.8C138.2,261.42,138.4,269,138.4,269s7.56.08,12.1-4.53,4.33-12.18,4.33-12.18S147.27,252.19,142.73,256.8Z"/><path class="cls-5" d="M138.38,268.26h0a.51.51,0,0,1-.5-.49c0-.27-.13-6.73,3.86-10.79h0c4-4.06,10.48-4,10.72-4a.51.51,0,0,1,.5.49c0,.27.14,6.73-3.86,10.79S139,268.26,138.38,268.26Zm4-10.58c-3.08,3.13-3.5,8-3.56,9.57,1.56-.09,6.43-.6,9.5-3.73s3.51-8,3.56-9.56c-1.56.08-6.42.59-9.5,3.72Z"/><path class="cls-5" d="M138.34,268.26a.54.54,0,0,1-.35-.14.5.5,0,0,1,0-.71l14.07-14.32a.5.5,0,0,1,.71,0,.5.5,0,0,1,0,.71L138.7,268.11A.51.51,0,0,1,138.34,268.26Z"/><path class="cls-4" d="M127.12,256.53c5.86,2.75,8.3,9.91,8.3,9.91s-7.06,2.7-12.92-.05-8.3-9.9-8.3-9.9S121.26,253.78,127.12,256.53Z"/><path class="cls-5" d="M129.15,266.8a12.55,12.55,0,0,1-5.38-1.11c-5.16-2.41-7.29-8.52-7.37-8.78a.49.49,0,0,1,.29-.62c.26-.1,6.31-2.37,11.46,0s7.29,8.52,7.37,8.78a.49.49,0,0,1-.29.62A18.45,18.45,0,0,1,129.15,266.8Zm-11.63-9.74c.6,1.45,2.7,5.86,6.67,7.73s8.71.65,10.21.18c-.6-1.45-2.7-5.86-6.67-7.73h0C123.76,255.38,119,256.59,117.52,257.06Z"/><path class="cls-5" d="M135.05,265.78a.54.54,0,0,1-.21,0l-18.18-8.52a.5.5,0,0,1-.24-.67.49.49,0,0,1,.66-.24l18.18,8.53a.5.5,0,0,1-.21.95Z"/><path class="cls-3" d="M143.62,254.17a8,8,0,0,0-2.19-4,20.19,20.19,0,0,0-6.19-3.7c-1.16-.51-2.22-.91-2.9-1.16-1.25-.47-1.35-.49-1.48-.45h0c-.13,0-.17,0-1.12,1.09-.49.53-1.24,1.38-2,2.37a20.52,20.52,0,0,0-3.79,6.11,8,8,0,0,0-.13,4.52,5.76,5.76,0,0,0,7.2,4.51,4.9,4.9,0,0,0,3.67-3,4.87,4.87,0,0,0,4.66,1A5.74,5.74,0,0,0,143.62,254.17Z"/><path class="cls-5" d="M130.81,263.2a6.3,6.3,0,0,1-3-.72,6.44,6.44,0,0,1-3.18-4.35,8.49,8.49,0,0,1,.14-4.79,21.14,21.14,0,0,1,3.88-6.28c.82-1,1.57-1.86,2.06-2.39.95-1,1.07-1.16,1.37-1.24s.47,0,1.79.46c.69.26,1.75.67,2.93,1.18a21,21,0,0,1,6.35,3.81,8.5,8.5,0,0,1,2.32,4.19,6.24,6.24,0,0,1-4.7,7.91,5.49,5.49,0,0,1-4.59-.7,5.45,5.45,0,0,1-3.75,2.72A6.65,6.65,0,0,1,130.81,263.2Zm1.5-18.8c0,.06-.53.61-.83.94-.48.53-1.22,1.36-2,2.35a20.06,20.06,0,0,0-3.7,5.94,7.66,7.66,0,0,0-.13,4.27,5.49,5.49,0,0,0,2.68,3.7,5.65,5.65,0,0,0,3.92.43,4.4,4.4,0,0,0,3.32-2.72.52.52,0,0,1,.35-.31.49.49,0,0,1,.45.12,4.44,4.44,0,0,0,4.21.89,5.27,5.27,0,0,0,4-6.7h0a7.46,7.46,0,0,0-2.06-3.73,19.81,19.81,0,0,0-6-3.59c-1.16-.51-2.2-.91-2.87-1.16C133.14,244.68,132.44,244.42,132.31,244.4Z"/><path class="cls-4" d="M170.62,259.79c-2.81,5.83-.18,12.92-.18,12.92s7.18-2.36,10-8.19.18-12.92.18-12.92S173.42,254,170.62,259.79Z"/><path class="cls-5" d="M170,272.08a.51.51,0,0,1-.47-.32c-.09-.26-2.3-6.34.17-11.47h0c2.47-5.13,8.6-7.19,8.86-7.28a.5.5,0,0,1,.62.3c.1.26,2.3,6.34-.17,11.47s-8.59,7.19-8.85,7.28Zm8.4-17.94c-1.45.58-5.89,2.63-7.8,6.59h0c-1.9,3.95-.73,8.7-.28,10.2,1.45-.58,5.89-2.63,7.79-6.59S178.84,255.64,178.39,254.14Zm-8.25,6.37h0Z"/><path class="cls-5" d="M170,272.08a.41.41,0,0,1-.21-.05.5.5,0,0,1-.24-.67l8.71-18.09a.5.5,0,0,1,.9.44l-8.71,18.09A.48.48,0,0,1,170,272.08Z"/><path class="cls-4" d="M155.75,264.57c6.43.71,11.05,6.7,11.05,6.7s-5.82,4.83-12.25,4.12-11-6.7-11-6.7S149.32,263.85,155.75,264.57Z"/><path class="cls-5" d="M156.72,274.39a9.61,9.61,0,0,1-1.19-.07c-5.66-.63-9.64-5.72-9.81-5.93a.5.5,0,0,1,.08-.69c.21-.18,5.21-4.28,10.87-3.65h0c5.65.63,9.64,5.72,9.8,5.94a.5.5,0,0,1-.07.69C166.2,270.84,161.87,274.39,156.72,274.39Zm-9.88-6.23c1,1.18,4.44,4.68,8.8,5.17s8.45-2.19,9.72-3.12c-1-1.18-4.44-4.68-8.8-5.17h0C152.18,264.56,148.1,267.23,146.84,268.16Z"/><path class="cls-5" d="M166.08,270.79H166l-20-2.21a.5.5,0,0,1,.11-1l20,2.21a.5.5,0,0,1,.44.56A.49.49,0,0,1,166.08,270.79Z"/><path class="cls-3" d="M170.61,257a7.94,7.94,0,0,0-3.35-3,20.44,20.44,0,0,0-7-1.51c-1.26-.1-2.39-.15-3.12-.16-1.33,0-1.43,0-1.55,0h0c-.12.07-.15.1-.71,1.39-.29.66-.73,1.71-1.17,2.9a20.48,20.48,0,0,0-1.62,7,8,8,0,0,0,1.33,4.32,5.76,5.76,0,0,0,8.27,1.95,4.92,4.92,0,0,0,2.5-4.05,4.88,4.88,0,0,0,4.73-.56A5.74,5.74,0,0,0,170.61,257Z"/><path class="cls-5" d="M159.29,270.05a6.24,6.24,0,0,1-5.35-3.18,8.46,8.46,0,0,1-1.41-4.57,20.76,20.76,0,0,1,1.65-7.2c.45-1.21.89-2.26,1.18-2.93.58-1.34.64-1.45.9-1.61s.43-.18,1.84-.14c.73,0,1.87.06,3.15.17a20.82,20.82,0,0,1,7.24,1.56,8.4,8.4,0,0,1,3.54,3.22h0a6.4,6.4,0,0,1,.93,5.31,6.56,6.56,0,0,1-2.83,3.69,5.46,5.46,0,0,1-4.57.81A5.44,5.44,0,0,1,162.9,269,6.82,6.82,0,0,1,159.29,270.05Zm-2.2-18.65h-.33c0,.06-.32.77-.49,1.16-.28.65-.71,1.68-1.15,2.88a19.93,19.93,0,0,0-1.59,6.81,7.59,7.59,0,0,0,1.25,4.08,5.28,5.28,0,0,0,7.58,1.79,4.44,4.44,0,0,0,2.27-3.65.48.48,0,0,1,.23-.4.47.47,0,0,1,.46,0,4.44,4.44,0,0,0,4.27-.51A5.66,5.66,0,0,0,172,260.4a5.42,5.42,0,0,0-.81-4.49h0A7.64,7.64,0,0,0,168,253a20,20,0,0,0-6.87-1.45c-1.26-.11-2.38-.15-3.1-.17Z"/><path d="M183.88,280.58h-173V10.85h173Zm-169-4h165V14.85h-165Z"/></svg>