<svg id="圖層_1" data-name="圖層 1" xmlns="http://www.w3.org/2000/svg" viewBox="0 0 194.94 294.58"><defs><style>.cls-1{fill:#fff;}.cls-2{fill:#170000;}.cls-3{fill:#da003a;}.cls-4{fill:#4fad28;}.cls-5{fill:#231815;}.cls-6{fill:#c21823;}.cls-7{fill:#858585;}</style></defs><title>新接龍</title><rect class="cls-1" x="12.88" y="12.85" width="169" height="265.73"/><path d="M183.88,280.58h-173V10.85h173Zm-169-4h165V14.85h-165Z"/><path class="cls-2" d="M28.64,40.39a5.77,5.77,0,0,0,2.6-.59,4.58,4.58,0,0,0,1.87-1.6,4.06,4.06,0,0,0,.68-2.33c0-2.15-1-3.23-3-3.23a6.31,6.31,0,0,0-1.47.19,9.18,9.18,0,0,0-1.42.45l-.54-.38,1-7.22h5.72l.2-.39h1.25l-.36,2.07H29.84L28.92,32a6.21,6.21,0,0,1,1.38-.5A6.54,6.54,0,0,1,32,31.32a4.16,4.16,0,0,1,3,1.08,4.23,4.23,0,0,1,1.1,3.15,5.1,5.1,0,0,1-.91,2.93,6.41,6.41,0,0,1-2.58,2.15,8.71,8.71,0,0,1-3.79.8,6,6,0,0,1-1.41-.14v-1A11.53,11.53,0,0,0,28.64,40.39Z"/><path class="cls-3" d="M167.94,23.05a4.11,4.11,0,0,0-3.6,1.74,4.07,4.07,0,0,0-3.58-1.74,4.81,4.81,0,0,0-5,5.08,6.75,6.75,0,0,0,1,3.66,17.39,17.39,0,0,0,4.3,4.22c.84.64,1.62,1.19,2.13,1.53,1,.65,1,.66,1.12.66h0c.11,0,.18,0,1.11-.66.51-.34,1.29-.88,2.13-1.52a17.3,17.3,0,0,0,4.31-4.23,6.72,6.72,0,0,0,1-3.66A4.81,4.81,0,0,0,167.94,23.05Z"/><path class="cls-4" d="M77.31,139.69c6,2.51,8.68,9.57,8.68,9.57s-6.95,3-12.91.47-8.68-9.57-8.68-9.57S71.35,137.18,77.31,139.69Z"/><path class="cls-5" d="M79.12,149.89a12.41,12.41,0,0,1-4.8-.91c-5.25-2.21-7.61-8.23-7.71-8.48a.5.5,0,0,1,.27-.64c.25-.11,6.21-2.61,11.45-.4h0c5.25,2.21,7.62,8.22,7.72,8.48a.52.52,0,0,1-.27.64A18.77,18.77,0,0,1,79.12,149.89ZM67.74,140.6c.66,1.42,2.92,5.75,7,7.46s8.73.3,10.2-.22c-.65-1.43-2.92-5.76-7-7.46S69.22,140.07,67.74,140.6Z"/><path class="cls-5" d="M85.58,148.62a.58.58,0,0,1-.19,0l-18.51-7.8a.52.52,0,0,1-.27-.66.51.51,0,0,1,.66-.26l18.5,7.8a.49.49,0,0,1,.27.65A.51.51,0,0,1,85.58,148.62Z"/><path class="cls-4" d="M91.61,133.43c-4.35,4.79-3.84,12.34-3.84,12.34s7.56-.23,11.91-5,3.84-12.33,3.84-12.33S96,128.64,91.61,133.43Z"/><path class="cls-5" d="M87.66,145.06a.5.5,0,0,1-.5-.47c0-.27-.4-6.72,3.42-10.94s10.29-4.45,10.56-4.46a.52.52,0,0,1,.52.47c0,.27.4,6.72-3.43,10.94S88,145.05,87.68,145.06Zm13-14.83c-1.56.14-6.4.85-9.35,4.09s-3.18,8.14-3.17,9.7c1.56-.14,6.39-.85,9.34-4.09S100.68,131.79,100.67,130.23Z"/><path class="cls-5" d="M87.66,145.06a.5.5,0,0,1-.37-.84l13.5-14.86a.49.49,0,0,1,.7,0,.5.5,0,0,1,0,.71L88,144.89A.5.5,0,0,1,87.66,145.06Z"/><path class="cls-3" d="M82.28,142.68A4.89,4.89,0,0,0,86.2,140a4.89,4.89,0,0,0,4.55,1.38,5.75,5.75,0,0,0,4.91-6.93,7.93,7.93,0,0,0-1.86-4.12A20.4,20.4,0,0,0,88,126.11c-1.12-.61-2.14-1.1-2.8-1.41-1.27-.59-1.31-.59-1.45-.57h0c-.13,0-.21.08-1.19,1-.53.49-1.35,1.28-2.23,2.19a20.46,20.46,0,0,0-4.29,5.8,8,8,0,0,0-.5,4.5A5.75,5.75,0,0,0,82.28,142.68Z"/><path class="cls-5" d="M79.6,142.89a6.2,6.2,0,0,1-6.28-5.58,8.52,8.52,0,0,1,.52-4.76,21,21,0,0,1,4.4-6c.9-.93,1.72-1.72,2.25-2.21,1-.94,1.16-1.06,1.45-1.11s.49,0,1.76.61c.67.31,1.7.81,2.83,1.41a21,21,0,0,1,6,4.31,8.45,8.45,0,0,1,2,4.36,6.45,6.45,0,0,1-1.26,5.24,6.56,6.56,0,0,1-4.07,2.26,5.43,5.43,0,0,1-4.5-1.07,5.49,5.49,0,0,1-4,2.41h0A6.89,6.89,0,0,1,79.6,142.89Zm2.47-18.64s-.57.56-.9.86c-.52.49-1.33,1.26-2.21,2.18a20,20,0,0,0-4.19,5.63,7.67,7.67,0,0,0-.46,4.24,5.42,5.42,0,0,0,2.36,3.9,5.62,5.62,0,0,0,3.88.75h0a4.39,4.39,0,0,0,3.54-2.44.51.51,0,0,1,.37-.28.51.51,0,0,1,.44.15A4.41,4.41,0,0,0,89,140.47a5.63,5.63,0,0,0,3.45-1.9,5.48,5.48,0,0,0,1-4.45,7.64,7.64,0,0,0-1.75-3.89,20.36,20.36,0,0,0-5.71-4.06c-1.11-.59-2.12-1.08-2.77-1.39C82.87,124.59,82.2,124.28,82.07,124.25Z"/><path class="cls-4" d="M86.21,163.57c5.9,2.66,8.43,9.79,8.43,9.79s-7,2.8-12.92.13-8.43-9.79-8.43-9.79S80.32,160.9,86.21,163.57Z"/><path class="cls-5" d="M88.16,173.81a12.63,12.63,0,0,1-5.18-1c-5.18-2.35-7.39-8.42-7.49-8.68a.5.5,0,0,1,.29-.63c.25-.11,6.28-2.46,11.46-.11s7.4,8.42,7.49,8.68a.5.5,0,0,1-.28.63A18.64,18.64,0,0,1,88.16,173.81Zm-11.54-9.58c.62,1.44,2.78,5.83,6.78,7.63s8.71.54,10.2,0c-.61-1.44-2.77-5.83-6.77-7.64h0C82.83,162.46,78.11,163.74,76.62,164.23Z"/><path class="cls-5" d="M94.26,172.71a.46.46,0,0,1-.2-.05l-18.3-8.27a.51.51,0,0,1-.25-.67.49.49,0,0,1,.66-.24l18.3,8.27a.5.5,0,0,1,.25.66A.51.51,0,0,1,94.26,172.71Z"/><path class="cls-3" d="M97.5,156.81a8.1,8.1,0,0,0-2.25-3.93A20.26,20.26,0,0,0,89,149.27c-1.17-.5-2.23-.89-2.92-1.13-1.25-.45-1.35-.46-1.48-.43h0c-.14,0-.18.05-1.11,1.1-.48.54-1.22,1.4-2,2.4a20.24,20.24,0,0,0-3.71,6.16,8,8,0,0,0-.07,4.53,5.75,5.75,0,0,0,7.26,4.4,4.9,4.9,0,0,0,3.63-3.08,4.88,4.88,0,0,0,4.67.94A5.75,5.75,0,0,0,97.5,156.81Z"/><path class="cls-5" d="M84.71,166a6.15,6.15,0,0,1-6.12-5,8.58,8.58,0,0,1,.07-4.79,21,21,0,0,1,3.8-6.33c.62-.79,1.32-1.63,2-2.43.94-1,1-1.17,1.36-1.25s.49,0,1.8.44c.69.25,1.77.64,2.94,1.13a21.17,21.17,0,0,1,6.4,3.72,8.45,8.45,0,0,1,2.37,4.16h0A6.41,6.41,0,0,1,98.6,161a6.61,6.61,0,0,1-3.84,2.64,5.48,5.48,0,0,1-4.59-.64,5.45,5.45,0,0,1-3.71,2.77A6.89,6.89,0,0,1,84.71,166Zm1.34-18.82c0,.05-.52.61-.82,1-.69.78-1.38,1.6-2,2.37a20.3,20.3,0,0,0-3.62,6,7.53,7.53,0,0,0-.06,4.26,5.26,5.26,0,0,0,6.65,4,4.37,4.37,0,0,0,3.28-2.76.51.51,0,0,1,.8-.21,4.41,4.41,0,0,0,4.22.84,5.68,5.68,0,0,0,3.26-2.23,5.48,5.48,0,0,0,.62-4.53h0a7.55,7.55,0,0,0-2.12-3.7,20,20,0,0,0-6.08-3.5c-1.14-.49-2.2-.88-2.89-1.12C86.88,147.46,86.17,147.21,86.05,147.2Z"/><path class="cls-4" d="M95.19,158.84C90.72,163.52,91,171.08,91,171.08s7.56,0,12-4.71,4.16-12.23,4.16-12.23S99.66,154.17,95.19,158.84Z"/><path class="cls-5" d="M91,170.36a.5.5,0,0,1-.5-.48c0-.27-.23-6.73,3.71-10.84h0c3.94-4.13,10.48-4.19,10.67-4.19a.5.5,0,0,1,.5.48c0,.27.23,6.73-3.71,10.85S91.2,170.35,91,170.36Zm3.93-10.63c-3,3.17-3.39,8-3.43,9.61,1.56-.1,6.42-.68,9.45-3.85s3.4-8.05,3.43-9.62c-1.56.11-6.42.69-9.45,3.86Z"/><path class="cls-5" d="M91,170.36a.53.53,0,0,1-.35-.13.51.51,0,0,1,0-.71L104.47,155a.5.5,0,0,1,.71,0,.51.51,0,0,1,0,.71L91.31,170.21A.51.51,0,0,1,91,170.36Z"/><path class="cls-4" d="M90,113.89c-5.9,2.67-8.43,9.79-8.43,9.79s7,2.8,12.92.13S103,114,103,114,95.94,111.22,90,113.89Z"/><path class="cls-5" d="M88.09,124.14A18.52,18.52,0,0,1,81.8,123a.5.5,0,0,1-.28-.63c.09-.26,2.3-6.33,7.49-8.68h0c5.18-2.34,11.21,0,11.46.11a.5.5,0,0,1,.29.63c-.09.26-2.31,6.33-7.49,8.68A12.65,12.65,0,0,1,88.09,124.14Zm-5.44-1.91c1.49.49,6.21,1.77,10.2,0s6.16-6.2,6.78-7.64c-1.49-.49-6.21-1.76-10.21,0h0C85.41,116.41,83.26,120.79,82.65,122.23Zm6.56-8.09h0Z"/><path class="cls-5" d="M82,123a.5.5,0,0,1-.21-1l18.3-8.27a.49.49,0,0,1,.66.25.5.5,0,0,1-.25.66L82.19,123A.46.46,0,0,1,82,123Z"/><path class="cls-3" d="M83,114.5a4.89,4.89,0,0,0,4.67-1,4.88,4.88,0,0,0,3.63,3.08,5.74,5.74,0,0,0,7.26-4.4,8,8,0,0,0-.07-4.53,20.35,20.35,0,0,0-3.71-6.16c-.78-1-1.52-1.86-2-2.4-.93-1-1-1.07-1.11-1.1h0c-.13,0-.23,0-1.48.43-.69.25-1.75.64-2.92,1.13A20.47,20.47,0,0,0,81,103.2a8.05,8.05,0,0,0-2.24,3.93A5.75,5.75,0,0,0,83,114.5Z"/><path class="cls-5" d="M91.53,116.34a7,7,0,0,1-1.74-.22,5.46,5.46,0,0,1-3.71-2.78,5.45,5.45,0,0,1-4.59.64,6.57,6.57,0,0,1-3.84-2.64A6.42,6.42,0,0,1,76.9,106a8.41,8.41,0,0,1,2.37-4.16,20.76,20.76,0,0,1,6.4-3.72c1.17-.5,2.25-.89,3-1.14,1.32-.47,1.47-.52,1.77-.44s.44.2,1.38,1.26c.48.54,1.22,1.41,2,2.42a20.87,20.87,0,0,1,3.8,6.33,8.58,8.58,0,0,1,.07,4.79,6.17,6.17,0,0,1-6.13,5Zm-5.24-4.29.12,0a.52.52,0,0,1,.35.31A4.4,4.4,0,0,0,90,115.15a5.68,5.68,0,0,0,3.93-.38,5.47,5.47,0,0,0,2.72-3.67,7.53,7.53,0,0,0-.06-4.26,20.28,20.28,0,0,0-3.62-6c-.79-1-1.52-1.84-2-2.38-.3-.34-.8-.9-.9-1s-.75.28-1.17.43c-.68.25-1.74.64-2.89,1.12a20,20,0,0,0-6.08,3.5,7.48,7.48,0,0,0-2.11,3.71,5.45,5.45,0,0,0,.61,4.52A5.68,5.68,0,0,0,81.74,113a4.43,4.43,0,0,0,4.22-.83A.51.51,0,0,1,86.29,112.05Z"/><path class="cls-4" d="M81.06,109.17c4.47,4.67,4.16,12.23,4.16,12.23s-7.56,0-12-4.71S69,104.46,69,104.46,76.59,104.49,81.06,109.17Z"/><path class="cls-5" d="M85.3,120.69h0c-.28,0-6.74-.07-10.67-4.19s-3.72-10.57-3.71-10.85a.5.5,0,0,1,.5-.48c.25,0,6.73.06,10.67,4.19s3.72,10.58,3.71,10.85A.5.5,0,0,1,85.3,120.69ZM71.92,106.2c0,1.56.4,6.44,3.43,9.61s7.89,3.75,9.45,3.86c0-1.57-.4-6.45-3.43-9.62h0C78.34,106.88,73.48,106.3,71.92,106.2Z"/><path class="cls-5" d="M85.3,120.69a.48.48,0,0,1-.36-.16L71.06,106a.5.5,0,0,1,0-.71.49.49,0,0,1,.7,0l13.88,14.51a.51.51,0,0,1,0,.71A.54.54,0,0,1,85.3,120.69Z"/><path d="M140.28,144.36s-.1,12.1-1.31,14.11-8.35,6.08-8.35,6.08a20.66,20.66,0,0,1,.48-16.09.34.34,0,0,0-.4-.46l-2.16.52s-8.91,2.64-10.13.21c0,0,2.3-5.59,5.13-8.13a16.77,16.77,0,0,1,5.37-3.36,15.75,15.75,0,0,1,3.41,1,17.93,17.93,0,0,1,3.61,3.91l1.22,1.91Z"/><path d="M144.73,144.76s-.86,9.08,0,11.16,2.26,5.89,3.82,6.93a16.5,16.5,0,0,0,4.22,1.7s1.93-6.64,1.28-9.72a45.9,45.9,0,0,0-2.08-6.59,37.8,37.8,0,0,1,4.38.89,40.5,40.5,0,0,1,5.53,2.5l1.11-2.69-4-7.87-2.72-2.36L151.07,141l-4.3,4Z"/><path d="M131.34,244.28c-2.7,0-6.17-2.35-9.23-6.36-2.64-3.46-4.54-8.85-6.21-13.61-.76-2.16-1.48-4.19-2.15-5.69-1.72-3.82-2.09-9.87-2.17-12.39-1.18.52-3.17,1.39-5.15,2.15-3.35,1.29-9.65-1.09-13.81-2.66-3.76-1.41-11-3.3-13.32-3.9-3.13,13-14.39,19.76-16.64,21-.11,1.13-.34,2.33-.58,3.59-.71,3.72-1.43,7.57.48,10.23.31.43.64.83.94,1.19.87,1,1.68,2,1.44,3.16-.19.88-1,1.61-2.48,2.35a6.29,6.29,0,0,1-5.14.18,4.32,4.32,0,0,1-2.47-2.76c0-.06-2.12-7.07-3.3-10.87s-1.35-15.29,2.07-18.71c2-1.95,1.76-5.28,1.47-10.33-.13-2.14-.27-4.58-.27-7.34,0-9.77,9.34-16.62,14.86-19.12,3.22-1.47,11.09-.92,18.7-.38,5.14.36,10,.7,12.46.32,6.07-.94,21.86-5.5,23.39-6.57a90.93,90.93,0,0,1,6.63-7.05.75.75,0,0,1,1.06,0,.75.75,0,0,1,0,1.06,90.26,90.26,0,0,0-6.41,6.78c-.78,1.57-19.85,6.55-24.43,7.26-2.63.4-7.57.06-12.79-.31-7.09-.49-15.11-1.05-18,.25-5.19,2.36-14,8.76-14,17.76,0,2.72.14,5.13.26,7.26.32,5.45.52,9.05-1.89,11.47C51.9,215,51.83,225.75,53,229.44s3.3,10.83,3.32,10.91a2.75,2.75,0,0,0,1.62,1.78A4.83,4.83,0,0,0,61.8,242c1.35-.66,1.63-1.11,1.67-1.32.09-.42-.5-1.13-1.12-1.88-.33-.39-.67-.81-1-1.27-2.29-3.19-1.46-7.55-.74-11.39a37.46,37.46,0,0,0,.61-3.85.74.74,0,0,1,.41-.61c.13-.06,13.43-6.95,16.38-20.91a.77.77,0,0,1,.34-.48.74.74,0,0,1,.58-.1c.39.1,9.65,2.42,14.23,4.15,3.71,1.4,9.92,3.74,12.74,2.66,3-1.16,6.07-2.57,6.1-2.58a.75.75,0,0,1,1.06.68c0,.08,0,8.4,2.06,12.93.7,1.55,1.43,3.62,2.2,5.8,1.64,4.65,3.5,9.93,6,13.2,3.59,4.71,7.11,6.23,8.86,5.65.82-.28,1.24-.55,1.31-.86s-.08-1.49-3.25-4.51c-4-3.84-5.91-16-4.83-23.82.42-3.05,1.23-5.32,2.41-6.74,1.65-2,2.39-3,2.72-3.51a.74.74,0,0,1,.26-.88.88.88,0,0,1,1.26,0c.52.55.52,1-3.09,5.33a12.34,12.34,0,0,0-2.07,6c-1.13,8.19,1,19.35,4.38,22.53,2.89,2.75,4,4.52,3.67,5.92-.25,1.14-1.36,1.64-2.3,2A3.88,3.88,0,0,1,131.34,244.28Z"/><path d="M145.32,240.44a6.85,6.85,0,0,1-3.38-1.15c-5.86-3.52-11.32-14.55-11.84-15.62-.61-.82-6.12-8.37-4.22-12.67l1.37.61c-1.34,3,2.5,9.12,4.09,11.21l.08.13c.05.12,5.64,11.66,11.29,15.05,1.13.68,2.66,1.34,3.52.64A3.2,3.2,0,0,0,147,236c-1.9-1.44-6.53-7.85-7.3-9-2.58-3.9-3.28-14.57-3.31-15s-.45-13.77,2.24-18.17c2.48-4.05,3.7-18.06,3.71-18.2l1.49.13c-.05.59-1.26,14.5-3.92,18.86-2.45,4-2,17.17-2,17.31s.7,10.69,3.06,14.26a65.32,65.32,0,0,0,6.9,8.7.87.87,0,0,1,.54.58,4.59,4.59,0,0,1-1.18,4.35A2.87,2.87,0,0,1,145.32,240.44Zm1.71-4.37a.66.66,0,0,0,.54.25A1.08,1.08,0,0,1,147,236.07Zm.84-1.17Zm-.3-.08h0Z"/><path d="M37.09,238a6.61,6.61,0,0,1-3.21-.92c-2.81-1.59-4.64-4.7-4.25-7.25.53-3.49,4.29-9.38,7.32-11.46,2-1.38,3.18-3.5,4.31-5.56,1.28-2.35,2.49-4.57,4.84-5.4,3.08-1.08,7.46-8.12,8.89-10.74l1.31.72c-.22.4-5.46,9.94-9.7,11.44-1.81.64-2.84,2.52-4,4.7s-2.46,4.5-4.77,6.08c-2.72,1.86-6.22,7.32-6.69,10.45-.29,1.93,1.25,4.44,3.51,5.72a4.07,4.07,0,0,0,4.73-.11c.51-.43.51-1.09.46-2.14a6.74,6.74,0,0,1,.11-1.95c.87-3.26,4.31-8.28,6.95-10.13.58-.4,1.13-.76,1.64-1.09,1.33-.87,2.48-1.62,2.58-2.24l1.48.22c-.2,1.29-1.47,2.12-3.24,3.27-.5.33-1,.68-1.6,1.07A21.14,21.14,0,0,0,41.37,232a5.47,5.47,0,0,0-.06,1.49c0,1.09.11,2.44-1,3.36A5,5,0,0,1,37.09,238Z"/><path class="cls-5" d="M56.42,189.7a.8.8,0,0,1-.3-.06c-7.18-3.12-11.79-8.25-13.72-15.26s-.13-13.24,5.29-17.68a14.36,14.36,0,0,1,8.84-3.54h0a10.27,10.27,0,0,1,8.51,4.63,6.59,6.59,0,0,1,1,3s.11,2.17-.86,2.54a.92.92,0,0,1-1.08-.36c-1.66-2.18-4.85-3.94-7.93-2.64-3.39,1.43-4.85,5.55-5.07,8.64-.46,6.3,4.6,10.26,9.84,10.92a.75.75,0,0,1,.65.84.76.76,0,0,1-.84.65c-6.92-.87-11.61-6.14-11.15-12.51.26-3.52,2-8.23,6-9.92,3.37-1.42,6.81,0,8.94,2.23,0-.13,0-.23,0-.3a5.09,5.09,0,0,0-.8-2.3,8.89,8.89,0,0,0-7.25-3.93h0a12.85,12.85,0,0,0-7.89,3.2c-4.93,4-6.59,9.62-4.8,16.12s6,11.32,12.88,14.29a.75.75,0,0,1-.3,1.43Z"/><path d="M140.28,169.23s-.25-1.42,2.34-1.17,2.77.92,2.72,1.17-.47,2.66-1.31,2.91a1.55,1.55,0,0,1-1.22,0S141.2,172.06,140.28,169.23Z"/><path class="cls-5" d="M113.6,172.25s-5.13,12.11-11.79,14.17c-9.33,2.88-15.6,2.85-18.36,2.51-4.34-.53-12.71-8.09-4.8-14.5C78.65,174.43,97.38,175.23,113.6,172.25Z"/><path class="cls-5" d="M86.34,189.84a25,25,0,0,1-3-.16c-3.08-.38-7.35-3.65-8.44-7.46-.61-2.12-.54-5.29,3.26-8.38a.79.79,0,0,1,.51-.16c.18,0,18.84.76,34.79-2.16a.75.75,0,0,1,.72.26.76.76,0,0,1,.1.77c-.21.5-5.34,12.44-12.26,14.58A53.57,53.57,0,0,1,86.34,189.84ZM78.9,175.19c-2.37,2-3.23,4.24-2.55,6.62a10.05,10.05,0,0,0,7.19,6.38c2.15.26,8.22.55,18-2.49,5-1.55,9.22-9.35,10.73-12.46C97.64,175.72,81.28,175.27,78.9,175.19Z"/><path class="cls-6" d="M123.44,165.59c-3.68,1.93,2.42,6.75,3.68,7.83,3.67,3.12,7.3,6.22,10.83,9.5,1.09,1,1.8,2.34,3.5,2.45,2,.13,4.27-2.3,2.57-3.82-4.49-4-8.78-8.35-13.53-12.11C129.05,168.24,125.75,164.37,123.44,165.59Z"/><path d="M140.25,185.39a1.83,1.83,0,0,1-.33,0,4.54,4.54,0,0,1-2.84-1.77c-.2-.22-.4-.43-.61-.64-3.12-2.93-6.33-5.72-9.44-8.42l-.21-.18c-2.16-1.85-4.6-4.21-4.35-6.11a2.1,2.1,0,0,1,1.3-1.66h0c2-1,4.46,1.37,6.08,2.92.3.29.57.54.79.73,2.75,2.24,5.39,4.73,8,7.14,1.29,1.21,2.59,2.43,3.89,3.62a2.19,2.19,0,0,1,.6,2.63A3.17,3.17,0,0,1,140.25,185.39Zm-15.83-17.45c-.43.2-.45.41-.47.5-.07.61.53,1.94,3.84,4.78l.22.19c3.12,2.71,6.34,5.51,9.48,8.46.24.23.47.47.69.71a3.11,3.11,0,0,0,1.92,1.3,1.68,1.68,0,0,0,1.61-.87.71.71,0,0,0-.23-.9c-1.32-1.2-2.62-2.42-3.92-3.64-2.54-2.39-5.16-4.86-7.88-7.08-.25-.21-.54-.48-.87-.8-1.08-1-3.32-3.18-4.39-2.65Z"/><path class="cls-6" d="M124,166.6s-7.37-3.41-4-13.53C120,153.07,129.12,159.34,124,166.6Z"/><path class="cls-6" d="M107.15,166.6s5,6.36,14.09.73C121.24,167.33,113,159.9,107.15,166.6Z"/><path d="M122.91,168.44l-.57-.26c-.07,0-7.15-3.44-4-13l.32-.95.82.57c.18.12,4.43,3.08,5.19,7.33a7.52,7.52,0,0,1-1.42,5.81Zm-3.43-11.76c-1.61,6.13,1.58,8.94,2.93,9.82a6,6,0,0,0,.81-4.11C122.76,159.81,120.66,157.7,119.48,156.68Z"/><path d="M114.64,171.15a9.1,9.1,0,0,1-5.93-2.18l-.45-.43.35-.52a7.48,7.48,0,0,1,4.92-3.41c4.24-.81,8.52,2.11,8.7,2.23l.82.57-.77.63A12,12,0,0,1,114.64,171.15Zm-4.38-2.85c1.31.94,5.09,2.9,10.21-.76-1.37-.75-4.09-1.95-6.67-1.45A5.85,5.85,0,0,0,110.26,168.3Z"/><path d="M142.8,176.8a12,12,0,0,1-9.74-5.1,29.15,29.15,0,0,1-4.36-17.82,18.17,18.17,0,0,1,2.36-6.77c-.41-.15-.86-.26-1.08-.12-1,.54-8.3,2.78-10.3,1.68a1.29,1.29,0,0,1-.71-1.09c-.14-3,6.56-8.69,7.9-9.8a3.75,3.75,0,0,1,3.29-1.26c3.4.43,6.61,5.45,7.44,6.85l8.74.79a7.87,7.87,0,0,1,1.68-1.87c.51-.42,5-4.12,8.23-4.33,3.43-.25,7.34,10.24,7.49,12.06a.78.78,0,0,1,0,.3,2.47,2.47,0,0,1-1.46,1.5,2.91,2.91,0,0,1-2.62-.6c-1.43-1-4.53-1.67-6.35-2a19.26,19.26,0,0,1,1.53,5.54c.37,3.76-.59,8-3.69,16.28a8.41,8.41,0,0,1-7.21,5.7A10.28,10.28,0,0,1,142.8,176.8Zm-10.3-29.17a16,16,0,0,0-2.3,6.39,27.89,27.89,0,0,0,4.12,16.86,10.42,10.42,0,0,0,9.41,4.37,7,7,0,0,0,6-4.73c3-8,3.94-12.11,3.59-15.62a18.51,18.51,0,0,0-2-6.29.77.77,0,0,1,0-.79.74.74,0,0,1,.72-.32c.25,0,6,.84,8.4,2.49a1.64,1.64,0,0,0,1.3.41.86.86,0,0,0,.45-.43,27,27,0,0,0-2.33-6.08c-1.82-3.57-3.08-4.46-3.54-4.43-2.22.14-5.79,2.67-7.37,4a5.47,5.47,0,0,0-1.52,1.8.76.76,0,0,1-.76.45l-9.62-.86a.76.76,0,0,1-.59-.38c-.93-1.68-3.93-6.12-6.52-6.44a2.36,2.36,0,0,0-2.07.86c-3.1,2.57-7.31,6.79-7.43,8.53,1.15.53,7.53-1,8.76-1.72a3.38,3.38,0,0,1,2.9.23,1,1,0,0,1,.33-.12.89.89,0,0,1,1,.59.93.93,0,0,1-.17,1A.85.85,0,0,1,132.5,147.63Z"/><path class="cls-1" d="M134.49,154.14a.75.75,0,0,1-.18-1.48,8.46,8.46,0,0,1,3-.33.75.75,0,0,1,.53.92.74.74,0,0,1-.92.53,9.52,9.52,0,0,0-2.21.33Z"/><path class="cls-1" d="M149.06,154a.73.73,0,0,1-.35-.09,9.47,9.47,0,0,0-2.24-.18.75.75,0,0,1-.76-.74.76.76,0,0,1,.75-.76,8.69,8.69,0,0,1,2.95.35.75.75,0,0,1-.35,1.42Z"/><path class="cls-7" d="M51.44,268.67l3.62-9.59,3.45-7.26,38.16-14.07,24.65,4.91,19.08-5s13-8.57,17.77-8.4l11.17.33L181,227.25V276.4L40.84,278.14Z"/><path d="M180.59,278.89H44.07l0-.7c-.18-2.86,28.67-17,45.5-18.84l13-5.79,19.38-9.7,18.49-5c1.47-1.09,14.51-10.54,22.9-9.06a50,50,0,0,0,16.38-.14l.9-.18Zm-133.94-1.5H179.09V231.28a50.88,50.88,0,0,1-16,0c-8.08-1.43-21.72,8.76-21.86,8.86l-.11.09-18.69,5.06-19.21,9.64-13.38,5.9C73.8,262.56,52,273.68,46.65,277.39Z"/><path d="M68.34,278.82l-.62-1.36c.79-.36,19.49-8.81,29.12-11,9.08-2,25.63-3.81,27.56-4l13.66-9,.27,0c.55.06,13.18,1.36,18.53,6.23l8.78-2.9,14.16-.67.08,1.49-14.07.67-9.34,3.12-.33-.33c-4.38-4.38-15.82-5.87-17.7-6.09l-13.52,8.92h-.19c-.17,0-18,1.9-27.56,4S68.53,278.74,68.34,278.82Z"/><path d="M103.18,276.75l-.67-1.34c.85-.43,21-10.33,30.87-10,9.28.36,26,2.63,27.75,2.87l11.54-2.89h7.17v1.5h-7.07l-11.56,2.91-.14,0c-.18,0-18.08-2.5-27.75-2.88S103.38,276.65,103.18,276.75Z"/><path d="M55.79,272l-1.45-.4,4.94-17.87.32-.15c1.11-.51,27.38-12.72,33.81-14.72,6.61-2.05,28,4.72,28.93,5l-.45,1.43c-.22-.07-21.87-6.9-28-5-6,1.84-30.25,13.08-33.31,14.5Z"/><path class="cls-4" d="M88.11,62.33c5.29,3.72,6.44,11.2,6.44,11.2S87.13,75,81.84,71.23,75.4,60,75.4,60,82.82,58.6,88.11,62.33Z"/><path class="cls-5" d="M91.44,73.06a14.37,14.37,0,0,1-8.23-2.3c-4.65-3.27-5.68-9.66-5.73-9.93a.5.5,0,0,1,.4-.56c.27-.06,6.63-1.23,11.28,2h0c4.65,3.27,5.69,9.66,5.73,9.93a.5.5,0,0,1-.4.56A16.52,16.52,0,0,1,91.44,73.06ZM78.57,61.17c.34,1.53,1.63,6.25,5.22,8.78s8.46,2.16,10,2c-.33-1.53-1.63-6.25-5.21-8.78S80.12,61,78.57,61.17Z"/><path class="cls-5" d="M94.39,72.82a.47.47,0,0,1-.28-.09L77.69,61.17a.5.5,0,1,1,.58-.82L94.68,71.91a.5.5,0,0,1,.12.7A.48.48,0,0,1,94.39,72.82Z"/><path class="cls-4" d="M103.42,59.26C98.15,63,97,70.49,97,70.49s7.44,1.4,12.71-2.36,6.38-11.23,6.38-11.23S108.69,55.51,103.42,59.26Z"/><path class="cls-5" d="M100,70a17.45,17.45,0,0,1-2.94-.23.5.5,0,0,1-.41-.56c0-.27,1-6.66,5.68-10s11-2.16,11.27-2.11a.5.5,0,0,1,.4.57c0,.27-1,6.65-5.68,10A14.42,14.42,0,0,1,100,70Zm-2.26-1.14c1.55.19,6.43.54,10-2s4.85-7.27,5.18-8.8c-1.56-.19-6.44-.53-10,2h0C99.37,62.62,98.1,67.34,97.78,68.87Zm4.88-9.21h0Z"/><path class="cls-5" d="M97.19,69.79a.5.5,0,0,1-.29-.91l16.36-11.65a.5.5,0,0,1,.58.82L97.48,69.7A.52.52,0,0,1,97.19,69.79Z"/><path class="cls-3" d="M92.33,66.31a4.89,4.89,0,0,0,4.41-1.83,4.85,4.85,0,0,0,4.16,2.32,5.74,5.74,0,0,0,6.27-5.72,8.08,8.08,0,0,0-.94-4.42,20.41,20.41,0,0,0-4.83-5.34c-1-.82-1.85-1.52-2.43-2-1.11-.84-1.16-.85-1.3-.86h0c-.13,0-.22,0-1.37.7-.63.37-1.59,1-2.65,1.67a20.41,20.41,0,0,0-5.43,4.75,8.1,8.1,0,0,0-1.44,4.29A5.75,5.75,0,0,0,92.33,66.31Z"/><path class="cls-5" d="M99.73,66.6h-.41a5.47,5.47,0,0,1-4.17-2,5.45,5.45,0,0,1-4.39,1.51,6.23,6.23,0,0,1-6-6.94,8.49,8.49,0,0,1,1.53-4.54,21.06,21.06,0,0,1,5.56-4.88c1.07-.71,2-1.31,2.67-1.68,1.19-.71,1.37-.8,1.66-.78s.47.11,1.59,1c.58.44,1.48,1.15,2.46,2a21,21,0,0,1,4.94,5.48,8.51,8.51,0,0,1,1,4.69A6.21,6.21,0,0,1,99.73,66.6ZM95.2,63.27h0a.52.52,0,0,1,.4.24,4.4,4.4,0,0,0,3.75,2.08,5.27,5.27,0,0,0,5.75-5.25,7.54,7.54,0,0,0-.89-4.17A19.86,19.86,0,0,0,99.53,51c-1-.82-1.84-1.51-2.41-1.94a13,13,0,0,0-1.06-.78s-.68.42-1.07.65c-.62.36-1.58,1-2.62,1.65a20,20,0,0,0-5.29,4.61,7.58,7.58,0,0,0-1.36,4,5.27,5.27,0,0,0,5.1,5.88h0a4.46,4.46,0,0,0,4-1.63A.51.51,0,0,1,95.2,63.27Z"/><path class="cls-4" d="M97.53,88.64c-5.89,2.66-8.43,9.79-8.43,9.79s7,2.8,12.92.13,8.43-9.79,8.43-9.79S103.43,86,97.53,88.64Z"/><path class="cls-5" d="M95.58,98.88a18.55,18.55,0,0,1-6.28-1.14.5.5,0,0,1-.29-.63c.09-.26,2.3-6.34,7.49-8.68h0c5.18-2.35,11.21,0,11.46.1a.51.51,0,0,1,.29.64c-.09.25-2.3,6.33-7.49,8.67A12.46,12.46,0,0,1,95.58,98.88ZM90.14,97c1.49.48,6.21,1.76,10.21,0s6.15-6.19,6.77-7.63c-1.49-.49-6.21-1.77-10.21,0h0C92.91,91.15,90.76,95.54,90.14,97Zm6.57-8.1h0Z"/><path class="cls-5" d="M89.48,97.77a.49.49,0,0,1-.45-.29.49.49,0,0,1,.25-.66l18.29-8.28a.5.5,0,0,1,.66.25.49.49,0,0,1-.25.66L89.69,97.73A.52.52,0,0,1,89.48,97.77Z"/><path class="cls-3" d="M90.48,89.24a4.87,4.87,0,0,0,4.67-.94,4.9,4.9,0,0,0,3.63,3.08A5.75,5.75,0,0,0,106,87a8.08,8.08,0,0,0-.06-4.52,20.81,20.81,0,0,0-3.71-6.17c-.79-1-1.53-1.85-2-2.4-.93-1-1-1.06-1.11-1.1h0c-.12,0-.22,0-1.48.43-.69.24-1.75.63-2.92,1.12A20.45,20.45,0,0,0,88.49,78a8,8,0,0,0-2.24,3.93A5.75,5.75,0,0,0,90.48,89.24Z"/><path class="cls-5" d="M99,91.08a6.75,6.75,0,0,1-1.74-.22,5.42,5.42,0,0,1-3.71-2.78,5.47,5.47,0,0,1-4.6.64h0a6.22,6.22,0,0,1-4.59-8,8.45,8.45,0,0,1,2.37-4.16,21.17,21.17,0,0,1,6.4-3.72c1.19-.49,2.26-.89,3-1.13,1.33-.47,1.48-.52,1.78-.45s.43.21,1.37,1.26c.48.55,1.23,1.41,2,2.42a21,21,0,0,1,3.79,6.34,8.49,8.49,0,0,1,.07,4.79A6.14,6.14,0,0,1,99,91.08ZM93.78,86.8h.12a.53.53,0,0,1,.35.32,4.39,4.39,0,0,0,3.29,2.76,5.26,5.26,0,0,0,6.64-4,7.53,7.53,0,0,0-.06-4.26,20.3,20.3,0,0,0-3.62-6c-.78-1-1.52-1.84-2-2.37a12.71,12.71,0,0,0-.9-1s-.75.28-1.17.43c-.68.24-1.73.63-2.89,1.11a20.16,20.16,0,0,0-6.08,3.51A7.53,7.53,0,0,0,85.36,81a5.28,5.28,0,0,0,3.87,6.76,4.42,4.42,0,0,0,4.22-.84A.5.5,0,0,1,93.78,86.8Z"/><path class="cls-4" d="M88.55,83.91c4.48,4.68,4.17,12.23,4.17,12.23s-7.57,0-12-4.7-4.16-12.23-4.16-12.23S84.08,79.24,88.55,83.91Z"/><path class="cls-5" d="M92.79,95.43c-.26,0-6.72-.05-10.67-4.18S78.4,80.67,78.41,80.4a.51.51,0,0,1,.5-.48h0c.27,0,6.73.07,10.67,4.19S93.3,94.68,93.29,95A.5.5,0,0,1,92.79,95.43ZM79.41,80.94c0,1.57.4,6.44,3.43,9.62s7.89,3.75,9.45,3.85c0-1.57-.39-6.44-3.43-9.61S81,81.05,79.41,80.94Z"/><path class="cls-5" d="M92.79,95.43a.51.51,0,0,1-.36-.15L78.55,80.77a.51.51,0,0,1,.73-.7L93.15,94.59a.49.49,0,0,1,0,.7A.47.47,0,0,1,92.79,95.43Z"/><path d="M183.88,280.58h-173V10.85h173Zm-169-4h165V14.85h-165Z"/><path class="cls-1" d="M137.64,158.21a.72.72,0,0,1-.35-.08,2.49,2.49,0,0,0-1.2-.3.81.81,0,0,1-1-.46.76.76,0,0,1,.39-1,3.41,3.41,0,0,1,2.52.34.78.78,0,0,1,.36,1.05A.79.79,0,0,1,137.64,158.21Z"/><path class="cls-1" d="M147.39,159.21a.79.79,0,0,1-.71-.44.78.78,0,0,1,.36-1.05,3.44,3.44,0,0,1,2.52-.34.79.79,0,0,1-.63,1.45,2.48,2.48,0,0,0-1.19.3A.74.74,0,0,1,147.39,159.21Z"/></svg>