<svg id="圖層_1" data-name="圖層 1" xmlns="http://www.w3.org/2000/svg" viewBox="0 0 194.94 294.58"><defs><style>.cls-1{fill:#fff;}.cls-2{fill:#170000;}.cls-3{fill:#da003a;}.cls-4{fill:#4fad28;}.cls-5{fill:#231815;}.cls-6{fill:#c21823;}.cls-7{fill:#ffb4c0;}</style></defs><title>新接龍</title><rect class="cls-1" x="12.88" y="12.85" width="169" height="265.73"/><path d="M183.88,280.58h-173V10.85h173Zm-169-4h165V14.85h-165Z"/><path class="cls-2" d="M27.62,32.33a5.82,5.82,0,0,1,2.32-1.7A6.84,6.84,0,0,1,28.11,29a3.51,3.51,0,0,1-.64-2.14,3.34,3.34,0,0,1,.63-2,3.88,3.88,0,0,1,1.68-1.29A5.61,5.61,0,0,1,32,23.11a5.06,5.06,0,0,1,3.13.9,2.88,2.88,0,0,1,1.18,2.41,3.6,3.6,0,0,1-.69,2.12,5.85,5.85,0,0,1-2,1.69,10.57,10.57,0,0,1,2.49,1.83A3.17,3.17,0,0,1,37,34.35a3.34,3.34,0,0,1-.71,2.13,4.67,4.67,0,0,1-1.9,1.42,6.53,6.53,0,0,1-2.56.5,7.1,7.1,0,0,1-2.42-.4,4.1,4.1,0,0,1-1.86-1.28,3.32,3.32,0,0,1-.72-2.19A3.57,3.57,0,0,1,27.62,32.33Zm6.86,1.16a4.42,4.42,0,0,0-1.06-1c-.42-.27-1-.59-1.73-1-.38-.19-.66-.34-.85-.45a4.26,4.26,0,0,0-1.52,1.29,2.87,2.87,0,0,0-.59,1.73A3,3,0,0,0,32,37.38a3.25,3.25,0,0,0,1.39-.32,2.92,2.92,0,0,0,1.1-.93,2.31,2.31,0,0,0,.42-1.36A2.07,2.07,0,0,0,34.48,33.49ZM29.76,27.7a4,4,0,0,0,1.08,1c.43.26,1.05.61,1.85,1a4,4,0,0,0,1.42-1.22,2.75,2.75,0,0,0,.53-1.61,2.9,2.9,0,0,0-.73-2.08A2.57,2.57,0,0,0,32,24.05a2.82,2.82,0,0,0-1.88.64,2.13,2.13,0,0,0-.77,1.73A2,2,0,0,0,29.76,27.7Z"/><path class="cls-3" d="M167.94,23.05a4.11,4.11,0,0,0-3.6,1.74,4.07,4.07,0,0,0-3.58-1.74,4.81,4.81,0,0,0-5,5.08,6.75,6.75,0,0,0,1,3.66,17.39,17.39,0,0,0,4.3,4.22c.84.64,1.62,1.19,2.13,1.53,1,.65,1,.66,1.12.66h0c.11,0,.18,0,1.11-.66.51-.34,1.29-.88,2.13-1.52a17.3,17.3,0,0,0,4.31-4.23,6.72,6.72,0,0,0,1-3.66A4.81,4.81,0,0,0,167.94,23.05Z"/><path class="cls-4" d="M88.11,105.24c6,2.52,8.69,9.57,8.69,9.57s-7,3-12.92.47-8.68-9.57-8.68-9.57S82.15,102.73,88.11,105.24Z"/><path class="cls-5" d="M89.93,115.44a12.34,12.34,0,0,1-4.8-.91c-5.25-2.21-7.62-8.22-7.72-8.48a.52.52,0,0,1,.27-.64c.25-.11,6.21-2.61,11.46-.4s7.61,8.22,7.71,8.48a.5.5,0,0,1-.27.64A18.62,18.62,0,0,1,89.93,115.44Zm-11.38-9.29c.65,1.42,2.92,5.75,7,7.46s8.73.31,10.21-.22c-.66-1.42-2.93-5.76-7-7.46h0C84.7,104.22,80,105.62,78.55,106.15Z"/><path class="cls-5" d="M96.38,114.17a.43.43,0,0,1-.19,0l-18.5-7.8a.5.5,0,1,1,.38-.92l18.51,7.8a.51.51,0,0,1,.27.65A.52.52,0,0,1,96.38,114.17Z"/><path class="cls-4" d="M102.42,99c-4.35,4.79-3.85,12.34-3.85,12.34s7.56-.22,11.91-5S114.33,94,114.33,94,106.77,94.19,102.42,99Z"/><path class="cls-5" d="M98.47,110.61a.49.49,0,0,1-.5-.47c0-.27-.41-6.72,3.42-10.94s10.29-4.45,10.56-4.46a.51.51,0,0,1,.51.47c0,.27.41,6.73-3.42,10.94s-10.29,4.45-10.56,4.46Zm13-14.83c-1.56.14-6.4.85-9.35,4.1S98.94,108,99,109.57c1.56-.14,6.4-.84,9.35-4.09S111.48,97.35,111.48,95.78Z"/><path class="cls-5" d="M98.47,110.61a.5.5,0,0,1-.37-.84l13.49-14.86a.51.51,0,0,1,.71,0,.5.5,0,0,1,0,.71L98.84,110.45A.5.5,0,0,1,98.47,110.61Z"/><path class="cls-3" d="M93.09,108.23A4.87,4.87,0,0,0,97,105.51a4.89,4.89,0,0,0,4.56,1.38,5.75,5.75,0,0,0,4.91-6.93,8.13,8.13,0,0,0-1.86-4.12,20.53,20.53,0,0,0-5.86-4.18c-1.11-.6-2.13-1.1-2.79-1.41-1.27-.59-1.32-.59-1.45-.57h0c-.13,0-.21.07-1.19,1-.53.5-1.35,1.28-2.23,2.19a20.66,20.66,0,0,0-4.29,5.8,8.05,8.05,0,0,0-.49,4.5A5.75,5.75,0,0,0,93.09,108.23Z"/><path class="cls-5" d="M90.4,108.44a6.18,6.18,0,0,1-6.27-5.58,8.43,8.43,0,0,1,.52-4.76A21,21,0,0,1,89,92.15c.88-.92,1.71-1.71,2.25-2.22,1-.94,1.16-1.06,1.46-1.11s.48,0,1.76.61c.66.31,1.69.81,2.82,1.42a21,21,0,0,1,6,4.3,8.45,8.45,0,0,1,2,4.36A6.22,6.22,0,0,1,100,107a5.46,5.46,0,0,1-4.51-1.07,5.43,5.43,0,0,1-4,2.41h0A6.92,6.92,0,0,1,90.4,108.44ZM92.88,89.8s-.58.56-.91.87c-.53.49-1.34,1.27-2.2,2.17a20,20,0,0,0-4.19,5.63,7.59,7.59,0,0,0-.47,4.24,5.5,5.5,0,0,0,2.37,3.91,5.7,5.7,0,0,0,3.87.75h0a4.41,4.41,0,0,0,3.54-2.45.49.49,0,0,1,.38-.27.49.49,0,0,1,.44.15A4.42,4.42,0,0,0,99.82,106a5.27,5.27,0,0,0,4.49-6.36,7.49,7.49,0,0,0-1.75-3.88,19.88,19.88,0,0,0-5.7-4.06c-1.12-.6-2.13-1.09-2.77-1.39C93.68,90.15,93,89.83,92.88,89.8Z"/><path class="cls-4" d="M49.46,72.37C53.93,77,53.62,84.6,53.62,84.6s-7.56,0-12-4.71-4.16-12.23-4.16-12.23S45,67.69,49.46,72.37Z"/><path class="cls-5" d="M53.7,83.89h0c-.28,0-6.74-.08-10.67-4.19s-3.72-10.57-3.71-10.85a.5.5,0,0,1,.5-.48h0c.28,0,6.74.07,10.67,4.19s3.72,10.57,3.71,10.85A.5.5,0,0,1,53.7,83.89ZM40.32,69.4c0,1.56.4,6.44,3.43,9.61s7.89,3.75,9.45,3.85c0-1.56-.39-6.44-3.43-9.61h0C46.73,70.07,41.88,69.5,40.32,69.4Z"/><path class="cls-5" d="M53.7,83.89a.52.52,0,0,1-.36-.16L39.46,69.22a.5.5,0,0,1,0-.71.49.49,0,0,1,.7,0L54.06,83a.51.51,0,0,1,0,.71A.54.54,0,0,1,53.7,83.89Z"/><path class="cls-4" d="M65.07,72.31C59.18,75,56.64,82.1,56.64,82.1s7,2.8,12.92.14S78,72.45,78,72.45,71,69.64,65.07,72.31Z"/><path class="cls-5" d="M63.12,82.56a18.43,18.43,0,0,1-6.28-1.15.5.5,0,0,1-.29-.63c.09-.26,2.31-6.33,7.49-8.68h0c5.19-2.34,11.21,0,11.47.11a.5.5,0,0,1,.28.63c-.09.26-2.3,6.33-7.49,8.68A12.62,12.62,0,0,1,63.12,82.56Zm-5.44-1.91c1.49.49,6.21,1.77,10.21,0s6.16-6.2,6.77-7.64c-1.49-.49-6.2-1.76-10.2,0S58.3,79.21,57.68,80.65Z"/><path class="cls-5" d="M57,81.45a.49.49,0,0,1-.45-.3.51.51,0,0,1,.25-.66l18.3-8.27a.5.5,0,0,1,.41.91L57.23,81.4A.54.54,0,0,1,57,81.45Z"/><path class="cls-3" d="M52.84,77.09a4.92,4.92,0,0,0,4.67-.94,4.9,4.9,0,0,0,3.63,3.08,5.76,5.76,0,0,0,7.26-4.41,8,8,0,0,0-.07-4.52,20.38,20.38,0,0,0-3.71-6.17c-.78-1-1.52-1.85-2-2.4-.93-1-1-1.06-1.11-1.1h0c-.13,0-.22,0-1.48.43-.69.24-1.75.63-2.92,1.12a20.47,20.47,0,0,0-6.24,3.61,8.05,8.05,0,0,0-2.24,3.93A5.76,5.76,0,0,0,52.84,77.09Z"/><path class="cls-5" d="M61.39,78.93a7.36,7.36,0,0,1-1.75-.22,5.42,5.42,0,0,1-3.7-2.78,5.47,5.47,0,0,1-4.6.64h0a6.55,6.55,0,0,1-3.83-2.64,6.38,6.38,0,0,1-.76-5.33,8.45,8.45,0,0,1,2.37-4.16,20.76,20.76,0,0,1,6.4-3.72c1.17-.49,2.25-.89,2.95-1.14,1.3-.46,1.48-.51,1.77-.44s.44.2,1.38,1.26c.7.8,1.4,1.64,2,2.42a20.89,20.89,0,0,1,3.8,6.34,8.54,8.54,0,0,1,.07,4.78A6.14,6.14,0,0,1,61.39,78.93Zm-5.25-4.28h.12a.51.51,0,0,1,.35.32,4.41,4.41,0,0,0,3.28,2.76,5.27,5.27,0,0,0,6.65-4,7.57,7.57,0,0,0-.06-4.27,20.28,20.28,0,0,0-3.62-6c-.61-.77-1.3-1.59-2-2.38-.3-.33-.8-.89-.9-1s-.75.29-1.17.44c-.68.24-1.74.63-2.89,1.11a19.74,19.74,0,0,0-6.08,3.51,7.41,7.41,0,0,0-2.11,3.7,5.45,5.45,0,0,0,.61,4.52,5.64,5.64,0,0,0,3.26,2.23,4.4,4.4,0,0,0,4.22-.83A.5.5,0,0,1,56.14,74.65Z"/><path class="cls-4" d="M93.81,83c6,2.51,8.68,9.57,8.68,9.57s-6.95,3-12.91.46-8.69-9.57-8.69-9.57S87.84,80.46,93.81,83Z"/><path class="cls-5" d="M95.62,93.17a12.32,12.32,0,0,1-4.8-.9c-5.25-2.22-7.62-8.23-7.71-8.49a.48.48,0,0,1,.27-.63c.25-.11,6.21-2.62,11.45-.41h0c5.25,2.21,7.61,8.23,7.71,8.48a.49.49,0,0,1-.27.64A18.38,18.38,0,0,1,95.62,93.17ZM84.24,83.89c.65,1.42,2.92,5.75,7,7.45s8.72.31,10.2-.22c-.65-1.42-2.92-5.75-7-7.46h0C90.4,82,85.72,83.36,84.24,83.89Z"/><path class="cls-5" d="M102.08,91.9a.48.48,0,0,1-.2,0l-18.5-7.79a.5.5,0,0,1-.27-.66.52.52,0,0,1,.66-.27l18.5,7.8a.52.52,0,0,1,.27.66A.5.5,0,0,1,102.08,91.9Z"/><path class="cls-4" d="M108.11,76.72c-4.35,4.79-3.84,12.33-3.84,12.33s7.55-.22,11.9-5S120,71.7,120,71.7,112.46,71.93,108.11,76.72Z"/><path class="cls-5" d="M104.16,88.34a.5.5,0,0,1-.5-.46c0-.28-.4-6.73,3.42-10.94s10.29-4.45,10.56-4.46a.54.54,0,0,1,.52.46c0,.28.4,6.73-3.43,10.94s-10.28,4.46-10.56,4.46Zm13-14.83c-1.56.15-6.4.85-9.35,4.1s-3.18,8.13-3.18,9.7c1.57-.15,6.4-.85,9.35-4.1S117.18,75.08,117.17,73.51Z"/><path class="cls-5" d="M104.16,88.34a.5.5,0,0,1-.34-.13.49.49,0,0,1,0-.7l13.5-14.87a.5.5,0,0,1,.74.67l-13.5,14.87A.5.5,0,0,1,104.16,88.34Z"/><path class="cls-3" d="M98.78,86a4.92,4.92,0,0,0,3.92-2.73,4.86,4.86,0,0,0,4.55,1.39,5.76,5.76,0,0,0,4.91-6.93,8,8,0,0,0-1.86-4.13,20.6,20.6,0,0,0-5.85-4.18c-1.12-.6-2.14-1.09-2.8-1.4-1.27-.59-1.31-.59-1.45-.57h0c-.13,0-.22.08-1.19,1-.54.49-1.36,1.27-2.23,2.19a20.38,20.38,0,0,0-4.29,5.79,8,8,0,0,0-.5,4.5A5.76,5.76,0,0,0,98.78,86Z"/><path class="cls-5" d="M96.1,86.18a6.22,6.22,0,0,1-6.28-5.58,8.51,8.51,0,0,1,.52-4.76,20.87,20.87,0,0,1,4.4-6c.88-.92,1.71-1.71,2.25-2.21,1-1,1.15-1.07,1.45-1.12s.49,0,1.76.61c.66.31,1.69.81,2.82,1.42a21,21,0,0,1,6,4.3,8.58,8.58,0,0,1,2,4.37,6.46,6.46,0,0,1-1.26,5.24,6.59,6.59,0,0,1-4.07,2.26,5.45,5.45,0,0,1-4.51-1.08,5.45,5.45,0,0,1-4,2.42h0A6.89,6.89,0,0,1,96.1,86.18Zm1-.59h0Zm1.45-18s-.55.54-.9.86c-.53.49-1.35,1.27-2.21,2.17a20,20,0,0,0-4.19,5.64,7.46,7.46,0,0,0-.46,4.23,5.42,5.42,0,0,0,2.36,3.91,5.66,5.66,0,0,0,3.88.75h0a4.41,4.41,0,0,0,3.54-2.44.48.48,0,0,1,.37-.28.48.48,0,0,1,.44.15,4.41,4.41,0,0,0,4.11,1.23A5.61,5.61,0,0,0,109,81.85,5.47,5.47,0,0,0,110,77.4a7.57,7.57,0,0,0-1.75-3.88,20.16,20.16,0,0,0-5.71-4.06c-1.11-.6-2.12-1.09-2.77-1.39C99.37,67.88,98.69,67.56,98.57,67.54Z"/><path class="cls-4" d="M51.31,107.81c5.9,2.67,8.44,9.79,8.44,9.79s-7,2.8-12.92.13-8.44-9.79-8.44-9.79S45.42,105.14,51.31,107.81Z"/><path class="cls-5" d="M53.27,118.06a12.62,12.62,0,0,1-5.18-1c-5.19-2.35-7.4-8.42-7.49-8.68a.5.5,0,0,1,.28-.63c.26-.1,6.28-2.45,11.47-.11s7.39,8.42,7.49,8.68a.5.5,0,0,1-.29.63A18.5,18.5,0,0,1,53.27,118.06Zm-11.54-9.59c.61,1.44,2.77,5.83,6.77,7.64s8.72.53,10.21,0c-.62-1.44-2.78-5.83-6.78-7.64h0C47.93,106.7,43.21,108,41.73,108.47Z"/><path class="cls-5" d="M59.36,117a.53.53,0,0,1-.2,0l-18.3-8.27a.5.5,0,0,1,.41-.91L59.57,116a.51.51,0,0,1,.25.66A.49.49,0,0,1,59.36,117Z"/><path class="cls-3" d="M65.06,103.85a8.05,8.05,0,0,0-2.24-3.93,20.6,20.6,0,0,0-6.24-3.61c-1.18-.49-2.24-.88-2.92-1.13-1.26-.44-1.36-.46-1.49-.43h0c-.13,0-.18,0-1.1,1.1-.48.54-1.22,1.4-2,2.4a20.57,20.57,0,0,0-3.71,6.16,8,8,0,0,0-.07,4.53,5.75,5.75,0,0,0,7.26,4.4,4.86,4.86,0,0,0,3.63-3.08,4.89,4.89,0,0,0,4.68.94A5.75,5.75,0,0,0,65.06,103.85Z"/><path class="cls-5" d="M52.27,113.06a6.15,6.15,0,0,1-6.12-5,8.49,8.49,0,0,1,.08-4.79A20.88,20.88,0,0,1,50,97c.62-.79,1.32-1.62,2-2.42.93-1.06,1.05-1.18,1.35-1.26s.49,0,1.8.44c.7.25,1.77.65,2.94,1.14a20.64,20.64,0,0,1,6.4,3.72,8.5,8.5,0,0,1,2.38,4.16h0a6.23,6.23,0,0,1-4.59,8,5.47,5.47,0,0,1-4.6-.64A5.46,5.46,0,0,1,54,112.84,7.23,7.23,0,0,1,52.27,113.06Zm1.34-18.82c0,.05-.52.61-.81,1-.7.79-1.39,1.61-2,2.38a19.84,19.84,0,0,0-3.62,6,7.62,7.62,0,0,0-.07,4.26,5.28,5.28,0,0,0,6.65,4.05,4.42,4.42,0,0,0,3.29-2.77.48.48,0,0,1,.34-.31.52.52,0,0,1,.46.11,4.42,4.42,0,0,0,4.22.83A5.27,5.27,0,0,0,66,103h0a7.64,7.64,0,0,0-2.11-3.71,20.1,20.1,0,0,0-6.08-3.5c-1.15-.48-2.21-.87-2.9-1.12A13.09,13.09,0,0,0,53.61,94.24Z"/><path class="cls-4" d="M62.75,105.89c-4.47,4.67-4.16,12.23-4.16,12.23s7.56,0,12-4.71,4.17-12.23,4.17-12.23S67.23,101.21,62.75,105.89Z"/><path class="cls-5" d="M58.51,117.41a.51.51,0,0,1-.5-.48c0-.28-.22-6.74,3.71-10.85h0c3.93-4.11,10.4-4.18,10.67-4.19h0a.5.5,0,0,1,.5.48c0,.28.23,6.74-3.7,10.85s-10.4,4.19-10.67,4.19Zm3.93-10.64c-3,3.17-3.39,8-3.43,9.61,1.57-.1,6.42-.68,9.46-3.85s3.39-8,3.42-9.61c-1.56.1-6.41.68-9.45,3.85Z"/><path class="cls-5" d="M58.51,117.41a.51.51,0,0,1-.34-.14.5.5,0,0,1,0-.71L72,102.05a.5.5,0,1,1,.72.69L58.88,117.25A.49.49,0,0,1,58.51,117.41Z"/><path class="cls-4" d="M102.37,137c-2.26,6.07,1,12.89,1,12.89s6.94-3,9.21-9.07-1-12.88-1-12.88S104.64,130.9,102.37,137Z"/><path class="cls-5" d="M102.82,149.26a.5.5,0,0,1-.45-.28c-.12-.25-2.86-6.1-.87-11.43h0c2-5.33,7.91-8,8.16-8.06a.52.52,0,0,1,.65.25c.12.24,2.86,6.1.87,11.43s-7.91,7.94-8.16,8.05A.45.45,0,0,1,102.82,149.26Zm-.38-11.36c-1.54,4.11,0,8.73.64,10.19,1.39-.72,5.63-3.16,7.16-7.27s0-8.74-.64-10.19c-1.39.71-5.63,3.16-7.16,7.27Z"/><path class="cls-5" d="M102.82,149.26l-.17,0a.5.5,0,0,1-.3-.64l7-18.81a.5.5,0,1,1,.93.35l-7,18.81A.49.49,0,0,1,102.82,149.26Z"/><path class="cls-4" d="M88,143.07c6.47.12,11.61,5.67,11.61,5.67s-5.35,5.34-11.82,5.22-11.61-5.67-11.61-5.67S81.53,142.94,88,143.07Z"/><path class="cls-5" d="M88.87,152.81h-.2c-5.69-.11-10.12-4.82-10.31-5a.5.5,0,0,1,0-.69c.19-.19,4.81-4.72,10.49-4.62h0c5.69.11,10.12,4.82,10.3,5a.5.5,0,0,1,0,.7C99,148.38,94.47,152.81,88.87,152.81Zm-9.42-5.35c1.14,1.08,4.85,4.26,9.24,4.34s8.22-2.94,9.39-4c-1.13-1.08-4.84-4.26-9.23-4.35h-.18C84.36,143.47,80.61,146.44,79.45,147.46Z"/><path class="cls-5" d="M98.81,148.33h0l-20.08-.39a.5.5,0,0,1-.49-.51.48.48,0,0,1,.51-.49l20.08.39a.52.52,0,0,1,.49.51A.5.5,0,0,1,98.81,148.33Z"/><path class="cls-3" d="M102.12,134.2a8,8,0,0,0-3.61-2.73,20.33,20.33,0,0,0-7.16-.86c-1.27,0-2.4.07-3.13.12-1.33.08-1.43.11-1.53.19h0c-.11.09-.14.12-.58,1.45-.23.69-.57,1.77-.9,3a20.87,20.87,0,0,0-1,7.13,8.11,8.11,0,0,0,1.73,4.19,5.74,5.74,0,0,0,8.4,1.18,4.9,4.9,0,0,0,2.13-4.26,4.85,4.85,0,0,0,4.66-1A5.75,5.75,0,0,0,102.12,134.2Z"/><path class="cls-5" d="M91.47,148.23a6.31,6.31,0,0,1-5.06-2.7,8.49,8.49,0,0,1-1.82-4.43,20.88,20.88,0,0,1,1-7.32c.33-1.25.68-2.33.91-3,.45-1.39.5-1.5.74-1.69s.42-.21,1.83-.3c.73-.05,1.87-.11,3.15-.12a21.09,21.09,0,0,1,7.35.89,8.54,8.54,0,0,1,3.82,2.89h0a6.41,6.41,0,0,1,1.41,5.2,6.55,6.55,0,0,1-2.48,3.94,5.49,5.49,0,0,1-4.48,1.22,5.44,5.44,0,0,1-2.31,4A6.71,6.71,0,0,1,91.47,148.23Zm1.15-18.58h-.4c-1.26,0-2.38.07-3.1.11-.44,0-1.19.08-1.31.12s-.24.8-.37,1.19c-.23.68-.57,1.75-.9,3a20.25,20.25,0,0,0-1,6.94,7.56,7.56,0,0,0,1.62,3.94,5.28,5.28,0,0,0,7.71,1.1,4.45,4.45,0,0,0,1.93-3.84.49.49,0,0,1,.19-.42.45.45,0,0,1,.46-.08,4.43,4.43,0,0,0,4.2-.9,5.67,5.67,0,0,0,2.12-3.33,5.47,5.47,0,0,0-1.22-4.41h0a7.59,7.59,0,0,0-3.4-2.57A19.42,19.42,0,0,0,92.62,129.65Z"/><path class="cls-4" d="M165,241.47c-4.54,4.62-4.33,12.18-4.33,12.18s7.56.07,12.09-4.54S177,236.93,177,236.93,169.48,236.86,165,241.47Z"/><path class="cls-5" d="M160.59,252.93h0a.48.48,0,0,1-.49-.48c0-.28-.14-6.74,3.85-10.8h0c4-4.06,10.47-4,10.73-4a.5.5,0,0,1,.49.49c0,.27.14,6.74-3.85,10.8S161.21,252.93,160.59,252.93Zm13.54-14.3c-1.57.08-6.43.59-9.51,3.72h0c-3.07,3.13-3.5,8-3.56,9.57,1.57-.08,6.43-.6,9.51-3.73S174.07,240.2,174.13,238.63ZM164.27,242h0Z"/><path class="cls-5" d="M160.56,252.93a.46.46,0,0,1-.35-.14.5.5,0,0,1,0-.71l14.08-14.32a.48.48,0,0,1,.7,0,.49.49,0,0,1,0,.7l-14.08,14.32A.47.47,0,0,1,160.56,252.93Z"/><path class="cls-4" d="M149.34,241.2c5.85,2.75,8.29,9.91,8.29,9.91s-7.06,2.7-12.92-.05-8.29-9.9-8.29-9.9S143.48,238.46,149.34,241.2Z"/><path class="cls-5" d="M151.36,251.48a12.73,12.73,0,0,1-5.38-1.11c-5.15-2.42-7.28-8.52-7.37-8.78a.51.51,0,0,1,.3-.63c.25-.1,6.31-2.37,11.46,0h0c5.15,2.42,7.28,8.52,7.37,8.78a.5.5,0,0,1-.3.63A18.67,18.67,0,0,1,151.36,251.48Zm-11.62-9.75c.6,1.45,2.69,5.87,6.67,7.73s8.7.65,10.2.18c-.6-1.45-2.69-5.86-6.67-7.72h0C146,240.05,141.23,241.26,139.74,241.73Z"/><path class="cls-5" d="M157.27,250.45a.42.42,0,0,1-.22,0l-18.18-8.52a.5.5,0,1,1,.43-.91l18.18,8.53a.49.49,0,0,1,.24.66A.51.51,0,0,1,157.27,250.45Z"/><path class="cls-3" d="M165.84,238.84a8,8,0,0,0-2.19-4,20.66,20.66,0,0,0-6.19-3.7c-1.16-.5-2.22-.91-2.9-1.16-1.25-.46-1.35-.48-1.48-.45h0c-.14,0-.18.05-1.12,1.09-.49.54-1.24,1.39-2,2.37a20.43,20.43,0,0,0-3.79,6.11,8,8,0,0,0-.13,4.53,5.74,5.74,0,0,0,7.19,4.5,4.9,4.9,0,0,0,3.68-3,4.9,4.9,0,0,0,4.66,1A5.76,5.76,0,0,0,165.84,238.84Z"/><path class="cls-5" d="M153,247.87a6.14,6.14,0,0,1-6.14-5.07A8.45,8.45,0,0,1,147,238a20.83,20.83,0,0,1,3.88-6.29c.8-1,1.56-1.84,2.06-2.39,1-1.08,1.07-1.16,1.37-1.23s.47,0,1.79.46c.69.25,1.75.66,2.93,1.17a21.18,21.18,0,0,1,6.35,3.81,8.53,8.53,0,0,1,2.31,4.19h0a6.23,6.23,0,0,1-4.7,7.91,5.49,5.49,0,0,1-4.59-.7,5.43,5.43,0,0,1-3.74,2.73A7,7,0,0,1,153,247.87Zm1.51-18.79s-.55.62-.83.93c-.49.54-1.24,1.39-2,2.35a20.25,20.25,0,0,0-3.71,5.95,7.53,7.53,0,0,0-.12,4.26,5.27,5.27,0,0,0,6.59,4.13,4.41,4.41,0,0,0,3.33-2.72.45.45,0,0,1,.34-.3.51.51,0,0,1,.46.11,4.38,4.38,0,0,0,4.2.89,5.27,5.27,0,0,0,4-6.7,7.5,7.5,0,0,0-2.06-3.73,19.94,19.94,0,0,0-6-3.59c-1.16-.5-2.2-.91-2.88-1.15A12.75,12.75,0,0,0,154.53,229.08Z"/><path class="cls-4" d="M142.73,256.8C138.2,261.42,138.4,269,138.4,269s7.56.08,12.1-4.53,4.33-12.18,4.33-12.18S147.27,252.19,142.73,256.8Z"/><path class="cls-5" d="M138.38,268.26h0a.51.51,0,0,1-.5-.49c0-.27-.13-6.73,3.86-10.79h0c4-4.06,10.49-4,10.72-4a.51.51,0,0,1,.5.49c0,.27.14,6.73-3.86,10.79S139,268.26,138.38,268.26Zm4-10.58c-3.08,3.13-3.5,8-3.56,9.57,1.56-.09,6.43-.6,9.5-3.73s3.51-8,3.56-9.56c-1.56.08-6.42.59-9.5,3.72Z"/><path class="cls-5" d="M138.34,268.26a.54.54,0,0,1-.35-.14.5.5,0,0,1,0-.71l14.07-14.32a.5.5,0,0,1,.71,0,.5.5,0,0,1,0,.71L138.7,268.11A.51.51,0,0,1,138.34,268.26Z"/><path class="cls-4" d="M127.12,256.53c5.86,2.75,8.3,9.91,8.3,9.91s-7.06,2.7-12.92-.05-8.3-9.9-8.3-9.9S121.26,253.78,127.12,256.53Z"/><path class="cls-5" d="M129.15,266.8a12.55,12.55,0,0,1-5.38-1.11c-5.16-2.41-7.29-8.52-7.37-8.78a.49.49,0,0,1,.29-.62c.26-.1,6.31-2.37,11.46,0s7.29,8.52,7.37,8.78a.49.49,0,0,1-.29.62A18.45,18.45,0,0,1,129.15,266.8Zm-11.63-9.74c.6,1.45,2.7,5.86,6.67,7.73s8.71.65,10.21.18c-.6-1.45-2.7-5.86-6.67-7.73h0C123.76,255.38,119,256.59,117.52,257.06Z"/><path class="cls-5" d="M135.05,265.78a.54.54,0,0,1-.21,0l-18.18-8.52a.5.5,0,0,1-.24-.67.49.49,0,0,1,.66-.24l18.18,8.53a.5.5,0,0,1-.21.95Z"/><path class="cls-3" d="M143.62,254.17a8,8,0,0,0-2.19-4,20.19,20.19,0,0,0-6.19-3.7c-1.16-.51-2.22-.91-2.9-1.16-1.25-.47-1.35-.49-1.48-.45h0c-.13,0-.17,0-1.12,1.09-.49.53-1.24,1.38-2,2.37a20.52,20.52,0,0,0-3.79,6.11,8,8,0,0,0-.13,4.52,5.76,5.76,0,0,0,7.2,4.51,4.9,4.9,0,0,0,3.67-3,4.87,4.87,0,0,0,4.66,1A5.74,5.74,0,0,0,143.62,254.17Z"/><path class="cls-5" d="M130.81,263.2a6.3,6.3,0,0,1-3-.72,6.44,6.44,0,0,1-3.18-4.35,8.49,8.49,0,0,1,.14-4.79,21.14,21.14,0,0,1,3.88-6.28c.82-1,1.57-1.86,2.06-2.39.95-1,1.07-1.16,1.37-1.24s.47,0,1.79.46c.69.26,1.75.67,2.93,1.18a21,21,0,0,1,6.35,3.81,8.5,8.5,0,0,1,2.32,4.19,6.24,6.24,0,0,1-4.7,7.91,5.48,5.48,0,0,1-4.59-.7,5.45,5.45,0,0,1-3.75,2.72A6.65,6.65,0,0,1,130.81,263.2Zm1.5-18.8c0,.06-.53.61-.83.94-.48.53-1.22,1.36-2,2.35a20.06,20.06,0,0,0-3.7,5.94,7.66,7.66,0,0,0-.13,4.27,5.49,5.49,0,0,0,2.68,3.7,5.65,5.65,0,0,0,3.92.43,4.4,4.4,0,0,0,3.32-2.72.52.52,0,0,1,.35-.31.49.49,0,0,1,.45.12,4.44,4.44,0,0,0,4.21.89,5.27,5.27,0,0,0,4-6.7h0a7.46,7.46,0,0,0-2.06-3.73,19.81,19.81,0,0,0-6-3.59c-1.16-.51-2.2-.91-2.87-1.16C133.14,244.68,132.44,244.42,132.31,244.4Z"/><path class="cls-4" d="M170.62,259.79c-2.81,5.83-.18,12.92-.18,12.92s7.18-2.36,10-8.19.18-12.92.18-12.92S173.42,254,170.62,259.79Z"/><path class="cls-5" d="M170,272.08a.51.51,0,0,1-.47-.32c-.09-.26-2.3-6.34.17-11.47h0c2.47-5.13,8.6-7.19,8.86-7.28a.5.5,0,0,1,.62.3c.1.26,2.3,6.34-.17,11.47s-8.59,7.19-8.85,7.28Zm8.4-17.94c-1.45.58-5.89,2.63-7.8,6.59h0c-1.9,3.95-.73,8.7-.28,10.2,1.45-.58,5.89-2.63,7.79-6.59S178.84,255.64,178.39,254.14Zm-8.25,6.37h0Z"/><path class="cls-5" d="M170,272.08a.41.41,0,0,1-.21-.05.5.5,0,0,1-.24-.67l8.71-18.09a.5.5,0,0,1,.9.44l-8.71,18.09A.48.48,0,0,1,170,272.08Z"/><path class="cls-4" d="M155.75,264.57c6.43.71,11.05,6.7,11.05,6.7s-5.82,4.83-12.25,4.12-11-6.7-11-6.7S149.32,263.85,155.75,264.57Z"/><path class="cls-5" d="M156.72,274.39a9.61,9.61,0,0,1-1.19-.07c-5.66-.63-9.64-5.72-9.81-5.93a.5.5,0,0,1,.08-.69c.21-.18,5.22-4.28,10.87-3.65h0c5.65.63,9.64,5.72,9.8,5.94a.5.5,0,0,1-.07.69C166.2,270.84,161.87,274.39,156.72,274.39Zm-9.88-6.23c1,1.18,4.44,4.68,8.8,5.17s8.45-2.19,9.72-3.12c-1-1.18-4.44-4.68-8.8-5.17h0C152.18,264.56,148.1,267.23,146.84,268.16Z"/><path class="cls-5" d="M166.08,270.79H166l-20-2.21a.51.51,0,0,1-.44-.56.5.5,0,0,1,.55-.44l20,2.21a.5.5,0,0,1,.44.56A.49.49,0,0,1,166.08,270.79Z"/><path class="cls-3" d="M170.61,257a7.94,7.94,0,0,0-3.35-3,20.44,20.44,0,0,0-7-1.51c-1.26-.1-2.39-.15-3.12-.16-1.33,0-1.43,0-1.55,0h0c-.12.07-.15.1-.71,1.39-.29.66-.73,1.71-1.17,2.9a20.48,20.48,0,0,0-1.62,7,8,8,0,0,0,1.33,4.32,5.76,5.76,0,0,0,8.27,1.95,4.92,4.92,0,0,0,2.5-4.05,4.88,4.88,0,0,0,4.73-.56A5.74,5.74,0,0,0,170.61,257Z"/><path class="cls-5" d="M159.29,270.05a6.24,6.24,0,0,1-5.35-3.18,8.46,8.46,0,0,1-1.41-4.57,20.76,20.76,0,0,1,1.65-7.2c.45-1.21.89-2.26,1.18-2.93.58-1.34.64-1.45.9-1.61s.43-.18,1.84-.14c.73,0,1.87.06,3.15.17a20.82,20.82,0,0,1,7.24,1.56,8.4,8.4,0,0,1,3.54,3.22h0a6.4,6.4,0,0,1,.93,5.31,6.56,6.56,0,0,1-2.83,3.69,5.46,5.46,0,0,1-4.57.81,5.42,5.42,0,0,1-2.67,3.79A6.76,6.76,0,0,1,159.29,270.05Zm-2.2-18.65h-.33c0,.06-.32.77-.49,1.16-.28.65-.71,1.68-1.15,2.88a19.93,19.93,0,0,0-1.59,6.81,7.59,7.59,0,0,0,1.25,4.08,5.28,5.28,0,0,0,7.58,1.79,4.44,4.44,0,0,0,2.27-3.65.48.48,0,0,1,.23-.4.47.47,0,0,1,.46,0,4.44,4.44,0,0,0,4.27-.51A5.66,5.66,0,0,0,172,260.4a5.42,5.42,0,0,0-.81-4.49h0A7.64,7.64,0,0,0,168,253a20,20,0,0,0-6.87-1.45c-1.26-.11-2.38-.15-3.1-.17Z"/><path class="cls-5" d="M130.75,149.27l-2.8-3.91s-3.46,2.72-3.51,2.77A9.32,9.32,0,0,0,130.75,149.27Z"/><path class="cls-5" d="M129.14,150.19a10.38,10.38,0,0,1-5.11-1.43.74.74,0,0,1-.34-.56.77.77,0,0,1,.24-.62s.07-.07,3.56-2.81a.78.78,0,0,1,.57-.15.75.75,0,0,1,.5.31l2.8,3.9a.75.75,0,0,1,.09.71.74.74,0,0,1-.54.46A8.47,8.47,0,0,1,129.14,150.19ZM125.83,148a8.54,8.54,0,0,0,3.58.7l-1.61-2.24Z"/><path class="cls-2" d="M92.21,247.15l-1.2,0c-20.82-.78-21.81-3-23-5.52l-.13-.29c-.69-1.47-.87-3.59.37-4.77s3.33-1,6.22.53c4.7,2.48,7,.47,7.61-.22a34.51,34.51,0,0,1-.07-8.05c.71-5.85,3.2-9.42,7.23-10.32a34.53,34.53,0,0,1,11-.46,36.42,36.42,0,0,1,3.84.75c2.12.49,4.52,1.05,5.59.82a.75.75,0,0,1,.88.58.74.74,0,0,1-.58.89c-1.39.29-3.85-.28-6.23-.82a30.82,30.82,0,0,0-3.65-.72,32.52,32.52,0,0,0-10.5.42c-3.39.76-5.43,3.8-6.06,9a33.46,33.46,0,0,0,.11,8,.73.73,0,0,1-.11.52c0,.05-3,4.46-9.73.92-2.16-1.14-3.8-1.42-4.49-.76s-.52,2,0,3l.15.32c.86,1.91,1.75,3.88,21.63,4.63l1.14,0c19.86,0,31.24-19.49,31.35-19.69a.82.82,0,0,1,.24-.25c25.44-17,23.4-44.79,23.38-45.06a.74.74,0,0,1,.35-.71,7.86,7.86,0,0,0,2.7-3.69.74.74,0,0,1,.52-.48,7.82,7.82,0,0,1,6.16,1.61,16.5,16.5,0,0,1,3.41,4,11.75,11.75,0,0,0,2.11,2.57,2.1,2.1,0,0,0,.3-.69,34.6,34.6,0,0,0,1.25-7.94,5.3,5.3,0,0,0-2.2-3.6c-3.27-2.32-8.9-1.37-9-1.36a.75.75,0,0,1-.88-.7,31.55,31.55,0,0,0-.54-5.25,30.13,30.13,0,0,0-3.33-6.12.74.74,0,0,1-.13-.59.76.76,0,0,1,.34-.51s2.95-1.85,5.71-7a11.44,11.44,0,0,0,1.3-8.42c-2.94.14-9.29.83-11,2.85s-1.92,7.9-1.79,9.92a.77.77,0,0,1-.27.63.79.79,0,0,1-.68.14c-3.17-.89-4.47,2.36-4.52,2.5a.74.74,0,0,1-.61.48.77.77,0,0,1-.71-.32l-7.52-10.78c-3.1,1.06-5.3,4.14-5.65,8a10.91,10.91,0,0,0,.88,5.44,18.84,18.84,0,0,0,1.41,2.43,15.19,15.19,0,0,1,1.84,3.43c1.94,5.61.13,7.19-2.86,9s-11.83.87-12.82.75h0l-.09,0a.74.74,0,0,1-.56-.86.73.73,0,0,1,.33-.5c.15-.24.7-1.38,1.59-5.95a2,2,0,0,0-.35-1.7c-1.43-1.95-6.57-2.72-10.32-3.14-7.26-.81-12.14,1.93-12.37,3.69a3.14,3.14,0,0,0,.88,3c2.37,2,8.71.77,11,.11a.75.75,0,0,1,.93.5.76.76,0,0,1-.51.94c-.36.1-8.88,2.56-12.34-.41a4.61,4.61,0,0,1-1.4-4.38c.41-3,6.5-5.82,14-5,6.57.73,10,1.85,11.36,3.74a3.54,3.54,0,0,1,.61,2.88,35.65,35.65,0,0,1-1.42,5.66c3.11.27,8.8.49,10.74-.66,2.42-1.44,3.89-2.32,2.21-7.19a14.43,14.43,0,0,0-1.69-3.1,18.91,18.91,0,0,1-1.52-2.64,12.38,12.38,0,0,1-1-6.19c.41-4.58,3.2-8.26,7.08-9.37l.17,0a.75.75,0,0,1,.81.29l7.13,10.23a5,5,0,0,1,4.73-2.44c-.05-2.19.08-7.56,2.17-10,2.6-3.06,11.64-3.37,12.66-3.4h0a.74.74,0,0,1,.69.46c.08.18,1.85,4.51-1.2,10.19a22.26,22.26,0,0,1-5.6,7.1,33.71,33.71,0,0,1,3.07,5.83,23.88,23.88,0,0,1,.61,4.93c1.84-.2,6.24-.4,9.24,1.73a6.81,6.81,0,0,1,2.83,4.64.57.57,0,0,1,0,.13,34.35,34.35,0,0,1-1.31,8.41c-.12.4-.47,1.61-1.48,1.77-1.21.2-2.21-1.23-3.6-3.21A15.79,15.79,0,0,0,156,178.6a6.76,6.76,0,0,0-4.56-1.43,9.41,9.41,0,0,1-2.78,3.8c.15,3.72.3,29.57-23.93,45.89C123.61,228.76,112,247.15,92.21,247.15Zm18.88-72.47h0Z"/><path class="cls-2" d="M77.26,227.61a9.86,9.86,0,0,1-3.75-.73c-.85-.33-1.72-.65-2.6-1-5.73-2.06-12.23-4.4-13.47-14.81-.11-.94-1-9.23,2.91-10.39a3.12,3.12,0,0,1,2.82.5c2,1.42,2.93,4.79,3,6.28.1,2.27,1,5.39,2.9,6.88a3.66,3.66,0,0,0,2.41.86c-.22-2.58-.73-11,1.54-15.15,2.82-5.16,10.86-7.74,15.89-6.52,3.61.88,6.77,4.13,8.38,6.05.58-3.35,2.35-10.49,7.11-13.8a.75.75,0,1,1,.85,1.23c-5.63,3.92-6.72,14.39-6.73,14.5a.75.75,0,0,1-.55.65.76.76,0,0,1-.81-.3c0-.06-4.06-5.77-8.6-6.87s-11.75,1.27-14.22,5.78-1.3,14.92-1.29,15a.75.75,0,0,1-.62.82,5.19,5.19,0,0,1-4.31-1.1c-2.23-1.8-3.34-5.31-3.44-8,0-1.23-.91-4.08-2.37-5.12a1.66,1.66,0,0,0-1.52-.29c-1.93.58-2.24,5.48-1.85,8.78,1.13,9.49,6.65,11.47,12.49,13.58.89.32,1.78.64,2.64,1,4.84,1.93,9.24-1.39,9.28-1.42a.76.76,0,0,1,1,.13.74.74,0,0,1-.13,1.05A12.34,12.34,0,0,1,77.26,227.61Z"/><path class="cls-2" d="M125.07,212.75a7.07,7.07,0,0,1-1.42-.13,3.7,3.7,0,0,1-3.07-2.47c-.75-2.5.84-4.33,2.38-6.1s2.88-3.31,2.49-5.55a.73.73,0,0,1,0-.44c-.52,0-1,0-1.6,0-4.79-.2-7.13-3-7.33-5.66a4.51,4.51,0,0,1,3.76-4.87c.66-.13,1.45-.2,2.22-.27l1.13-.11a25.2,25.2,0,0,0,3.3-.62l5.86-1.54c2.17-.57,3.88-.29,5.09.82,2.56,2.37,1.65,7.67,1.61,7.9-.07.42-1.82,10.4-5.36,14.76A12.47,12.47,0,0,1,125.07,212.75ZM126.82,198a.81.81,0,0,1,.11.27c.51,2.94-1.27,5-2.84,6.8-1.39,1.59-2.58,3-2.07,4.68a2.32,2.32,0,0,0,1.93,1.43c2.54.51,6.79-.83,9.07-3.63,3.29-4.05,5-14,5-14.07.24-1.31.48-5-1.15-6.54-.81-.74-2-.9-3.69-.47L127.36,188a26.15,26.15,0,0,1-3.51.66c-.36.05-.76.08-1.17.12-.73.06-1.48.13-2.08.24a3,3,0,0,0-2.53,3.29c.14,2,2,4.11,5.89,4.27a15.82,15.82,0,0,0,3.22-.16c4.49-.69,5.56-3.19,5.6-3.3a.75.75,0,0,1,1.4.55c-.05.14-1.36,3.41-6.77,4.24Z"/><path class="cls-2" d="M104.38,187.2a4.37,4.37,0,0,1-3.55-1.49c-1.89-2.27-1.12-6.4-.7-8.07a19,19,0,0,1,1.05-2.87c.33-.76.88-2,.71-2.31,0,0-.11-.13-.66-.15a.77.77,0,0,1-.72-.79.75.75,0,0,1,.78-.71,2.13,2.13,0,0,1,1.87.85c.59.94.06,2.16-.6,3.7a18.86,18.86,0,0,0-1,2.64c-.28,1.13-1.09,5,.4,6.75a3.13,3.13,0,0,0,2.79.94.75.75,0,1,1,.09,1.49Z"/><path class="cls-5" d="M136.33,157.55c0,3.7,3.24,6.89,6.9,4.28s5.44-4,5.44-4,9.81-7.72,7.15-16.83c0,0-8.17.47-10.14,1.8s-4.23,4.9-3.93,11.78c0,0-2-.61-3.18.31A13.39,13.39,0,0,0,136.33,157.55Z"/><path class="cls-5" d="M140.56,163.53a4.31,4.31,0,0,1-2-.49,6.06,6.06,0,0,1-3-5.5.72.72,0,0,1,.12-.4,14.16,14.16,0,0,1,2.4-2.83,3.84,3.84,0,0,1,2.88-.64c-.1-7.89,3.23-10.78,4.28-11.49,2.08-1.41,9.66-1.88,10.52-1.93a.72.72,0,0,1,.76.54c2.77,9.48-7,17.3-7.4,17.63,0,0-1.84,1.43-5.47,4A5.39,5.39,0,0,1,140.56,163.53Zm-3.48-5.76a4.6,4.6,0,0,0,2.17,3.94,3.3,3.3,0,0,0,3.55-.49c3.6-2.57,5.39-4,5.41-4s9-7.19,7-15.45c-3.13.21-7.93.8-9.15,1.63-.93.63-3.95,3.3-3.6,11.13a.75.75,0,0,1-1,.75,3.28,3.28,0,0,0-2.49.17A12.31,12.31,0,0,0,137.08,157.77Z"/><path class="cls-5" d="M150.38,161s-7.36,2.71-9.42,6.32-.55,8.18-.55,8.18,3.67,9.45,6.62,10.75l3.9-9.73s5.27-.4,6.69,2.56a12.54,12.54,0,0,0,3.51,4.69c.88.82,1.6,2.41,3.08-3.63s-.2-9-3.43-9.79c-2.26-.57-6-1.85-8.27-.64.08,0-.18-4-.22-4.42A7.27,7.27,0,0,0,150.38,161Z"/><path class="cls-5" d="M147,187a.8.8,0,0,1-.3-.06c-3.14-1.39-6.63-10.17-7-11.16-.08-.24-1.61-5,.6-8.84s9.5-6.53,9.81-6.64a.76.76,0,0,1,.82.2,8.13,8.13,0,0,1,2.1,4.71c.15,1.6.23,2.68.24,3.42,2.1-.5,4.73.2,6.74.74l.94.25c2.33.58,5.94,2.74,4,10.7-.95,3.87-1.61,4.76-2.41,5a1.76,1.76,0,0,1-1.68-.75,2.5,2.5,0,0,0-.23-.23l-.26-.24a13,13,0,0,1-3.41-4.67c-1-2-4.28-2.17-5.51-2.15l-3.71,9.27a.74.74,0,0,1-.41.42A.71.71,0,0,1,147,187Zm3.13-25.1c-1.64.66-6.94,3-8.55,5.79-1.87,3.26-.5,7.54-.49,7.58,1.22,3.13,3.67,8.19,5.56,9.85l3.55-8.88a.76.76,0,0,1,.64-.46c.24,0,5.8-.41,7.43,3a11.79,11.79,0,0,0,3.06,4.21l.28.25.3.29a2.83,2.83,0,0,0,.24.25,12.48,12.48,0,0,0,1.3-3.8c1.26-5.1.29-8.09-2.88-8.89l-1-.25c-2.15-.58-5.09-1.36-6.77-.45h0a.74.74,0,0,1-1-.3.76.76,0,0,1-.08-.51c0-.53-.18-3.73-.23-4.2A6.4,6.4,0,0,0,150.16,161.87Zm2,7.15Z"/><path class="cls-1" d="M145.78,159.57a.74.74,0,0,1-.5-.2,9.64,9.64,0,0,0-2.12-.74.75.75,0,1,1,.36-1.45,8.39,8.39,0,0,1,2.77,1.09.75.75,0,0,1,.05,1.06A.76.76,0,0,1,145.78,159.57Z"/><path class="cls-1" d="M148.29,167.39h0a.76.76,0,0,1-.7-.8,9.34,9.34,0,0,0-.75-2.11.75.75,0,0,1,.37-1,.75.75,0,0,1,1,.37,8.33,8.33,0,0,1,.89,2.84A.75.75,0,0,1,148.29,167.39Z"/><path class="cls-1" d="M145.28,169.08a.76.76,0,0,1-.57-.26,3,3,0,0,0-1.08-.86.75.75,0,1,1,.16-1.49,3.84,3.84,0,0,1,2.06,1.38.74.74,0,0,1-.08,1.05A.76.76,0,0,1,145.28,169.08Z"/><path class="cls-1" d="M140,162.27h0a.75.75,0,0,1-.7-.8,2.86,2.86,0,0,0-.17-1.37.76.76,0,0,1,.11-1.06.75.75,0,0,1,1.05.11,3.91,3.91,0,0,1,.51,2.43A.75.75,0,0,1,140,162.27Z"/><path class="cls-5" d="M137.37,239.38c-5.89,0-12.22-2.27-15.1-7.93a11.48,11.48,0,0,1-.78-1.93.75.75,0,0,1,1.44-.42,8.9,8.9,0,0,0,.68,1.67c3.23,6.35,11.42,7.95,17.65,6.75,5.47-1.05,11.54-4.62,12.17-11.47a8.87,8.87,0,0,0-3.27-7.58,5.13,5.13,0,0,0-2.24-1h-.28c2,2.32,3.14,5.87,1.42,9.11-2.19,4.13-7.44,4.95-10.36,5.07-4.67.18-10.54-2.4-12.35-7.06a.75.75,0,0,1,1.4-.54c1.54,4,6.86,6.27,10.88,6.1,2.1-.09,7.19-.68,9.11-4.28,1.57-2.95.1-6.29-1.92-8.14a.91.91,0,0,1-.26-1.1c.45-.94,2.58-.63,2.61-.63a6.59,6.59,0,0,1,2.9,1.3,10.28,10.28,0,0,1,3.85,8.91c-.7,7.68-7.37,11.65-13.37,12.8A21.88,21.88,0,0,1,137.37,239.38Z"/><path class="cls-6" d="M148.13,185.91c3-2.9-4.22-5.8-5.74-6.48-4.39-2-8.76-3.91-13.07-6.06-1.33-.66-2.39-1.74-4-1.36-2,.44-3.45,3.41-1.39,4.39,5.45,2.59,10.79,5.53,16.4,7.8C142,184.94,146.26,187.72,148.13,185.91Z"/><path d="M146.72,185.38c-1.58,0-3.49-1-4.89-1.71l-1-.48c-3.27-1.37-6.51-3-9.64-4.6-1.58-.8-3.17-1.6-4.76-2.37a2.21,2.21,0,0,1-1.31-2.36,3.16,3.16,0,0,1,2.54-2.56,4.53,4.53,0,0,1,3.23.9c.25.14.5.3.76.43,3.8,1.92,7.68,3.7,11.43,5.42l.26.11c2.58,1.17,5.59,2.74,5.9,4.64a2.14,2.14,0,0,1-.78,2h0A2.51,2.51,0,0,1,146.72,185.38Zm-18.45-12.63-.33,0a1.68,1.68,0,0,0-1.3,1.3.72.72,0,0,0,.48.8c1.6.77,3.19,1.58,4.78,2.38,3.11,1.58,6.32,3.21,9.56,4.57.3.13.65.31,1,.52,1.33.68,4.09,2.11,5,1.31h0c.35-.32.32-.53.3-.62-.09-.61-1.05-1.71-5-3.5l-.26-.12c-3.77-1.72-7.66-3.51-11.48-5.44-.3-.15-.58-.32-.86-.49A3.8,3.8,0,0,0,128.27,172.75Z"/><path class="cls-6" d="M147.33,185.08s8,1.19,7.66,11.85C155,196.93,144.45,193.5,147.33,185.08Z"/><path class="cls-6" d="M163.48,180.33s-6.63-4.68-13.73,3.29C149.75,183.62,159.75,188.41,163.48,180.33Z"/><path d="M155.91,195.46l-.95-.31c-.21-.06-5.12-1.7-7.05-5.57a7.47,7.47,0,0,1-.27-6l.2-.59.62.09c.07,0,7.83,1.28,7.48,11.36Zm-7-10.71a5.91,5.91,0,0,0,.39,4.16c1.18,2.35,3.77,3.79,5.2,4.43C154.26,187,150.41,185.22,148.86,184.75Z"/><path d="M153.38,185a15.54,15.54,0,0,1-4.44-.67l-.95-.31.56-.82c5.69-8.33,12.69-4.76,12.76-4.73l.55.29-.18.6a7.56,7.56,0,0,1-3.76,4.66A9.94,9.94,0,0,1,153.38,185Zm-2.95-1.83c1.53.33,4.48.71,6.81-.49a5.86,5.86,0,0,0,2.77-3.13C158.48,179.05,154.31,178.24,150.43,183.2Z"/><path class="cls-5" d="M143.61,203.16s-5.64-2.86-7.83,1-4.07,6.72-9.25,7.74-5.23-2-5.23-2-4.41,3.77-5.48,7.21-6,12.21-6,12.21-3.78,4,1.27,4.31a22.64,22.64,0,0,0,8.31-.81l4.85-6.51s7.76-6.14,9.12-7.61S144.23,205.77,143.61,203.16Z"/><path class="cls-5" d="M112.9,234.48c-.6,0-1.24,0-1.91-.07-1.73-.11-2.8-.67-3.19-1.64-.61-1.57,1-3.44,1.36-3.87.49-.86,5-8.82,5.94-12,1.12-3.6,5.53-7.4,5.71-7.56a.75.75,0,0,1,.8-.11.77.77,0,0,1,.44.67,1.39,1.39,0,0,0,.55.92c.5.39,1.56.75,3.79.31,4.77-.94,6.56-3.53,8.74-7.37,2-3.54,6.65-2.39,8.82-1.29a.73.73,0,0,1,.39.5c.79,3.34-10.36,16.13-10.47,16.25-1.32,1.43-8.26,6.94-9.12,7.62L120,233.3a.75.75,0,0,1-.35.26A21.77,21.77,0,0,1,112.9,234.48ZM121,211.25c-1.28,1.24-3.71,3.79-4.43,6.12-1.08,3.47-5.91,12-6.11,12.35a1.71,1.71,0,0,1-.11.14c-.58.62-1.34,1.79-1.12,2.36.15.37.84.62,1.89.7a23.12,23.12,0,0,0,7.8-.71l4.71-6.32.14-.14c.08-.06,7.73-6.12,9-7.53,2.5-2.7,9.8-12.07,10.12-14.56-1.21-.51-4.94-1.79-6.45.86-2.32,4.08-4.38,7-9.76,8.11-2.27.44-4,.23-5.05-.64A3.17,3.17,0,0,1,121,211.25Z"/><path class="cls-7" d="M90.65,206.34s15.28-18.12,22.42-6.13S94.43,218,94.43,218,84.26,217.8,90.65,206.34Z"/><path d="M183.88,280.58h-173V10.85h173Zm-169-4h165V14.85h-165Z"/></svg>