<svg id="圖層_1" data-name="圖層 1" xmlns="http://www.w3.org/2000/svg" viewBox="0 0 194.94 294.58"><defs><style>.cls-1{fill:#fff;}.cls-2{fill:#170000;}.cls-3{fill:#c21823;}.cls-4{fill:#b28247;}</style></defs><title>新接龍</title><rect class="cls-1" x="12.88" y="12.85" width="169" height="265.73"/><path d="M183.88,280.58h-173V10.85h173Zm-169-4h165V14.85h-165Z"/><path class="cls-2" d="M28.77,41.07q1.1-2.37,2.08-4.77c.67-1.6,1.59-3.86,2.78-6.79l.95-2.37-5.94.08-.85,2.67-1.28-.24.42-4h9.15l.42.54-2.75,7.71c-1.18,3.32-2.08,5.89-2.73,7.74Z"/><path d="M171.88,29.26a17.05,17.05,0,0,0-4.28-4.21c-.84-.64-1.62-1.18-2.12-1.52-1-.66-1-.66-1.13-.66s-.14,0-1.12.66c-.5.34-1.28.87-2.12,1.51a17.14,17.14,0,0,0-4.29,4.22,6.65,6.65,0,0,0-1,3.64A4.79,4.79,0,0,0,160.78,38a4.56,4.56,0,0,0,2.42-.62l-.65,2.46h3.58l-.66-2.49a4.45,4.45,0,0,0,2.46.65,4.79,4.79,0,0,0,4.94-5.06A6.76,6.76,0,0,0,171.88,29.26Z"/><path d="M102.74,152.27a58.19,58.19,0,0,0,1.7,8.62,1,1,0,0,0,1.62.48l1.18-2.54a10,10,0,0,1,2.1-3c1.9-1.83,5.13-5.66,2.64-8.65s-5.32-3.69-7.44-3.52c-1,.08-2.84,2-3.82,1.76-.51-.13-1.93-1.67-2.16-1.85a3.6,3.6,0,0,1-.91-1.84,2.86,2.86,0,0,1-1.14,2.6c-1.43,1.29-5.82,3.28-6.34,5.66-.47,2.15-.1,7.4,3.62,9.62a12.45,12.45,0,0,0,6.5,2.1,8.94,8.94,0,0,1,5.55,4.08,6.52,6.52,0,0,0,3.24,2.67l.81.38-2.5-10.35"/><path d="M109.89,169.66a.81.81,0,0,1-.34-.08l-.81-.38a7.34,7.34,0,0,1-3.61-3c-1.12-2.27-4.08-3.49-5-3.65a5.87,5.87,0,0,0-.67-.08,12.41,12.41,0,0,1-6.09-2.12c-4.16-2.48-4.48-8.23-4-10.47.43-2,2.86-3.56,4.81-4.83A17.64,17.64,0,0,0,96,143.78a2.17,2.17,0,0,0,.89-1.85.79.79,0,0,1,1.54-.37c.28,1.09.55,1.36.62,1.42a6.11,6.11,0,0,1,.48.45A11.27,11.27,0,0,0,101,144.7h0a6.33,6.33,0,0,0,1.46-.82,5.13,5.13,0,0,1,2.06-1c2.1-.17,5.22.35,8.11,3.81,2.09,2.51,1.1,6-2.71,9.72a9.09,9.09,0,0,0-1.66,2.2l2.43,10.05a.78.78,0,0,1-.26.8A.79.79,0,0,1,109.89,169.66ZM97.85,144A4.76,4.76,0,0,1,97,145a16.79,16.79,0,0,1-2,1.39c-1.62,1-3.83,2.49-4.13,3.85-.46,2.1,0,6.84,3.26,8.78a11,11,0,0,0,5.41,1.9c.3,0,.58,0,.83.1,1.33.24,4.73,1.72,6.1,4.5a5,5,0,0,0,2.19,2l-1.58-6.54-.37.8a.81.81,0,0,1-.17.24,1.73,1.73,0,0,1-1.64.45,1.84,1.84,0,0,1-1.28-1.27,59.2,59.2,0,0,1-1.73-8.74.77.77,0,0,1,.66-.89.8.8,0,0,1,.9.67,57,57,0,0,0,1.67,8.49.31.31,0,0,0,.17.21h.07l1.1-2.35a1.89,1.89,0,0,1,.11-.25,1.4,1.4,0,0,1,.09-.17,10.57,10.57,0,0,1,2.06-2.79c1.84-1.77,4.63-5.12,2.58-7.57-2.44-2.94-5-3.38-6.76-3.24a5.26,5.26,0,0,0-1.33.72c-.92.61-1.88,1.24-2.76,1a6.26,6.26,0,0,1-2.11-1.66l-.34-.33A2.09,2.09,0,0,1,97.85,144Z"/><path d="M95.71,200.25a.77.77,0,0,1-.53-.21c-6.83-6.31-9.73-16.64-7-25.12,1.59-5,0-10.44-3.84-12.94-1.06-.69-2.21-1.38-3.43-2.12q-1.43-.86-2.94-1.8c-7.52-4.73-3.23-15.73-3-16.2a.78.78,0,0,1,1-.45l5.43,1.91a.78.78,0,0,1,.48,1,.79.79,0,0,1-1,.49l-4.69-1.65c-.77,2.4-2.74,10.16,2.67,13.57l2.91,1.78c1.24.74,2.4,1.45,3.48,2.15,4.39,2.88,6.28,9.07,4.49,14.73-2.51,7.92.2,17.58,6.6,23.49a.79.79,0,0,1,0,1.12A.83.83,0,0,1,95.71,200.25Z"/><path d="M105.39,161.89a2,2,0,0,1-.42,0,1.86,1.86,0,0,1-1.28-1.27,60.57,60.57,0,0,1-1.73-8.74.79.79,0,1,1,1.56-.22,58.77,58.77,0,0,0,1.67,8.49.31.31,0,0,0,.17.21h.09l2-3.73a.71.71,0,0,1,.19-.23c.07-.06,6.63-5.74,3.77-9.17-1.73-2.07-3.8-1.66-5.8-1.27a14,14,0,0,1-1.54.25,10,10,0,0,1-3.26-.25c-.5-.12-1.15-.7-2.33-1.87l-.38-.36c-.88-.68-1.23-2.26-1.56-4.1,0-.26-.09-.5-.13-.69-.07-.36-.14-.79-.22-1.25-.25-1.48-.62-3.7-1.39-4.28-1.67-1.24-4.21-2.61-4.92-2.52v.09c.07.43,1,3.42,1.19,3.79a9,9,0,0,1,1.41,4.21,12,12,0,0,0,.78,3.08,1,1,0,0,1-.08,1,1,1,0,0,1-.81.44,4.62,4.62,0,0,0-3.71,2.23,1.5,1.5,0,0,1-.92.61c-.8.16-2.77.18-6.95-1.46a.8.8,0,0,1-.44-1,.79.79,0,0,1,1-.44c4.06,1.59,5.67,1.46,6.06,1.38a6.29,6.29,0,0,1,4.1-2.79,15.65,15.65,0,0,1-.61-2.76,7.63,7.63,0,0,0-1.17-3.59A27.16,27.16,0,0,1,88.28,131a1.51,1.51,0,0,1,.75-1.56c1.73-.94,5.87,2,6.69,2.63,1.27.95,1.67,3.35,2,5.28.08.44.15.85.22,1.19s.09.45.13.73c.15.82.5,2.76,1,3.14a6.18,6.18,0,0,1,.52.48,13.52,13.52,0,0,0,1.66,1.48,8.32,8.32,0,0,0,2.69.19c.39,0,.86-.13,1.36-.22,2.11-.42,5-1,7.32,1.8,3.64,4.36-2.84,10.39-3.84,11.27l-2,3.75a.83.83,0,0,1-.16.21A1.8,1.8,0,0,1,105.39,161.89Z"/><path class="cls-1" d="M99.86,149.43a.79.79,0,0,1-.7-.43,8.66,8.66,0,0,0-1.77-1.45.78.78,0,0,1-.21-1.09.79.79,0,0,1,1.09-.22,8.35,8.35,0,0,1,2.29,2,.79.79,0,0,1-.34,1.06A.8.8,0,0,1,99.86,149.43Z"/><path d="M80.07,143.72l-4.45-1.56-1.16,4.92A8.76,8.76,0,0,0,80.07,143.72Z"/><path d="M74.46,147.87a.79.79,0,0,1-.57-.25.76.76,0,0,1-.2-.67s0-.11,1.16-5a.75.75,0,0,1,.39-.51.79.79,0,0,1,.64-.06L80.33,143a.78.78,0,0,1,.38,1.21,9.49,9.49,0,0,1-6.16,3.67Zm1.72-4.68c-.18.78-.45,1.95-.66,2.83a8.18,8.18,0,0,0,3.2-1.94Z"/><path d="M98,142.24s.79.49-3.14.95a35.05,35.05,0,0,0-3.57.77,14.19,14.19,0,0,0-3.39,1.44,5.46,5.46,0,0,1,4.5-2.77.21.21,0,0,0,.16-.31c-1.15-2.61-4.75-4-4.8-6.92s2.16-9,6.49-10.17c1.41-.38,1.44,2.32,1.47,3.32a27.46,27.46,0,0,0,.45,5.59c.62,2.68.67,5.63,1.83,8.1"/><path d="M87.9,146.19a.77.77,0,0,1-.56-.24.79.79,0,0,1-.09-1,6.53,6.53,0,0,1,4.2-3,12.91,12.91,0,0,0-1.72-1.88c-1.34-1.28-2.72-2.6-2.76-4.65,0-3.21,2.27-9.62,7.07-10.94a1.53,1.53,0,0,1,1.38.24c.93.68,1,2.28,1.09,3.73l0,1a21.93,21.93,0,0,0,.4,4.56c.22.94.37,1.91.52,2.86a19.25,19.25,0,0,0,1.21,5,.88.88,0,0,1,.17.75c-.14.66-.78,1.07-3.88,1.43a33.62,33.62,0,0,0-3.46.76,12.79,12.79,0,0,0-3.17,1.34A.79.79,0,0,1,87.9,146.19Zm9.68-3.28ZM94.48,126c-3.92,1.1-6,6.79-5.93,9.42,0,1.39,1.06,2.38,2.27,3.53A10.27,10.27,0,0,1,93.29,142a1.07,1.07,0,0,1,.06.66c.53-.12,1-.21,1.42-.26a17.07,17.07,0,0,0,2.28-.38,22.35,22.35,0,0,1-1.16-5c-.14-.92-.29-1.86-.49-2.74a23.34,23.34,0,0,1-.45-4.88l0-.87C94.87,126.46,94.6,126.06,94.48,126Z"/><path class="cls-1" d="M96.41,151.85a.85.85,0,0,1-.35-.08,2.37,2.37,0,0,0-1.2-.3.81.81,0,0,1-1-.46.75.75,0,0,1,.39-1,3.46,3.46,0,0,1,2.52.33.79.79,0,0,1-.35,1.5Z"/><path d="M104.54,143.69c2.43,0,5.37-.48,8.52.81,1.17.48,2.18.5,2.91.9l3.52.78a1.15,1.15,0,0,1,.37,1.8c-.88,1-7.76,3.18-10.64,8Z"/><path d="M109.22,156.76h-.07a.76.76,0,0,1-.66-.5L103.81,144a.82.82,0,0,1,.08-.73.8.8,0,0,1,.65-.34c.49,0,1,0,1.53,0a16.45,16.45,0,0,1,7.28.91,9.77,9.77,0,0,0,1.46.43,6.54,6.54,0,0,1,1.44.45l3.41.76.13.05a1.82,1.82,0,0,1,1.09,1.3,1.93,1.93,0,0,1-.43,1.73,8.08,8.08,0,0,1-2.29,1.41c-2.37,1.22-6.34,3.26-8.26,6.47A.79.79,0,0,1,109.22,156.76Zm-3.54-12.3,3.75,9.84c2.28-2.86,5.8-4.66,8-5.8a12.09,12.09,0,0,0,1.82-1,.4.4,0,0,0,.09-.34.3.3,0,0,0-.13-.19l-3.42-.76a.9.9,0,0,1-.21-.08,5.12,5.12,0,0,0-1.14-.36,10.31,10.31,0,0,1-1.69-.5,15.1,15.1,0,0,0-6.63-.79Z"/><path class="cls-3" d="M111.77,169.86s6.85-4.77,13,4.8C124.8,174.66,114.67,179.3,111.77,169.86Z"/><path class="cls-3" d="M121.23,154s-7.9.71-8.5,12.8C112.73,166.82,123.28,163.77,121.23,154Z"/><path d="M111.59,168.46l-.07-1.14c-.36-5.84,1.49-9.13,3.11-10.85a8.4,8.4,0,0,1,3.78-2.42l.7-.17.23.69c3,8.92-6.61,13.38-6.71,13.42Zm6.48-12.61c-1.55.71-5.06,3.09-5,10.12C115.15,164.7,119.44,161.36,118.07,155.85Z"/><path class="cls-3" d="M112.88,170c.53-4.69-6.74-2-8.31-1.5-4.54,1.47-9.06,2.92-13.65,4.16-1.42.38-2.88.21-3.92,1.75-1.24,1.81-.57,5.47,1.6,4.84,5.73-1.68,11.59-3,17.25-5.06C107.61,173.6,112.55,172.94,112.88,170Z"/><path d="M89.85,177.24a2,2,0,0,1-1.72-.93,3.87,3.87,0,0,1,.19-4.2,4.35,4.35,0,0,1,3.06-1.57,8.33,8.33,0,0,0,.84-.17c4.08-1.07,8.11-2.32,12-3.54l.26-.08c2.6-.83,5.77-1.62,7.28-.35a2.41,2.41,0,0,1,.75,2.33h0c-.34,2.44-3.6,3.27-5.76,3.81-.39.1-.74.19-1,.28-3.34,1.17-6.81,2.08-10.16,3-1.7.45-3.39.89-5.08,1.37A2.5,2.5,0,0,1,89.85,177.24Zm19.66-9.94a15.89,15.89,0,0,0-4.54.95l-.28.09c-3.91,1.22-8,2.48-12.07,3.56-.32.08-.64.14-1,.2a2.84,2.84,0,0,0-2.08,1,2.28,2.28,0,0,0-.15,2.35.51.51,0,0,0,.65.21c1.7-.48,3.4-.93,5.11-1.38,3.32-.87,6.76-1.77,10.06-2.93.31-.1.69-.2,1.13-.31,1.64-.41,4.38-1.11,4.58-2.5h0c.09-.66-.13-.85-.2-.91A2,2,0,0,0,109.51,167.3Z"/><path d="M118.67,174.15a8.31,8.31,0,0,1-3.43-.69,7.82,7.82,0,0,1-4.19-5.18l-.17-.55.47-.33a7.9,7.9,0,0,1,5.68-1.06c2.65.52,5,2.4,7.08,5.57l.5.77-.83.38A13.66,13.66,0,0,1,118.67,174.15Zm-5.91-5.74a6.07,6.07,0,0,0,3.12,3.61c2.26,1,5,.38,6.35-.07-1.66-2.29-3.5-3.66-5.48-4.06A6.49,6.49,0,0,0,112.76,168.41Z"/><path d="M97.74,249.49a4.92,4.92,0,0,1-2.25-.61c-1.42-.73-2.87-2.18-2.92-3.77a2.82,2.82,0,0,1,1.57-2.58,7.1,7.1,0,0,0,3.44-4.05,5.48,5.48,0,0,1,.63-1.31c.42-.58,1.22-4.09-.14-13.16-1.22-8-5.88-27.32-5.92-27.51a.79.79,0,0,1,1.53-.37c0,.19,4.72,19.53,5.94,27.64,1.09,7.22,1,12.71-.14,14.33a5,5,0,0,0-.43.94A8.69,8.69,0,0,1,95,243.88c-.84.51-.82,1-.82,1.18a3.52,3.52,0,0,0,2.07,2.42,2.43,2.43,0,0,0,2.2.27,54,54,0,0,1,5.41-3,.78.78,0,0,1,1.05.36.8.8,0,0,1-.36,1.06,53.5,53.5,0,0,0-5.23,2.92A2.8,2.8,0,0,1,97.74,249.49Z"/><path d="M107.56,249.51a3.17,3.17,0,0,1-2.65-1.28c-1.1-1.51-1-4.19.23-7.18a20.37,20.37,0,0,0,2-7.7l.06-.63c.39-3.58-2.07-22.28-2.1-22.47a.79.79,0,0,1,.68-.88.78.78,0,0,1,.89.67c.1.78,2.51,19.08,2.1,22.85l-.06.63a21.91,21.91,0,0,1-2.1,8.13c-1,2.4-1.16,4.62-.4,5.64a1.78,1.78,0,0,0,1.75.63c.11,0,2.1,0,4.91-2,1.67-1.2,2.7-4.61,2.85-7.37.1-1.84-.21-3-.53-3.29a.78.78,0,0,1-.18-.94c.05-.09,4.67-9.62,1.86-24,0-.05-1.3-6.21-1.94-10.73a.79.79,0,0,1,1.57-.22c.62,4.47,1.9,10.57,1.92,10.63,2.6,13.32-.85,22.44-1.79,24.57a7.73,7.73,0,0,1,.66,4.08c-.17,3.13-1.32,7-3.5,8.56-3.29,2.36-5.69,2.31-5.79,2.3A3,3,0,0,1,107.56,249.51Z"/><path d="M130.57,250.5a31.93,31.93,0,0,1-5.83-.39,1.91,1.91,0,0,1-1.37-1.4c-.4-1.43.38-3.44,1.94-5a10.69,10.69,0,0,1,7.52-2.91,20.92,20.92,0,0,1-8.76-9.93c-2.6-6.42-.66-13.77,2.48-17.42,2-2.28,4.36-3.22,6.74-2.65.32.09,7.51,2.06,10.36,6.74a.79.79,0,1,1-1.34.82c-2.54-4.14-9.34-6-9.41-6-2.37-.57-4.25,1.1-5.15,2.15-2.85,3.3-4.59,10-2.22,15.8,3.43,8.44,12.47,11.22,12.56,11.24a.79.79,0,0,1-.43,1.52c-6.69-1.85-10.09.63-11.24,1.78s-1.74,2.74-1.53,3.47c.06.24.18.27.23.28,2.78.7,20.31.76,24.36-4,4.79-5.63-.07-29.65-6.85-41.07-5.81-9.77-15.59-17.63-20.9-21.45a36.69,36.69,0,0,1-7.11-6.67c-3.71-4.56-5.78-8.17-6.18-10.73a.79.79,0,1,1,1.56-.24c.35,2.25,2.37,5.69,5.84,10a35.1,35.1,0,0,0,6.81,6.39c5.41,3.89,15.38,11.91,21.33,21.93,8,13.41,11.66,37.06,6.7,42.89-2.55,3-8.87,4.16-13.72,4.61C134.69,250.41,132.49,250.5,130.57,250.5Z"/><path d="M154.63,236.13a10,10,0,0,1-2.65-.36.79.79,0,0,1,.42-1.52c2.95.81,5.93,0,8.86-2.35,6.27-5.09,10.2-15.66,9.81-22-.31-5-2.6-11-6.32-13.55a43.13,43.13,0,0,1,.73,8.94c1.05,19.4-13.89,20.91-14,20.92a.81.81,0,0,1-.85-.72.78.78,0,0,1,.72-.85c.55,0,13.56-1.43,12.59-19.35a47.09,47.09,0,0,0-1-10.28.78.78,0,0,1,.29-.75.8.8,0,0,1,.79-.11c5.76,2.4,8.32,10.68,8.63,15.65.42,6.69-3.74,17.9-10.39,23.29A12.13,12.13,0,0,1,154.63,236.13Z"/><path d="M124,244.28c-2.4,0-5.63-.42-8.06-2.31a.78.78,0,0,1,1-1.24c3.74,2.89,10,1.75,10.1,1.74a.78.78,0,0,1,.92.62.8.8,0,0,1-.62.93A20.34,20.34,0,0,1,124,244.28Z"/><path d="M117.11,177s-3.91,4.79-.71,12.34c4.49,10.56,8.43,12.31,10.73,14.48,3.6,3.42,16.19,10,17.33,2.56C144.46,206.39,134.13,188.6,117.11,177Z"/><path d="M140.26,210.66c-4.66,0-11.16-3.78-13.72-6.21-.38-.35-.8-.7-1.3-1.1-2.32-1.9-5.84-4.76-9.63-13.67-3.36-7.93.67-13,.84-13.21a.85.85,0,0,1,1.14-.17c17,11.57,27.51,29.48,27.61,29.66a.85.85,0,0,1,.11.56,4.44,4.44,0,0,1-3,3.83A6.56,6.56,0,0,1,140.26,210.66ZM117.34,178.2c-.86,1.48-2.47,5.34-.15,10.81,3.62,8.52,6.81,11.12,9.13,13,.5.41,1,.79,1.4,1.19,2.81,2.67,10.5,6.74,14.06,5.52a2.68,2.68,0,0,0,1.78-2.17C142.22,204.33,132.46,188.78,117.34,178.2Z"/><path class="cls-4" d="M11.19,123.63s9.69-10.79,14-15.35c3.35-3.52,14.85-12.12,19.91-15.86a7.77,7.77,0,0,0,3-4.71c1-5,3.29-15.52,5.69-24.54,3.29-12.33,3.05-15.33,3.05-15.33-1.67-4-6.67,13-6.67,13-1.77,5.91-3.53,11.82-5.41,17.7C42,87.18,34.73,88.87,27.51,93.26c-5.58,3.39-11.12,6.86-16.63,10.35Z"/><path d="M14.26,108.51l-.55-.84c.53-.35,13.05-8.58,15.69-9.71,2.44-1,11.17-6.73,13.73-9.28a4.59,4.59,0,0,0,1.39-4.74l.94-.36a5.57,5.57,0,0,1-1.62,5.8c-2.68,2.68-11.49,8.41-14.05,9.5S14.39,108.42,14.26,108.51Z"/><path d="M14.76,112.13l-.55-.83c.72-.48,17.86-11.84,20.54-13.22a47.36,47.36,0,0,0,8.33-5.29,13.38,13.38,0,0,0,4.31-6.64,35.92,35.92,0,0,0,1.4-8.34c.07-.86.15-1.72.24-2.55q.36-3.24.69-6.48l1,.11q-.33,3.24-.68,6.48c-.09.83-.17,1.67-.24,2.53a36.26,36.26,0,0,1-1.46,8.57,14.51,14.51,0,0,1-4.62,7.1,48.34,48.34,0,0,1-8.5,5.4C32.58,100.32,14.94,112,14.76,112.13Z"/><path d="M13.75,125.46l-1.11-1c.09-.11,9.74-10.85,14-15.36,3.4-3.58,15.13-12.34,20-15.95a7,7,0,0,0,2.73-4.26c1.11-5.35,3.32-15.67,5.7-24.58,2.74-10.26,3-14,3-14.88-1.17,1.06-3.55,7.35-5.2,13l-.07.22c-1.71,5.74-3.49,11.68-5.35,17.49-2.23,7-7.35,9.64-12.77,12.47-1.58.83-3.22,1.68-4.84,2.66-4.93,3-10.21,6.29-16.62,10.35l-.8-1.27C18.89,100.25,24.18,97,29.13,94c1.66-1,3.32-1.87,4.92-2.71,5.36-2.8,10-5.21,12-11.6,1.85-5.79,3.62-11.73,5.34-17.46l.06-.22c1.88-6.39,4.57-14,6.7-14.14.33,0,1,.09,1.38,1.07l.06.22c0,.13.22,3.27-3.07,15.59C54.19,73.57,52,83.86,50.88,89.19a8.59,8.59,0,0,1-3.31,5.17c-4.85,3.58-16.49,12.28-19.82,15.77C23.48,114.63,13.85,125.36,13.75,125.46Z"/><path class="cls-4" d="M20.43,279.24s3.83-8.47,6.26-14.27c1.87-4.48,5.1-18.48,6.48-24.62a7.82,7.82,0,0,1,3.09-4.66c4.16-3,12.87-9.27,20.15-15.11,10-8,12.81-9,12.81-9C73.55,211.52,60,223,60,223c-4.69,4-9.39,8-14,12.09-6.79,6-5.39,13.39-6.5,21.76-.85,6.48-1.79,12.94-2.76,19.4Z"/><path d="M31.89,275.25l-1-.17c0-.15,2.57-15.31,2.54-18.09s1.66-13.16,3-16.69a5.55,5.55,0,0,1,4.65-3.82l0,1,0-.5,0,.5a4.56,4.56,0,0,0-3.76,3.18c-1.31,3.37-3,13.66-3,16.32C34.47,259.84,32,274.62,31.89,275.25Z"/><path d="M28.37,276.26l-1-.17c0-.21,3.62-21.07,3.79-24a48.46,48.46,0,0,1,1.52-10,14.55,14.55,0,0,1,4.62-7.1,37,37,0,0,1,7.27-4.79c.75-.41,1.49-.82,2.21-1.24l5.66-3.24.49.87q-2.84,1.6-5.64,3.24c-.73.42-1.48.83-2.23,1.25A35.08,35.08,0,0,0,38,235.75a13.4,13.4,0,0,0-4.34,6.61,48.24,48.24,0,0,0-1.48,9.76C32,255.13,28.51,275.4,28.37,276.26Z"/><path d="M18.8,278.89l-1.36-.62c0-.09,4.14-9.15,6.53-14.88,1.85-4.45,5.12-18.61,6.44-24.5a8.55,8.55,0,0,1,3.39-5.11c4.43-3.16,13-9.33,20.12-15.08,9.94-8,12.9-9,13-9.09l.23,0a1.5,1.5,0,0,1,1.54.83c.75,2-5.16,7.54-10.24,11.83l-.37.32c-4.49,3.83-9.14,7.79-13.63,11.76-5,4.45-5.36,9.66-5.75,15.7-.12,1.8-.25,3.67-.5,5.6-.76,5.73-1.63,11.9-2.77,19.41L34,274.8c1.13-7.5,2-13.66,2.76-19.39.25-1.88.37-3.72.49-5.5.4-6.1.77-11.86,6.26-16.72,4.5-4,9.15-7.95,13.64-11.78l.38-.32c4.47-3.78,9.26-8.48,9.75-10-.77.35-4.1,2.11-12.4,8.76-7.19,5.77-15.73,12-20.18,15.13a7.11,7.11,0,0,0-2.8,4.22c-1.33,5.92-4.62,20.18-6.52,24.75C23,269.71,18.84,278.8,18.8,278.89Z"/><path class="cls-4" d="M13.19,147.71s9.69-10.78,14-15.34c3.2-3.36,7.11-6.15,10.77-9s9.28-5.49,11.41-9.51c1.3-2.45,2.54-4.93,3.89-7.36a3.06,3.06,0,0,1,3.6-1.45c2.09.06,7.3.24,9-1.49,1.53-1.57-.37-2.85-1.89-3.07-1-.15-9.72,1.41-9.6.23a78.88,78.88,0,0,1,3.33-13.17c1.5-3.83,3.51-9.38,3.51-9.38a1.79,1.79,0,0,0-2.9-2C54.41,80.1,51.4,91.59,51.4,91.59c-1.77,5.91-2.88,9.87-6.41,14.93-4.16,6-8.26,6.44-15.48,10.82q-8.37,5.1-16.63,10.36Z"/><path d="M14.26,132.36l-.55-.84c.53-.35,13.05-8.57,15.69-9.7,2.44-1,11.17-6.74,13.73-9.29a4.61,4.61,0,0,0,1.39-4.73l.94-.36a5.55,5.55,0,0,1-1.62,5.79c-2.69,2.68-11.49,8.41-14.05,9.51S14.39,132.28,14.26,132.36Z"/><path d="M14.76,136l-.55-.83c.72-.48,17.86-11.84,20.54-13.22a47.36,47.36,0,0,0,8.33-5.29c2.2-1.78,3.28-3.86,4.31-6.65a84.77,84.77,0,0,0,5.3-22.36l.09-.92,1,.11-.1.91a85.5,85.5,0,0,1-5.35,22.6c-1.09,3-2.24,5.17-4.62,7.09a49.1,49.1,0,0,1-8.5,5.4C32.58,124.17,14.94,135.87,14.76,136Z"/><path d="M13.75,149.31l-1.11-1c.09-.11,9.74-10.85,14-15.36a74,74,0,0,1,9-7.66l1.82-1.39c1-.78,2.17-1.54,3.4-2.36,3-2,6.36-4.19,7.81-6.91l1.43-2.74c.8-1.53,1.61-3.1,2.47-4.64A3.74,3.74,0,0,1,57,105.43h0c1.88,0,6.87.19,8.29-1.27.29-.3.4-.56.33-.77a2.33,2.33,0,0,0-1.78-1,26,26,0,0,0-2.68.24c-4.78.55-6.6.63-7.28,0a1,1,0,0,1-.29-.79A79.12,79.12,0,0,1,57,88.4c1.48-3.78,3.49-9.31,3.51-9.36a1.05,1.05,0,0,0-.41-1.29,1,1,0,0,0-1.27.12c-3.71,3.67-6.69,14.89-6.72,15l-.2.66c-1.65,5.54-2.84,9.54-6.32,14.51-3,4.33-6.12,5.92-10.05,7.93-1.65.85-3.52,1.81-5.65,3.1-4.9,3-10.18,6.27-16.62,10.35l-.8-1.26c6.44-4.09,11.73-7.38,16.65-10.37,2.17-1.32,4.06-2.29,5.74-3.15,3.88-2,6.69-3.43,9.51-7.46,3.33-4.77,4.43-8.48,6.11-14.08l.19-.64c.12-.45,3.1-11.7,7.11-15.67a2.46,2.46,0,0,1,3.14-.3,2.5,2.5,0,0,1,1,3.07s-2,5.58-3.51,9.38a80.39,80.39,0,0,0-3.23,12.56,38.88,38.88,0,0,0,5.85-.4,17.91,17.91,0,0,1,3.06-.24,3.73,3.73,0,0,1,3,2,2.18,2.18,0,0,1-.68,2.31c-1.65,1.7-5.68,1.82-9.4,1.72l-.35,0A2.27,2.27,0,0,0,53.94,108c-.85,1.52-1.66,3.08-2.44,4.6-.48.92-1,1.84-1.45,2.76-1.62,3-5.17,5.39-8.3,7.46-1.21.79-2.35,1.54-3.32,2.29l-1.82,1.39A72.53,72.53,0,0,0,27.76,134C23.48,138.48,13.85,149.21,13.75,149.31Z"/><path class="cls-4" d="M15.24,279.16s10.79-9.68,15.34-14c3.36-3.19,6.15-7.1,9-10.76s5.5-9.28,9.51-11.41c2.45-1.31,4.93-2.54,7.36-3.89a3.07,3.07,0,0,0,1.45-3.61c-.06-2.08-.24-7.29,1.49-9,1.57-1.54,2.85.37,3.07,1.88.15,1-1.41,9.73-.23,9.61a80.1,80.1,0,0,0,13.17-3.34c3.83-1.5,9.38-3.51,9.38-3.51a1.8,1.8,0,0,1,2,2.91C82.85,238,71.36,241,71.36,241c-5.9,1.77-9.87,2.87-14.93,6.41-6,4.16-6.44,8.25-10.82,15.47q-5.1,8.37-10.36,16.64Z"/><path d="M31.43,278.65l-.84-.55c.09-.13,8.53-13,9.63-15.53s6.82-11.37,9.5-14a5.55,5.55,0,0,1,5.8-1.62l-.37.93a4.57,4.57,0,0,0-4.72,1.4c-2.56,2.56-8.25,11.29-9.29,13.73C40,265.59,31.78,278.12,31.43,278.65Z"/><path d="M27.8,278.15,27,277.6c.12-.18,11.81-17.82,13.16-20.45a48.34,48.34,0,0,1,5.4-8.5c1.92-2.38,4.14-3.54,7.09-4.62a85.75,85.75,0,0,1,22.6-5.36l.91-.09.11,1-.92.1A84.69,84.69,0,0,0,53,245c-2.79,1-4.87,2.11-6.65,4.31A48.11,48.11,0,0,0,41,257.6C39.64,260.28,28.28,277.42,27.8,278.15Z"/><path d="M34.79,279.88l-1.27-.8c4.07-6.42,7.35-11.7,10.35-16.63,1.29-2.12,2.25-4,3.1-5.65,2-3.92,3.6-7,7.93-10.05,5-3.47,9-4.67,14.52-6.32l.63-.19c.14,0,11.36-3,15-6.73a1,1,0,0,0,.12-1.26,1,1,0,0,0-1.27-.42c-.07,0-5.6,2-9.38,3.51a78.32,78.32,0,0,1-13.36,3.38.93.93,0,0,1-.8-.29c-.66-.67-.59-2.49,0-7.27a26,26,0,0,0,.24-2.68,2.35,2.35,0,0,0-1-1.79c-.21-.06-.47,0-.77.34-1.46,1.42-1.32,6.41-1.27,8.28v0a3.76,3.76,0,0,1-1.82,4.38c-1.53.85-3.11,1.67-4.63,2.46-.92.48-1.84.95-2.75,1.44-2.72,1.44-5,4.82-6.91,7.8-.81,1.23-1.58,2.4-2.36,3.41l-1.39,1.81a74.12,74.12,0,0,1-7.66,9c-4.51,4.29-15.25,13.93-15.36,14l-1-1.12c.1-.09,10.83-9.72,15.33-14a74.13,74.13,0,0,0,7.5-8.85c.46-.62.93-1.23,1.39-1.83.75-1,1.5-2.1,2.3-3.31,2.06-3.13,4.4-6.68,7.45-8.31l2.76-1.44c1.52-.79,3.09-1.6,4.6-2.44a2.27,2.27,0,0,0,1.09-2.71l0-.35c-.1-3.73,0-7.75,1.72-9.41a2.17,2.17,0,0,1,2.31-.67,3.69,3.69,0,0,1,2,3,18,18,0,0,1-.24,3.06,37.49,37.49,0,0,0-.39,5.85A81.15,81.15,0,0,0,74,234c3.8-1.49,9.35-3.5,9.4-3.52a2.55,2.55,0,0,1,2.75,4.14c-4,4-15.22,7-15.7,7.11l-.6.19c-5.61,1.67-9.31,2.78-14.09,6.11-4,2.82-5.47,5.62-7.46,9.51-.86,1.67-1.83,3.57-3.15,5.74C42.15,268.16,38.86,273.45,34.79,279.88Z"/><path d="M62.92,95a17.19,17.19,0,0,0,5.94.88c1,0,2,0,2.61,0,1.17-.05,1.2-.06,1.29-.13s.12-.09.52-1.2c.21-.56.52-1.46.82-2.47a17,17,0,0,0,1-5.93,6.66,6.66,0,0,0-1.34-3.53,4.79,4.79,0,0,0-7-1.17,4.44,4.44,0,0,0-1.59,1.93L64.24,81l-2.89,2.11,2,1.63a4.42,4.42,0,0,0-2.37.92,4.8,4.8,0,0,0-1,7A6.67,6.67,0,0,0,62.92,95Z"/><path d="M37.74,136.39a16.88,16.88,0,0,0,5.12,3.14c1,.44,1.84.79,2.4,1,1.1.42,1.13.42,1.25.39s.14,0,.94-.89c.42-.45,1-1.14,1.73-2A17,17,0,0,0,52.42,133a6.72,6.72,0,0,0,.15-3.77,4.79,4.79,0,0,0-6-3.82,4.51,4.51,0,0,0-2.22,1.15l.08-2.55-3.49.81,1.2,2.28a4.41,4.41,0,0,0-2.54-.09,4.8,4.8,0,0,0-3.68,6A6.7,6.7,0,0,0,37.74,136.39Z"/><path d="M44.76,214.17a17.1,17.1,0,0,0-5.25-2.91c-1-.39-1.87-.7-2.45-.89C36,210,35.92,210,35.8,210s-.14,0-.9.94c-.4.46-1,1.19-1.64,2a17.1,17.1,0,0,0-3,5.21,6.63,6.63,0,0,0,0,3.77,4.79,4.79,0,0,0,6.13,3.55,4.51,4.51,0,0,0,2.16-1.25l0,2.55,3.44-1-1.3-2.22a4.48,4.48,0,0,0,2.54,0,4.79,4.79,0,0,0,3.41-6.2A6.72,6.72,0,0,0,44.76,214.17Z"/><path d="M81.58,223.28A17.2,17.2,0,0,0,77,219.37c-.89-.58-1.7-1.07-2.22-1.37-1-.6-1-.59-1.17-.59s-.15,0-1.08.74c-.48.37-1.21,1-2,1.65a17.09,17.09,0,0,0-4,4.49,6.78,6.78,0,0,0-.74,3.7,4.78,4.78,0,0,0,5.28,4.72,4.52,4.52,0,0,0,2.37-.78l-.48,2.5,3.57-.24-.82-2.44a4.52,4.52,0,0,0,2.49.48,4.79,4.79,0,0,0,4.59-5.39A6.72,6.72,0,0,0,81.58,223.28Z"/><path d="M74.61,208.91A17.2,17.2,0,0,0,73.35,203c-.35-1-.7-1.88-.93-2.44-.45-1.08-.48-1.1-.58-1.17s-.12-.08-1.3-.07c-.6,0-1.55,0-2.6.1a17,17,0,0,0-5.9,1.16,6.71,6.71,0,0,0-2.84,2.49,4.8,4.8,0,0,0,1.35,6.95,4.44,4.44,0,0,0,2.36.81l-1.9,1.7,3,2,.82-2.45a4.48,4.48,0,0,0,1.7,1.9,4.78,4.78,0,0,0,6.91-1.51A6.68,6.68,0,0,0,74.61,208.91Z"/><path d="M35.53,68.06a17.19,17.19,0,0,0,2.07,5.63c.49.94,1,1.76,1.27,2.29.6,1,.62,1,.73,1.07s.13.07,1.3-.11c.6-.09,1.53-.25,2.56-.46a17.09,17.09,0,0,0,5.68-2,6.66,6.66,0,0,0,2.46-2.87,4.79,4.79,0,0,0-2.31-6.69,4.47,4.47,0,0,0-2.46-.47l1.65-1.95L45.24,61l-.47,2.53a4.58,4.58,0,0,0-1.94-1.64,4.79,4.79,0,0,0-6.64,2.47A6.71,6.71,0,0,0,35.53,68.06Z"/><path d="M61.48,69.24A17.17,17.17,0,0,0,67.36,68c1-.34,1.88-.68,2.44-.91,1.09-.44,1.11-.46,1.18-.56s.08-.13.08-1.3c0-.61,0-1.55-.07-2.61a17.37,17.37,0,0,0-1.1-5.91,6.72,6.72,0,0,0-2.47-2.86,4.79,4.79,0,0,0-7,1.28,4.49,4.49,0,0,0-.84,2.36l-1.68-1.92-2,3,2.44.84a4.52,4.52,0,0,0-1.92,1.68A4.8,4.8,0,0,0,57.9,68,6.68,6.68,0,0,0,61.48,69.24Z"/><path d="M112.82,99.14a.76.76,0,0,1-.73-.57.75.75,0,0,1,.55-.91c15.28-3.82,29-22.29,29.09-22.48a.76.76,0,0,1,1.22.89c-.57.77-14.13,19.09-29.95,23A.57.57,0,0,1,112.82,99.14Z"/><path d="M111.07,111.69a.75.75,0,0,1-.18-1.47c15.28-3.82,29-22.29,29.09-22.48a.75.75,0,0,1,1.05-.16.74.74,0,0,1,.16,1c-.56.77-14.12,19.09-29.94,23A.55.55,0,0,1,111.07,111.69Z"/><path d="M103.61,93.06a.75.75,0,0,1-.18-1.47c15.29-3.82,29-22.3,29.1-22.48a.75.75,0,0,1,1.21.88c-.57.78-14.13,19.1-29.95,23.05A.55.55,0,0,1,103.61,93.06Z"/><path d="M183.88,280.58h-173V10.85h173Zm-169-4h165V14.85h-165Z"/></svg>