<svg id="圖層_1" data-name="圖層 1" xmlns="http://www.w3.org/2000/svg" viewBox="0 0 194.94 294.58"><defs><style>.cls-1{fill:#fff;}.cls-2{fill:#170000;}.cls-3{fill:#231815;}.cls-4{fill:#c21823;}.cls-5{fill:#ffb4c0;}.cls-6{fill:#b28247;}</style></defs><title>新接龍</title><rect class="cls-1" x="12.88" y="12.85" width="169" height="265.73"/><path d="M183.88,280.58h-173V10.85h173Zm-169-4h165V14.85h-165Z"/><path class="cls-2" d="M35,26.29a4.68,4.68,0,0,1,1.73,2.11,7.74,7.74,0,0,1,.58,3,10.42,10.42,0,0,1-1.13,4.83,10.21,10.21,0,0,1-2.94,3.56,8.71,8.71,0,0,1-3.84,1.72L29,40.67a8.28,8.28,0,0,0,3.79-2.47,9.15,9.15,0,0,0,2-4,4.43,4.43,0,0,1-3.24,1.4A4.81,4.81,0,0,1,29.11,35a4.08,4.08,0,0,1-1.6-1.69A5.53,5.53,0,0,1,27,30.81a5.61,5.61,0,0,1,.63-2.63,5,5,0,0,1,1.82-1.93,5.18,5.18,0,0,1,2.79-.73A5,5,0,0,1,35,26.29Zm-1.17,7.6A2.76,2.76,0,0,0,35,32.8l.06-.92A9.54,9.54,0,0,0,34.4,28a2.6,2.6,0,0,0-3.93-.89,3.35,3.35,0,0,0-1,1.44,5.23,5.23,0,0,0-.32,1.86,5,5,0,0,0,.75,3,2.42,2.42,0,0,0,2,1A3.63,3.63,0,0,0,33.87,33.89Z"/><path d="M171.88,29.26a17.05,17.05,0,0,0-4.28-4.21c-.84-.64-1.62-1.18-2.12-1.52-1-.66-1-.66-1.13-.66s-.14,0-1.12.66c-.5.34-1.28.87-2.12,1.51a17.14,17.14,0,0,0-4.29,4.22,6.65,6.65,0,0,0-1,3.64A4.79,4.79,0,0,0,160.78,38a4.56,4.56,0,0,0,2.42-.62l-.65,2.46h3.58l-.66-2.49a4.45,4.45,0,0,0,2.46.65,4.79,4.79,0,0,0,4.94-5.06A6.76,6.76,0,0,0,171.88,29.26Z"/><path class="cls-3" d="M133.06,119.53l-3.39-3.39-3,3.29A9.26,9.26,0,0,0,133.06,119.53Z"/><path class="cls-3" d="M130.11,120.82a10.48,10.48,0,0,1-3.76-.7.75.75,0,0,1-.43-.5.71.71,0,0,1,.14-.64s.06-.09,3.06-3.35a.73.73,0,0,1,.54-.24.66.66,0,0,1,.54.22l3.4,3.4a.76.76,0,0,1,.2.68.74.74,0,0,1-.46.54A8.8,8.8,0,0,1,130.11,120.82ZM128,119.07a8.75,8.75,0,0,0,3.64.1l-1.94-2C129.23,117.73,128.53,118.48,128,119.07Z"/><path class="cls-2" d="M94.72,223.77c-6.59,0-7.52-1.41-8.55-3l-.18-.27c-.91-1.34-1.43-3.4-.4-4.76s3.12-1.53,6.22-.49c5,1.68,7-.67,7.48-1.45a34.14,34.14,0,0,1-1.38-7.93c-.25-5.89,1.64-9.82,5.46-11.36a34.25,34.25,0,0,1,10.76-2.23,37.21,37.21,0,0,1,3.91.12c2.17.14,4.62.3,5.64-.1a.75.75,0,0,1,1,.43.75.75,0,0,1-.43,1c-1.33.51-3.84.35-6.28.2a36.77,36.77,0,0,0-3.72-.12A32.8,32.8,0,0,0,103.93,196c-3.23,1.3-4.75,4.63-4.52,9.9a33.4,33.4,0,0,0,1.4,7.84.77.77,0,0,1,0,.54c0,.05-2.27,4.9-9.46,2.49-2.32-.78-4-.79-4.55,0s-.19,2.09.45,3l.19.29c1.16,1.74,2.36,3.55,22.1,1.06,20.41-2.57,28.79-24.45,28.88-24.67a.67.67,0,0,1,.19-.28c22.34-20.94,15.83-48,15.76-48.26a.75.75,0,0,1,.24-.76,7.87,7.87,0,0,0,2.06-4.07.76.76,0,0,1,.43-.57,7.87,7.87,0,0,1,6.35.59,17,17,0,0,1,4,3.39,11.43,11.43,0,0,0,2.5,2.19,2.18,2.18,0,0,0,.18-.73,33.36,33.36,0,0,0-.06-8,5.29,5.29,0,0,0-2.76-3.19c-3.61-1.76-9,.09-9,.11a.75.75,0,0,1-1-.55,30.23,30.23,0,0,0-1.38-5.09,30.77,30.77,0,0,0-4.27-5.5.72.72,0,0,1-.23-.57.74.74,0,0,1,.26-.55s2.61-2.31,4.5-7.83a11.37,11.37,0,0,0-.09-8.51c-2.87.61-9,2.32-10.39,4.59-1.47,2.45-.61,8.1-.16,10.08a.7.7,0,0,1-.17.66.72.72,0,0,1-.64.25c-3.27-.35-4,3.06-4,3.21a.77.77,0,0,1-.53.57.78.78,0,0,1-.75-.2l-9.17-9.42c-2.89,1.55-4.56,4.94-4.28,8.77a10.88,10.88,0,0,0,1.74,5.22,17.9,17.9,0,0,0,1.79,2.17,15.74,15.74,0,0,1,2.38,3.09c2.82,5.22,1.29,7.08-1.37,9.31s-11.54,2.78-12.53,2.82h-.1a.74.74,0,0,1-.69-.75.73.73,0,0,1,.25-.55c.11-.27.46-1.48.6-6.13a2,2,0,0,0-.62-1.63c-1.72-1.69-6.93-1.62-10.69-1.42-7.3.38-11.67,3.87-11.61,5.64a3.16,3.16,0,0,0,1.37,2.86c2.66,1.62,8.71-.65,10.81-1.67a.75.75,0,1,1,.65,1.35c-.34.17-8.35,4-12.24,1.61a4.62,4.62,0,0,1-2.09-4.1c-.09-3.07,5.46-6.8,13-7.19,6.61-.34,10.14.21,11.82,1.85a3.53,3.53,0,0,1,1.07,2.74,36.91,36.91,0,0,1-.48,5.82c3.1-.24,8.76-1,10.48-2.39,2.16-1.82,3.47-2.92,1-7.46a14.3,14.3,0,0,0-2.16-2.79,19.55,19.55,0,0,1-1.94-2.35,12.58,12.58,0,0,1-2-6c-.33-4.59,1.82-8.67,5.47-10.4l.16-.07a.75.75,0,0,1,.85.16l8.69,8.93a5.05,5.05,0,0,1,4.27-3.17c-.4-2.16-1.15-7.47.52-10.24,2.07-3.44,10.94-5.21,11.94-5.41a.75.75,0,0,1,.78.34c.1.17,2.55,4.16.47,10.25a22.54,22.54,0,0,1-4.38,7.92,33.61,33.61,0,0,1,4,5.25,24.35,24.35,0,0,1,1.4,4.77c1.77-.49,6.09-1.41,9.39.2a6.86,6.86,0,0,1,3.55,4.13l0,.12a35.17,35.17,0,0,1,.07,8.51c-.05.42-.21,1.67-1.17,2-1.18.4-2.39-.86-4.08-2.59a16.09,16.09,0,0,0-3.59-3.08,6.8,6.8,0,0,0-4.73-.68,9.36,9.36,0,0,1-2.14,4.21c.76,3.64,5.1,29.13-16.17,49.16-.84,2.11-9.68,22.91-30,25.47A127.4,127.4,0,0,1,94.72,223.77Zm23.14-76h0Z"/><path class="cls-2" d="M91.34,205.64a10,10,0,0,1-2.18-.24c-.89-.19-1.8-.36-2.72-.53-6-1.11-12.79-2.36-15.69-12.43-.26-.91-2.47-8.95,1.18-10.73a3.19,3.19,0,0,1,2.87,0c2.2,1.08,3.67,4.26,4,5.72.46,2.22,1.9,5.14,4,6.32a3.71,3.71,0,0,0,2.53.45c-.64-2.51-2.51-10.74-1-15.19,2-5.55,9.46-9.39,14.63-9,3.71.28,7.35,3,9.25,4.61,0-3.4.61-10.74,4.78-14.78a.75.75,0,1,1,1,1.08c-4.92,4.78-4.3,15.29-4.29,15.4a.75.75,0,0,1-1.29.57s-4.94-5-9.6-5.39-11.39,3.16-13.1,8,1.14,14.93,1.16,15a.75.75,0,0,1-.47.91,5.15,5.15,0,0,1-4.43-.39c-2.49-1.41-4.16-4.69-4.7-7.32-.25-1.21-1.55-3.88-3.16-4.68a1.7,1.7,0,0,0-1.55,0c-1.81.88-1.32,5.77-.4,9,2.65,9.18,8.42,10.25,14.53,11.37.93.18,1.86.35,2.76.55,5.08,1.12,8.89-2.87,8.93-2.91a.75.75,0,1,1,1.1,1A12.08,12.08,0,0,1,91.34,205.64Z"/><path class="cls-2" d="M136.53,183.2h-.2a3.68,3.68,0,0,1-3.43-1.94c-1.15-2.34.13-4.41,1.36-6.4s2.3-3.74,1.55-5.89a.8.8,0,0,1,0-.43c-.5.1-1,.18-1.57.25-4.77.58-7.53-1.79-8.15-4.4A4.49,4.49,0,0,1,129,159c.64-.23,1.4-.43,2.14-.62l1.11-.3a22.88,22.88,0,0,0,3.15-1.15l5.54-2.46c2.05-.92,3.78-.92,5.15,0,2.92,1.92,2.88,7.3,2.87,7.53,0,.43-.1,10.57-2.89,15.43A12.18,12.18,0,0,1,136.53,183.2Zm.55-15a.58.58,0,0,1,.15.25c1,2.82-.44,5.13-1.7,7.17-1.11,1.8-2.07,3.35-1.28,4.95a2.29,2.29,0,0,0,2.13,1.1c2.58.1,6.57-1.92,8.36-5,2.6-4.53,2.7-14.6,2.7-14.71,0-1.33-.34-5-2.2-6.26-.91-.6-2.16-.55-3.71.14L136,158.28a25.92,25.92,0,0,1-3.35,1.23l-1.14.3c-.71.18-1.44.37-2,.58a3,3,0,0,0-2,3.66c.46,1.95,2.66,3.72,6.5,3.25a17.58,17.58,0,0,0,3.16-.67c4.31-1.41,5-4.06,5-4.17a.75.75,0,0,1,1.47.31c0,.15-.79,3.58-6,5.28Z"/><path class="cls-2" d="M112.2,161.32a4.11,4.11,0,0,1-2.76-1c-2.23-1.93-2.14-6.13-2-7.85a18.13,18.13,0,0,1,.57-3c.2-.8.54-2.16.33-2.39,0,0-.13-.12-.68,0a.75.75,0,0,1-.84-.65.76.76,0,0,1,.66-.84,2.14,2.14,0,0,1,2,.54c.73.83.41,2.12,0,3.76a18.71,18.71,0,0,0-.53,2.76c-.1,1.16-.27,5.06,1.48,6.59a3.16,3.16,0,0,0,2.91.47.75.75,0,1,1,.34,1.46A6.55,6.55,0,0,1,112.2,161.32Z"/><path class="cls-3" d="M139.91,126.8c.57,3.66,4.31,6.27,7.51,3.1s4.72-4.83,4.72-4.83,8.43-9.2,4.32-17.76c0,0-8,1.79-9.71,3.42s-3.38,5.52-2,12.27c0,0-2.11-.28-3.08.82A13.12,13.12,0,0,0,139.91,126.8Z"/><path class="cls-3" d="M144.37,132.08a4.55,4.55,0,0,1-1.36-.22,6.1,6.1,0,0,1-3.84-5,.82.82,0,0,1,.05-.41,14.23,14.23,0,0,1,1.91-3.18,3.88,3.88,0,0,1,2.74-1.1c-1.37-7.77,1.44-11.16,2.36-12,1.83-1.73,9.23-3.42,10.07-3.61a.74.74,0,0,1,.84.41c4.28,8.91-4.09,18.2-4.45,18.59,0,0-1.58,1.71-4.75,4.86A5.09,5.09,0,0,1,144.37,132.08Zm-3.68-5.18a4.57,4.57,0,0,0,2.78,3.53,3.29,3.29,0,0,0,3.42-1.06c3.14-3.12,4.68-4.79,4.69-4.8s7.68-8.55,4.45-16.39c-3.06.72-7.69,2.08-8.76,3.1-.82.77-3.37,3.89-1.75,11.56a.72.72,0,0,1-.19.66.74.74,0,0,1-.64.24,3.21,3.21,0,0,0-2.43.57A11.85,11.85,0,0,0,140.69,126.9Z"/><path class="cls-3" d="M154.33,127.9s-6.82,3.87-8.27,7.76.78,8.17.78,8.17,5.16,8.73,8.28,9.53l2.27-10.23s5.13-1.25,7,1.44a12.67,12.67,0,0,0,4.22,4.06c1,.66,2,2.11,2.45-4.09s-1.65-8.83-5-9.1c-2.33-.2-6.26-.85-8.27.71.07-.06-.83-3.94-.93-4.33A7.2,7.2,0,0,0,154.33,127.9Z"/><path class="cls-3" d="M155.12,154.11l-.18,0c-3.33-.86-8.2-9-8.74-9.88-.12-.22-2.4-4.65-.85-8.81s8.33-8,8.61-8.15a.76.76,0,0,1,.84.07,8.12,8.12,0,0,1,2.84,4.31c.41,1.54.66,2.6.79,3.32,2-.83,4.7-.56,6.77-.35l1,.09c2.39.2,6.3,1.75,5.66,9.91-.31,4-.81,5-1.57,5.3a1.71,1.71,0,0,1-1.77-.46l-.27-.19-.3-.19a13.16,13.16,0,0,1-4.13-4.06c-1.17-1.68-4.23-1.52-5.77-1.24l-2.16,9.76a.77.77,0,0,1-.34.48A.8.8,0,0,1,155.12,154.11Zm-.86-25.29c-1.51.92-6.37,4.07-7.5,7.1-1.32,3.52.73,7.52.75,7.56,1.71,2.89,4.94,7.49,7.08,8.82l2.07-9.33a.76.76,0,0,1,.55-.57c.23-.06,5.66-1.34,7.81,1.74a11.72,11.72,0,0,0,3.71,3.65l.32.21.33.24c.09.06.2.15.29.2a12.35,12.35,0,0,0,.66-4c.42-5.24-1-8-4.29-8.3l-1-.09c-2.2-.22-5.22-.52-6.73.64h0a.74.74,0,0,1-1.05-.13.76.76,0,0,1-.16-.49c-.07-.53-.78-3.65-.9-4.11A6.46,6.46,0,0,0,154.26,128.82Z"/><path class="cls-1" d="M149.45,127.27a.75.75,0,0,1-.41-.12,9,9,0,0,0-2.21-.39.75.75,0,0,1-.69-.81.76.76,0,0,1,.81-.68,8.57,8.57,0,0,1,2.91.62.76.76,0,0,1,.22,1A.77.77,0,0,1,149.45,127.27Z"/><path class="cls-1" d="M153.19,134.58a.76.76,0,0,1-.75-.68,9.39,9.39,0,0,0-1.08-2,.75.75,0,1,1,1.24-.84,8.54,8.54,0,0,1,1.34,2.66.76.76,0,0,1-.68.82Z"/><path class="cls-1" d="M150.49,136.74a.74.74,0,0,1-.48-.18,2.7,2.7,0,0,0-1.21-.67.74.74,0,0,1-.79-.71.76.76,0,0,1,.71-.79,4.08,4.08,0,0,1,2.26,1,.74.74,0,0,1,.08,1.05A.72.72,0,0,1,150.49,136.74Z"/><path class="cls-1" d="M144.19,130.87a.75.75,0,0,1-.75-.68,2.91,2.91,0,0,0-.39-1.33.76.76,0,0,1-.07-1.06.75.75,0,0,1,1.06-.06,3.84,3.84,0,0,1,.89,2.31.75.75,0,0,1-.68.82Z"/><path class="cls-3" d="M150.6,207.68c-4.78,0-9.58-1.6-12.58-5.68a11.17,11.17,0,0,1-1.09-1.77.75.75,0,0,1,.35-1,.76.76,0,0,1,1,.35,8.67,8.67,0,0,0,.94,1.53c4.22,5.75,12.55,6,18.51,3.8,5.23-1.92,10.64-6.42,10.15-13.29a8.91,8.91,0,0,0-4.46-7,5,5,0,0,0-2.37-.63l-.27,0c2.32,2,4.05,5.29,2.87,8.76-1.49,4.44-6.53,6.09-9.4,6.69-4.57.94-10.79-.66-13.33-5a.75.75,0,0,1,1.29-.76c2.17,3.68,7.78,5.07,11.73,4.26,2.06-.43,7-1.83,8.29-5.7,1.07-3.16-.91-6.22-3.21-7.72a.93.93,0,0,1-.44-1c.3-1,2.45-1,2.47-1a6.53,6.53,0,0,1,3.08.81,10.3,10.3,0,0,1,5.24,8.17c.56,7.69-5.38,12.69-11.12,14.8A22.38,22.38,0,0,1,150.6,207.68Z"/><path class="cls-4" d="M156.15,152.87c2.48-3.34-5.1-5-6.71-5.46-4.65-1.22-9.28-2.43-13.88-3.86-1.42-.44-2.64-1.33-4.22-.69-1.87.76-2.85,3.93-.66,4.56,5.8,1.67,11.54,3.71,17.45,5C150,152.91,154.6,155,156.15,152.87Z"/><path d="M153.93,152.64a15.35,15.35,0,0,1-4.36-.95c-.4-.13-.75-.25-1-.32-3.46-.82-6.92-1.92-10.26-3-1.7-.54-3.39-1.08-5.09-1.58a2.18,2.18,0,0,1-1.67-2.11,3.17,3.17,0,0,1,2.08-2.94,4.52,4.52,0,0,1,3.34.36c.27.11.54.22.82.31,4.1,1.29,8.19,2.41,12.16,3.49l.27.07c2.74.73,6,1.8,6.57,3.62a2.12,2.12,0,0,1-.45,2.06h0A2.87,2.87,0,0,1,153.93,152.64Zm-19.2-9.56a1.82,1.82,0,0,0-.63.11,1.65,1.65,0,0,0-1.07,1.49c0,.36.2.58.6.7,1.7.51,3.41,1.05,5.11,1.59,3.32,1.05,6.75,2.13,10.17,2.95.31.08.69.2,1.12.34,1.42.46,4.38,1.42,5.11.49h0c.3-.37.23-.57.21-.66-.2-.58-1.32-1.52-5.54-2.64l-.28-.07c-4-1.09-8.09-2.21-12.21-3.51-.32-.1-.62-.22-.93-.34A4.5,4.5,0,0,0,134.73,143.08Z"/><path class="cls-4" d="M155.23,152.19s8.11-.13,9.48,10.45C164.71,162.64,153.75,161,155.23,152.19Z"/><path class="cls-4" d="M170.39,144.89s-7.3-3.55-13,5.46C157.38,150.35,168,153.46,170.39,144.89Z"/><path d="M165.38,161l-1-.15c-.21,0-5.33-.85-7.86-4.36a7.5,7.5,0,0,1-1.24-5.85l.11-.61H156c.07,0,7.94,0,9.23,10Zm-8.69-9.43a5.85,5.85,0,0,0,1.06,4c1.54,2.13,4.33,3.12,5.84,3.52C162.39,153,158.29,151.83,156.69,151.61Z"/><path d="M158.73,151.35a14.9,14.9,0,0,1-2-.13l-1-.16.43-.9c4.26-9.14,11.74-6.76,11.82-6.73l.59.2-.09.61a7.5,7.5,0,0,1-3,5.21A11.59,11.59,0,0,1,158.73,151.35Zm-.75-1.52c1.57.07,4.54,0,6.64-1.59a6,6,0,0,0,2.24-3.54C165.26,144.43,161,144.3,158,149.83Z"/><path class="cls-3" d="M154.49,170.63s-6-1.91-7.56,2.24-2.94,7.3-7.88,9.14-5.48-1.08-5.48-1.08-3.74,4.43-4.24,8-4,13-4,13-3.08,4.54,2,4.06a22.66,22.66,0,0,0,8.06-2.15l3.74-7.22s6.66-7.31,7.76-9S155.52,173.1,154.49,170.63Z"/><path class="cls-3" d="M126.61,206.79a2.83,2.83,0,0,1-2.65-1.14c-.86-1.45.39-3.55.71-4,.34-.92,3.47-9.5,3.92-12.78.52-3.74,4.25-8.2,4.41-8.39a.76.76,0,0,1,.76-.24.77.77,0,0,1,.55.59,1.34,1.34,0,0,0,.69.82c.55.3,1.66.49,3.79-.3,4.56-1.7,5.9-4.55,7.44-8.7,1.4-3.81,6.17-3.43,8.49-2.7a.8.8,0,0,1,.47.43c1.32,3.17-7.61,17.6-7.71,17.73-1.07,1.63-7,8.19-7.76,9L136,204.2a.75.75,0,0,1-.3.31,23,23,0,0,1-8.36,2.24A6.8,6.8,0,0,1,126.61,206.79Zm6.85-24.51c-1.07,1.43-3.05,4.35-3.38,6.76-.5,3.6-3.89,12.78-4,13.17a.8.8,0,0,1-.08.16c-.48.71-1,2-.72,2.51.2.35.92.48,2,.38a23.17,23.17,0,0,0,7.58-2l3.62-7a.91.91,0,0,1,.11-.16c.07-.07,6.64-7.29,7.69-8.89,2-3.07,7.72-13.5,7.63-16-1.28-.31-5.17-1-6.23,1.89-1.62,4.4-3.17,7.66-8.32,9.58-2.16.81-3.87.88-5.08.19A3.07,3.07,0,0,1,133.46,182.28Z"/><path class="cls-5" d="M102.75,182.35s12.13-20.35,21.13-9.69-15.52,20.53-15.52,20.53S98.3,194.69,102.75,182.35Z"/><path class="cls-6" d="M11.19,123.63s9.69-10.79,14-15.35c3.35-3.52,14.85-12.12,19.91-15.86a7.77,7.77,0,0,0,3-4.71c1-5,3.29-15.52,5.69-24.54,3.29-12.33,3.05-15.33,3.05-15.33-1.67-4-6.67,13-6.67,13-1.77,5.91-3.53,11.82-5.41,17.7C42,87.18,34.73,88.87,27.51,93.26c-5.58,3.39-11.12,6.86-16.63,10.35Z"/><path d="M14.26,108.51l-.55-.84c.53-.35,13.05-8.58,15.69-9.71,2.44-1,11.17-6.73,13.73-9.28a4.59,4.59,0,0,0,1.39-4.74l.94-.36a5.57,5.57,0,0,1-1.62,5.8c-2.68,2.68-11.49,8.41-14.05,9.5S14.39,108.42,14.26,108.51Z"/><path d="M14.76,112.13l-.55-.83c.72-.48,17.86-11.84,20.54-13.22a47.36,47.36,0,0,0,8.33-5.29,13.38,13.38,0,0,0,4.31-6.64,35.92,35.92,0,0,0,1.4-8.34c.07-.86.15-1.72.24-2.55q.36-3.24.69-6.48l1,.11q-.33,3.24-.68,6.48c-.09.83-.17,1.67-.24,2.53a36.26,36.26,0,0,1-1.46,8.57,14.51,14.51,0,0,1-4.62,7.1,48.34,48.34,0,0,1-8.5,5.4C32.58,100.32,14.94,112,14.76,112.13Z"/><path d="M13.75,125.46l-1.11-1c.09-.11,9.74-10.85,14-15.36,3.4-3.58,15.13-12.34,20-15.95a7,7,0,0,0,2.73-4.26c1.11-5.35,3.32-15.67,5.7-24.58,2.74-10.26,3-14,3-14.88-1.17,1.06-3.55,7.35-5.2,13l-.07.22c-1.71,5.74-3.49,11.68-5.35,17.49-2.23,7-7.35,9.64-12.77,12.47-1.58.83-3.22,1.68-4.84,2.66-4.93,3-10.21,6.29-16.62,10.35l-.8-1.27C18.89,100.25,24.18,97,29.13,94c1.66-1,3.32-1.87,4.92-2.71,5.36-2.8,10-5.21,12-11.6,1.85-5.79,3.62-11.73,5.34-17.46l.06-.22c1.88-6.39,4.57-14,6.7-14.14.33,0,1,.09,1.38,1.07l.06.22c0,.13.22,3.27-3.07,15.59C54.19,73.57,52,83.86,50.88,89.19a8.59,8.59,0,0,1-3.31,5.17c-4.85,3.58-16.49,12.28-19.82,15.77C23.48,114.63,13.85,125.36,13.75,125.46Z"/><path class="cls-6" d="M20.43,279.24s3.83-8.47,6.26-14.27c1.87-4.48,5.1-18.48,6.48-24.62a7.82,7.82,0,0,1,3.09-4.66c4.16-3,12.87-9.27,20.15-15.11,10-8,12.81-9,12.81-9C73.55,211.52,60,223,60,223c-4.69,4-9.39,8-14,12.09-6.79,6-5.39,13.39-6.5,21.76-.85,6.48-1.79,12.94-2.76,19.4Z"/><path d="M31.89,275.25l-1-.17c0-.15,2.57-15.31,2.54-18.09s1.65-13.15,3-16.69a5.55,5.55,0,0,1,4.65-3.82l0,1,0-.5,0,.5a4.56,4.56,0,0,0-3.76,3.18c-1.31,3.38-3,13.66-3,16.32C34.47,259.84,32,274.62,31.89,275.25Z"/><path d="M28.37,276.26l-1-.17c0-.21,3.62-21.07,3.79-24a48.46,48.46,0,0,1,1.52-10,14.55,14.55,0,0,1,4.62-7.1,37,37,0,0,1,7.27-4.79c.75-.41,1.49-.82,2.21-1.24l5.66-3.24.49.87q-2.84,1.6-5.64,3.24c-.73.42-1.48.83-2.23,1.25A35.08,35.08,0,0,0,38,235.75a13.4,13.4,0,0,0-4.34,6.61,48.24,48.24,0,0,0-1.48,9.76C32,255.13,28.51,275.4,28.37,276.26Z"/><path d="M18.8,278.89l-1.36-.62c0-.09,4.14-9.15,6.53-14.88,1.85-4.45,5.12-18.61,6.44-24.5a8.55,8.55,0,0,1,3.39-5.11c4.43-3.16,13-9.33,20.12-15.08,9.94-8,12.9-9,13-9.09l.23,0h.06a1.41,1.41,0,0,1,1.48.83c.75,2-5.16,7.54-10.24,11.83l-.37.32c-4.49,3.83-9.14,7.79-13.63,11.76-5,4.45-5.36,9.66-5.75,15.7-.12,1.8-.25,3.67-.5,5.6-.76,5.73-1.63,11.9-2.77,19.41L34,274.8c1.13-7.5,2-13.66,2.76-19.39.25-1.88.37-3.72.49-5.5.4-6.1.77-11.86,6.26-16.72,4.5-4,9.15-7.95,13.64-11.78l.38-.32c4.47-3.78,9.26-8.48,9.75-10-.77.35-4.1,2.11-12.4,8.76-7.19,5.77-15.73,12-20.18,15.13a7.11,7.11,0,0,0-2.8,4.22c-1.33,5.92-4.62,20.18-6.52,24.75C23,269.71,18.84,278.8,18.8,278.89Z"/><path class="cls-6" d="M13.19,147.71s9.69-10.78,14-15.34c3.2-3.36,7.11-6.15,10.77-9s9.28-5.49,11.41-9.51c1.3-2.45,2.54-4.93,3.89-7.36a3.06,3.06,0,0,1,3.6-1.45c2.09.06,7.3.24,9-1.49,1.53-1.57-.37-2.85-1.89-3.07-1-.15-9.72,1.41-9.6.23a78.88,78.88,0,0,1,3.33-13.17c1.5-3.83,3.51-9.38,3.51-9.38a1.79,1.79,0,0,0-2.9-2C54.41,80.1,51.4,91.59,51.4,91.59c-1.77,5.91-2.88,9.87-6.41,14.93-4.16,6-8.26,6.44-15.48,10.82q-8.37,5.1-16.63,10.36Z"/><path d="M14.26,132.36l-.55-.84c.53-.35,13.05-8.57,15.69-9.7,2.44-1,11.17-6.74,13.73-9.29a4.61,4.61,0,0,0,1.39-4.73l.94-.36a5.55,5.55,0,0,1-1.62,5.79c-2.69,2.68-11.49,8.41-14.05,9.51S14.39,132.28,14.26,132.36Z"/><path d="M14.76,136l-.55-.83c.72-.48,17.86-11.84,20.54-13.22a47.36,47.36,0,0,0,8.33-5.29c2.2-1.78,3.28-3.86,4.31-6.65a84.77,84.77,0,0,0,5.3-22.36l.09-.92,1,.11-.1.91a85.5,85.5,0,0,1-5.35,22.6c-1.09,3-2.24,5.17-4.62,7.09a49.1,49.1,0,0,1-8.5,5.4C32.58,124.17,14.94,135.87,14.76,136Z"/><path d="M13.75,149.31l-1.11-1c.09-.11,9.74-10.85,14-15.36a74,74,0,0,1,9-7.66l1.82-1.39c1-.78,2.17-1.54,3.4-2.36,3-2,6.36-4.19,7.81-6.91l1.43-2.74c.8-1.53,1.61-3.1,2.47-4.64A3.74,3.74,0,0,1,57,105.43h0c1.88,0,6.87.19,8.29-1.27.29-.3.4-.56.33-.77a2.33,2.33,0,0,0-1.78-1,25.81,25.81,0,0,0-2.68.24c-4.78.55-6.6.63-7.28,0a1,1,0,0,1-.29-.79A79.12,79.12,0,0,1,57,88.4c1.48-3.78,3.49-9.31,3.51-9.36a1.05,1.05,0,0,0-.41-1.29,1,1,0,0,0-1.27.12c-3.71,3.67-6.69,14.89-6.72,15l-.2.66c-1.65,5.54-2.84,9.54-6.32,14.51-3,4.33-6.12,5.92-10.05,7.93-1.65.85-3.52,1.81-5.65,3.1-4.9,3-10.18,6.27-16.62,10.35l-.8-1.26c6.44-4.09,11.73-7.38,16.65-10.37,2.17-1.32,4.06-2.29,5.74-3.15,3.88-2,6.69-3.43,9.51-7.46,3.33-4.77,4.43-8.48,6.11-14.08l.19-.64c.12-.45,3.1-11.7,7.11-15.67a2.46,2.46,0,0,1,3.14-.3,2.5,2.5,0,0,1,1,3.07s-2,5.58-3.51,9.38a80.39,80.39,0,0,0-3.23,12.56,38.88,38.88,0,0,0,5.85-.4,17.91,17.91,0,0,1,3.06-.24,3.73,3.73,0,0,1,3,2,2.18,2.18,0,0,1-.68,2.31c-1.65,1.7-5.68,1.82-9.4,1.72l-.35,0A2.27,2.27,0,0,0,53.94,108c-.85,1.52-1.66,3.08-2.44,4.6-.48.92-1,1.84-1.45,2.76-1.62,3-5.17,5.39-8.3,7.46-1.21.79-2.35,1.54-3.32,2.29l-1.82,1.39A72.53,72.53,0,0,0,27.76,134C23.48,138.48,13.85,149.21,13.75,149.31Z"/><path class="cls-6" d="M15.24,279.16s10.79-9.68,15.34-14c3.36-3.19,6.15-7.1,9-10.76s5.5-9.28,9.51-11.41c2.45-1.31,4.93-2.54,7.36-3.89a3.07,3.07,0,0,0,1.45-3.61c-.06-2.08-.24-7.29,1.49-9,1.57-1.54,2.85.37,3.07,1.88.15,1-1.41,9.73-.23,9.61a80.1,80.1,0,0,0,13.17-3.34c3.83-1.5,9.38-3.51,9.38-3.51a1.8,1.8,0,0,1,2,2.91C82.85,238,71.36,241,71.36,241c-5.9,1.77-9.87,2.87-14.93,6.41-6,4.16-6.44,8.25-10.82,15.47q-5.1,8.37-10.36,16.64Z"/><path d="M31.43,278.65l-.84-.55c.09-.13,8.53-13,9.63-15.53s6.82-11.37,9.5-14a5.55,5.55,0,0,1,5.8-1.62l-.37.93a4.57,4.57,0,0,0-4.72,1.4c-2.56,2.56-8.25,11.29-9.29,13.73C40,265.59,31.78,278.12,31.43,278.65Z"/><path d="M27.8,278.15,27,277.6c.12-.18,11.81-17.82,13.16-20.45a48.34,48.34,0,0,1,5.4-8.5c1.92-2.38,4.14-3.54,7.09-4.62a85.75,85.75,0,0,1,22.6-5.36l.91-.09.11,1-.92.1A84.69,84.69,0,0,0,53,245c-2.79,1-4.87,2.11-6.65,4.31A48.11,48.11,0,0,0,41,257.6C39.65,260.28,28.28,277.42,27.8,278.15Z"/><path d="M34.79,279.88l-1.27-.8c4.07-6.42,7.35-11.7,10.35-16.63,1.29-2.12,2.25-4,3.1-5.65,2-3.92,3.6-7,7.93-10.05,5-3.47,9-4.67,14.52-6.32l.63-.19c.14,0,11.36-3,15-6.73a1,1,0,0,0,.12-1.26,1,1,0,0,0-1.27-.42c-.07,0-5.6,2-9.38,3.51a78.09,78.09,0,0,1-13.36,3.38.93.93,0,0,1-.8-.29c-.66-.67-.59-2.49,0-7.28a25.92,25.92,0,0,0,.24-2.67,2.35,2.35,0,0,0-1-1.79c-.21-.06-.47,0-.77.34-1.46,1.42-1.32,6.41-1.27,8.28v0a3.76,3.76,0,0,1-1.82,4.38c-1.53.85-3.11,1.67-4.63,2.46-.92.48-1.84.95-2.75,1.44-2.72,1.44-5,4.82-6.91,7.8-.81,1.23-1.58,2.4-2.36,3.41l-1.39,1.81a74.12,74.12,0,0,1-7.66,9c-4.51,4.29-15.25,13.93-15.36,14l-1-1.12c.1-.09,10.83-9.72,15.33-14a74.13,74.13,0,0,0,7.5-8.85c.46-.62.93-1.23,1.39-1.83.75-1,1.5-2.1,2.3-3.31,2.06-3.13,4.4-6.68,7.45-8.31l2.76-1.44c1.52-.79,3.09-1.6,4.6-2.44a2.27,2.27,0,0,0,1.09-2.71l0-.35c-.1-3.73,0-7.75,1.72-9.41a2.17,2.17,0,0,1,2.31-.67,3.69,3.69,0,0,1,2,3,17.87,17.87,0,0,1-.24,3,37.68,37.68,0,0,0-.39,5.86A81.15,81.15,0,0,0,74,234c3.8-1.49,9.35-3.5,9.4-3.52a2.55,2.55,0,0,1,2.75,4.14c-4,4-15.22,7-15.7,7.11l-.6.19c-5.61,1.67-9.31,2.78-14.09,6.11-4,2.82-5.47,5.62-7.46,9.51-.86,1.67-1.83,3.57-3.15,5.74C42.15,268.16,38.86,273.45,34.79,279.88Z"/><path d="M80.18,109.68a16.88,16.88,0,0,0,5.93.88c1.06,0,2,0,2.61,0,1.18,0,1.2-.06,1.3-.13s.12-.09.52-1.19c.2-.57.51-1.47.82-2.48a17,17,0,0,0,1-5.93A6.71,6.71,0,0,0,91,97.28a4.79,4.79,0,0,0-7-1.17A4.58,4.58,0,0,0,82.42,98l-.92-2.38-2.9,2.12,2,1.62a4.54,4.54,0,0,0-2.37.92,4.79,4.79,0,0,0-1,7A6.61,6.61,0,0,0,80.18,109.68Z"/><path d="M38.71,144.5a17.08,17.08,0,0,0,5.12,3.14c1,.43,1.84.79,2.4,1,1.1.43,1.13.42,1.25.39s.14,0,.94-.89c.42-.44,1-1.14,1.73-1.95a17.1,17.1,0,0,0,3.24-5.07,6.72,6.72,0,0,0,.15-3.77,4.8,4.8,0,0,0-6-3.83,4.52,4.52,0,0,0-2.22,1.16l.08-2.55-3.49.8,1.2,2.28a4.51,4.51,0,0,0-2.54-.08,4.79,4.79,0,0,0-3.68,6.05A6.66,6.66,0,0,0,38.71,144.5Z"/><path d="M80.28,152.09a17,17,0,0,0,3-5.2c.41-1,.74-1.87.94-2.44.39-1.11.38-1.14.35-1.25s0-.15-.92-.92c-.46-.4-1.17-1-2-1.67a17.16,17.16,0,0,0-5.16-3.08,6.75,6.75,0,0,0-3.78,0A4.8,4.8,0,0,0,69,143.57a4.52,4.52,0,0,0,1.22,2.18H67.71l.91,3.46,2.24-1.27a4.55,4.55,0,0,0,0,2.55A4.79,4.79,0,0,0,77,154,6.66,6.66,0,0,0,80.28,152.09Z"/><path d="M115.16,105.73a17.35,17.35,0,0,0,5.11,3.14c1,.43,1.84.78,2.41,1,1.1.43,1.12.42,1.24.39s.15,0,1-.89c.41-.44,1-1.14,1.73-2a17.36,17.36,0,0,0,3.23-5.07,6.72,6.72,0,0,0,.15-3.77,4.8,4.8,0,0,0-6-3.83,4.52,4.52,0,0,0-2.22,1.16l.08-2.55-3.49.8,1.21,2.28a4.55,4.55,0,0,0-2.55-.08,4.79,4.79,0,0,0-3.68,6A6.71,6.71,0,0,0,115.16,105.73Z"/><path d="M44.76,214.17a17.1,17.1,0,0,0-5.25-2.91c-1-.39-1.87-.7-2.45-.89C36,210,35.92,210,35.8,210s-.14,0-.9.94c-.4.46-1,1.19-1.64,2a17.1,17.1,0,0,0-3,5.21,6.63,6.63,0,0,0,0,3.77,4.79,4.79,0,0,0,6.13,3.55,4.51,4.51,0,0,0,2.16-1.25l0,2.55,3.44-1-1.3-2.22a4.48,4.48,0,0,0,2.54,0,4.79,4.79,0,0,0,3.41-6.2A6.72,6.72,0,0,0,44.76,214.17Z"/><path d="M106,257.09a16.9,16.9,0,0,0-1.25-5.87c-.35-1-.7-1.88-.94-2.44-.45-1.08-.47-1.1-.57-1.17s-.13-.08-1.3-.07c-.61,0-1.55,0-2.61.1a17.09,17.09,0,0,0-5.9,1.16,6.68,6.68,0,0,0-2.83,2.49,4.8,4.8,0,0,0,1.34,7,4.69,4.69,0,0,0,2.37.81l-1.9,1.7,3,2,.82-2.45a4.52,4.52,0,0,0,1.69,1.9,4.8,4.8,0,0,0,6.92-1.51A6.64,6.64,0,0,0,106,257.09Z"/><path d="M35.53,68.06a17.19,17.19,0,0,0,2.07,5.63c.49.94,1,1.76,1.27,2.29.6,1,.62,1,.73,1.07s.13.07,1.3-.11c.6-.09,1.53-.25,2.56-.46a17.09,17.09,0,0,0,5.68-2,6.66,6.66,0,0,0,2.46-2.87,4.79,4.79,0,0,0-2.31-6.69,4.47,4.47,0,0,0-2.46-.47l1.65-1.95L45.24,61l-.47,2.53a4.58,4.58,0,0,0-1.94-1.64,4.79,4.79,0,0,0-6.64,2.47A6.71,6.71,0,0,0,35.53,68.06Z"/><path d="M61.48,69.24A17.17,17.17,0,0,0,67.36,68c1-.34,1.88-.68,2.44-.91,1.09-.44,1.11-.46,1.18-.56s.08-.13.08-1.3c0-.61,0-1.55-.07-2.61a17.37,17.37,0,0,0-1.1-5.91,6.72,6.72,0,0,0-2.47-2.86,4.79,4.79,0,0,0-7,1.28,4.49,4.49,0,0,0-.84,2.36l-1.68-1.92-2,3,2.44.84a4.52,4.52,0,0,0-1.92,1.68A4.8,4.8,0,0,0,57.9,68,6.68,6.68,0,0,0,61.48,69.24Z"/><path d="M88.26,86.71a17.42,17.42,0,0,0,5.88-1.2c1-.34,1.88-.68,2.44-.91,1.09-.44,1.11-.47,1.18-.57s.08-.12.08-1.29c0-.61,0-1.55-.07-2.61a16.89,16.89,0,0,0-1.1-5.91,6.72,6.72,0,0,0-2.47-2.86,4.79,4.79,0,0,0-7,1.28A4.46,4.46,0,0,0,86.4,75l-1.68-1.92-2,3,2.44.84a4.51,4.51,0,0,0-1.92,1.68,4.8,4.8,0,0,0,1.44,6.93A6.68,6.68,0,0,0,88.26,86.71Z"/><path d="M183.88,280.58h-173V10.85h173Zm-169-4h165V14.85h-165Z"/></svg>