<svg id="圖層_1" data-name="圖層 1" xmlns="http://www.w3.org/2000/svg" viewBox="0 0 194.94 294.58"><defs><style>.cls-1{fill:#fff;}.cls-2{fill:#170000;}.cls-3{fill:#231815;}.cls-4{fill:#c21823;}.cls-5{fill:#ffb4c0;}.cls-6{fill:#b28247;}</style></defs><title>新接龍</title><rect class="cls-1" x="12.88" y="12.85" width="169" height="265.73"/><path d="M183.88,280.58h-173V10.85h173Zm-169-4h165V14.85h-165Z"/><path class="cls-2" d="M27.62,32.33a5.82,5.82,0,0,1,2.32-1.7A7,7,0,0,1,28.11,29a3.51,3.51,0,0,1-.64-2.14,3.34,3.34,0,0,1,.63-2,3.88,3.88,0,0,1,1.68-1.29A5.58,5.58,0,0,1,32,23.11a5.06,5.06,0,0,1,3.13.9,2.86,2.86,0,0,1,1.18,2.41,3.6,3.6,0,0,1-.69,2.12,5.85,5.85,0,0,1-2,1.69,10.57,10.57,0,0,1,2.49,1.83A3.17,3.17,0,0,1,37,34.35a3.34,3.34,0,0,1-.71,2.13,4.67,4.67,0,0,1-1.9,1.42,6.53,6.53,0,0,1-2.56.5,7.1,7.1,0,0,1-2.42-.4,4.1,4.1,0,0,1-1.86-1.28,3.32,3.32,0,0,1-.72-2.19A3.57,3.57,0,0,1,27.62,32.33Zm6.86,1.16a4.22,4.22,0,0,0-1.06-1c-.42-.27-1-.59-1.73-1-.38-.19-.66-.34-.85-.45a4.26,4.26,0,0,0-1.52,1.29,2.87,2.87,0,0,0-.59,1.73A3,3,0,0,0,32,37.38a3.25,3.25,0,0,0,1.39-.32,2.92,2.92,0,0,0,1.1-.93,2.31,2.31,0,0,0,.42-1.36A2.07,2.07,0,0,0,34.48,33.49ZM29.76,27.7a4,4,0,0,0,1.08,1c.43.26,1.05.61,1.85,1a4,4,0,0,0,1.42-1.22,2.75,2.75,0,0,0,.53-1.61,2.9,2.9,0,0,0-.73-2.08A2.57,2.57,0,0,0,32,24.05a2.82,2.82,0,0,0-1.88.64,2.13,2.13,0,0,0-.77,1.73A2,2,0,0,0,29.76,27.7Z"/><path class="cls-3" d="M140.52,122.08l-2.79-3.9s-3.47,2.71-3.52,2.76A9.26,9.26,0,0,0,140.52,122.08Z"/><path class="cls-3" d="M138.91,123a10.32,10.32,0,0,1-5.1-1.42.75.75,0,0,1-.11-1.19l3.56-2.8a.74.74,0,0,1,.57-.15.77.77,0,0,1,.51.3l2.79,3.91a.75.75,0,0,1-.45,1.17A8.44,8.44,0,0,1,138.91,123Zm-3.31-2.2a8.7,8.7,0,0,0,3.58.7l-1.61-2.25Z"/><path class="cls-2" d="M102,220c-.4,0-.8,0-1.2,0-20.82-.78-21.8-3-23-5.51l-.13-.29c-.69-1.47-.87-3.59.37-4.77s3.33-1,6.22.52c4.7,2.49,7,.47,7.62-.21a34.35,34.35,0,0,1-.08-8.05c.71-5.86,3.21-9.43,7.23-10.33a31.9,31.9,0,0,1,14.81.3c2.12.49,4.53,1,5.59.82a.75.75,0,0,1,.89.58.76.76,0,0,1-.58.89c-1.4.28-3.86-.28-6.23-.83a36.59,36.59,0,0,0-3.65-.72,32.18,32.18,0,0,0-10.5.43c-3.4.76-5.44,3.8-6.07,9a33.33,33.33,0,0,0,.11,8,.77.77,0,0,1-.11.53s-3,4.46-9.73.92c-2.16-1.14-3.79-1.42-4.48-.77s-.53,2,0,3.05l.14.31c.86,1.91,1.75,3.89,21.63,4.63.39,0,.77,0,1.15,0,19.87,0,31.23-19.48,31.35-19.68a.61.61,0,0,1,.23-.25c25.44-17,23.4-44.79,23.38-45.07a.72.72,0,0,1,.36-.7,8,8,0,0,0,2.69-3.69.77.77,0,0,1,.52-.49,7.81,7.81,0,0,1,6.16,1.61,17.15,17.15,0,0,1,3.42,4,11.25,11.25,0,0,0,2.1,2.57,1.89,1.89,0,0,0,.3-.69,33.3,33.3,0,0,0,1.25-7.94,5.3,5.3,0,0,0-2.21-3.6c-3.27-2.32-8.89-1.36-8.94-1.35a.76.76,0,0,1-.6-.16.73.73,0,0,1-.28-.55,31.27,31.27,0,0,0-.54-5.24,31.33,31.33,0,0,0-3.32-6.13.73.73,0,0,1-.14-.59.72.72,0,0,1,.35-.5s2.95-1.85,5.7-7a11.37,11.37,0,0,0,1.3-8.41c-2.93.13-9.29.83-11,2.84-1.85,2.18-1.92,7.9-1.79,9.92a.73.73,0,0,1-.27.63.75.75,0,0,1-.68.14c-3.2-.9-4.46,2.37-4.52,2.51a.74.74,0,0,1-1.31.16L138,120c-3.1,1.06-5.3,4.14-5.65,8a10.91,10.91,0,0,0,.88,5.44,17.59,17.59,0,0,0,1.41,2.43,16.09,16.09,0,0,1,1.85,3.43c1.93,5.61.12,7.2-2.87,9s-11.83.87-12.82.76h0l-.09,0a.75.75,0,0,1-.22-1.36c.15-.25.69-1.38,1.58-6a2,2,0,0,0-.35-1.71c-1.43-1.94-6.57-2.72-10.31-3.14-7.27-.8-12.15,1.93-12.38,3.7a3.18,3.18,0,0,0,.89,3c2.36,2,8.7.76,10.94.1a.74.74,0,0,1,.93.51.75.75,0,0,1-.5.93c-.36.11-8.89,2.57-12.35-.4a4.61,4.61,0,0,1-1.4-4.38c.41-3.05,6.5-5.83,14-5,6.57.73,10,1.85,11.36,3.75a3.53,3.53,0,0,1,.61,2.87,35.89,35.89,0,0,1-1.42,5.67c3.11.27,8.8.48,10.74-.66,2.43-1.45,3.89-2.32,2.21-7.2a15.09,15.09,0,0,0-1.68-3.1,19.38,19.38,0,0,1-1.53-2.64,12.36,12.36,0,0,1-1-6.18c.42-4.59,3.2-8.27,7.09-9.38l.17,0a.74.74,0,0,1,.8.3L146,128.92a5,5,0,0,1,4.73-2.43c-.05-2.2.08-7.56,2.18-10,2.59-3,11.63-3.37,12.65-3.39a.7.7,0,0,1,.71.45c.08.18,1.85,4.52-1.19,10.19a22.47,22.47,0,0,1-5.61,7.11,33.67,33.67,0,0,1,3.08,5.82,24.6,24.6,0,0,1,.61,4.94c1.83-.2,6.24-.41,9.23,1.72a6.8,6.8,0,0,1,2.83,4.64.62.62,0,0,1,0,.13,34.35,34.35,0,0,1-1.31,8.41c-.11.4-.47,1.61-1.47,1.78-1.21.2-2.22-1.24-3.61-3.22a16,16,0,0,0-3-3.63,6.8,6.8,0,0,0-4.55-1.43,9.29,9.29,0,0,1-2.79,3.8c.15,3.72.3,29.57-23.92,45.9C133.39,201.58,121.74,220,102,220Zm18.88-72.47h0Z"/><path class="cls-2" d="M87,200.42a10.07,10.07,0,0,1-3.75-.72c-.85-.34-1.72-.65-2.59-1-5.74-2.06-12.24-4.4-13.48-14.8-.11-1-1-9.24,2.91-10.4a3.15,3.15,0,0,1,2.82.5c2,1.42,2.94,4.8,3,6.29.09,2.26,1,5.38,2.89,6.88a3.7,3.7,0,0,0,2.37.86h0c-.22-2.59-.73-11,1.53-15.15,2.82-5.16,10.86-7.75,15.9-6.52,3.6.88,6.77,4.13,8.37,6.05.58-3.35,2.35-10.5,7.11-13.81a.75.75,0,0,1,1,.19.74.74,0,0,1-.18,1c-5.64,3.93-6.72,14.4-6.73,14.5a.76.76,0,0,1-.56.65.73.73,0,0,1-.8-.29c0-.06-4.07-5.77-8.61-6.87s-11.75,1.26-14.22,5.78-1.3,14.91-1.29,15a.76.76,0,0,1-.62.82,5.14,5.14,0,0,1-4.3-1.11c-2.24-1.79-3.34-5.3-3.45-8,0-1.24-.91-4.09-2.37-5.13a1.66,1.66,0,0,0-1.52-.28c-1.93.57-2.24,5.48-1.85,8.78,1.13,9.48,6.65,11.47,12.49,13.57.9.32,1.78.64,2.65,1,4.83,1.93,9.23-1.39,9.27-1.43a.76.76,0,0,1,1.06.14.75.75,0,0,1-.14,1A12.41,12.41,0,0,1,87,200.42Z"/><path class="cls-2" d="M134.84,185.57a7,7,0,0,1-1.41-.13,3.73,3.73,0,0,1-3.08-2.48c-.75-2.49.84-4.32,2.38-6.09s2.88-3.32,2.49-5.56a.78.78,0,0,1,.05-.43c-.52,0-1.05,0-1.6,0-4.79-.19-7.13-3-7.32-5.65a4.51,4.51,0,0,1,3.75-4.88c.67-.12,1.45-.19,2.21-.26l1.14-.11a23.14,23.14,0,0,0,3.3-.63l5.87-1.53c2.16-.57,3.88-.3,5.08.82,2.57,2.37,1.65,7.67,1.61,7.89-.07.42-1.81,10.41-5.36,14.76A12.42,12.42,0,0,1,134.84,185.57Zm1.75-14.79a.81.81,0,0,1,.11.27c.51,2.95-1.27,5-2.84,6.8-1.38,1.6-2.58,3-2.07,4.68a2.33,2.33,0,0,0,1.93,1.44c2.54.5,6.79-.84,9.07-3.64,3.3-4.05,5-14,5.05-14.07.23-1.31.47-5-1.16-6.53-.8-.74-2-.9-3.68-.47l-5.87,1.54a26.15,26.15,0,0,1-3.51.66l-1.17.11c-.73.07-1.48.14-2.07.25a3,3,0,0,0-2.54,3.29c.15,2,2,4.11,5.89,4.27a17.6,17.6,0,0,0,3.23-.16c4.49-.69,5.55-3.19,5.59-3.3a.76.76,0,0,1,1-.42.74.74,0,0,1,.43,1c0,.14-1.36,3.41-6.77,4.24Z"/><path class="cls-2" d="M114.15,160a4.37,4.37,0,0,1-3.55-1.49c-1.89-2.26-1.12-6.39-.7-8.07a18.46,18.46,0,0,1,1-2.86c.33-.77.88-2.05.71-2.32,0,0-.1-.13-.66-.15a.75.75,0,0,1-.71-.78.74.74,0,0,1,.78-.72,2.1,2.1,0,0,1,1.86.86c.59.93.07,2.15-.6,3.7a18.4,18.4,0,0,0-1,2.64c-.28,1.13-1.09,5,.4,6.74a3.12,3.12,0,0,0,2.79.94.78.78,0,0,1,.8.7.76.76,0,0,1-.7.8Z"/><path class="cls-3" d="M146.1,130.36c0,3.7,3.24,6.89,6.9,4.28s5.44-4,5.44-4,9.82-7.72,7.15-16.82c0,0-8.17.46-10.14,1.8s-4.23,4.9-3.92,11.78c0,0-2.05-.62-3.18.31A13.37,13.37,0,0,0,146.1,130.36Z"/><path class="cls-3" d="M150.33,136.35a4.21,4.21,0,0,1-2-.5,6.06,6.06,0,0,1-3-5.49.7.7,0,0,1,.12-.4,13.88,13.88,0,0,1,2.4-2.83,3.9,3.9,0,0,1,2.88-.65C150.66,118.6,154,115.71,155,115c2.08-1.4,9.66-1.87,10.52-1.92a.72.72,0,0,1,.76.53c2.78,9.49-7,17.3-7.4,17.63,0,0-1.84,1.43-5.47,4A5.36,5.36,0,0,1,150.33,136.35Zm-3.48-5.77a4.59,4.59,0,0,0,2.18,3.94,3.28,3.28,0,0,0,3.54-.49c3.6-2.57,5.39-4,5.41-4s9-7.18,7.05-15.45c-3.14.22-7.93.81-9.16,1.64-.93.63-3.94,3.3-3.6,11.13a.74.74,0,0,1-.28.62.76.76,0,0,1-.68.13,3.19,3.19,0,0,0-2.49.17A12,12,0,0,0,146.85,130.58Z"/><path class="cls-3" d="M160.15,133.79s-7.36,2.71-9.42,6.31-.55,8.19-.55,8.19,3.67,9.45,6.63,10.75l3.89-9.73s5.27-.4,6.69,2.56a12.83,12.83,0,0,0,3.52,4.69c.87.81,1.59,2.4,3.07-3.64s-.2-9-3.43-9.79c-2.26-.57-6-1.85-8.27-.63.08-.05-.18-4-.22-4.43A7.24,7.24,0,0,0,160.15,133.79Z"/><path class="cls-3" d="M156.81,159.79a.81.81,0,0,1-.31-.06c-3.14-1.39-6.63-10.17-7-11.17-.08-.24-1.61-5,.6-8.83s9.5-6.53,9.81-6.64a.75.75,0,0,1,.82.2,8.06,8.06,0,0,1,2.1,4.71c.15,1.59.23,2.67.25,3.41,2.09-.5,4.72.21,6.73.74l.94.25c2.33.58,5.94,2.75,4,10.7-1,3.88-1.6,4.76-2.41,5a1.73,1.73,0,0,1-1.67-.74l-.24-.23-.26-.25a13.16,13.16,0,0,1-3.41-4.67c-.89-1.84-3.93-2.18-5.5-2.15l-3.72,9.28a.69.69,0,0,1-.41.41A.71.71,0,0,1,156.81,159.79Zm3.12-25.11c-1.64.67-6.94,3-8.55,5.8-1.87,3.26-.5,7.53-.49,7.57,1.22,3.13,3.67,8.2,5.56,9.86L160,149a.73.73,0,0,1,.63-.47c.24,0,5.8-.4,7.43,3a11.58,11.58,0,0,0,3.07,4.21l.28.26c.1.09.19.19.29.29l.25.24a12.53,12.53,0,0,0,1.3-3.8c1.25-5.1.28-8.09-2.89-8.88l-1-.26c-2.14-.57-5.06-1.35-6.74-.46l0,0a.75.75,0,0,1-1-.31.76.76,0,0,1-.08-.51c0-.53-.18-3.73-.22-4.19A6.52,6.52,0,0,0,159.93,134.68Z"/><path class="cls-1" d="M155.56,132.38a.72.72,0,0,1-.51-.2,9.58,9.58,0,0,0-2.12-.73.74.74,0,0,1-.54-.91.75.75,0,0,1,.91-.55,8.65,8.65,0,0,1,2.76,1.09.75.75,0,0,1-.5,1.3Z"/><path class="cls-1" d="M158.06,140.21H158a.74.74,0,0,1-.69-.8,9.35,9.35,0,0,0-.76-2.11.75.75,0,0,1,1.37-.63,8.67,8.67,0,0,1,.88,2.85A.75.75,0,0,1,158.06,140.21Z"/><path class="cls-1" d="M155.05,141.9a.74.74,0,0,1-.57-.27,2.9,2.9,0,0,0-1.08-.86.75.75,0,0,1,.16-1.49,3.91,3.91,0,0,1,2.07,1.38.77.77,0,0,1-.09,1.06A.74.74,0,0,1,155.05,141.9Z"/><path class="cls-1" d="M149.78,135.08h-.05a.75.75,0,0,1-.7-.8,2.84,2.84,0,0,0-.17-1.37.76.76,0,0,1,.11-1.06A.75.75,0,0,1,150,132a3.84,3.84,0,0,1,.51,2.43A.75.75,0,0,1,149.78,135.08Z"/><path class="cls-3" d="M147.14,212.2c-5.89,0-12.21-2.28-15.1-7.94a11.4,11.4,0,0,1-.78-1.92.75.75,0,1,1,1.44-.42,9.55,9.55,0,0,0,.68,1.66c3.23,6.35,11.42,8,17.65,6.76,5.48-1.06,11.55-4.62,12.17-11.48a8.9,8.9,0,0,0-3.27-7.58,5,5,0,0,0-2.24-1l-.27,0c2,2.32,3.14,5.88,1.42,9.11-2.2,4.13-7.44,4.95-10.37,5.07-4.67.19-10.54-2.39-12.34-7.05a.75.75,0,1,1,1.39-.54c1.55,4,6.87,6.24,10.89,6.09,2.1-.08,7.19-.67,9.1-4.27,1.57-2.95.11-6.29-1.92-8.14a.92.92,0,0,1-.26-1.11c.45-.93,2.58-.63,2.61-.62a6.51,6.51,0,0,1,2.91,1.3,10.27,10.27,0,0,1,3.84,8.9c-.7,7.68-7.36,11.65-13.37,12.81A22.71,22.71,0,0,1,147.14,212.2Z"/><path class="cls-4" d="M157.9,158.72c3-2.89-4.22-5.8-5.74-6.47-4.39-2-8.76-3.91-13.06-6.06-1.33-.67-2.39-1.74-4.06-1.37-2,.45-3.44,3.42-1.39,4.39,5.45,2.59,10.79,5.54,16.4,7.8C151.77,157.76,156,160.54,157.9,158.72Z"/><path d="M156.49,158.2c-1.58,0-3.49-1-4.89-1.71-.37-.19-.7-.36-1-.48-3.28-1.38-6.52-3-9.65-4.61-1.59-.8-3.17-1.6-4.76-2.37a2.21,2.21,0,0,1-1.31-2.35,3.18,3.18,0,0,1,2.54-2.57,4.51,4.51,0,0,1,3.23.9c.25.15.5.3.77.44,3.77,1.91,7.66,3.69,11.42,5.41l.26.12c2.59,1.16,5.6,2.74,5.9,4.63a2.13,2.13,0,0,1-.78,2A2.56,2.56,0,0,1,156.49,158.2ZM138,145.56a1.84,1.84,0,0,0-.33,0,1.67,1.67,0,0,0-1.3,1.3.7.7,0,0,0,.48.79c1.6.77,3.18,1.58,4.77,2.39,3.11,1.57,6.33,3.2,9.57,4.56l1.06.52c1.32.69,4.08,2.11,5,1.32h0c.35-.33.32-.53.31-.62-.1-.61-1.05-1.72-5-3.51l-.26-.11c-3.78-1.73-7.68-3.52-11.48-5.45-.3-.15-.58-.32-.86-.48A3.73,3.73,0,0,0,138,145.56Z"/><path class="cls-4" d="M157.1,157.9s8,1.19,7.66,11.85C164.76,169.75,154.22,166.31,157.1,157.9Z"/><path class="cls-4" d="M173.25,153.15s-6.63-4.68-13.72,3.28C159.53,156.43,169.52,161.23,173.25,153.15Z"/><path d="M165.68,168.28l-1-.31c-.2-.07-5.12-1.7-7-5.57a7.53,7.53,0,0,1-.27-6l.2-.59.62.09c.08,0,7.83,1.28,7.49,11.36Zm-7.05-10.72a5.94,5.94,0,0,0,.39,4.17c1.18,2.35,3.78,3.78,5.2,4.42C164,159.85,160.18,158,158.63,157.56Z"/><path d="M163.15,157.85a15.62,15.62,0,0,1-4.44-.67l-1-.31.56-.83c5.69-8.33,12.69-4.76,12.76-4.72l.55.29-.18.59a7.51,7.51,0,0,1-3.76,4.66A10,10,0,0,1,163.15,157.85Zm-3-1.84c1.53.33,4.48.71,6.81-.49a5.94,5.94,0,0,0,2.78-3.12C168.26,151.86,164.08,151.05,160.2,156Z"/><path class="cls-3" d="M153.39,176s-5.65-2.86-7.83,1-4.08,6.73-9.26,7.75-5.23-2-5.23-2-4.41,3.77-5.48,7.21-6,12.2-6,12.2-3.79,4,1.27,4.32a22.41,22.41,0,0,0,8.3-.82l4.86-6.51s7.75-6.14,9.11-7.6S154,178.59,153.39,176Z"/><path class="cls-3" d="M122.67,207.29c-.6,0-1.24,0-1.9-.06-1.74-.12-2.81-.67-3.19-1.65-.61-1.56,1-3.43,1.36-3.86.48-.86,5-8.82,5.93-12,1.12-3.61,5.53-7.4,5.71-7.56a.75.75,0,0,1,.8-.12.77.77,0,0,1,.44.67,1.4,1.4,0,0,0,.55.93c.5.38,1.56.75,3.79.31,4.77-.94,6.56-3.53,8.74-7.38,2-3.53,6.65-2.38,8.82-1.28a.74.74,0,0,1,.39.49c.79,3.34-10.35,16.13-10.47,16.26-1.32,1.42-8.26,6.93-9.12,7.62l-4.79,6.43a.78.78,0,0,1-.36.26A21.77,21.77,0,0,1,122.67,207.29Zm8.07-23.22c-1.28,1.23-3.71,3.79-4.43,6.11-1.08,3.48-5.91,12-6.11,12.35l-.11.15c-.58.61-1.34,1.79-1.12,2.36.15.37.84.62,1.89.69a22.64,22.64,0,0,0,7.81-.71l4.71-6.32a.57.57,0,0,1,.13-.14c.08-.06,7.73-6.12,9-7.52,2.5-2.7,9.8-12.07,10.12-14.57-1.21-.5-4.94-1.79-6.45.86-2.32,4.08-4.37,7-9.76,8.11-2.27.45-4,.23-5-.64A3.14,3.14,0,0,1,130.74,184.07Z"/><path class="cls-5" d="M100.43,179.15S115.7,161,122.84,173s-18.64,17.74-18.64,17.74S94,190.61,100.43,179.15Z"/><path d="M171.88,29.26a17.05,17.05,0,0,0-4.28-4.21c-.84-.64-1.62-1.18-2.12-1.52-1-.66-1-.66-1.13-.66s-.14,0-1.12.66c-.5.34-1.28.87-2.12,1.51a17.14,17.14,0,0,0-4.29,4.22,6.65,6.65,0,0,0-1,3.64A4.79,4.79,0,0,0,160.78,38a4.56,4.56,0,0,0,2.42-.62l-.65,2.46h3.58l-.66-2.49a4.45,4.45,0,0,0,2.46.65,4.79,4.79,0,0,0,4.94-5.06A6.76,6.76,0,0,0,171.88,29.26Z"/><path class="cls-6" d="M11.19,123.63s9.69-10.79,14-15.35c3.35-3.52,14.85-12.12,19.91-15.86a7.77,7.77,0,0,0,3-4.71c1-5,3.29-15.52,5.69-24.54,3.29-12.33,3.05-15.33,3.05-15.33-1.67-4-6.67,13-6.67,13-1.77,5.91-3.53,11.82-5.41,17.7C42,87.18,34.73,88.87,27.51,93.26c-5.58,3.39-11.12,6.86-16.63,10.35Z"/><path d="M14.26,108.51l-.55-.84c.53-.35,13.05-8.58,15.69-9.71,2.44-1,11.17-6.73,13.73-9.28a4.59,4.59,0,0,0,1.39-4.74l.94-.36a5.57,5.57,0,0,1-1.62,5.8c-2.68,2.68-11.49,8.41-14.05,9.5S14.39,108.42,14.26,108.51Z"/><path d="M14.76,112.13l-.55-.83c.72-.48,17.86-11.84,20.54-13.22a47.36,47.36,0,0,0,8.33-5.29,13.38,13.38,0,0,0,4.31-6.64,35.92,35.92,0,0,0,1.4-8.34c.07-.86.15-1.72.24-2.55q.36-3.24.69-6.48l1,.11q-.33,3.24-.68,6.48c-.09.83-.17,1.67-.24,2.53a36.26,36.26,0,0,1-1.46,8.57,14.51,14.51,0,0,1-4.62,7.1,48.34,48.34,0,0,1-8.5,5.4C32.58,100.32,14.94,112,14.76,112.13Z"/><path d="M13.75,125.46l-1.11-1c.09-.11,9.74-10.85,14-15.36,3.4-3.58,15.13-12.34,20-15.95a7,7,0,0,0,2.73-4.26c1.11-5.35,3.32-15.67,5.7-24.58,2.74-10.26,3-14,3-14.88-1.17,1.06-3.55,7.35-5.2,13l-.07.22c-1.71,5.74-3.49,11.68-5.35,17.49-2.23,7-7.35,9.64-12.77,12.47-1.58.83-3.22,1.68-4.84,2.66-4.93,3-10.21,6.29-16.62,10.35l-.8-1.27C18.89,100.25,24.18,97,29.13,94c1.66-1,3.32-1.87,4.92-2.71,5.36-2.8,10-5.21,12-11.6,1.85-5.79,3.62-11.73,5.34-17.46l.06-.22c1.88-6.39,4.57-14,6.7-14.14.33,0,1,.09,1.38,1.07l.06.22c0,.13.22,3.27-3.07,15.59C54.19,73.57,52,83.86,50.88,89.19a8.59,8.59,0,0,1-3.31,5.17c-4.85,3.58-16.49,12.28-19.82,15.77C23.48,114.63,13.85,125.36,13.75,125.46Z"/><path class="cls-6" d="M20.43,279.24s3.83-8.47,6.26-14.27c1.87-4.48,5.1-18.48,6.48-24.62a7.82,7.82,0,0,1,3.09-4.66c4.16-3,12.87-9.27,20.15-15.11,10-8,12.81-9,12.81-9C73.55,211.52,60,223,60,223c-4.69,4-9.39,8-14,12.09-6.79,6-5.39,13.39-6.5,21.76-.85,6.48-1.79,12.94-2.76,19.4Z"/><path d="M31.89,275.25l-1-.17c0-.15,2.57-15.31,2.54-18.09s1.66-13.16,3-16.69a5.55,5.55,0,0,1,4.65-3.82l0,1,0-.5,0,.5a4.56,4.56,0,0,0-3.76,3.18c-1.31,3.37-3,13.66-3,16.32C34.47,259.84,32,274.62,31.89,275.25Z"/><path d="M28.37,276.26l-1-.17c0-.21,3.62-21.07,3.79-24a48.46,48.46,0,0,1,1.52-10,14.55,14.55,0,0,1,4.62-7.1,37,37,0,0,1,7.27-4.79c.75-.41,1.49-.82,2.21-1.24l5.66-3.24.49.87q-2.84,1.6-5.64,3.24c-.73.42-1.48.83-2.23,1.25A35.08,35.08,0,0,0,38,235.75a13.4,13.4,0,0,0-4.34,6.61,48.24,48.24,0,0,0-1.48,9.76C32,255.13,28.51,275.4,28.37,276.26Z"/><path d="M18.8,278.89l-1.36-.62c0-.09,4.14-9.15,6.53-14.88,1.85-4.45,5.12-18.61,6.44-24.5a8.55,8.55,0,0,1,3.39-5.11c4.43-3.16,13-9.33,20.12-15.08,9.94-8,12.9-9,13-9.09l.23,0h.06a1.41,1.41,0,0,1,1.48.83c.75,2-5.16,7.54-10.24,11.83l-.37.32c-4.49,3.83-9.14,7.79-13.63,11.76-5,4.45-5.36,9.66-5.75,15.7-.12,1.8-.25,3.67-.5,5.6-.76,5.79-1.64,12-2.77,19.41L34,274.8c1.12-7.44,2-13.6,2.76-19.39.25-1.88.37-3.72.49-5.5.4-6.1.77-11.86,6.26-16.72,4.5-4,9.15-7.95,13.64-11.78l.38-.32c4.47-3.78,9.26-8.48,9.75-10-.77.35-4.1,2.11-12.4,8.76-7.19,5.77-15.73,12-20.18,15.13a7.11,7.11,0,0,0-2.8,4.22c-1.33,5.92-4.62,20.18-6.52,24.75C23,269.71,18.84,278.8,18.8,278.89Z"/><path class="cls-6" d="M13.19,147.71s9.69-10.78,14-15.34c3.2-3.36,7.11-6.15,10.77-9s9.28-5.49,11.41-9.51c1.3-2.45,2.54-4.93,3.89-7.36a3.06,3.06,0,0,1,3.6-1.45c2.09.06,7.3.24,9-1.49,1.53-1.57-.37-2.85-1.89-3.07-1-.15-9.72,1.41-9.6.23a78.88,78.88,0,0,1,3.33-13.17c1.5-3.83,3.51-9.38,3.51-9.38a1.79,1.79,0,0,0-2.9-2C54.41,80.1,51.4,91.59,51.4,91.59c-1.77,5.91-2.88,9.87-6.41,14.93-4.16,6-8.26,6.44-15.48,10.82q-8.37,5.1-16.63,10.36Z"/><path d="M14.26,132.36l-.55-.84c.53-.35,13.05-8.57,15.69-9.7,2.44-1,11.17-6.74,13.73-9.29a4.61,4.61,0,0,0,1.39-4.73l.94-.36a5.55,5.55,0,0,1-1.62,5.79c-2.69,2.68-11.49,8.41-14.05,9.51S14.39,132.28,14.26,132.36Z"/><path d="M14.76,136l-.55-.83c.72-.48,17.86-11.84,20.54-13.22a47.36,47.36,0,0,0,8.33-5.29c2.2-1.78,3.28-3.86,4.31-6.65a84.77,84.77,0,0,0,5.3-22.36l.09-.92,1,.11-.1.91a85.5,85.5,0,0,1-5.35,22.6c-1.09,3-2.24,5.17-4.62,7.09a49.1,49.1,0,0,1-8.5,5.4C32.58,124.17,14.94,135.87,14.76,136Z"/><path d="M13.75,149.31l-1.11-1c.09-.11,9.74-10.85,14-15.36a74,74,0,0,1,9-7.66l1.82-1.39c1-.78,2.17-1.54,3.4-2.36,3-2,6.36-4.19,7.81-6.91l1.43-2.74c.8-1.53,1.61-3.1,2.47-4.64A3.74,3.74,0,0,1,57,105.43h0c1.88,0,6.87.19,8.29-1.27.29-.3.4-.56.33-.77a2.33,2.33,0,0,0-1.78-1,26,26,0,0,0-2.68.24c-4.78.55-6.6.63-7.28,0a1,1,0,0,1-.29-.79A79.12,79.12,0,0,1,57,88.4c1.48-3.78,3.49-9.31,3.51-9.36a1.05,1.05,0,0,0-.41-1.29,1,1,0,0,0-1.27.12c-3.71,3.67-6.69,14.89-6.72,15l-.2.66c-1.65,5.54-2.84,9.54-6.32,14.51-3,4.33-6.12,5.92-10.05,7.93-1.65.85-3.52,1.81-5.65,3.1-4.9,3-10.18,6.27-16.62,10.35l-.8-1.26c6.44-4.09,11.73-7.38,16.65-10.37,2.17-1.32,4.06-2.29,5.74-3.15,3.88-2,6.69-3.43,9.51-7.46,3.33-4.77,4.43-8.48,6.11-14.08l.19-.64c.12-.45,3.1-11.7,7.11-15.67a2.46,2.46,0,0,1,3.14-.3,2.5,2.5,0,0,1,1,3.07s-2,5.58-3.51,9.38a80.39,80.39,0,0,0-3.23,12.56,38.88,38.88,0,0,0,5.85-.4,17.91,17.91,0,0,1,3.06-.24,3.73,3.73,0,0,1,3,2,2.18,2.18,0,0,1-.68,2.31c-1.65,1.7-5.68,1.82-9.4,1.72l-.35,0A2.27,2.27,0,0,0,53.94,108c-.85,1.52-1.66,3.08-2.44,4.6-.48.92-1,1.84-1.45,2.76-1.62,3-5.17,5.39-8.3,7.46-1.21.79-2.35,1.54-3.32,2.29l-1.82,1.39A72.53,72.53,0,0,0,27.76,134C23.48,138.48,13.85,149.21,13.75,149.31Z"/><path class="cls-6" d="M15.24,279.16s10.79-9.68,15.34-14c3.36-3.19,6.15-7.1,9-10.76s5.5-9.28,9.51-11.41c2.45-1.31,4.93-2.54,7.36-3.89a3.07,3.07,0,0,0,1.45-3.61c-.06-2.08-.24-7.29,1.49-9,1.57-1.54,2.85.37,3.07,1.88.15,1-1.41,9.73-.23,9.61a80.1,80.1,0,0,0,13.17-3.34c3.83-1.5,9.38-3.51,9.38-3.51a1.8,1.8,0,0,1,2,2.91C82.85,238,71.36,241,71.36,241c-5.9,1.77-9.87,2.87-14.93,6.41-6,4.16-6.44,8.25-10.82,15.47q-5.1,8.37-10.36,16.64Z"/><path d="M31.43,278.65l-.84-.55c.09-.13,8.53-13,9.63-15.53s6.82-11.37,9.5-14a5.55,5.55,0,0,1,5.8-1.62l-.37.93a4.57,4.57,0,0,0-4.72,1.4c-2.56,2.56-8.25,11.29-9.29,13.73C40,265.59,31.78,278.12,31.43,278.65Z"/><path d="M27.8,278.15,27,277.6c.12-.18,11.81-17.82,13.16-20.45a48.34,48.34,0,0,1,5.4-8.5c1.92-2.38,4.14-3.54,7.09-4.62a85.75,85.75,0,0,1,22.6-5.36l.91-.09.11,1-.92.1A84.69,84.69,0,0,0,53,245c-2.79,1-4.87,2.11-6.65,4.31A48.11,48.11,0,0,0,41,257.6C39.64,260.28,28.28,277.42,27.8,278.15Z"/><path d="M34.79,279.88l-1.27-.8c4.07-6.42,7.35-11.7,10.35-16.63,1.29-2.12,2.25-4,3.1-5.65,2-3.92,3.6-7,7.93-10.05,5-3.47,9-4.67,14.52-6.32l.63-.19c.14,0,11.36-3,15-6.73a1,1,0,0,0,.12-1.26,1,1,0,0,0-1.27-.42c-.07,0-5.6,2-9.38,3.51a78.32,78.32,0,0,1-13.36,3.38.93.93,0,0,1-.8-.29c-.66-.67-.59-2.49,0-7.27a26,26,0,0,0,.24-2.68,2.35,2.35,0,0,0-1-1.79c-.21-.06-.47,0-.77.34-1.46,1.42-1.32,6.41-1.27,8.28v0a3.76,3.76,0,0,1-1.82,4.38c-1.53.85-3.11,1.67-4.63,2.46-.92.48-1.84.95-2.75,1.44-2.72,1.44-5,4.82-6.91,7.8-.81,1.23-1.58,2.4-2.36,3.41l-1.39,1.81a74.12,74.12,0,0,1-7.66,9c-4.51,4.29-15.25,13.93-15.36,14l-1-1.12c.1-.09,10.83-9.72,15.33-14a74.13,74.13,0,0,0,7.5-8.85c.46-.62.93-1.23,1.39-1.83.75-1,1.5-2.1,2.3-3.31,2.06-3.13,4.4-6.68,7.45-8.31l2.76-1.44c1.52-.79,3.09-1.6,4.6-2.44a2.27,2.27,0,0,0,1.09-2.71l0-.35c-.1-3.73,0-7.75,1.72-9.41a2.17,2.17,0,0,1,2.31-.67,3.69,3.69,0,0,1,2,3,18,18,0,0,1-.24,3.06,37.49,37.49,0,0,0-.39,5.85A81.15,81.15,0,0,0,74,234c3.8-1.49,9.35-3.5,9.4-3.52a2.55,2.55,0,0,1,2.75,4.14c-4,4-15.22,7-15.7,7.11l-.6.19c-5.61,1.67-9.31,2.78-14.09,6.11-4,2.82-5.47,5.62-7.46,9.51-.86,1.67-1.83,3.57-3.15,5.74C42.15,268.16,38.86,273.45,34.79,279.88Z"/><path d="M80.18,109.68a16.88,16.88,0,0,0,5.93.88c1.06,0,2,0,2.61,0,1.18,0,1.2-.06,1.3-.13s.12-.09.52-1.19c.2-.57.51-1.47.82-2.48a17,17,0,0,0,1-5.93A6.71,6.71,0,0,0,91,97.28a4.79,4.79,0,0,0-7-1.17A4.58,4.58,0,0,0,82.42,98l-.92-2.38-2.9,2.12,2,1.62a4.54,4.54,0,0,0-2.37.92,4.79,4.79,0,0,0-1,7A6.61,6.61,0,0,0,80.18,109.68Z"/><path d="M37.74,136.39a16.88,16.88,0,0,0,5.12,3.14c1,.44,1.84.79,2.4,1,1.1.42,1.13.42,1.25.39s.14,0,.94-.89c.42-.45,1-1.14,1.73-2A17,17,0,0,0,52.42,133a6.72,6.72,0,0,0,.15-3.77,4.79,4.79,0,0,0-6-3.82,4.51,4.51,0,0,0-2.22,1.15l.08-2.55-3.49.81,1.2,2.28a4.41,4.41,0,0,0-2.54-.09,4.8,4.8,0,0,0-3.68,6A6.7,6.7,0,0,0,37.74,136.39Z"/><path d="M97.65,113a17.35,17.35,0,0,0,5.11,3.14c1,.43,1.85.79,2.41,1,1.1.43,1.13.42,1.25.39s.14,0,.94-.89c.42-.44,1-1.14,1.73-2a16.82,16.82,0,0,0,3.23-5.07,6.72,6.72,0,0,0,.16-3.77,4.81,4.81,0,0,0-6-3.83,4.52,4.52,0,0,0-2.22,1.16l.08-2.55-3.49.8,1.2,2.28a4.51,4.51,0,0,0-2.54-.08,4.78,4.78,0,0,0-3.68,6A6.65,6.65,0,0,0,97.65,113Z"/><path d="M44.76,214.17a17.1,17.1,0,0,0-5.25-2.91c-1-.39-1.87-.7-2.45-.89C36,210,35.92,210,35.8,210s-.14,0-.9.94c-.4.46-1,1.19-1.64,2a17.1,17.1,0,0,0-3,5.21,6.63,6.63,0,0,0,0,3.77,4.79,4.79,0,0,0,6.13,3.55,4.51,4.51,0,0,0,2.16-1.25l0,2.55,3.44-1-1.3-2.22a4.48,4.48,0,0,0,2.54,0,4.79,4.79,0,0,0,3.41-6.2A6.72,6.72,0,0,0,44.76,214.17Z"/><path d="M125.79,241.76a17.43,17.43,0,0,0-1.25-5.87c-.35-1-.71-1.87-.94-2.43-.45-1.09-.47-1.11-.57-1.17s-.13-.08-1.3-.07c-.61,0-1.55,0-2.61.09a17,17,0,0,0-5.9,1.16,6.69,6.69,0,0,0-2.83,2.49,4.8,4.8,0,0,0,1.34,7,4.56,4.56,0,0,0,2.37.81l-1.9,1.7,3,2L116,245a4.38,4.38,0,0,0,1.69,1.89,4.8,4.8,0,0,0,6.92-1.5A6.78,6.78,0,0,0,125.79,241.76Z"/><path d="M35.53,68.06a17.19,17.19,0,0,0,2.07,5.63c.49.94,1,1.76,1.27,2.29.6,1,.62,1,.73,1.07s.13.07,1.3-.11c.6-.09,1.53-.25,2.56-.46a17.09,17.09,0,0,0,5.68-2,6.66,6.66,0,0,0,2.46-2.87,4.79,4.79,0,0,0-2.31-6.69,4.47,4.47,0,0,0-2.46-.47l1.65-1.95L45.24,61l-.47,2.53a4.58,4.58,0,0,0-1.94-1.64,4.79,4.79,0,0,0-6.64,2.47A6.71,6.71,0,0,0,35.53,68.06Z"/><path d="M61.48,69.24A17.17,17.17,0,0,0,67.36,68c1-.34,1.88-.68,2.44-.91,1.09-.44,1.11-.46,1.18-.56s.08-.13.08-1.3c0-.61,0-1.55-.07-2.61a17.37,17.37,0,0,0-1.1-5.91,6.72,6.72,0,0,0-2.47-2.86,4.79,4.79,0,0,0-7,1.28,4.49,4.49,0,0,0-.84,2.36l-1.68-1.92-2,3,2.44.84a4.52,4.52,0,0,0-1.92,1.68A4.8,4.8,0,0,0,57.9,68,6.68,6.68,0,0,0,61.48,69.24Z"/><path d="M88.26,86.71a17.42,17.42,0,0,0,5.88-1.2c1-.34,1.88-.68,2.44-.91,1.09-.44,1.11-.47,1.18-.57s.08-.12.08-1.29c0-.61,0-1.55-.07-2.61a16.89,16.89,0,0,0-1.1-5.91,6.72,6.72,0,0,0-2.47-2.86,4.79,4.79,0,0,0-7,1.28A4.46,4.46,0,0,0,86.4,75l-1.68-1.92-2,3,2.44.84a4.51,4.51,0,0,0-1.92,1.68,4.8,4.8,0,0,0,1.44,6.93A6.68,6.68,0,0,0,88.26,86.71Z"/><path d="M183.88,280.58h-173V10.85h173Zm-169-4h165V14.85h-165Z"/></svg>