<svg xmlns="http://www.w3.org/2000/svg" xmlns:xlink="http://www.w3.org/1999/xlink" width="949.442" height="578.767" viewBox="0 0 949.442 578.767"><defs><style>.a{fill:#f7f7f7;}.b{fill:#f79000;}.c{fill:#fbcd56;}.d{fill:#c41112;}.e{font-size:24px;font-family:NotoSansCJKtc-Medium, Noto Sans CJK TC;font-weight:500;letter-spacing:0.1em;}.f,.i,.k,.r,.w{fill:#fff;}.f,.h,.i,.j,.k{stroke:#1a1311;}.f,.h,.i,.j,.k,.m,.r,.t,.u,.v,.w,.x{stroke-linecap:round;}.f,.j,.k,.m,.r,.w{stroke-linejoin:round;}.f,.h,.i{stroke-width:7px;}.g{fill:#1a1311;}.h,.j,.t,.v,.x{fill:none;}.h,.i,.t,.u,.v,.x{stroke-miterlimit:10;}.j,.k,.r,.x{stroke-width:6px;}.l{fill:#c6b09c;}.m{fill:#e76051;stroke:#e76051;}.n{fill:#009367;}.o{fill:#25a4cd;}.p{fill:#a9bd32;}.q{fill:#f7cd46;}.r,.t,.u,.v,.w,.x{stroke:#231815;}.s{fill:#231815;}.t,.w{stroke-width:5px;}.u{fill:#cb192a;stroke-width:4px;}.v{stroke-width:3px;}.y{filter:url(#a);}</style><filter id="a" x="0" y="127.517" width="824" height="451.25" filterUnits="userSpaceOnUse"><feOffset dx="3" dy="3" input="SourceAlpha"/><feGaussianBlur stdDeviation="5" result="b"/><feFlood flood-opacity="0.161"/><feComposite operator="in" in2="b"/><feComposite in="SourceGraphic"/></filter></defs><g transform="translate(-201 -37.483)"><g class="y" transform="matrix(1, 0, 0, 1, 201, 37.48)"><path class="a" d="M32,0H762a32,32,0,0,1,32,32V389.25a32,32,0,0,1-32,32H32a32,32,0,0,1-32-32V32A32,32,0,0,1,32,0Z" transform="translate(12 139.52)"/></g><g transform="translate(44 -45)"><g transform="translate(-508.365 -293.163) rotate(17)"><path class="b" d="M941.5,362.995l98.1-49.1v-8.471L941.5,350.56Z" transform="translate(16.869 20.99)"/><path class="c" d="M915.5,312.4l89.86-39.327,51.113,53.342-98.1,46.991Z" transform="translate(0 0)"/><path class="d" d="M927.667,309.866l64.286-28.135,36.566,38.161L958.335,353.51Z" transform="translate(7.894 5.618)"/><path class="b" d="M935.333,307.645l48.17-21.082,27.4,28.595-52.59,25.19Z" transform="translate(12.868 8.753)"/><path class="b" d="M958.369,357.93v10.58L915.5,307.763V296.924" transform="translate(0 15.475)"/><rect class="d" width="39.463" height="3.847" rx="1.021" transform="translate(960.12 319.226) rotate(-24.237)"/><rect class="d" width="32.212" height="3.847" rx="0.928" transform="translate(973.603 324.218) rotate(-24.237)"/><rect class="d" width="41.887" height="3.773" rx="1.043" transform="translate(972.762 336.254) rotate(-24.237)"/></g><g transform="translate(-440.365 -268.163) rotate(17)"><path class="b" d="M941.5,362.995l98.1-49.1v-8.471L941.5,350.56Z" transform="translate(16.869 20.99)"/><path class="c" d="M915.5,312.4l89.86-39.327,51.113,53.342-98.1,46.991Z" transform="translate(0 0)"/><path class="d" d="M927.667,309.866l64.286-28.135,36.566,38.161L958.335,353.51Z" transform="translate(7.894 5.618)"/><path class="b" d="M935.333,307.645l48.17-21.082,27.4,28.595-52.59,25.19Z" transform="translate(12.868 8.753)"/><path class="b" d="M958.369,357.93v10.58L915.5,307.763V296.924" transform="translate(0 15.475)"/><rect class="d" width="39.463" height="3.847" rx="1.021" transform="translate(960.12 319.226) rotate(-24.237)"/><rect class="d" width="32.212" height="3.847" rx="0.928" transform="translate(973.603 324.218) rotate(-24.237)"/><rect class="d" width="41.887" height="3.773" rx="1.043" transform="translate(972.762 336.254) rotate(-24.237)"/></g></g><text class="e" transform="translate(419 380)"><tspan x="-51.6" y="0">規則說明</tspan></text><text class="e" transform="translate(663 380)"><tspan x="-51.6" y="0">分數排名</tspan></text><g transform="translate(1053.818 423.286) rotate(169)"><path class="f" d="M181.864,60.091a89.92,89.92,0,0,0-10.146-17.773C149.725,12.448,110.963.732,76.79.025a112.861,112.861,0,0,0-46.97,9.156A123.767,123.767,0,0,0,10.091,19.665C6.446,22.076,3.538,25.624,0,28.224c6.345-4.663,21.723-5.19,29.064-3.907A34.512,34.512,0,0,1,52.35,40.476c13.1,21.809,5.508,47.1,5.08,71.5-.154,8.718.609,17.324,3.554,25.616,9.862,27.766,35.382,46.615,63.137,46.615,52.86,0,74.894-49.888,65.336-97.605" transform="translate(0 0)"/><ellipse class="g" cx="6.026" cy="6.026" rx="6.026" ry="6.026" transform="translate(150.756 120.571)"/><ellipse class="g" cx="6.026" cy="6.026" rx="6.026" ry="6.026" transform="translate(104.285 120.571)"/><line class="h" x1="21.496" transform="translate(123.468 104.973)"/><path class="i" d="M7.594,34.65c8.022,5.715,19.583,2.076,30.287-11.633,14.909-19.1,6.351-27.2-3.315-20.927-7.8,5.059-9.882,12.626-17.482,16C10.831,20.867,2.749,15.714,0,8.14" transform="translate(181.864 51.951)"/><path class="h" d="M0,25.366s18.121,22.385,36.242,0S43.7-2.348,36.242.85c-7.554,3.238-9.881,12.627-17.482,16C12.508,19.627,7.294,14.063,3.2,9.733" transform="translate(100.357 45.471)"/><path class="j" d="M110.006,12.271H6.258S4,10.657,0,0H115.42S114.785,3.812,110.006,12.271Z" transform="translate(66.561 146.532)"/><path class="k" d="M23.927,41.443,47.854,0H0Z" transform="translate(100.137 158.802)"/></g><g transform="matrix(-0.999, -0.035, 0.035, -0.999, 736.168, 346.642)"><path class="l" d="M1.943,134.378h.016c1.073,0,1.943-.5,1.943-1.106V1.106C3.9.5,3.032,0,1.959,0H1.943C.87,0,0,.5,0,1.106V133.271C0,133.882.87,134.378,1.943,134.378Z" transform="translate(125.093 0)"/><path class="m" d="M125.093,97.952,0,0H125.093V97.952" transform="translate(0 33.111)"/><path class="n" d="M91.76,71.021,0,0H91.76V71.021" transform="translate(26.498 41.905)"/><path class="o" d="M76.647,56.679,0,0H76.647V56.679" transform="translate(37.8 46.608)"/><g transform="translate(49.363 46.73)"><path class="p" d="M.7,4.768C4.194.772,9.3-1.2,14.445.776a13.412,13.412,0,0,1,6.161,4.973C22.951,9.027,25.4,15.1,30.619,12.388c4.27-2.222,6.525-8.356,12.336-4.91a9.813,9.813,0,0,1,3.794,4.767c.974,2.347,1.207,4.5,3.473,5.989,2.848,1.874,6.391,1.106,9.528.56,3.384-.589,4.838,4.592,1.429,5.185-5.083.885-10.536,1.573-14.9-1.769-2.27-1.74-3.134-3.739-4.039-6.344-1.985-5.712-5.322-1.185-8.315.753a10.705,10.705,0,0,1-11.718-.037c-2.069-1.393-3.285-3.361-4.591-5.421C14.43,6.124,9.411,2.957,4.5,8.57,2.22,11.18-1.571,7.363.7,4.768Z" transform="translate(0 0)"/></g><g transform="translate(65.543 53.589)"><g transform="translate(0 0)"><ellipse class="m" cx="5.899" cy="5.899" rx="5.899" ry="5.899"/></g><ellipse class="q" cx="4.564" cy="4.564" rx="4.564" ry="4.564" transform="translate(1.335 1.335)"/></g><g transform="translate(79.12 64.052)"><g transform="translate(0 0)"><ellipse class="m" cx="5.899" cy="5.899" rx="5.899" ry="5.899"/></g><ellipse class="q" cx="4.564" cy="4.564" rx="4.564" ry="4.564" transform="translate(1.335 1.335)"/></g><g transform="translate(92.696 74.515)"><g transform="translate(0 0)"><ellipse class="m" cx="5.899" cy="5.899" rx="5.899" ry="5.899"/></g><ellipse class="q" cx="4.564" cy="4.564" rx="4.564" ry="4.564" transform="translate(1.335 1.335)"/></g></g><g transform="matrix(0.891, -0.454, 0.454, 0.891, 267.73, 99.45)"><path class="r" d="M569.366,431.716c17.229,51.594,80.964,68.711,128.3,50.742,13.81-5.243,28.484-13.479,34.822-27.516a46.867,46.867,0,0,0,4.327-19.036c-.018-3.389-1.106-12.436-6.415-7.867-3.8,3.269-5.006,11.469-8.043,15.657-13.738,18.944-31.918,1.011-34.787-15.628-2.851-16.538,1.163-33.318,1.454-49.9.143-8.179-.571-16.252-3.334-24.033-9.252-26.048-33.194-43.731-59.232-43.731-37.742,0-61.378,30.428-63.206,66.259C562.334,394.642,563.524,414.222,569.366,431.716Z"/><circle class="s" cx="5.654" cy="5.654" r="5.654" transform="translate(595.785 358.8)"/><circle class="s" cx="5.654" cy="5.654" r="5.654" transform="translate(645.035 358.8)"/><line class="t" x2="20.167" transform="translate(607.658 394.352)"/><path class="u" d="M628.825,394.352c3.75-2,9.718-12.545,2.142-18-3.34-2.406-8.936-1.524-9.749,3.041-.377,2.117.82,4.164.688,6.309-.149,2.417-1.444,6.99-3.164,8.654Z"/><path class="v" d="M624.075,394.352s3.5-5.806,3.75-9.653"/><path class="w" d="M577.256,334.241h97.331s2.122,1.074,5.87,8.167H572.176S572.773,339.871,577.256,334.241Z"/><path class="w" d="M626.511,295.361l-22.447,38.88h44.894Z"/><path class="x" d="M604.245,416.735l5.148,9.205c2.686,4.8,2.079,10.256-1.355,12.176h0c-3.435,1.921-8.4-.417-11.083-5.221l-5.147-9.2"/><path class="x" d="M646.249,414.914l-5.228,9.16c-2.728,4.781-2.169,10.237,1.249,12.187h0c3.418,1.951,8.4-.343,11.128-5.124l5.227-9.16"/></g></g></svg>