<svg xmlns="http://www.w3.org/2000/svg" width="134.007" height="134.432" viewBox="0 0 134.007 134.432"><defs><style>.a{fill:#c6b09c;}.b{fill:#e76051;stroke:#e76051;stroke-linecap:round;stroke-linejoin:round;}.c{fill:#009367;}.d{fill:#25a4cd;}.e{fill:#a9bd32;}.f{fill:#f7cd46;}</style></defs><g transform="matrix(-0.999, -0.035, 0.035, -0.999, 128.916, 138.798)"><path class="a" d="M1.943,134.378h.016c1.073,0,1.943-.5,1.943-1.106V1.106C3.9.5,3.032,0,1.959,0H1.943C.87,0,0,.5,0,1.106V133.271C0,133.882.87,134.378,1.943,134.378Z" transform="translate(125.093 0)"/><path class="b" d="M125.093,97.952,0,0H125.093V97.952" transform="translate(0 33.111)"/><path class="c" d="M91.76,71.021,0,0H91.76V71.021" transform="translate(26.498 41.905)"/><path class="d" d="M76.647,56.679,0,0H76.647V56.679" transform="translate(37.8 46.608)"/><g transform="translate(49.363 46.73)"><path class="e" d="M.7,4.768C4.194.772,9.3-1.2,14.445.776a13.412,13.412,0,0,1,6.161,4.973C22.951,9.027,25.4,15.1,30.619,12.388c4.27-2.222,6.525-8.356,12.336-4.91a9.813,9.813,0,0,1,3.794,4.767c.974,2.347,1.207,4.5,3.473,5.989,2.848,1.874,6.391,1.106,9.528.56,3.384-.589,4.838,4.592,1.429,5.185-5.083.885-10.536,1.573-14.9-1.769-2.27-1.74-3.134-3.739-4.039-6.344-1.985-5.712-5.322-1.185-8.315.753a10.705,10.705,0,0,1-11.718-.037c-2.069-1.393-3.285-3.361-4.591-5.421C14.43,6.124,9.411,2.957,4.5,8.57,2.22,11.18-1.571,7.363.7,4.768Z" transform="translate(0 0)"/></g><g transform="translate(65.543 53.589)"><g transform="translate(0 0)"><ellipse class="b" cx="5.899" cy="5.899" rx="5.899" ry="5.899"/></g><ellipse class="f" cx="4.564" cy="4.564" rx="4.564" ry="4.564" transform="translate(1.335 1.335)"/></g><g transform="translate(79.12 64.052)"><g transform="translate(0 0)"><ellipse class="b" cx="5.899" cy="5.899" rx="5.899" ry="5.899"/></g><ellipse class="f" cx="4.564" cy="4.564" rx="4.564" ry="4.564" transform="translate(1.335 1.335)"/></g><g transform="translate(92.696 74.515)"><g transform="translate(0 0)"><ellipse class="b" cx="5.899" cy="5.899" rx="5.899" ry="5.899"/></g><ellipse class="f" cx="4.564" cy="4.564" rx="4.564" ry="4.564" transform="translate(1.335 1.335)"/></g></g></svg>