<svg xmlns="http://www.w3.org/2000/svg" width="90" height="111.834" viewBox="0 0 90 111.834"><defs><style>.a{fill:#d13834;}.b{fill:#f75b57;}.c{fill:#4c312c;}.d{fill:#994530;}.e{fill:#659c35;}</style></defs><g transform="translate(-5.532)"><path class="a" d="M56.741,17.272a25.574,25.574,0,0,1-12.416,0C23.1,11.963,5.329,14,5.534,54.482c.1,20.737,19.3,47.626,39.484,43.025a24.9,24.9,0,0,1,11.029,0c20.179,4.6,39.379-22.288,39.484-43.025C95.736,14,77.966,11.963,56.741,17.272Z" transform="translate(0 13.807)"/><path class="b" d="M11.444,39.7a1.911,1.911,0,0,1-1.911-1.911c0-10.54,7.716-19.114,17.2-19.114a1.911,1.911,0,0,1,0,3.823c-7.376,0-13.38,6.86-13.38,15.291A1.912,1.912,0,0,1,11.444,39.7Z" transform="translate(3.647 18.454)"/><path class="c" d="M35.055,33.319a1.91,1.91,0,0,1-1.908-1.85c-.258-8.089-3.366-18.245-11.32-22.486a1.912,1.912,0,1,1,1.8-3.374c9.393,5.008,13.049,16.578,13.34,25.737a1.909,1.909,0,0,1-1.85,1.971C35.1,33.319,35.076,33.319,35.055,33.319Z" transform="translate(15.09 4.907)"/><path class="d" d="M32.5,26.83A11.947,11.947,0,0,1,23.993,23.3a1.911,1.911,0,0,1,2.7-2.7,8.2,8.2,0,0,0,11.6,0A1.911,1.911,0,0,1,41,23.3,11.943,11.943,0,0,1,32.5,26.83Z" transform="translate(17.714 19.588)"/><path class="e" d="M27.305,24.925l1.164-7.81A18.954,18.954,0,0,1,44.422,1.162L52.23,0,51.066,7.81A18.954,18.954,0,0,1,35.113,23.763Z" transform="translate(21.731)"/></g></svg>