<svg xmlns="http://www.w3.org/2000/svg" width="150" height="168.2" viewBox="0 0 150 168.2"><defs><style>.a{fill:#dc9628;}.b{fill:#f4c44e;}.c{fill:#f1b501;}.d{fill:#d2d5d7;}.e{fill:#d13834;}.f{fill:#c6b09c;}.g{fill:#e76051;stroke:#e76051;stroke-linecap:round;stroke-linejoin:round;}.h{fill:#009367;}.i{fill:#25a4cd;}.j{fill:#a9bd32;}.k{fill:#f7cd46;}</style></defs><g transform="translate(-279.195 -289.049)"><g transform="translate(279.195 342.939)"><path class="a" d="M74.777,14.475a8.744,8.744,0,0,0-5.842,3.189A41.061,41.061,0,0,1,45.367,31.792,22.847,22.847,0,0,0,32.261,39.92a24,24,0,0,0,2.367,32.245A22.766,22.766,0,0,0,67.91,69.711a23.618,23.618,0,0,0,5.186-13,48.4,48.4,0,0,1,10.889-26.4S90.569,17.217,74.777,14.475Z" transform="translate(42.987 10.543)"/><path class="b" d="M121.006,33.195c.769-1.086,1.568-2.153,2.421-3.18,0,0,6.621-12.847-9.263-15.541a8.857,8.857,0,0,0-5.876,3.13,38.369,38.369,0,0,1-4.213,4.29c-11.31-3.638-25.125-1.487-40.153,11.32-1.663,1.418-4.482,4.413-8.4,5.879-1.5,7.219-6.328,15.979-16.546,26.529C27.134,77.845,18.4,71.335,17.452,62.8c-.909-8.163,6.247-16.4,10.761-23.281a70.961,70.961,0,0,0,5.881-10.731,10.088,10.088,0,0,0-5.51-1.68C11.611,27.107,4,38.734,4,53.077a21.85,21.85,0,0,0,.439,4.36,30.267,30.267,0,0,1,.218,12.24A30.8,30.8,0,0,0,4,75.989,18.683,18.683,0,0,0,8.151,88.052a16.146,16.146,0,0,1,24.5,7.749h1.878a16.151,16.151,0,0,1,30.406,0h1.878a16.151,16.151,0,0,1,30.406,0H99.1a16.1,16.1,0,0,1,27.248-5.248c7.686-5.21,13.04-12.055,14.859-20.673C143.534,58.854,130.591,43.817,121.006,33.195Z" transform="translate(3.442 11.727)"/><path class="c" d="M20.891,42.071c4.5-6.6,9.86-16.208,9.393-23.974A4.116,4.116,0,0,1,36.5,14.442C48.776,21.418,64.73,37.895,32.724,69.7,19.7,82.641,10.1,75.75,9.057,66.713,8.058,58.072,15.927,49.352,20.891,42.071Z" transform="translate(10.766 8.587)"/><path class="d" d="M74.61,12.615a6.27,6.27,0,0,0-3.536-2.2,2.587,2.587,0,0,1-1.824-1.5,6.277,6.277,0,0,0-2.835-3.052A6.491,6.491,0,0,0,58.93,6.915a6.377,6.377,0,0,0-1.886,5.521,7.758,7.758,0,0,1-1.519,6.133L45.639,30.562c5.732,1.447,7.923,4.419,8.517,7.369l10.057-12.2a7.771,7.771,0,0,1,5.732-2.664,6.374,6.374,0,0,0,5.061-2.9A6.5,6.5,0,0,0,74.61,12.615Z" transform="translate(73.973 -5.122)"/><path class="a" d="M74.777,14.475a8.744,8.744,0,0,0-5.842,3.189A41.061,41.061,0,0,1,45.367,31.792,22.847,22.847,0,0,0,32.261,39.92a24,24,0,0,0,2.367,32.245A22.766,22.766,0,0,0,67.91,69.711a23.618,23.618,0,0,0,5.186-13,48.4,48.4,0,0,1,10.889-26.4S90.569,17.217,74.777,14.475Z" transform="translate(42.987 10.543)"/><path class="e" d="M128.991,63.6H18.915A15.228,15.228,0,0,1,6.548,57.273L.47,48.807A2.484,2.484,0,0,1,2.5,44.878h142.9a2.485,2.485,0,0,1,2.033,3.929l-6.078,8.466A15.229,15.229,0,0,1,128.991,63.6Z" transform="translate(0 50.706)"/></g><g transform="translate(392.665 383.436) rotate(171)"><path class="f" d="M1.408,97.386H1.42c.778,0,1.408-.359,1.408-.8V.8C2.828.359,2.2,0,1.42,0H1.408C.63,0,0,.359,0,.8V96.584C0,97.027.63,97.386,1.408,97.386Z" transform="translate(90.658 0)"/><path class="g" d="M90.658,70.988,0,0H90.658V70.988" transform="translate(0 23.996)"/><path class="h" d="M66.5,51.47,0,0H66.5V51.47" transform="translate(19.204 30.37)"/><path class="i" d="M55.547,41.076,0,0H55.547V41.076" transform="translate(27.394 33.777)"/><g transform="translate(35.775 33.866)"><path class="j" d="M.507,3.455C3.039.56,6.74-.871,10.469.562a9.72,9.72,0,0,1,4.465,3.6c1.7,2.376,3.475,6.78,7.257,4.812,3.094-1.611,4.729-6.056,8.94-3.558a7.112,7.112,0,0,1,2.75,3.455c.706,1.7.875,3.259,2.517,4.34,2.064,1.358,4.632.8,6.905.406,2.453-.427,3.506,3.328,1.036,3.758-3.684.642-7.636,1.14-10.8-1.282a8.681,8.681,0,0,1-2.927-4.6c-1.439-4.14-3.857-.859-6.026.546a7.758,7.758,0,0,1-8.492-.027A12.167,12.167,0,0,1,12.77,8.089c-2.313-3.65-5.95-5.946-9.508-1.878C1.609,8.1-1.139,5.336.507,3.455Z" transform="translate(0 0)"/></g><g transform="translate(47.5 38.837)"><g transform="translate(0)"><ellipse class="g" cx="4.275" cy="4.275" rx="4.275" ry="4.275"/></g><ellipse class="k" cx="3.308" cy="3.308" rx="3.308" ry="3.308" transform="translate(0.967 0.967)"/></g><g transform="translate(57.34 46.42)"><ellipse class="g" cx="4.275" cy="4.275" rx="4.275" ry="4.275"/><ellipse class="k" cx="3.308" cy="3.308" rx="3.308" ry="3.308" transform="translate(0.967 0.967)"/></g><g transform="translate(67.179 54.002)"><g transform="translate(0)"><ellipse class="g" cx="4.275" cy="4.275" rx="4.275" ry="4.275"/></g><ellipse class="k" cx="3.308" cy="3.308" rx="3.308" ry="3.308" transform="translate(0.967 0.967)"/></g></g></g></svg>