<svg xmlns="http://www.w3.org/2000/svg" width="139.074" height="203.385" viewBox="0 0 139.074 203.385"><defs><style>.a{fill:#238b3a;}.b,.c,.d,.e,.f,.j{fill:#008330;stroke:#008330;stroke-linecap:round;stroke-linejoin:round;}.b{stroke-width:0.448px;}.c{stroke-width:0.565px;}.d{stroke-width:0.962px;}.e{stroke-width:0.388px;}.f{stroke-width:0.813px;}.g{fill:#750065;}.h{fill:#aa3b94;}.i{fill:#e1e6c5;}.j{stroke-width:0.954px;}</style></defs><g transform="matrix(0.848, 0.53, -0.53, 0.848, 105.41, -14.616)"><rect class="a" width="6.602" height="206.983" rx="2.65" transform="translate(31.884 26.03)"/><path class="b" d="M27.115,37.576a49.426,49.426,0,0,1,4.231,18.752A49.449,49.449,0,0,1,20,40.832,49.573,49.573,0,0,1,15.76,22.08a49.551,49.551,0,0,1,11.355,15.5Z" transform="translate(1.887 2.532)"/><path class="b" d="M29.124,61.417a49.426,49.426,0,0,1,4.231,18.752A49.585,49.585,0,0,1,22.011,64.662,49.392,49.392,0,0,1,17.78,45.91,49.585,49.585,0,0,1,29.124,61.417Z" transform="translate(2.158 5.735)"/><path class="c" d="M31.377,34.586A62.392,62.392,0,0,0,32.4,58.805,62.392,62.392,0,0,0,41.133,36.2,62.392,62.392,0,0,0,40.123,12a62.3,62.3,0,0,0-8.746,22.586Z" transform="translate(3.887 1.177)"/><path class="d" d="M35.276,86.149a131.693,131.693,0,0,0-2.62,44.378A131.954,131.954,0,0,0,50.4,89.768a132.033,132.033,0,0,0,2.62-44.378A131.795,131.795,0,0,0,35.276,86.149Z" transform="translate(4.05 5.665)"/><path class="e" d="M35.28,58.6a41.678,41.678,0,0,0-3.12,16.154A41.621,41.621,0,0,0,41.6,61.275a41.5,41.5,0,0,0,3.12-16.165A41.6,41.6,0,0,0,35.28,58.6Z" transform="translate(4.091 5.627)"/><path class="c" d="M22.869,27.4A62.539,62.539,0,0,0,34.213,48.82,62.3,62.3,0,0,0,32.4,24.658,62.6,62.6,0,0,0,21.054,3.24,62.392,62.392,0,0,0,22.869,27.4Z" transform="translate(2.538)"/><path class="f" d="M34.038,135a71.263,71.263,0,0,0-2.961,31.979A71.229,71.229,0,0,0,48.728,140.1a71.184,71.184,0,0,0,2.995-32.013A71.32,71.32,0,0,0,34.038,135Z" transform="translate(3.859 14.092)"/><path class="g" d="M22.712,31.613C20.16,25.657,24.7,18,24.7,18s8.678,2,11.219,7.941-1.985,13.613-1.985,13.613S25.265,37.512,22.712,31.613Z" transform="translate(2.717 1.984)"/><path class="h" d="M38.308,25.177c2.167,6.1-2.87,13.443-2.87,13.443s-8.519-2.552-10.675-8.655,2.87-13.454,2.87-13.454S36.153,19.074,38.308,25.177Z" transform="translate(3.025 1.784)"/><path class="g" d="M22.665,32.259c6.182-1.906,13.318,3.4,13.318,3.4s-2.893,8.417-9.075,10.323-13.318-3.4-13.318-3.4S16.483,34.165,22.665,32.259Z" transform="translate(1.595 3.845)"/><path class="g" d="M29.272,48.783c-2.541-5.944,2-13.613,2-13.613s8.667,2,11.219,7.941-2,13.613-2,13.613S31.824,54.738,29.272,48.783Z" transform="translate(3.599 4.291)"/><path class="h" d="M24.686,29.729C31.107,28.9,37.233,35.4,37.233,35.4s-4.3,7.759-10.754,8.576S14,38.3,14,38.3,18.265,30.545,24.686,29.729Z" transform="translate(1.65 3.55)"/><path class="g" d="M40.655,30.049c6.194-1.917,13.318,3.4,13.318,3.4S51.08,41.87,44.9,43.776s-13.318-3.4-13.318-3.4S34.473,31.9,40.655,30.049Z" transform="translate(4.013 3.547)"/><path class="h" d="M42.678,40.505c2.155,6.1-2.87,13.443-2.87,13.443S31.266,51.4,29.066,45.293s2.87-13.443,2.87-13.443S40.5,34.4,42.678,40.505Z" transform="translate(3.601 3.845)"/><path class="h" d="M40.655,26.6C46.849,24.693,53.973,30,53.973,30S51.08,38.419,44.9,40.325s-13.318-3.4-13.318-3.4S34.473,28.5,40.655,26.6Z" transform="translate(4.013 3.084)"/><rect class="i" width="1.509" height="7.203" rx="0.67" transform="translate(37.17 33.778)"/><rect class="i" width="1.509" height="7.203" rx="0.67" transform="translate(33.039 35.663) rotate(-20.99)"/><rect class="i" width="1.509" height="7.203" rx="0.67" transform="translate(41.777 35.126) rotate(21.28)"/><circle class="g" cx="1.236" cy="1.236" r="1.236" transform="translate(32.372 33.778)"/><circle class="g" cx="1.236" cy="1.236" r="1.236" transform="translate(41.299 33.971)"/><circle class="g" cx="1.236" cy="1.236" r="1.236" transform="translate(36.682 32.542)"/><path class="g" d="M57.586,85.071c3.029-7.056-2.36-16.131-2.36-16.131s-10.278,2.337-13.307,9.427S44.279,94.5,44.279,94.5,54.613,92.127,57.586,85.071Z" transform="translate(5.279 8.83)"/><path class="h" d="M39.075,77.48c-2.552,7.237,3.4,15.882,3.4,15.882s10.108-3.029,12.66-10.21-3.4-15.882-3.4-15.882S41.628,70.242,39.075,77.48Z" transform="translate(4.935 8.606)"/><path class="g" d="M58.711,85.888C51.383,83.62,42.92,89.927,42.92,89.927s3.4,9.983,10.765,12.24,15.791-4.038,15.791-4.038S66.05,88.157,58.711,85.888Z" transform="translate(5.537 11.042)"/><path class="g" d="M49.811,105.481c3.018-7.056-2.36-16.131-2.36-16.131s-10.278,2.371-13.341,9.427,2.36,16.131,2.36,16.131S46.794,112.537,49.811,105.481Z" transform="translate(4.227 11.573)"/><path class="h" d="M56.432,82.88c-7.566-.987-14.872,6.693-14.872,6.693s5.093,9.234,12.705,10.21S69.137,93.1,69.137,93.1,64.044,83.856,56.432,82.88Z" transform="translate(5.355 10.692)"/><path class="g" d="M37.381,83.208c-7.34-2.269-15.791,4.038-15.791,4.038s3.4,9.971,10.765,12.24,15.791-4.038,15.791-4.038S44.743,85.466,37.381,83.208Z" transform="translate(2.671 10.682)"/><path class="h" d="M33.936,95.66c-2.564,7.237,3.4,15.882,3.4,15.882s10.108-3.029,12.671-10.21-3.4-15.882-3.4-15.882S36.488,88.422,33.936,95.66Z" transform="translate(4.244 11.049)"/><path class="h" d="M37.381,79.178c-7.34-2.269-15.791,4.038-15.791,4.038s3.4,9.971,10.765,12.24,15.791-4.038,15.791-4.038S44.743,81.447,37.381,79.178Z" transform="translate(2.671 10.14)"/><rect class="i" width="1.792" height="8.531" rx="0.79" transform="translate(48.956 102.693) rotate(180)"/><rect class="i" width="1.792" height="8.531" rx="0.79" transform="translate(50.793 104.366) rotate(-159.01)"/><rect class="i" width="1.792" height="8.531" rx="0.79" transform="translate(46.561 103.713) rotate(158.72)"/><circle class="g" cx="1.475" cy="1.475" r="1.475" transform="translate(51.702 94.162)"/><circle class="g" cx="1.475" cy="1.475" r="1.475" transform="translate(41.118 94.389)"/><circle class="g" cx="1.475" cy="1.475" r="1.475" transform="translate(46.586 92.699)"/><path class="f" d="M28.959,166.464a71.263,71.263,0,0,1,2.983,32.013A71.1,71.1,0,0,1,14.291,171.6,71.184,71.184,0,0,1,11.3,139.59a71.32,71.32,0,0,1,17.663,26.874Z" transform="translate(1.201 18.326)"/><path class="j" d="M25.425,122.958A133.86,133.86,0,0,1,31.936,166.9a134.064,134.064,0,0,1-21.02-39.137A134.086,134.086,0,0,1,4.393,83.81a133.859,133.859,0,0,1,21.032,39.148Z" transform="translate(0.356 10.829)"/><path class="g" d="M32.075,71.613C34.628,65.669,30.09,58,30.09,58s-8.7,2.042-11.219,7.941,1.985,13.613,1.985,13.613S29.523,77.6,32.075,71.613Z" transform="translate(2.202 7.36)"/><path class="h" d="M16.464,65.245c-2.155,6.1,2.87,13.443,2.87,13.443s8.519-2.552,10.675-8.655-2.87-13.443-2.87-13.443S18.619,59.142,16.464,65.245Z" transform="translate(1.909 7.17)"/><path class="g" d="M33.028,72.339c-6.182-1.917-13.318,3.4-13.318,3.4S22.6,84.16,28.785,86.066s13.318-3.4,13.318-3.4S39.21,74.279,33.028,72.339Z" transform="translate(2.418 9.231)"/><path class="g" d="M25.518,88.863c2.541-5.956-2-13.613-2-13.613s-8.667,2-11.219,7.941,2,13.613,2,13.613S22.965,94.807,25.518,88.863Z" transform="translate(1.318 9.678)"/><path class="h" d="M31.106,69.8C24.686,68.982,18.56,75.47,18.56,75.47s4.3,7.793,10.72,8.621S41.815,78.42,41.815,78.42,37.527,70.615,31.106,69.8Z" transform="translate(2.263 8.936)"/><path class="g" d="M15.038,70.048c-6.194-1.883-13.318,3.4-13.318,3.4S4.613,81.857,10.8,83.763s13.318-3.4,13.318-3.4S21.22,71.988,15.038,70.048Z" transform="translate(0 8.925)"/><path class="h" d="M12.124,80.575c-2.155,6.1,2.87,13.454,2.87,13.454s8.531-2.564,10.686-8.667S22.81,71.92,22.81,71.92,14.324,74.472,12.124,80.575Z" transform="translate(1.326 9.231)"/><path class="h" d="M15.038,66.669c-6.194-1.906-13.318,3.4-13.318,3.4S4.613,78.478,10.8,80.4s13.318-3.4,13.318-3.4S21.22,68.586,15.038,66.669Z" transform="translate(0 8.469)"/><rect class="i" width="1.509" height="7.203" rx="0.67" transform="translate(22.548 86.437) rotate(180)"/><rect class="i" width="1.509" height="7.203" rx="0.67" transform="translate(24.083 87.837) rotate(-159.01)"/><rect class="i" width="1.509" height="7.203" rx="0.67" transform="translate(20.533 87.288) rotate(158.72)"/><circle class="g" cx="1.236" cy="1.236" r="1.236" transform="translate(24.862 79.234)"/><circle class="g" cx="1.236" cy="1.236" r="1.236" transform="translate(15.945 79.426)"/><circle class="g" cx="1.236" cy="1.236" r="1.236" transform="translate(20.551 77.997)"/><path class="g" d="M12.9,122.989C11.521,116.67,17.442,110,17.442,110s8.145,3.585,9.54,9.9-4.538,12.989-4.538,12.989S14.3,129.285,12.9,122.989Z" transform="translate(1.475 14.349)"/><path class="h" d="M29.452,119.615c.976,6.387-5.388,12.671-5.388,12.671s-7.884-4.107-8.871-10.5,5.343-12.671,5.343-12.671S28.476,113.205,29.452,119.615Z" transform="translate(1.797 14.229)"/><path class="g" d="M12.735,123.476c6.432-.715,12.478,5.842,12.478,5.842s-4.413,7.725-10.845,8.44S1.89,131.916,1.89,131.916,6.3,124.2,12.735,123.476Z" transform="translate(0.023 16.153)"/><path class="g" d="M16.135,141.129c-1.4-6.319,4.538-12.989,4.538-12.989s8.145,3.585,9.529,9.9-4.538,12.989-4.538,12.989S17.53,147.448,16.135,141.129Z" transform="translate(1.909 16.787)"/><path class="h" d="M15.161,121.362c6.455.4,11.265,7.941,11.265,7.941s-5.672,6.806-12.149,6.455S3,127.828,3,127.828,8.672,120.954,15.161,121.362Z" transform="translate(0.172 15.873)"/><path class="g" d="M30.836,124.616c6.432-.715,12.478,5.842,12.478,5.842s-4.413,7.725-10.856,8.44-12.478-5.831-12.478-5.831S24.4,125.342,30.836,124.616Z" transform="translate(2.454 16.306)"/><path class="h" d="M30.824,135.482c.987,6.4-5.332,12.671-5.332,12.671s-7.941-4.107-8.871-10.5S21.953,125,21.953,125,29.848,129.084,30.824,135.482Z" transform="translate(1.99 16.365)"/><path class="h" d="M31.466,121.287c6.443-.726,12.478,5.831,12.478,5.831s-4.424,7.725-10.856,8.451-12.478-5.842-12.478-5.842S25.034,122,31.466,121.287Z" transform="translate(2.539 15.858)"/><rect class="i" width="1.509" height="7.203" rx="0.67" transform="translate(25.868 139.751) rotate(10.78)"/><rect class="i" width="1.509" height="7.203" rx="0.67" transform="translate(21.459 140.832) rotate(-10.2)"/><rect class="i" width="1.511" height="7.216" rx="0.671" transform="matrix(0.849, 0.529, -0.529, 0.849, 30.339, 142.276)"/><circle class="g" cx="1.236" cy="1.236" r="1.236" transform="translate(20.903 139.073)"/><circle class="g" cx="1.236" cy="1.236" r="1.236" transform="translate(29.638 140.922)"/><circle class="g" cx="1.236" cy="1.236" r="1.236" transform="translate(25.372 138.665)"/><path class="g" d="M48.023,147.079c1.4-6.319-4.538-12.989-4.538-12.989s-8.145,3.585-9.54,9.9,4.538,13,4.538,13S46.639,153.409,48.023,147.079Z" transform="translate(4.303 17.586)"/><path class="h" d="M31.482,143.7c-.976,6.4,5.332,12.671,5.332,12.671s7.941-4.107,8.871-10.5S40.353,133.2,40.353,133.2,32.458,137.307,31.482,143.7Z" transform="translate(3.986 17.467)"/><path class="g" d="M49.238,147.577c-6.432-.726-12.478,5.831-12.478,5.831s4.424,7.725,10.856,8.44,12.478-5.831,12.478-5.831S55.682,148.291,49.238,147.577Z" transform="translate(4.709 19.392)"/><path class="g" d="M44.8,165.219c1.384-6.319-4.538-12.989-4.538-12.989s-8.066,3.585-9.506,9.949,4.538,13,4.538,13S43.405,171.549,44.8,165.219Z" transform="translate(3.872 20.025)"/><path class="h" d="M46.835,145.462c-6.466.4-11.265,7.884-11.265,7.884s5.672,6.806,12.138,6.455,11.265-7.884,11.265-7.884S53.289,145.065,46.835,145.462Z" transform="translate(4.55 19.113)"/><path class="g" d="M31.148,148.717c-6.432-.726-12.478,5.831-12.478,5.831s4.413,7.725,10.845,8.451,12.478-5.842,12.478-5.842S37.58,149.431,31.148,148.717Z" transform="translate(2.278 19.545)"/><path class="h" d="M30.092,159.575c-.976,6.4,5.332,12.671,5.332,12.671s7.941-4.107,8.871-10.5-5.332-12.671-5.332-12.671S31.068,153.177,30.092,159.575Z" transform="translate(3.799 19.6)"/><path class="h" d="M30.478,145.376C24.046,144.662,18,151.219,18,151.219s4.538,7.725,10.924,8.485S41.4,153.862,41.4,153.862,36.945,146.091,30.478,145.376Z" transform="translate(2.188 19.096)"/><rect class="i" width="1.509" height="7.203" rx="0.67" transform="translate(42.199 174.153) rotate(169.22)"/><rect class="i" width="1.509" height="7.203" rx="0.67" transform="translate(43.957 175.239) rotate(-169.8)"/><rect class="i" width="1.509" height="7.203" rx="0.67" transform="translate(40.385 175.361) rotate(147.94)"/><circle class="g" cx="1.236" cy="1.236" r="1.236" transform="translate(43.33 166.401)"/><circle class="g" cx="1.236" cy="1.236" r="1.236" transform="translate(34.606 168.261)"/><circle class="g" cx="1.236" cy="1.236" r="1.236" transform="translate(38.86 165.993)"/></g></svg>