<svg xmlns="http://www.w3.org/2000/svg" width="175.637" height="102.11" viewBox="0 0 175.637 102.11"><defs><style>.a{fill:#fff872;}.b{fill:#ffc922;}.c{fill:#9c5723;}.d{fill:#ae6472;}.e{fill:#8c5564;}.f{fill:#ebd26d;}.g{fill:#fff;}.h{fill:#659c35;}.i{fill:#88c057;}.j{fill:#d13834;}</style></defs><g transform="translate(-63.246 -191.009)"><g transform="translate(97.242 191.009)"><path class="a" d="M143.794,231.035c10.039,32.4,35.847,44.412,56.1,49.467,51.486,12.844,69.718-22.023,70.174-39.7.092-3.565,1.928-7.263,4.249-10.547l-5.087-9.424c-4.1,8.65-23.124,43.012-62.717,33.134-18.307-4.567-33.85-14.544-45.319-24.013a23.8,23.8,0,0,0-7.952-4.332c-1.078-.341-2.1-.667-3.044-.967a5.083,5.083,0,0,0-6.475,3.616A5.165,5.165,0,0,0,143.794,231.035Z" transform="translate(-143.571 -208.213)"/><path class="b" d="M143.794,231.037c6.589,21.268,19.977,33.717,34.124,41.213a.039.039,0,0,0,.01-.005A96.7,96.7,0,0,0,199.9,280.5c51.486,12.844,69.718-22.023,70.174-39.7.092-3.565,1.928-7.263,4.249-10.546l-5.087-9.423a74.373,74.373,0,0,1-8.7,13.908c-10.246,30.637-36.444,34.564-45.039,35q-.895.046-1.792.073c-16.241.5-32.4-4.239-45.256-14.173a66.888,66.888,0,0,1-22.185-30.621,5.062,5.062,0,0,0-2.536,3.246A5.165,5.165,0,0,0,143.794,231.037Z" transform="translate(-143.571 -208.214)"/><path class="c" d="M143.726,233.152a5.165,5.165,0,0,0,.068,2.762c.229.739,1.673,4.754,1.918,5.472l11.572-9.175c-2.109-1.424-6.57-2.511-7.083-2.675A5.083,5.083,0,0,0,143.726,233.152Z" transform="translate(-143.571 -213.091)"/><path class="a" d="M148,254.782a5.363,5.363,0,0,0,.905,2.728c19.811,29.2,49.134,33.334,70.826,32.223,55.13-2.823,62.706-43.048,57.8-60.774-2.233-8.071,4.162-19.517,6.724-23.649a2.24,2.24,0,0,0-.413-2.847l-3.829-3.456a2.253,2.253,0,0,0-3.323.334l-4.374,5.923a9.089,9.089,0,0,0-1.672,4.077c-1.458,9.851-9.976,49.813-52.372,51.984-19.6,1-38.095-4.215-52.379-10.161a24.735,24.735,0,0,0-9.227-1.9c-1.175-.013-2.3-.027-3.321-.04A5.288,5.288,0,0,0,148,254.782Z" transform="translate(-146.122 -195.286)"/><path class="b" d="M148,294.31a5.368,5.368,0,0,0,.906,2.729c19.811,29.2,49.134,33.334,70.826,32.223,55.13-2.823,62.706-43.048,57.8-60.774a12.325,12.325,0,0,1-.316-1.528c.65,19.651-11.577,49.8-59.131,52.235-20.871,1.069-48.789-2.71-68.548-28.881A5.262,5.262,0,0,0,148,294.31Z" transform="translate(-146.121 -234.815)"/><path class="c" d="M447.237,208.945a75.523,75.523,0,0,1,5.858-9.722,2.446,2.446,0,0,0-.54-3.414l-5.207-4.116a3.38,3.38,0,0,0-4.547.43l-6.034,7.146a10.711,10.711,0,0,0-1.313,1.991Z" transform="translate(-311.922 -191.009)"/><path class="c" d="M148,324.007a5.374,5.374,0,0,0,.9,2.728,31.507,31.507,0,0,0,4.319,5.8l6.292-13.844c-1.536-.243-5.607-.234-6.166-.242A5.288,5.288,0,0,0,148,324.007Z" transform="translate(-146.122 -264.511)"/></g><g transform="translate(103.746 233.285)"><path class="d" d="M181.935,290.9c12.7,0,23,9.062,23,20.239,0,13.1-10.3,26.193-23,26.193s-23-13.1-23-26.193C158.939,299.96,169.234,290.9,181.935,290.9Z" transform="translate(-158.939 -290.898)"/><path class="e" d="M187.986,336.8c-12.7,0-23-13.1-23-26.193a18.556,18.556,0,0,1,3.9-11.269c-6,3.652-9.947,9.763-9.947,16.668,0,13.1,10.3,26.192,23,26.192,6.5,0,12.374-3.44,16.557-8.551A19.665,19.665,0,0,1,187.986,336.8Z" transform="translate(-158.939 -295.766)"/></g><g transform="translate(63.246 212.024)"><path class="f" d="M77.925,274.3a29.575,29.575,0,1,0,12.232-3.936C86.942,270.528,79.814,276.139,77.925,274.3Z" transform="translate(-63.246 -257.723)"/><circle class="g" cx="1.705" cy="1.705" r="1.705" transform="translate(40.5 21.664)"/><circle class="g" cx="1.705" cy="1.705" r="1.705" transform="translate(46.336 27.597)"/><path class="h" d="M77.366,264.149a15.127,15.127,0,0,0,14.912,10.1l6.3-.267-2.092-5.946a15.126,15.126,0,0,0-14.912-10.1l-6.3.268Z" transform="translate(-70.183 -250.618)"/><path class="i" d="M87.558,268.173l-.558.514.181.736.519-.5.03.691c.917.075,9.264,2.709,16.845,10.4l.887-.056-.66-1.757C96.875,270.567,88.3,268.024,87.558,268.173Z" transform="translate(-76.947 -256.527)"/><circle class="g" cx="1.705" cy="1.705" r="1.705" transform="translate(37.303 25.859)"/><circle class="g" cx="1.705" cy="1.705" r="1.705" transform="translate(5 33.295)"/><circle class="g" cx="1.705" cy="1.705" r="1.705" transform="translate(7.451 41.067)"/><circle class="g" cx="1.705" cy="1.705" r="1.705" transform="translate(5.444 47.084)"/><circle class="g" cx="1.705" cy="1.705" r="1.705" transform="translate(2.069 38.469)"/><g transform="translate(22.741 20.998)"><path class="c" d="M126.736,290.568a1.235,1.235,0,0,1,.15,1.739c-2.9,3.441-8.627,2.569-8.87,2.53a1.234,1.234,0,0,1,.389-2.438c.045.007,4.6.687,6.593-1.681a1.232,1.232,0,0,1,1.739-.15Z" transform="translate(-116.978 -290.278)"/></g><g transform="translate(19.359 0)"><path class="c" d="M116.9,265.651a1.269,1.269,0,0,0,1.664-1.32c-.062-.671-1.583-16.506-7.346-23.224a1.269,1.269,0,0,0-1.926,1.652c5.243,6.111,6.732,21.649,6.746,21.805A1.267,1.267,0,0,0,116.9,265.651Z" transform="translate(-108.987 -240.663)"/></g></g><g transform="translate(132.062 240.417)"><path class="d" d="M248.841,307.75c12.7,0,23,9.062,23,20.239,0,13.1-10.3,26.193-23,26.193s-23-13.1-23-26.193C225.845,316.812,236.141,307.75,248.841,307.75Z" transform="translate(-225.845 -307.75)"/><path class="e" d="M254.893,353.651c-12.7,0-23-13.1-23-26.193a18.555,18.555,0,0,1,3.9-11.268c-6,3.652-9.947,9.763-9.947,16.668,0,13.1,10.3,26.192,23,26.192,6.5,0,12.374-3.44,16.557-8.551A19.664,19.664,0,0,1,254.893,353.651Z" transform="translate(-225.845 -312.618)"/></g><path class="j" d="M0,0H154.89a0,0,0,0,1,0,0V0a21.105,21.105,0,0,1-21.105,21.105H21.105A21.105,21.105,0,0,1,0,0V0A0,0,0,0,1,0,0Z" transform="translate(64.629 272.014)"/></g></svg>