<svg xmlns="http://www.w3.org/2000/svg" width="90" height="92.755" viewBox="0 0 90 92.755"><defs><style>.a{fill:#ed8f20;}.b{fill:#ef771d;}.c{fill:#9b6026;}.d{fill:#659c35;}</style></defs><g transform="translate(-0.765 0)"><path class="a" d="M65.069,20.4l-9.161-.754L59.3,11.1a22.065,22.065,0,0,1,2.05-3.919,43.271,43.271,0,1,0,15.105,11.09A22.02,22.02,0,0,1,65.069,20.4Z" transform="translate(0 2.811)"/><circle class="b" cx="3.592" cy="3.592" r="3.592" transform="translate(65.167 29.699)"/><circle class="b" cx="3.592" cy="3.592" r="3.592" transform="translate(74.765 49.781)"/><circle class="b" cx="3.592" cy="3.592" r="3.592" transform="translate(74.19 38.7)"/><circle class="b" cx="3.592" cy="3.592" r="3.592" transform="translate(63.287 45.961)"/><circle class="b" cx="3.592" cy="3.592" r="3.592" transform="translate(65.167 58.504)"/><circle class="b" cx="3.592" cy="3.592" r="3.592" transform="translate(32.761 15.296)"/><circle class="b" cx="3.592" cy="3.592" r="3.592" transform="translate(20.158 20.697)"/><g transform="translate(47.583 18.958)"><path class="a" d="M27.765,11.529S35.4,12.786,37.464,18" transform="translate(-25.969 -9.734)"/><path class="c" d="M38.26,20.589a1.8,1.8,0,0,1-1.67-1.135c-1.661-4.187-8.26-5.345-8.325-5.356a1.8,1.8,0,0,1,.586-3.544c.354.057,8.665,1.493,11.079,7.576a1.8,1.8,0,0,1-1.008,2.331A1.779,1.779,0,0,1,38.26,20.589Z" transform="translate(-26.765 -10.529)"/></g><g transform="translate(48.657 19.736)"><path class="a" d="M28.365,16.573a17.594,17.594,0,0,1,6.8-4.611" transform="translate(-26.568 -10.165)"/><path class="c" d="M29.16,19.165a1.8,1.8,0,0,1-1.327-3,19.419,19.419,0,0,1,7.5-5.085A1.8,1.8,0,1,1,36.6,14.438a15.8,15.8,0,0,0-6.107,4.138A1.787,1.787,0,0,1,29.16,19.165Z" transform="translate(-27.364 -10.962)"/></g><path class="d" d="M66.185.827,57.044.074A22.01,22.01,0,0,0,34.781,13.892L31.4,22.416l9.141.753A22.012,22.012,0,0,0,62.8,9.351Z" transform="translate(24.58 0)"/></g></svg>