<svg xmlns="http://www.w3.org/2000/svg" width="235.241" height="172.283" viewBox="0 0 235.241 172.283"><defs><style>.a{fill:#f79000;}.b{fill:#fbcd56;}.c{fill:#c41112;}</style></defs><g transform="translate(-254.866 -235.644)"><g transform="translate(-508.365 -293.163) rotate(17)"><path class="a" d="M941.5,362.995l98.1-49.1v-8.471L941.5,350.56Z" transform="translate(16.869 20.99)"/><path class="b" d="M915.5,312.4l89.86-39.327,51.113,53.342-98.1,46.991Z" transform="translate(0 0)"/><path class="c" d="M927.667,309.866l64.286-28.135,36.566,38.161L958.335,353.51Z" transform="translate(7.894 5.618)"/><path class="a" d="M935.333,307.645l48.17-21.082,27.4,28.595-52.59,25.19Z" transform="translate(12.868 8.753)"/><path class="a" d="M958.369,357.93v10.58L915.5,307.763V296.924" transform="translate(0 15.475)"/><rect class="c" width="39.463" height="3.847" rx="1.021" transform="translate(960.12 319.226) rotate(-24.237)"/><rect class="c" width="32.212" height="3.847" rx="0.928" transform="translate(973.603 324.218) rotate(-24.237)"/><rect class="c" width="41.887" height="3.773" rx="1.043" transform="translate(972.762 336.254) rotate(-24.237)"/></g><g transform="translate(-440.365 -268.163) rotate(17)"><path class="a" d="M941.5,362.995l98.1-49.1v-8.471L941.5,350.56Z" transform="translate(16.869 20.99)"/><path class="b" d="M915.5,312.4l89.86-39.327,51.113,53.342-98.1,46.991Z" transform="translate(0 0)"/><path class="c" d="M927.667,309.866l64.286-28.135,36.566,38.161L958.335,353.51Z" transform="translate(7.894 5.618)"/><path class="a" d="M935.333,307.645l48.17-21.082,27.4,28.595-52.59,25.19Z" transform="translate(12.868 8.753)"/><path class="a" d="M958.369,357.93v10.58L915.5,307.763V296.924" transform="translate(0 15.475)"/><rect class="c" width="39.463" height="3.847" rx="1.021" transform="translate(960.12 319.226) rotate(-24.237)"/><rect class="c" width="32.212" height="3.847" rx="0.928" transform="translate(973.603 324.218) rotate(-24.237)"/><rect class="c" width="41.887" height="3.773" rx="1.043" transform="translate(972.762 336.254) rotate(-24.237)"/></g></g></svg>