<svg xmlns="http://www.w3.org/2000/svg" width="152.195" height="166.61" viewBox="0 0 152.195 166.61"><defs><style>.a{fill:#eae2ce;}.b{fill:#ff5892;}.c{fill:none;stroke:#c93e70;stroke-width:4px;}.c,.e{stroke-linecap:round;}.d{fill:#c6b09c;}.e{fill:#e76051;stroke:#e76051;stroke-linejoin:round;}.f{fill:#009367;}.g{fill:#25a4cd;}.h{fill:#a9bd32;}.i{fill:#f7cd46;}</style></defs><g transform="translate(-553.788 -450.637)"><g transform="translate(599.611 517.709)"><g transform="translate(0 0)"><path class="a" d="M21.534,69.945s-.2-9.67,9.469-9.67c0,0,0-9.671,9.671-9.671,0,0,0-9.671,9.67-9.671,0,0,0-9.67,9.671-9.67,0,0,0-9.671,9.671-9.671s9.67,9.671,9.67,9.671,9.671,0,9.671,9.67c0,0,9.671,0,9.671,9.671,0,0,9.67,0,9.67,9.671,0,0,9.469,0,9.469,9.67l.2,4.836h-96.7Zm0,0" transform="translate(-16.497 -21.594)"/><path class="b" d="M53.186,234.926H0c0,38.681,29.011,43.516,29.011,43.516,0,4.836,4.835,9.671,9.671,9.671H67.692c4.835,0,9.67-4.835,9.67-9.671,0,0,29.011-4.835,29.011-43.516Zm0,0" transform="translate(0 -188.575)"/><path class="c" d="M8.819,64.164S12.9,82.859,27.2,86.5" transform="translate(2 -7.097)"/></g></g><g transform="translate(553.983 465.591) rotate(-10)"><path class="d" d="M1.3,0h.011c.716,0,1.3.331,1.3.739V88.971c0,.408-.581.739-1.3.739H1.3c-.716,0-1.3-.331-1.3-.739V.739C0,.331.581,0,1.3,0Z" transform="translate(83.512 0)"/><path class="e" d="M83.512,0,0,65.392H83.512V0" transform="translate(0 2.213)"/><path class="f" d="M61.259,0,0,47.413H61.259V0" transform="translate(17.69 14.321)"/><path class="g" d="M51.169,0,0,37.839H51.169V0" transform="translate(25.235 20.756)"/><g transform="translate(32.955 42.019)"><path class="h" d="M.467,13.311C2.8,15.979,6.209,17.3,9.644,15.976a8.954,8.954,0,0,0,4.113-3.32c1.565-2.189,3.2-6.245,6.685-4.432C23.292,9.708,24.8,13.8,28.677,11.5A6.551,6.551,0,0,0,31.21,8.319c.65-1.567.806-3,2.319-4,1.9-1.251,4.267-.738,6.361-.374,2.259.393,3.23-3.066.954-3.462C37.45-.105,33.81-.564,30.9,1.667A8,8,0,0,0,28.2,5.9c-1.325,3.814-3.553.791-5.551-.5a7.147,7.147,0,0,0-7.823.025,11.208,11.208,0,0,0-3.065,3.619c-2.13,3.363-5.481,5.477-8.758,1.73C1.482,9.03-1.049,11.578.467,13.311Z"/></g><g transform="translate(43.756 46.058)"><circle class="e" cx="3.938" cy="3.938" r="3.938"/><circle class="i" cx="3.047" cy="3.047" r="3.047" transform="translate(0.891 0.891)"/></g><g transform="translate(52.82 39.073)"><g transform="translate(0 0)"><circle class="e" cx="3.938" cy="3.938" r="3.938"/></g><circle class="i" cx="3.047" cy="3.047" r="3.047" transform="translate(0.891 0.891)"/></g><g transform="translate(61.884 32.088)"><circle class="e" cx="3.938" cy="3.938" r="3.938"/><circle class="i" cx="3.047" cy="3.047" r="3.047" transform="translate(0.891 0.891)"/></g></g></g></svg>