<svg xmlns="http://www.w3.org/2000/svg" width="248.92" height="225.597" viewBox="0 0 248.92 225.597"><defs><style>.a,.d,.f{fill:#fff;}.a,.c,.d,.e,.f{stroke:#1a1311;stroke-linecap:round;}.a,.e,.f{stroke-linejoin:round;}.a,.c,.d{stroke-width:7px;}.b{fill:#1a1311;}.c,.e{fill:none;}.c,.d{stroke-miterlimit:10;}.e,.f{stroke-width:6px;}</style></defs><g transform="translate(244.816 184.926) rotate(169)"><path class="a" d="M181.864,60.091a89.92,89.92,0,0,0-10.146-17.773C149.725,12.448,110.963.732,76.79.025a112.861,112.861,0,0,0-46.97,9.156A123.767,123.767,0,0,0,10.091,19.665C6.446,22.076,3.538,25.624,0,28.224c6.345-4.663,21.723-5.19,29.064-3.907A34.512,34.512,0,0,1,52.35,40.476c13.1,21.809,5.508,47.1,5.08,71.5-.154,8.718.609,17.324,3.554,25.616,9.862,27.766,35.382,46.615,63.137,46.615,52.86,0,74.894-49.888,65.336-97.605" transform="translate(0 0)"/><ellipse class="b" cx="6.026" cy="6.026" rx="6.026" ry="6.026" transform="translate(150.756 120.571)"/><ellipse class="b" cx="6.026" cy="6.026" rx="6.026" ry="6.026" transform="translate(104.285 120.571)"/><line class="c" x1="21.496" transform="translate(123.468 104.973)"/><path class="d" d="M7.594,34.65c8.022,5.715,19.583,2.076,30.287-11.633,14.909-19.1,6.351-27.2-3.315-20.927-7.8,5.059-9.882,12.626-17.482,16C10.831,20.867,2.749,15.714,0,8.14" transform="translate(181.864 51.951)"/><path class="c" d="M0,25.366s18.121,22.385,36.242,0S43.7-2.348,36.242.85c-7.554,3.238-9.881,12.627-17.482,16C12.508,19.627,7.294,14.063,3.2,9.733" transform="translate(100.357 45.471)"/><path class="e" d="M110.006,12.271H6.258S4,10.657,0,0H115.42S114.785,3.812,110.006,12.271Z" transform="translate(66.561 146.532)"/><path class="f" d="M23.927,41.443,47.854,0H0Z" transform="translate(100.137 158.802)"/></g></svg>