<svg xmlns="http://www.w3.org/2000/svg" width="257.069" height="226.254" viewBox="0 0 257.069 226.254"><defs><style>.a,.d,.f{fill:#fff;}.a,.c,.d,.e,.f{stroke:#1a1311;stroke-linecap:round;}.a,.e,.f{stroke-linejoin:round;}.a,.c,.d{stroke-width:7px;}.b{fill:#1a1311;}.c,.e{fill:none;}.c,.d{stroke-miterlimit:10;}.e,.f{stroke-width:6px;}</style></defs><g transform="translate(3.5 3)"><path class="a" d="M373.913,637.833a98.588,98.588,0,0,1-11.161,19.5c-24.195,32.772-66.836,45.627-104.431,46.4a124.447,124.447,0,0,1-51.672-10.046,136.286,136.286,0,0,1-21.7-11.5c-4.01-2.644-7.209-6.538-11.1-9.39,6.981,5.117,23.9,5.694,31.973,4.286a37.967,37.967,0,0,0,25.617-17.729c14.409-23.928,6.059-51.673,5.589-78.448-.169-9.566.67-19.007,3.91-28.106,10.849-30.465,38.924-51.146,69.457-51.146,58.151,0,82.391,54.736,71.876,107.091" transform="translate(-173.845 -484.011)"/><ellipse class="b" cx="6.629" cy="6.629" rx="6.629" ry="6.629" transform="translate(165.42 74.197)"/><ellipse class="b" cx="6.629" cy="6.629" rx="6.629" ry="6.629" transform="translate(114.429 74.197)"/><line class="c" x1="23.648" transform="translate(135.462 104.554)"/><path class="d" d="M148.259,593.644c8.825-6.287,21.544-2.283,33.319,12.8,16.4,21.008,6.987,29.923-3.647,23.022-8.578-5.565-10.871-13.89-19.232-17.6-6.879-3.055-15.77,2.614-18.794,10.946" transform="translate(59.553 -468.99)"/><path class="c" d="M216.109,609.623s19.935-24.625,39.869,0,8.208,30.489,0,26.97c-8.31-3.562-10.87-13.891-19.232-17.6-6.878-3.053-12.613,3.068-17.119,7.831" transform="translate(-106.043 -467.65)"/><path class="e" d="M303.914,525.488H189.781s-2.488,1.775-6.885,13.5H309.87S309.171,534.794,303.914,525.488Z" transform="translate(-110.034 -480.015)"/><path class="f" d="M241.105,486.609,267.428,532.2H214.783Z" transform="translate(-104.962 -486.609)"/></g></svg>