<svg xmlns="http://www.w3.org/2000/svg" width="244.215" height="246.451" viewBox="0 0 244.215 246.451"><defs><style>.a,.f{fill:#fff;stroke-linejoin:round;}.a,.c,.d,.e,.f,.g{stroke:#231815;stroke-linecap:round;}.a,.g{stroke-width:6px;}.b{fill:#231815;}.c,.e,.g{fill:none;}.c,.d,.e,.g{stroke-miterlimit:10;}.c,.f{stroke-width:5px;}.d{fill:#cb192a;stroke-width:4px;}.e{stroke-width:3px;}</style></defs><g transform="matrix(0.891, -0.454, 0.454, 0.891, -638.497, 61.967)"><path class="a" d="M569.366,431.716c17.229,51.594,80.964,68.711,128.3,50.742,13.81-5.243,28.484-13.479,34.822-27.516a46.867,46.867,0,0,0,4.327-19.036c-.018-3.389-1.106-12.436-6.415-7.867-3.8,3.269-5.006,11.469-8.043,15.657-13.738,18.944-31.918,1.011-34.787-15.628-2.851-16.538,1.163-33.318,1.454-49.9.143-8.179-.571-16.252-3.334-24.033-9.252-26.048-33.194-43.731-59.232-43.731-37.742,0-61.378,30.428-63.206,66.259C562.334,394.642,563.524,414.222,569.366,431.716Z"/><circle class="b" cx="5.654" cy="5.654" r="5.654" transform="translate(595.785 358.8)"/><circle class="b" cx="5.654" cy="5.654" r="5.654" transform="translate(645.035 358.8)"/><line class="c" x2="20.167" transform="translate(607.658 394.352)"/><path class="d" d="M628.825,394.352c3.75-2,9.718-12.545,2.142-18-3.34-2.406-8.936-1.524-9.749,3.041-.377,2.117.82,4.164.688,6.309-.149,2.417-1.444,6.99-3.164,8.654Z"/><path class="e" d="M624.075,394.352s3.5-5.806,3.75-9.653"/><path class="f" d="M577.256,334.241h97.331s2.122,1.074,5.87,8.167H572.176S572.773,339.871,577.256,334.241Z"/><path class="f" d="M626.511,295.361l-22.447,38.88h44.894Z"/><path class="g" d="M604.245,416.735l5.148,9.205c2.686,4.8,2.079,10.256-1.355,12.176h0c-3.435,1.921-8.4-.417-11.083-5.221l-5.147-9.2"/><path class="g" d="M646.249,414.914l-5.228,9.16c-2.728,4.781-2.169,10.237,1.249,12.187h0c3.418,1.951,8.4-.343,11.128-5.124l5.227-9.16"/></g></svg>