<svg xmlns="http://www.w3.org/2000/svg" width="11.643" height="16.3" viewBox="0 0 11.643 16.3"><defs><style>.a{fill:#ee553b;}</style></defs><g transform="translate(-86.85)"><g transform="translate(86.85)"><path class="a" d="M91.248,15.713a.587.587,0,0,1-.586.587H87.436a.587.587,0,0,1-.586-.587V.587A.587.587,0,0,1,87.436,0h3.225a.587.587,0,0,1,.586.587V15.713Z" transform="translate(-86.85)"/><path class="a" d="M308.376,15.713a.587.587,0,0,1-.586.587h-3.225a.587.587,0,0,1-.586-.587V.587A.587.587,0,0,1,304.564,0h3.225a.587.587,0,0,1,.586.587Z" transform="translate(-296.733)"/></g></g></svg>