<svg xmlns="http://www.w3.org/2000/svg" width="30" height="42" viewBox="0 0 30 42"><defs><style>.a{fill:#ee553b;}</style></defs><g transform="translate(-86.85)"><g transform="translate(86.85)"><path class="a" d="M98.183,40.486A1.512,1.512,0,0,1,96.672,42H88.361a1.512,1.512,0,0,1-1.511-1.514V1.514A1.512,1.512,0,0,1,88.361,0h8.311a1.512,1.512,0,0,1,1.511,1.514V40.486Z" transform="translate(-86.85)"/><path class="a" d="M315.311,40.486A1.512,1.512,0,0,1,313.8,42h-8.311a1.512,1.512,0,0,1-1.511-1.514V1.514A1.512,1.512,0,0,1,305.489,0H313.8a1.512,1.512,0,0,1,1.511,1.514Z" transform="translate(-285.311)"/></g></g></svg>